<?xml version="1.0" encoding="UTF-8"?>
<!DOCTYPE svg PUBLIC "-//W3C//DTD SVG 1.1//EN" "http://www.w3.org/Graphics/SVG/1.1/DTD/svg11.dtd">
<!-- Creator: CorelDRAW 2017 -->
<svg xmlns="http://www.w3.org/2000/svg" xml:space="preserve" width="1053px" height="465px" version="1.1" style="shape-rendering:geometricPrecision; text-rendering:geometricPrecision; image-rendering:optimizeQuality; fill-rule:evenodd; clip-rule:evenodd"
viewBox="0 0 60.77 26.81"
 xmlns:xlink="http://www.w3.org/1999/xlink">
 <defs>
  <style type="text/css">
   <![CDATA[
    .fil1 {fill:none}
    .fil3 {fill:#99FF99}
    .fil0 {fill:white}
    .fil2 {fill:#4D8120;fill-rule:nonzero}
   ]]>
  </style>
 </defs>
 <g id="Слой_x0020_1">
  <metadata id="CorelCorpID_0Corel-Layer"/>
  <rect class="fil0" y="0.04" width="60.77" height="26.78"/>
  <rect class="fil1" width="60.77" height="26.81"/>
  <g id="_2227155403504">
   <path class="fil2" d="M35.01 16.92c0.15,0 0.28,0.03 0.39,0.08 0.11,0.05 0.19,0.12 0.25,0.21 0.06,0.09 0.09,0.2 0.09,0.32 0,0.13 -0.03,0.24 -0.09,0.33 -0.06,0.09 -0.14,0.16 -0.25,0.21 -0.11,0.05 -0.24,0.07 -0.39,0.07l-0.34 0 0 0.47 -0.39 0 0 -1.69 0.73 0zm-0.02 0.91c0.11,0 0.2,-0.03 0.26,-0.08 0.06,-0.05 0.1,-0.12 0.1,-0.22 0,-0.09 -0.04,-0.16 -0.1,-0.21 -0.06,-0.05 -0.15,-0.08 -0.26,-0.08l-0.32 0 0 0.59 0.32 0z"/>
   <path id="1" class="fil2" d="M37.22 17.96c0,0.01 0,0.04 0,0.11l-0.98 0c0.01,0.08 0.06,0.14 0.12,0.19 0.07,0.04 0.15,0.06 0.25,0.06 0.06,0 0.12,-0.01 0.18,-0.03 0.05,-0.02 0.1,-0.05 0.14,-0.09l0.2 0.22c-0.12,0.14 -0.3,0.21 -0.53,0.21 -0.15,0 -0.28,-0.03 -0.39,-0.09 -0.11,-0.06 -0.2,-0.14 -0.26,-0.24 -0.06,-0.1 -0.09,-0.21 -0.09,-0.34 0,-0.13 0.03,-0.24 0.09,-0.34 0.06,-0.1 0.14,-0.18 0.25,-0.24 0.1,-0.06 0.22,-0.09 0.35,-0.09 0.13,0 0.24,0.03 0.34,0.09 0.11,0.05 0.19,0.13 0.24,0.23 0.06,0.1 0.09,0.22 0.09,0.35zm-0.67 -0.38c-0.08,0 -0.15,0.02 -0.21,0.07 -0.06,0.05 -0.1,0.11 -0.11,0.2l0.64 0c-0.01,-0.09 -0.05,-0.15 -0.11,-0.2 -0.05,-0.05 -0.12,-0.07 -0.21,-0.07z"/>
   <path id="2" class="fil2" d="M38.26 17.4c0.12,0 0.23,0.03 0.32,0.08 0.1,0.05 0.17,0.12 0.22,0.21 0.05,0.09 0.07,0.2 0.07,0.32 0,0.12 -0.03,0.23 -0.09,0.33 -0.06,0.09 -0.14,0.16 -0.25,0.22 -0.1,0.05 -0.23,0.08 -0.36,0.08 -0.23,0 -0.41,-0.08 -0.54,-0.22 -0.12,-0.15 -0.19,-0.36 -0.19,-0.64 0,-0.26 0.06,-0.47 0.17,-0.62 0.11,-0.16 0.29,-0.26 0.52,-0.31l0.62 -0.12 0.05 0.32 -0.55 0.11c-0.14,0.03 -0.25,0.08 -0.32,0.15 -0.08,0.06 -0.12,0.16 -0.13,0.28 0.06,-0.06 0.12,-0.11 0.2,-0.14 0.08,-0.03 0.17,-0.05 0.26,-0.05zm-0.09 0.94c0.1,0 0.17,-0.03 0.23,-0.09 0.06,-0.06 0.09,-0.14 0.09,-0.24 0,-0.1 -0.03,-0.17 -0.09,-0.23 -0.06,-0.06 -0.13,-0.09 -0.23,-0.09 -0.1,0 -0.18,0.03 -0.24,0.09 -0.06,0.06 -0.09,0.13 -0.09,0.23 0,0.1 0.04,0.18 0.1,0.24 0.06,0.06 0.13,0.09 0.23,0.09z"/>
   <path id="3" class="fil2" d="M39.89 17.29c0.12,0 0.23,0.03 0.33,0.09 0.1,0.05 0.17,0.13 0.23,0.23 0.06,0.1 0.08,0.22 0.08,0.35 0,0.13 -0.02,0.25 -0.08,0.35 -0.06,0.1 -0.13,0.18 -0.23,0.23 -0.1,0.06 -0.21,0.09 -0.33,0.09 -0.16,0 -0.29,-0.06 -0.39,-0.16l0 0.6 -0.37 0 0 -1.76 0.35 0 0 0.15c0.1,-0.11 0.23,-0.17 0.41,-0.17zm-0.06 1.03c0.09,0 0.17,-0.03 0.23,-0.1 0.06,-0.06 0.09,-0.15 0.09,-0.26 0,-0.11 -0.03,-0.2 -0.09,-0.26 -0.06,-0.07 -0.14,-0.1 -0.23,-0.1 -0.1,0 -0.18,0.03 -0.24,0.1 -0.06,0.06 -0.09,0.15 -0.09,0.26 0,0.11 0.03,0.2 0.09,0.26 0.06,0.07 0.14,0.1 0.24,0.1z"/>
   <path id="4" class="fil2" d="M42.05 17.96c0,0.01 0,0.04 0,0.11l-0.98 0c0.02,0.08 0.06,0.14 0.12,0.19 0.07,0.04 0.15,0.06 0.25,0.06 0.07,0 0.13,-0.01 0.18,-0.03 0.05,-0.02 0.1,-0.05 0.14,-0.09l0.2 0.22c-0.12,0.14 -0.3,0.21 -0.53,0.21 -0.15,0 -0.28,-0.03 -0.39,-0.09 -0.11,-0.06 -0.2,-0.14 -0.26,-0.24 -0.06,-0.1 -0.09,-0.21 -0.09,-0.34 0,-0.13 0.03,-0.24 0.09,-0.34 0.06,-0.1 0.14,-0.18 0.25,-0.24 0.1,-0.06 0.22,-0.09 0.35,-0.09 0.13,0 0.24,0.03 0.34,0.09 0.11,0.05 0.19,0.13 0.25,0.23 0.05,0.1 0.08,0.22 0.08,0.35zm-0.67 -0.38c-0.08,0 -0.15,0.02 -0.21,0.07 -0.06,0.05 -0.09,0.11 -0.11,0.2l0.64 0c-0.01,-0.09 -0.05,-0.15 -0.11,-0.2 -0.05,-0.05 -0.12,-0.07 -0.21,-0.07z"/>
   <polygon id="5" class="fil2" points="42.34,17.31 42.71,17.31 42.71,17.82 43.28,17.82 43.28,17.31 43.65,17.31 43.65,18.61 43.28,18.61 43.28,18.12 42.71,18.12 42.71,18.61 42.34,18.61 "/>
   <path id="6" class="fil2" d="M45.46 18.3l0 0.59 -0.35 0 0 -0.28 -0.91 0 0 0.28 -0.35 0 0 -0.59 0.06 0c0.08,0 0.13,-0.05 0.16,-0.14 0.03,-0.1 0.05,-0.23 0.06,-0.4l0.02 -0.45 1.12 0 0 0.99 0.19 0zm-0.99 -0.51c-0.01,0.13 -0.02,0.24 -0.03,0.32 -0.02,0.08 -0.04,0.15 -0.09,0.19l0.55 0 0 -0.68 -0.42 0 -0.01 0.17z"/>
   <polygon id="7" class="fil2" points="45.7,17.31 46.07,17.31 46.07,18.08 46.7,17.31 47.04,17.31 47.04,18.61 46.67,18.61 46.67,17.84 46.04,18.61 45.7,18.61 "/>
   <polygon id="8" class="fil2" points="47.4,17.31 47.77,17.31 47.77,17.82 48.34,17.82 48.34,17.31 48.71,17.31 48.71,18.61 48.34,18.61 48.34,18.12 47.77,18.12 47.77,18.61 47.4,18.61 "/>
   <polygon id="9" class="fil2" points="50.11,17.62 49.44,17.62 49.44,18.61 49.07,18.61 49.07,17.31 50.11,17.31 "/>
   <polygon class="fil3" points="38.47,9.27 39.96,7.78 42.19,10.01 44.43,7.78 45.91,9.27 43.68,11.5 45.91,13.73 44.43,15.22 42.19,12.99 39.96,15.22 38.47,13.73 40.7,11.5 "/>
  </g>
 </g>
</svg>
