<?xml version="1.0" encoding="UTF-8"?>
<!DOCTYPE svg PUBLIC "-//W3C//DTD SVG 1.1//EN" "http://www.w3.org/Graphics/SVG/1.1/DTD/svg11.dtd">
<!-- Creator: CorelDRAW 2017 -->
<svg xmlns="http://www.w3.org/2000/svg" xml:space="preserve" width="1053px" height="465px" version="1.1" style="shape-rendering:geometricPrecision; text-rendering:geometricPrecision; image-rendering:optimizeQuality; fill-rule:evenodd; clip-rule:evenodd"
viewBox="0 0 55.5 24.49"
 xmlns:xlink="http://www.w3.org/1999/xlink">
 <defs>
  <style type="text/css">
   <![CDATA[
    .fil0 {fill:none}
    .fil1 {fill:#91C9FF}
    .fil2 {fill:#013A6F;fill-rule:nonzero}
    .fil3 {fill:#333333;fill-rule:nonzero}
   ]]>
  </style>
 </defs>
 <g id="Слой_x0020_1">
  <metadata id="CorelCorpID_0Corel-Layer"/>
  <rect class="fil0" width="55.5" height="24.49"/>
  <g id="_2227184947440">
   <path class="fil1" d="M16.96 3.38c1.87,0 3.39,1.52 3.39,3.39 0,1.88 -1.52,3.4 -3.39,3.4 -1.88,0 -3.4,-1.52 -3.4,-3.4 0,-1.87 1.52,-3.39 3.4,-3.39zm-0.89 1.86l0 3.07 2.66 -1.54 -2.66 -1.53z"/>
   <path class="fil2" d="M10.93 12.41c0.08,0.02 0.14,0.06 0.18,0.12 0.05,0.05 0.07,0.12 0.07,0.2 0,0.11 -0.05,0.21 -0.13,0.27 -0.09,0.07 -0.22,0.1 -0.38,0.1l-0.66 0 0 -1.32 0.62 0c0.15,0 0.27,0.03 0.36,0.09 0.08,0.06 0.13,0.14 0.13,0.25 0,0.07 -0.02,0.12 -0.05,0.17 -0.04,0.05 -0.08,0.09 -0.14,0.12zm-0.61 -0.08l0.28 0c0.07,0 0.12,-0.02 0.15,-0.04 0.04,-0.03 0.06,-0.07 0.06,-0.12 0,-0.06 -0.02,-0.1 -0.06,-0.12 -0.03,-0.03 -0.08,-0.04 -0.15,-0.04l-0.28 0 0 0.32zm0.33 0.54c0.15,0 0.22,-0.05 0.22,-0.17 0,-0.11 -0.07,-0.16 -0.22,-0.16l-0.33 0 0 0.33 0.33 0z"/>
   <polygon id="1" class="fil2" points="11.4,12.08 11.69,12.08 11.69,12.69 12.18,12.08 12.45,12.08 12.45,13.1 12.16,13.1 12.16,12.5 11.67,13.1 11.4,13.1 "/>
   <path id="2" class="fil2" d="M13.87 12.86l0 0.46 -0.27 0 0 -0.22 -0.71 0 0 0.22 -0.28 0 0 -0.46 0.05 0c0.06,0 0.1,-0.04 0.13,-0.11 0.02,-0.08 0.04,-0.18 0.04,-0.31l0.01 -0.36 0.89 0 0 0.78 0.14 0zm-0.77 -0.4c-0.01,0.1 -0.01,0.18 -0.03,0.25 -0.01,0.06 -0.03,0.11 -0.06,0.15l0.43 0 0 -0.53 -0.34 0 0 0.13z"/>
   <path id="3" class="fil2" d="M15.05 12.6c0,0 -0.01,0.03 -0.01,0.08l-0.77 0c0.02,0.06 0.05,0.11 0.1,0.14 0.05,0.04 0.12,0.06 0.19,0.06 0.06,0 0.1,-0.01 0.14,-0.02 0.04,-0.02 0.08,-0.05 0.12,-0.08l0.15 0.17c-0.09,0.11 -0.23,0.16 -0.41,0.16 -0.12,0 -0.22,-0.02 -0.31,-0.06 -0.09,-0.05 -0.15,-0.11 -0.2,-0.19 -0.05,-0.08 -0.07,-0.17 -0.07,-0.27 0,-0.1 0.02,-0.19 0.07,-0.27 0.04,-0.08 0.11,-0.14 0.19,-0.18 0.08,-0.05 0.18,-0.07 0.28,-0.07 0.1,0 0.19,0.02 0.27,0.06 0.08,0.05 0.14,0.11 0.19,0.19 0.04,0.08 0.07,0.17 0.07,0.28zm-0.53 -0.31c-0.07,0 -0.12,0.02 -0.17,0.06 -0.04,0.04 -0.07,0.09 -0.08,0.15l0.5 0c-0.01,-0.06 -0.04,-0.11 -0.08,-0.15 -0.05,-0.04 -0.1,-0.06 -0.17,-0.06z"/>
   <path id="4" class="fil2" d="M15.75 13.11c-0.11,0 -0.2,-0.02 -0.29,-0.06 -0.08,-0.05 -0.15,-0.11 -0.2,-0.19 -0.05,-0.08 -0.07,-0.17 -0.07,-0.27 0,-0.1 0.02,-0.19 0.07,-0.27 0.05,-0.08 0.12,-0.14 0.2,-0.18 0.09,-0.05 0.18,-0.07 0.29,-0.07 0.11,0 0.2,0.02 0.29,0.07 0.08,0.04 0.15,0.1 0.19,0.18 0.05,0.08 0.08,0.17 0.08,0.27 0,0.1 -0.03,0.19 -0.08,0.27 -0.04,0.08 -0.11,0.14 -0.19,0.19 -0.09,0.04 -0.18,0.06 -0.29,0.06zm0 -0.24c0.07,0 0.14,-0.02 0.18,-0.07 0.05,-0.05 0.08,-0.12 0.08,-0.21 0,-0.08 -0.03,-0.15 -0.08,-0.2 -0.04,-0.05 -0.11,-0.08 -0.18,-0.08 -0.08,0 -0.14,0.03 -0.19,0.08 -0.05,0.05 -0.07,0.12 -0.07,0.2 0,0.09 0.02,0.16 0.07,0.21 0.05,0.05 0.11,0.07 0.19,0.07z"/>
   <path id="5" class="fil2" d="M17.1 12.07c0.1,0 0.19,0.02 0.26,0.06 0.08,0.05 0.14,0.11 0.18,0.19 0.05,0.08 0.07,0.17 0.07,0.27 0,0.11 -0.02,0.2 -0.07,0.28 -0.04,0.08 -0.1,0.14 -0.18,0.18 -0.07,0.04 -0.16,0.06 -0.26,0.06 -0.12,0 -0.23,-0.04 -0.3,-0.12l0 0.48 -0.29 0 0 -1.39 0.28 0 0 0.12c0.07,-0.09 0.18,-0.13 0.31,-0.13zm-0.05 0.8c0.08,0 0.14,-0.02 0.19,-0.07 0.05,-0.05 0.07,-0.12 0.07,-0.21 0,-0.08 -0.02,-0.15 -0.07,-0.2 -0.05,-0.05 -0.11,-0.08 -0.19,-0.08 -0.07,0 -0.13,0.03 -0.18,0.08 -0.05,0.05 -0.07,0.12 -0.07,0.2 0,0.09 0.02,0.16 0.07,0.21 0.05,0.05 0.11,0.07 0.18,0.07z"/>
   <path id="6" class="fil2" d="M18.29 13.11c-0.11,0 -0.2,-0.02 -0.29,-0.06 -0.08,-0.05 -0.15,-0.11 -0.2,-0.19 -0.04,-0.08 -0.07,-0.17 -0.07,-0.27 0,-0.1 0.03,-0.19 0.07,-0.27 0.05,-0.08 0.12,-0.14 0.2,-0.18 0.09,-0.05 0.18,-0.07 0.29,-0.07 0.11,0 0.2,0.02 0.29,0.07 0.08,0.04 0.15,0.1 0.2,0.18 0.04,0.08 0.07,0.17 0.07,0.27 0,0.1 -0.03,0.19 -0.07,0.27 -0.05,0.08 -0.12,0.14 -0.2,0.19 -0.09,0.04 -0.18,0.06 -0.29,0.06zm0 -0.24c0.08,0 0.14,-0.02 0.19,-0.07 0.05,-0.05 0.07,-0.12 0.07,-0.21 0,-0.08 -0.02,-0.15 -0.07,-0.2 -0.05,-0.05 -0.11,-0.08 -0.19,-0.08 -0.07,0 -0.14,0.03 -0.19,0.08 -0.04,0.05 -0.07,0.12 -0.07,0.2 0,0.09 0.03,0.16 0.07,0.21 0.05,0.05 0.12,0.07 0.19,0.07z"/>
   <path id="7" class="fil2" d="M20.01 12.08l0 1.02 -0.3 0 0 -0.77 -0.32 0 -0.01 0.18c0,0.13 -0.01,0.24 -0.03,0.33 -0.02,0.09 -0.06,0.15 -0.1,0.2 -0.05,0.06 -0.11,0.08 -0.19,0.08 -0.04,0 -0.09,-0.01 -0.15,-0.02l0.01 -0.24c0.02,0 0.04,0 0.05,0 0.04,0 0.07,-0.02 0.09,-0.05 0.03,-0.03 0.04,-0.07 0.05,-0.12 0.01,-0.05 0.01,-0.12 0.02,-0.2l0.01 -0.41 0.87 0z"/>
   <polygon id="8" class="fil2" points="20.29,12.08 20.58,12.08 20.58,12.69 21.08,12.08 21.35,12.08 21.35,13.1 21.06,13.1 21.06,12.5 20.56,13.1 20.29,13.1 "/>
   <polygon id="9" class="fil2" points="22.08,12.71 21.93,12.71 21.93,13.1 21.63,13.1 21.63,12.08 21.93,12.08 21.93,12.48 22.08,12.48 22.36,12.08 22.67,12.08 22.32,12.57 22.7,13.1 22.35,13.1 "/>
   <polygon id="10" class="fil2" points="22.84,12.08 23.14,12.08 23.14,12.69 23.63,12.08 23.9,12.08 23.9,13.1 23.61,13.1 23.61,12.5 23.11,13.1 22.84,13.1 "/>
   <polygon class="fil3" points="6.86,14.97 6.86,15.89 6.73,15.89 6.73,15.08 6.2,15.08 6.2,15.89 6.07,15.89 6.07,14.97 "/>
   <path id="1" class="fil3" d="M7.5 15.18c0.07,0 0.13,0.02 0.18,0.05 0.05,0.03 0.1,0.07 0.13,0.12 0.03,0.06 0.04,0.12 0.04,0.19 0,0.07 -0.01,0.13 -0.04,0.18 -0.03,0.06 -0.08,0.1 -0.13,0.13 -0.05,0.03 -0.11,0.05 -0.18,0.05 -0.05,0 -0.1,-0.01 -0.14,-0.03 -0.04,-0.02 -0.08,-0.05 -0.1,-0.09l0 0.36 -0.13 0 0 -0.95 0.12 0 0 0.11c0.03,-0.04 0.06,-0.07 0.11,-0.09 0.04,-0.02 0.09,-0.03 0.14,-0.03zm-0.01 0.6c0.04,0 0.08,-0.01 0.12,-0.03 0.04,-0.02 0.06,-0.05 0.08,-0.08 0.02,-0.04 0.03,-0.08 0.03,-0.13 0,-0.05 -0.01,-0.09 -0.03,-0.13 -0.02,-0.04 -0.04,-0.07 -0.08,-0.09 -0.04,-0.02 -0.08,-0.03 -0.12,-0.03 -0.04,0 -0.08,0.01 -0.12,0.03 -0.04,0.03 -0.06,0.05 -0.08,0.09 -0.03,0.04 -0.04,0.08 -0.04,0.13 0,0.05 0.01,0.09 0.03,0.13 0.02,0.03 0.05,0.06 0.09,0.08 0.04,0.02 0.08,0.03 0.12,0.03z"/>
   <path id="2" class="fil3" d="M8.33 15.9c-0.06,0 -0.13,-0.02 -0.18,-0.05 -0.06,-0.03 -0.1,-0.07 -0.13,-0.13 -0.03,-0.05 -0.05,-0.11 -0.05,-0.18 0,-0.07 0.02,-0.13 0.05,-0.19 0.03,-0.05 0.07,-0.09 0.13,-0.12 0.05,-0.03 0.12,-0.05 0.18,-0.05 0.07,0 0.14,0.02 0.19,0.05 0.06,0.03 0.1,0.07 0.13,0.12 0.03,0.06 0.05,0.12 0.05,0.19 0,0.07 -0.02,0.13 -0.05,0.18 -0.03,0.06 -0.07,0.1 -0.13,0.13 -0.05,0.03 -0.12,0.05 -0.19,0.05zm0 -0.12c0.05,0 0.09,-0.01 0.13,-0.03 0.03,-0.02 0.06,-0.05 0.08,-0.08 0.02,-0.04 0.03,-0.08 0.03,-0.13 0,-0.05 -0.01,-0.09 -0.03,-0.13 -0.02,-0.04 -0.05,-0.07 -0.08,-0.09 -0.04,-0.02 -0.08,-0.03 -0.13,-0.03 -0.04,0 -0.08,0.01 -0.12,0.03 -0.03,0.02 -0.06,0.05 -0.08,0.09 -0.02,0.04 -0.03,0.08 -0.03,0.13 0,0.05 0.01,0.09 0.03,0.13 0.02,0.03 0.05,0.06 0.08,0.08 0.04,0.02 0.08,0.03 0.12,0.03z"/>
   <path id="3" class="fil3" d="M9.76 15.54c0,0.11 -0.03,0.19 -0.11,0.25 -0.07,0.07 -0.17,0.1 -0.3,0.11l0 0.24 -0.13 0 0 -0.24c-0.13,-0.01 -0.23,-0.04 -0.3,-0.11 -0.07,-0.06 -0.11,-0.14 -0.11,-0.25 0,-0.11 0.04,-0.2 0.11,-0.26 0.07,-0.06 0.17,-0.09 0.3,-0.1l0 -0.27 0.13 0 0 0.27c0.13,0.01 0.23,0.04 0.3,0.11 0.08,0.06 0.11,0.14 0.11,0.25zm-0.82 0c0,0.07 0.02,0.13 0.07,0.17 0.05,0.04 0.12,0.07 0.21,0.07l0 -0.49c-0.09,0.01 -0.16,0.03 -0.21,0.08 -0.05,0.04 -0.07,0.09 -0.07,0.17zm0.41 0.25c0.19,-0.02 0.29,-0.1 0.29,-0.25 0,-0.08 -0.03,-0.13 -0.08,-0.17 -0.04,-0.05 -0.12,-0.07 -0.21,-0.08l0 0.5z"/>
   <path id="4" class="fil3" d="M10.57 15.54c0,0.01 0,0.02 0,0.04l-0.57 0c0.01,0.06 0.04,0.11 0.08,0.15 0.05,0.04 0.11,0.05 0.17,0.05 0.09,0 0.16,-0.02 0.21,-0.08l0.07 0.08c-0.04,0.04 -0.07,0.07 -0.12,0.09 -0.05,0.02 -0.1,0.03 -0.16,0.03 -0.07,0 -0.14,-0.02 -0.2,-0.05 -0.05,-0.03 -0.1,-0.07 -0.13,-0.13 -0.03,-0.05 -0.04,-0.11 -0.04,-0.18 0,-0.07 0.01,-0.13 0.04,-0.18 0.03,-0.06 0.07,-0.1 0.13,-0.13 0.05,-0.03 0.11,-0.05 0.18,-0.05 0.06,0 0.12,0.02 0.17,0.05 0.06,0.03 0.1,0.07 0.13,0.13 0.03,0.05 0.04,0.11 0.04,0.18zm-0.34 -0.25c-0.06,0 -0.12,0.02 -0.16,0.05 -0.04,0.04 -0.06,0.09 -0.07,0.15l0.45 0c-0.01,-0.06 -0.03,-0.11 -0.07,-0.14 -0.04,-0.04 -0.09,-0.06 -0.15,-0.06z"/>
   <path id="5" class="fil3" d="M11.07 15.9c-0.07,0 -0.13,-0.02 -0.19,-0.05 -0.05,-0.03 -0.1,-0.07 -0.13,-0.13 -0.03,-0.05 -0.05,-0.11 -0.05,-0.18 0,-0.07 0.02,-0.13 0.05,-0.19 0.03,-0.05 0.08,-0.09 0.13,-0.12 0.06,-0.03 0.12,-0.05 0.19,-0.05 0.06,0 0.12,0.02 0.17,0.04 0.05,0.03 0.09,0.06 0.12,0.11l-0.1 0.06c-0.02,-0.03 -0.05,-0.05 -0.08,-0.07 -0.03,-0.02 -0.07,-0.03 -0.11,-0.03 -0.05,0 -0.09,0.01 -0.12,0.03 -0.04,0.02 -0.07,0.05 -0.09,0.09 -0.02,0.04 -0.03,0.08 -0.03,0.13 0,0.05 0.01,0.09 0.03,0.13 0.02,0.04 0.05,0.06 0.09,0.08 0.03,0.02 0.07,0.03 0.12,0.03 0.04,0 0.08,0 0.11,-0.02 0.03,-0.02 0.06,-0.04 0.08,-0.08l0.1 0.07c-0.03,0.04 -0.07,0.08 -0.12,0.11 -0.05,0.02 -0.11,0.04 -0.17,0.04z"/>
   <path id="6" class="fil3" d="M11.81 15.9c-0.07,0 -0.13,-0.02 -0.19,-0.05 -0.05,-0.03 -0.1,-0.07 -0.13,-0.13 -0.03,-0.05 -0.05,-0.11 -0.05,-0.18 0,-0.07 0.02,-0.13 0.05,-0.19 0.03,-0.05 0.08,-0.09 0.13,-0.12 0.06,-0.03 0.12,-0.05 0.19,-0.05 0.07,0 0.12,0.02 0.17,0.04 0.05,0.03 0.09,0.06 0.12,0.11l-0.1 0.06c-0.02,-0.03 -0.05,-0.05 -0.08,-0.07 -0.03,-0.02 -0.07,-0.03 -0.11,-0.03 -0.04,0 -0.08,0.01 -0.12,0.03 -0.04,0.02 -0.07,0.05 -0.09,0.09 -0.02,0.04 -0.03,0.08 -0.03,0.13 0,0.05 0.01,0.09 0.03,0.13 0.02,0.04 0.05,0.06 0.09,0.08 0.04,0.02 0.08,0.03 0.12,0.03 0.04,0 0.08,0 0.11,-0.02 0.03,-0.02 0.06,-0.04 0.08,-0.08l0.1 0.07c-0.03,0.04 -0.07,0.08 -0.12,0.11 -0.05,0.02 -0.1,0.04 -0.17,0.04z"/>
   <polygon id="7" class="fil3" points="12.26,15.19 12.39,15.19 12.39,15.7 12.82,15.19 12.93,15.19 12.93,15.89 12.8,15.89 12.8,15.38 12.38,15.89 12.26,15.89 "/>
   <path id="8" class="fil3" d="M13.47 15.9c-0.07,0 -0.13,-0.02 -0.18,-0.05 -0.06,-0.03 -0.1,-0.07 -0.13,-0.13 -0.03,-0.05 -0.05,-0.11 -0.05,-0.18 0,-0.07 0.02,-0.13 0.05,-0.19 0.03,-0.05 0.07,-0.09 0.13,-0.12 0.05,-0.03 0.11,-0.05 0.18,-0.05 0.07,0 0.14,0.02 0.19,0.05 0.06,0.03 0.1,0.07 0.13,0.12 0.03,0.06 0.05,0.12 0.05,0.19 0,0.07 -0.02,0.13 -0.05,0.18 -0.03,0.06 -0.07,0.1 -0.13,0.13 -0.05,0.03 -0.12,0.05 -0.19,0.05zm0 -0.12c0.05,0 0.09,-0.01 0.12,-0.03 0.04,-0.02 0.07,-0.05 0.09,-0.08 0.02,-0.04 0.03,-0.08 0.03,-0.13 0,-0.05 -0.01,-0.09 -0.03,-0.13 -0.02,-0.04 -0.05,-0.07 -0.09,-0.09 -0.03,-0.02 -0.07,-0.03 -0.12,-0.03 -0.04,0 -0.08,0.01 -0.12,0.03 -0.03,0.02 -0.06,0.05 -0.08,0.09 -0.02,0.04 -0.03,0.08 -0.03,0.13 0,0.05 0.01,0.09 0.03,0.13 0.02,0.03 0.05,0.06 0.08,0.08 0.04,0.02 0.08,0.03 0.12,0.03z"/>
   <polygon id="9" class="fil3" points="14.02,15.19 14.15,15.19 14.15,15.49 14.54,15.49 14.54,15.19 14.67,15.19 14.67,15.89 14.54,15.89 14.54,15.6 14.15,15.6 14.15,15.89 14.02,15.89 "/>
   <path id="10" class="fil3" d="M15.17 15.18c0.09,0 0.17,0.03 0.22,0.07 0.05,0.05 0.07,0.12 0.07,0.22l0 0.42 -0.12 0 0 -0.09c-0.02,0.03 -0.05,0.05 -0.09,0.07 -0.03,0.02 -0.08,0.03 -0.13,0.03 -0.08,0 -0.15,-0.02 -0.19,-0.06 -0.05,-0.04 -0.07,-0.09 -0.07,-0.15 0,-0.06 0.02,-0.11 0.06,-0.15 0.05,-0.04 0.12,-0.05 0.22,-0.05l0.2 0 0 -0.03c0,-0.05 -0.02,-0.1 -0.05,-0.12 -0.03,-0.03 -0.08,-0.05 -0.14,-0.05 -0.04,0 -0.08,0.01 -0.12,0.02 -0.04,0.02 -0.07,0.03 -0.1,0.06l-0.05 -0.1c0.03,-0.03 0.08,-0.05 0.13,-0.06 0.05,-0.02 0.1,-0.03 0.16,-0.03zm-0.03 0.62c0.04,0 0.09,-0.01 0.12,-0.03 0.04,-0.03 0.06,-0.06 0.08,-0.1l0 -0.09 -0.2 0c-0.1,0 -0.16,0.03 -0.16,0.1 0,0.04 0.02,0.07 0.04,0.09 0.03,0.02 0.07,0.03 0.12,0.03z"/>
   <path id="11" class="fil3" d="M16.29 15.19l0 0.7 -0.12 0 0 -0.59 -0.31 0 0 0.16c-0.01,0.09 -0.02,0.17 -0.03,0.23 -0.01,0.06 -0.03,0.11 -0.06,0.15 -0.03,0.04 -0.07,0.06 -0.12,0.06 -0.02,0 -0.04,-0.01 -0.07,-0.01l0 -0.11c0.02,0 0.03,0 0.04,0 0.03,0 0.06,-0.01 0.07,-0.04 0.02,-0.03 0.03,-0.07 0.04,-0.11 0,-0.04 0.01,-0.1 0.01,-0.18l0.02 -0.26 0.53 0z"/>
   <path id="12" class="fil3" d="M16.86 15.43c0.09,0 0.16,0.02 0.2,0.06 0.05,0.04 0.07,0.09 0.07,0.16 0,0.08 -0.02,0.14 -0.07,0.18 -0.05,0.04 -0.13,0.06 -0.22,0.06l-0.3 0 0 -0.7 0.12 0 0 0.24 0.2 0zm-0.03 0.36c0.06,0 0.1,-0.01 0.13,-0.03 0.03,-0.03 0.04,-0.06 0.04,-0.11 0,-0.04 -0.01,-0.08 -0.04,-0.1 -0.03,-0.02 -0.07,-0.03 -0.13,-0.03l-0.17 0 0 0.27 0.17 0z"/>
   <polygon id="13" class="fil3" points="17.29,15.19 17.42,15.19 17.42,15.49 17.82,15.49 17.82,15.19 17.94,15.19 17.94,15.89 17.82,15.89 17.82,15.6 17.42,15.6 17.42,15.89 17.29,15.89 "/>
   <path id="14" class="fil3" d="M18.44 15.18c0.1,0 0.17,0.03 0.22,0.07 0.05,0.05 0.08,0.12 0.08,0.22l0 0.42 -0.12 0 0 -0.09c-0.02,0.03 -0.05,0.05 -0.09,0.07 -0.04,0.02 -0.09,0.03 -0.14,0.03 -0.08,0 -0.14,-0.02 -0.19,-0.06 -0.04,-0.04 -0.07,-0.09 -0.07,-0.15 0,-0.06 0.02,-0.11 0.07,-0.15 0.04,-0.04 0.11,-0.05 0.21,-0.05l0.2 0 0 -0.03c0,-0.05 -0.01,-0.1 -0.04,-0.12 -0.04,-0.03 -0.08,-0.05 -0.14,-0.05 -0.05,0 -0.09,0.01 -0.13,0.02 -0.04,0.02 -0.07,0.03 -0.1,0.06l-0.05 -0.1c0.04,-0.03 0.08,-0.05 0.13,-0.06 0.05,-0.02 0.1,-0.03 0.16,-0.03zm-0.03 0.62c0.05,0 0.09,-0.01 0.13,-0.03 0.03,-0.03 0.06,-0.06 0.07,-0.1l0 -0.09 -0.19 0c-0.11,0 -0.16,0.03 -0.16,0.1 0,0.04 0.01,0.07 0.04,0.09 0.03,0.02 0.06,0.03 0.11,0.03z"/>
   <path id="15" class="fil3" d="M19.53 15.19l0 0.7 -0.12 0 0 -0.22 -0.2 0 -0.01 0 -0.16 0.22 -0.13 0 0.17 -0.24c-0.06,-0.02 -0.1,-0.04 -0.12,-0.08 -0.03,-0.04 -0.05,-0.08 -0.05,-0.14 0,-0.08 0.03,-0.14 0.09,-0.18 0.05,-0.04 0.13,-0.06 0.22,-0.06l0.31 0zm-0.49 0.25c0,0.05 0.02,0.08 0.05,0.1 0.03,0.02 0.07,0.04 0.13,0.04l0.19 0 0 -0.28 -0.18 0c-0.13,0 -0.19,0.05 -0.19,0.14z"/>
   <path id="16" class="fil3" d="M20.5 15.18c0.07,0 0.13,0.02 0.18,0.05 0.05,0.03 0.09,0.07 0.13,0.12 0.03,0.06 0.04,0.12 0.04,0.19 0,0.07 -0.01,0.13 -0.04,0.18 -0.04,0.06 -0.08,0.1 -0.13,0.13 -0.05,0.03 -0.11,0.05 -0.18,0.05 -0.05,0 -0.1,-0.01 -0.14,-0.03 -0.04,-0.02 -0.08,-0.05 -0.11,-0.09l0 0.36 -0.12 0 0 -0.95 0.12 0 0 0.11c0.03,-0.04 0.06,-0.07 0.11,-0.09 0.04,-0.02 0.09,-0.03 0.14,-0.03zm-0.01 0.6c0.04,0 0.08,-0.01 0.12,-0.03 0.03,-0.02 0.06,-0.05 0.08,-0.08 0.02,-0.04 0.03,-0.08 0.03,-0.13 0,-0.05 -0.01,-0.09 -0.03,-0.13 -0.02,-0.04 -0.05,-0.07 -0.08,-0.09 -0.04,-0.02 -0.08,-0.03 -0.12,-0.03 -0.05,0 -0.09,0.01 -0.12,0.03 -0.04,0.03 -0.07,0.05 -0.09,0.09 -0.02,0.04 -0.03,0.08 -0.03,0.13 0,0.05 0.01,0.09 0.03,0.13 0.02,0.03 0.05,0.06 0.09,0.08 0.03,0.02 0.07,0.03 0.12,0.03z"/>
   <path id="17" class="fil3" d="M21.28 15.18c0.09,0 0.17,0.03 0.22,0.07 0.05,0.05 0.07,0.12 0.07,0.22l0 0.42 -0.11 0 0 -0.09c-0.03,0.03 -0.06,0.05 -0.1,0.07 -0.03,0.02 -0.08,0.03 -0.13,0.03 -0.08,0 -0.14,-0.02 -0.19,-0.06 -0.05,-0.04 -0.07,-0.09 -0.07,-0.15 0,-0.06 0.02,-0.11 0.06,-0.15 0.05,-0.04 0.12,-0.05 0.22,-0.05l0.2 0 0 -0.03c0,-0.05 -0.02,-0.1 -0.05,-0.12 -0.03,-0.03 -0.08,-0.05 -0.14,-0.05 -0.04,0 -0.08,0.01 -0.12,0.02 -0.04,0.02 -0.07,0.03 -0.1,0.06l-0.05 -0.1c0.03,-0.03 0.08,-0.05 0.13,-0.06 0.05,-0.02 0.1,-0.03 0.16,-0.03zm-0.03 0.62c0.05,0 0.09,-0.01 0.12,-0.03 0.04,-0.03 0.06,-0.06 0.08,-0.1l0 -0.09 -0.2 0c-0.1,0 -0.16,0.03 -0.16,0.1 0,0.04 0.02,0.07 0.04,0.09 0.03,0.02 0.07,0.03 0.12,0.03z"/>
   <path id="18" class="fil3" d="M22.17 15.52c0.05,0.02 0.08,0.04 0.11,0.06 0.02,0.03 0.04,0.06 0.04,0.1 0,0.05 -0.02,0.08 -0.05,0.11 -0.03,0.04 -0.06,0.06 -0.11,0.08 -0.05,0.02 -0.11,0.03 -0.17,0.03 -0.05,0 -0.1,-0.01 -0.15,-0.02 -0.05,-0.02 -0.1,-0.04 -0.13,-0.06l0.03 -0.1c0.04,0.02 0.08,0.04 0.12,0.05 0.04,0.01 0.08,0.02 0.13,0.02 0.06,0 0.11,-0.01 0.14,-0.03 0.04,-0.02 0.05,-0.05 0.05,-0.09 0,-0.03 -0.01,-0.05 -0.04,-0.07 -0.03,-0.02 -0.07,-0.03 -0.12,-0.03l-0.13 0 0 -0.09 0.12 0c0.05,0 0.09,-0.01 0.11,-0.02 0.03,-0.02 0.05,-0.04 0.05,-0.07 0,-0.03 -0.02,-0.06 -0.05,-0.08 -0.04,-0.01 -0.08,-0.02 -0.13,-0.02 -0.07,0 -0.15,0.02 -0.22,0.05l-0.04 -0.1c0.09,-0.04 0.18,-0.06 0.27,-0.06 0.06,0 0.11,0.01 0.15,0.02 0.05,0.02 0.08,0.04 0.11,0.07 0.02,0.03 0.04,0.06 0.04,0.1 0,0.03 -0.02,0.07 -0.04,0.09 -0.02,0.03 -0.05,0.05 -0.09,0.06z"/>
   <path id="19" class="fil3" d="M22.88 15.18c0.07,0 0.13,0.02 0.18,0.05 0.05,0.03 0.09,0.07 0.13,0.12 0.03,0.06 0.04,0.12 0.04,0.19 0,0.07 -0.01,0.13 -0.04,0.18 -0.04,0.06 -0.08,0.1 -0.13,0.13 -0.05,0.03 -0.11,0.05 -0.18,0.05 -0.05,0 -0.1,-0.01 -0.14,-0.03 -0.04,-0.02 -0.08,-0.05 -0.11,-0.09l0 0.36 -0.12 0 0 -0.95 0.12 0 0 0.11c0.03,-0.04 0.06,-0.07 0.11,-0.09 0.04,-0.02 0.09,-0.03 0.14,-0.03zm-0.01 0.6c0.04,0 0.08,-0.01 0.12,-0.03 0.03,-0.02 0.06,-0.05 0.08,-0.08 0.02,-0.04 0.03,-0.08 0.03,-0.13 0,-0.05 -0.01,-0.09 -0.03,-0.13 -0.02,-0.04 -0.05,-0.07 -0.08,-0.09 -0.04,-0.02 -0.08,-0.03 -0.12,-0.03 -0.05,0 -0.09,0.01 -0.12,0.03 -0.04,0.03 -0.07,0.05 -0.09,0.09 -0.02,0.04 -0.03,0.08 -0.03,0.13 0,0.05 0.01,0.09 0.03,0.13 0.02,0.03 0.05,0.06 0.09,0.08 0.03,0.02 0.07,0.03 0.12,0.03z"/>
   <path id="20" class="fil3" d="M23.66 15.18c0.09,0 0.17,0.03 0.22,0.07 0.05,0.05 0.08,0.12 0.08,0.22l0 0.42 -0.12 0 0 -0.09c-0.03,0.03 -0.06,0.05 -0.1,0.07 -0.03,0.02 -0.08,0.03 -0.13,0.03 -0.08,0 -0.14,-0.02 -0.19,-0.06 -0.05,-0.04 -0.07,-0.09 -0.07,-0.15 0,-0.06 0.02,-0.11 0.07,-0.15 0.04,-0.04 0.11,-0.05 0.21,-0.05l0.2 0 0 -0.03c0,-0.05 -0.02,-0.1 -0.05,-0.12 -0.03,-0.03 -0.08,-0.05 -0.14,-0.05 -0.04,0 -0.08,0.01 -0.12,0.02 -0.04,0.02 -0.07,0.03 -0.1,0.06l-0.05 -0.1c0.03,-0.03 0.08,-0.05 0.13,-0.06 0.05,-0.02 0.1,-0.03 0.16,-0.03zm-0.03 0.62c0.05,0 0.09,-0.01 0.12,-0.03 0.04,-0.03 0.06,-0.06 0.08,-0.1l0 -0.09 -0.2 0c-0.1,0 -0.16,0.03 -0.16,0.1 0,0.04 0.02,0.07 0.04,0.09 0.03,0.02 0.07,0.03 0.12,0.03z"/>
   <path id="21" class="fil3" d="M24.54 15.21c0.06,0 0.12,0.02 0.17,0.05 0.05,0.03 0.09,0.07 0.12,0.12 0.03,0.05 0.04,0.11 0.04,0.17 0,0.07 -0.01,0.13 -0.04,0.18 -0.03,0.06 -0.07,0.1 -0.13,0.12 -0.05,0.03 -0.12,0.05 -0.19,0.05 -0.12,0 -0.21,-0.04 -0.27,-0.12 -0.07,-0.08 -0.1,-0.2 -0.1,-0.35 0,-0.14 0.03,-0.25 0.09,-0.33 0.06,-0.08 0.15,-0.14 0.27,-0.16l0.32 -0.08 0.02 0.12 -0.3 0.06c-0.09,0.02 -0.16,0.06 -0.2,0.11 -0.05,0.04 -0.07,0.11 -0.08,0.2 0.03,-0.04 0.07,-0.08 0.12,-0.1 0.05,-0.02 0.1,-0.04 0.16,-0.04zm-0.02 0.58c0.04,0 0.08,-0.01 0.12,-0.03 0.03,-0.02 0.06,-0.05 0.08,-0.08 0.02,-0.04 0.03,-0.08 0.03,-0.12 0,-0.07 -0.03,-0.13 -0.07,-0.17 -0.04,-0.04 -0.1,-0.06 -0.16,-0.06 -0.07,0 -0.13,0.02 -0.17,0.06 -0.04,0.04 -0.06,0.1 -0.06,0.17 0,0.04 0.01,0.08 0.03,0.12 0.02,0.03 0.04,0.06 0.08,0.08 0.03,0.02 0.07,0.03 0.12,0.03z"/>
   <path id="22" class="fil3" d="M25.35 15.9c-0.07,0 -0.13,-0.02 -0.18,-0.05 -0.06,-0.03 -0.1,-0.07 -0.13,-0.13 -0.03,-0.05 -0.05,-0.11 -0.05,-0.18 0,-0.07 0.02,-0.13 0.05,-0.19 0.03,-0.05 0.07,-0.09 0.13,-0.12 0.05,-0.03 0.11,-0.05 0.18,-0.05 0.07,0 0.14,0.02 0.19,0.05 0.06,0.03 0.1,0.07 0.13,0.12 0.03,0.06 0.05,0.12 0.05,0.19 0,0.07 -0.02,0.13 -0.05,0.18 -0.03,0.06 -0.07,0.1 -0.13,0.13 -0.05,0.03 -0.12,0.05 -0.19,0.05zm0 -0.12c0.05,0 0.09,-0.01 0.12,-0.03 0.04,-0.02 0.07,-0.05 0.09,-0.08 0.02,-0.04 0.03,-0.08 0.03,-0.13 0,-0.05 -0.01,-0.09 -0.03,-0.13 -0.02,-0.04 -0.05,-0.07 -0.09,-0.09 -0.03,-0.02 -0.07,-0.03 -0.12,-0.03 -0.04,0 -0.08,0.01 -0.12,0.03 -0.03,0.02 -0.06,0.05 -0.08,0.09 -0.02,0.04 -0.03,0.08 -0.03,0.13 0,0.05 0.01,0.09 0.03,0.13 0.02,0.03 0.05,0.06 0.08,0.08 0.04,0.02 0.08,0.03 0.12,0.03z"/>
   <polygon id="23" class="fil3" points="26.39,15.3 26.14,15.3 26.14,15.89 26.01,15.89 26.01,15.3 25.76,15.3 25.76,15.19 26.39,15.19 "/>
   <polygon id="24" class="fil3" points="26.79,15.59 26.65,15.59 26.65,15.89 26.52,15.89 26.52,15.19 26.65,15.19 26.65,15.48 26.8,15.48 27.02,15.19 27.16,15.19 26.89,15.53 27.18,15.89 27.03,15.89 "/>
   <path id="25" class="fil3" d="M27.55 15.18c0.09,0 0.17,0.03 0.22,0.07 0.05,0.05 0.07,0.12 0.07,0.22l0 0.42 -0.12 0 0 -0.09c-0.02,0.03 -0.05,0.05 -0.09,0.07 -0.03,0.02 -0.08,0.03 -0.13,0.03 -0.08,0 -0.15,-0.02 -0.19,-0.06 -0.05,-0.04 -0.07,-0.09 -0.07,-0.15 0,-0.06 0.02,-0.11 0.06,-0.15 0.05,-0.04 0.12,-0.05 0.22,-0.05l0.2 0 0 -0.03c0,-0.05 -0.02,-0.1 -0.05,-0.12 -0.03,-0.03 -0.08,-0.05 -0.14,-0.05 -0.04,0 -0.08,0.01 -0.12,0.02 -0.04,0.02 -0.07,0.03 -0.1,0.06l-0.05 -0.1c0.03,-0.03 0.08,-0.05 0.13,-0.06 0.05,-0.02 0.1,-0.03 0.16,-0.03zm-0.03 0.62c0.05,0 0.09,-0.01 0.12,-0.03 0.04,-0.03 0.06,-0.06 0.08,-0.1l0 -0.09 -0.2 0c-0.1,0 -0.16,0.03 -0.16,0.1 0,0.04 0.02,0.07 0.04,0.09 0.03,0.02 0.07,0.03 0.12,0.03z"/>
   <polygon id="26" class="fil3" points="7.86,16.87 7.99,16.87 7.99,17.38 8.42,16.87 8.53,16.87 8.53,17.57 8.4,17.57 8.4,17.06 7.98,17.57 7.86,17.57 "/>
   <path id="27" class="fil3" d="M9.44 17.58c-0.08,0 -0.14,-0.01 -0.2,-0.05 -0.05,-0.03 -0.09,-0.07 -0.13,-0.12 -0.03,-0.06 -0.04,-0.12 -0.04,-0.19 0,-0.06 0.01,-0.13 0.04,-0.18 0.04,-0.05 0.08,-0.1 0.13,-0.13 0.06,-0.03 0.12,-0.04 0.2,-0.04 0.06,0 0.11,0.01 0.16,0.04 0.05,0.02 0.09,0.06 0.12,0.11l-0.1 0.06c-0.02,-0.03 -0.05,-0.06 -0.08,-0.08 -0.03,-0.01 -0.07,-0.02 -0.11,-0.02 -0.04,0 -0.08,0.01 -0.12,0.03 -0.04,0.02 -0.06,0.05 -0.09,0.09 -0.02,0.03 -0.03,0.08 -0.03,0.12 0,0.05 0.01,0.1 0.03,0.13 0.03,0.04 0.05,0.07 0.09,0.09 0.04,0.02 0.08,0.03 0.12,0.03 0.04,0 0.08,-0.01 0.11,-0.03 0.03,-0.01 0.06,-0.04 0.08,-0.07l0.1 0.06c-0.03,0.05 -0.07,0.09 -0.12,0.11 -0.05,0.03 -0.1,0.04 -0.16,0.04z"/>
   <path id="28" class="fil3" d="M10.17 17.58c-0.07,0 -0.13,-0.01 -0.19,-0.05 -0.05,-0.03 -0.09,-0.07 -0.13,-0.12 -0.03,-0.06 -0.04,-0.12 -0.04,-0.19 0,-0.06 0.01,-0.13 0.04,-0.18 0.04,-0.05 0.08,-0.1 0.13,-0.13 0.06,-0.03 0.12,-0.04 0.19,-0.04 0.07,0 0.13,0.01 0.19,0.04 0.05,0.03 0.1,0.08 0.13,0.13 0.03,0.05 0.04,0.12 0.04,0.18 0,0.07 -0.01,0.13 -0.04,0.19 -0.03,0.05 -0.08,0.09 -0.13,0.12 -0.06,0.04 -0.12,0.05 -0.19,0.05zm0 -0.11c0.05,0 0.09,-0.01 0.12,-0.03 0.04,-0.02 0.07,-0.05 0.09,-0.09 0.02,-0.04 0.03,-0.08 0.03,-0.13 0,-0.04 -0.01,-0.09 -0.03,-0.12 -0.02,-0.04 -0.05,-0.07 -0.09,-0.09 -0.03,-0.02 -0.07,-0.03 -0.12,-0.03 -0.04,0 -0.08,0.01 -0.12,0.03 -0.03,0.02 -0.06,0.05 -0.08,0.09 -0.02,0.03 -0.03,0.08 -0.03,0.12 0,0.05 0.01,0.09 0.03,0.13 0.02,0.04 0.05,0.07 0.08,0.09 0.04,0.02 0.08,0.03 0.12,0.03z"/>
   <path id="29" class="fil3" d="M11.09 17.21c0.04,0.01 0.08,0.03 0.1,0.06 0.03,0.03 0.04,0.06 0.04,0.1 0,0.04 -0.01,0.08 -0.04,0.11 -0.03,0.03 -0.07,0.06 -0.12,0.07 -0.05,0.02 -0.1,0.03 -0.16,0.03 -0.05,0 -0.1,0 -0.15,-0.02 -0.05,-0.01 -0.1,-0.03 -0.14,-0.06l0.04 -0.09c0.03,0.02 0.07,0.03 0.12,0.05 0.04,0.01 0.08,0.01 0.13,0.01 0.06,0 0.1,-0.01 0.14,-0.03 0.03,-0.02 0.05,-0.05 0.05,-0.08 0,-0.03 -0.01,-0.06 -0.04,-0.08 -0.03,-0.01 -0.07,-0.02 -0.12,-0.02l-0.13 0 0 -0.09 0.12 0c0.05,0 0.08,-0.01 0.11,-0.03 0.03,-0.01 0.04,-0.04 0.04,-0.07 0,-0.03 -0.01,-0.05 -0.05,-0.07 -0.03,-0.02 -0.07,-0.03 -0.13,-0.03 -0.06,0 -0.14,0.02 -0.21,0.06l-0.04 -0.1c0.09,-0.04 0.18,-0.06 0.27,-0.06 0.05,0 0.1,0 0.15,0.02 0.04,0.01 0.08,0.04 0.11,0.07 0.02,0.03 0.03,0.06 0.03,0.09 0,0.04 -0.01,0.07 -0.03,0.1 -0.02,0.02 -0.05,0.05 -0.09,0.06z"/>
   <path id="30" class="fil3" d="M12.14 17.46l0 0.27 -0.12 0 0 -0.16 -0.59 0 0 0.16 -0.12 0 0 -0.27 0.04 0c0.05,0 0.08,-0.03 0.09,-0.09 0.02,-0.06 0.03,-0.15 0.04,-0.26l0.01 -0.24 0.54 0 0 0.59 0.11 0zm-0.55 -0.34c0,0.09 -0.01,0.16 -0.02,0.22 -0.01,0.06 -0.03,0.1 -0.06,0.12l0.39 0 0 -0.47 -0.3 0 -0.01 0.13z"/>
   <path id="31" class="fil3" d="M12.55 16.87c0.1,0 0.17,0.02 0.22,0.07 0.05,0.05 0.08,0.12 0.08,0.21l0 0.42 -0.12 0 0 -0.09c-0.02,0.03 -0.05,0.06 -0.09,0.07 -0.04,0.02 -0.09,0.03 -0.14,0.03 -0.08,0 -0.14,-0.02 -0.19,-0.06 -0.05,-0.03 -0.07,-0.08 -0.07,-0.14 0,-0.07 0.02,-0.12 0.07,-0.15 0.04,-0.04 0.11,-0.06 0.21,-0.06l0.2 0 0 -0.02c0,-0.06 -0.01,-0.1 -0.05,-0.13 -0.03,-0.03 -0.07,-0.04 -0.14,-0.04 -0.04,0 -0.08,0 -0.12,0.02 -0.04,0.01 -0.07,0.03 -0.1,0.05l-0.05 -0.09c0.04,-0.03 0.08,-0.05 0.13,-0.07 0.05,-0.01 0.1,-0.02 0.16,-0.02zm-0.03 0.61c0.05,0 0.09,-0.01 0.12,-0.03 0.04,-0.02 0.07,-0.05 0.08,-0.09l0 -0.1 -0.19 0c-0.11,0 -0.16,0.04 -0.16,0.11 0,0.03 0.01,0.06 0.04,0.08 0.02,0.02 0.06,0.03 0.11,0.03z"/>
   <polygon id="32" class="fil3" points="13.08,16.87 13.2,16.87 13.2,17.17 13.6,17.17 13.6,16.87 13.73,16.87 13.73,17.57 13.6,17.57 13.6,17.28 13.2,17.28 13.2,17.57 13.08,17.57 "/>
   <polygon id="33" class="fil3" points="13.97,16.87 14.1,16.87 14.1,17.38 14.53,16.87 14.64,16.87 14.64,17.57 14.52,17.57 14.52,17.06 14.09,17.57 13.97,17.57 "/>
   <path id="34" class="fil3" d="M15.52 17.23c0,0.01 0,0.02 0,0.04l-0.57 0c0.01,0.06 0.03,0.11 0.08,0.14 0.05,0.04 0.1,0.06 0.17,0.06 0.09,0 0.15,-0.03 0.2,-0.08l0.07 0.08c-0.03,0.03 -0.07,0.06 -0.11,0.08 -0.05,0.02 -0.1,0.03 -0.16,0.03 -0.08,0 -0.14,-0.01 -0.2,-0.04 -0.06,-0.04 -0.1,-0.08 -0.13,-0.13 -0.03,-0.06 -0.05,-0.12 -0.05,-0.19 0,-0.06 0.02,-0.13 0.05,-0.18 0.03,-0.05 0.07,-0.1 0.12,-0.13 0.06,-0.03 0.12,-0.04 0.18,-0.04 0.07,0 0.13,0.01 0.18,0.04 0.05,0.03 0.09,0.08 0.12,0.13 0.03,0.05 0.05,0.12 0.05,0.19zm-0.35 -0.26c-0.06,0 -0.11,0.02 -0.15,0.06 -0.04,0.04 -0.06,0.09 -0.07,0.14l0.45 0c-0.01,-0.05 -0.03,-0.1 -0.08,-0.14 -0.04,-0.04 -0.09,-0.06 -0.15,-0.06z"/>
   <path id="35" class="fil3" d="M16.54 17.21c0.09,0.02 0.14,0.08 0.14,0.17 0,0.06 -0.02,0.11 -0.07,0.14 -0.05,0.04 -0.11,0.05 -0.21,0.05l-0.33 0 0 -0.7 0.32 0c0.08,0 0.15,0.02 0.2,0.05 0.04,0.03 0.07,0.08 0.07,0.13 0,0.04 -0.01,0.07 -0.03,0.1 -0.02,0.03 -0.05,0.05 -0.09,0.06zm-0.35 -0.04l0.19 0c0.05,0 0.09,0 0.11,-0.02 0.03,-0.02 0.04,-0.04 0.04,-0.08 0,-0.06 -0.05,-0.1 -0.15,-0.1l-0.19 0 0 0.2zm0.21 0.31c0.05,0 0.09,-0.01 0.11,-0.03 0.03,-0.02 0.04,-0.04 0.04,-0.08 0,-0.03 -0.01,-0.06 -0.03,-0.08 -0.03,-0.02 -0.07,-0.02 -0.12,-0.02l-0.21 0 0 0.21 0.21 0z"/>
   <polygon id="36" class="fil3" points="16.88,16.87 17,16.87 17,17.38 17.43,16.87 17.55,16.87 17.55,17.57 17.42,17.57 17.42,17.06 16.99,17.57 16.88,17.57 "/>
   <path id="37" class="fil3" d="M18.5 17.46l0 0.27 -0.12 0 0 -0.16 -0.58 0 0 0.16 -0.12 0 0 -0.27 0.04 0c0.04,0 0.07,-0.03 0.09,-0.09 0.02,-0.06 0.03,-0.15 0.03,-0.26l0.01 -0.24 0.54 0 0 0.59 0.11 0zm-0.54 -0.34c0,0.09 -0.01,0.16 -0.02,0.22 -0.01,0.06 -0.03,0.1 -0.06,0.12l0.39 0 0 -0.47 -0.3 0 -0.01 0.13z"/>
   <path id="38" class="fil3" d="M19.3 17.23c0,0.01 0,0.02 -0.01,0.04l-0.56 0c0.01,0.06 0.03,0.11 0.08,0.14 0.04,0.04 0.1,0.06 0.17,0.06 0.08,0 0.15,-0.03 0.2,-0.08l0.07 0.08c-0.03,0.03 -0.07,0.06 -0.12,0.08 -0.04,0.02 -0.1,0.03 -0.15,0.03 -0.08,0 -0.14,-0.01 -0.2,-0.04 -0.06,-0.04 -0.1,-0.08 -0.13,-0.13 -0.03,-0.06 -0.05,-0.12 -0.05,-0.19 0,-0.06 0.02,-0.13 0.05,-0.18 0.03,-0.05 0.07,-0.1 0.12,-0.13 0.06,-0.03 0.12,-0.04 0.18,-0.04 0.07,0 0.13,0.01 0.18,0.04 0.05,0.03 0.09,0.08 0.12,0.13 0.03,0.05 0.05,0.12 0.05,0.19zm-0.35 -0.26c-0.06,0 -0.11,0.02 -0.15,0.06 -0.04,0.04 -0.07,0.09 -0.07,0.14l0.45 0c-0.01,-0.05 -0.04,-0.1 -0.08,-0.14 -0.04,-0.04 -0.09,-0.06 -0.15,-0.06z"/>
   <path id="39" class="fil3" d="M19.79 17.58c-0.07,0 -0.13,-0.01 -0.18,-0.05 -0.06,-0.03 -0.1,-0.07 -0.13,-0.12 -0.04,-0.06 -0.05,-0.12 -0.05,-0.19 0,-0.06 0.01,-0.13 0.05,-0.18 0.03,-0.05 0.07,-0.1 0.13,-0.13 0.05,-0.03 0.11,-0.04 0.18,-0.04 0.07,0 0.13,0.01 0.19,0.04 0.05,0.03 0.1,0.08 0.13,0.13 0.03,0.05 0.04,0.12 0.04,0.18 0,0.07 -0.01,0.13 -0.04,0.19 -0.03,0.05 -0.08,0.09 -0.13,0.12 -0.06,0.04 -0.12,0.05 -0.19,0.05zm0 -0.11c0.05,0 0.09,-0.01 0.12,-0.03 0.04,-0.02 0.07,-0.05 0.09,-0.09 0.02,-0.04 0.03,-0.08 0.03,-0.13 0,-0.04 -0.01,-0.09 -0.03,-0.12 -0.02,-0.04 -0.05,-0.07 -0.09,-0.09 -0.03,-0.02 -0.07,-0.03 -0.12,-0.03 -0.04,0 -0.08,0.01 -0.12,0.03 -0.03,0.02 -0.06,0.05 -0.08,0.09 -0.02,0.03 -0.03,0.08 -0.03,0.12 0,0.05 0.01,0.09 0.03,0.13 0.02,0.04 0.05,0.07 0.08,0.09 0.04,0.02 0.08,0.03 0.12,0.03z"/>
   <path id="40" class="fil3" d="M20.71 16.87c0.07,0 0.13,0.01 0.18,0.04 0.05,0.03 0.09,0.07 0.13,0.13 0.03,0.05 0.04,0.11 0.04,0.18 0,0.07 -0.01,0.14 -0.04,0.19 -0.04,0.05 -0.08,0.1 -0.13,0.13 -0.05,0.03 -0.11,0.04 -0.18,0.04 -0.05,0 -0.1,-0.01 -0.14,-0.03 -0.04,-0.02 -0.08,-0.05 -0.11,-0.08l0 0.36 -0.12 0 0 -0.96 0.12 0 0 0.12c0.03,-0.04 0.06,-0.07 0.11,-0.09 0.04,-0.02 0.09,-0.03 0.14,-0.03zm-0.01 0.6c0.04,0 0.08,-0.01 0.12,-0.03 0.03,-0.02 0.06,-0.05 0.08,-0.09 0.02,-0.04 0.03,-0.08 0.03,-0.13 0,-0.04 -0.01,-0.09 -0.03,-0.12 -0.02,-0.04 -0.05,-0.07 -0.08,-0.09 -0.04,-0.02 -0.08,-0.03 -0.12,-0.03 -0.05,0 -0.09,0.01 -0.12,0.03 -0.04,0.02 -0.07,0.05 -0.09,0.09 -0.02,0.03 -0.03,0.08 -0.03,0.12 0,0.05 0.01,0.09 0.03,0.13 0.02,0.04 0.05,0.07 0.09,0.09 0.03,0.02 0.07,0.03 0.12,0.03z"/>
   <path id="41" class="fil3" d="M21.54 17.58c-0.07,0 -0.13,-0.01 -0.18,-0.05 -0.06,-0.03 -0.1,-0.07 -0.13,-0.12 -0.04,-0.06 -0.05,-0.12 -0.05,-0.19 0,-0.06 0.01,-0.13 0.05,-0.18 0.03,-0.05 0.07,-0.1 0.13,-0.13 0.05,-0.03 0.11,-0.04 0.18,-0.04 0.07,0 0.13,0.01 0.19,0.04 0.05,0.03 0.1,0.08 0.13,0.13 0.03,0.05 0.04,0.12 0.04,0.18 0,0.07 -0.01,0.13 -0.04,0.19 -0.03,0.05 -0.08,0.09 -0.13,0.12 -0.06,0.04 -0.12,0.05 -0.19,0.05zm0 -0.11c0.05,0 0.09,-0.01 0.12,-0.03 0.04,-0.02 0.07,-0.05 0.09,-0.09 0.02,-0.04 0.03,-0.08 0.03,-0.13 0,-0.04 -0.01,-0.09 -0.03,-0.12 -0.02,-0.04 -0.05,-0.07 -0.09,-0.09 -0.03,-0.02 -0.07,-0.03 -0.12,-0.03 -0.04,0 -0.08,0.01 -0.12,0.03 -0.03,0.02 -0.06,0.05 -0.08,0.09 -0.02,0.03 -0.03,0.08 -0.03,0.12 0,0.05 0.01,0.09 0.03,0.13 0.02,0.04 0.05,0.07 0.08,0.09 0.04,0.02 0.08,0.03 0.12,0.03z"/>
   <path id="42" class="fil3" d="M22.68 16.87l0 0.7 -0.12 0 0 -0.58 -0.3 0 -0.01 0.15c-0.01,0.09 -0.02,0.17 -0.03,0.24 -0.01,0.06 -0.03,0.11 -0.06,0.15 -0.03,0.03 -0.07,0.05 -0.12,0.05 -0.02,0 -0.04,0 -0.07,-0.01l0 -0.11c0.02,0.01 0.03,0.01 0.04,0.01 0.03,0 0.06,-0.02 0.08,-0.05 0.01,-0.03 0.02,-0.06 0.03,-0.11 0,-0.04 0.01,-0.1 0.01,-0.18l0.02 -0.26 0.53 0z"/>
   <polygon id="43" class="fil3" points="22.93,16.87 23.05,16.87 23.05,17.38 23.48,16.87 23.6,16.87 23.6,17.57 23.47,17.57 23.47,17.06 23.04,17.57 22.93,17.57 "/>
   <polygon id="44" class="fil3" points="24.11,17.28 23.97,17.28 23.97,17.57 23.84,17.57 23.84,16.87 23.97,16.87 23.97,17.17 24.12,17.17 24.34,16.87 24.48,16.87 24.21,17.21 24.5,17.57 24.35,17.57 "/>
   <path id="45" class="fil3" d="M24.9 17.58c-0.07,0 -0.13,-0.01 -0.18,-0.05 -0.06,-0.03 -0.1,-0.07 -0.13,-0.12 -0.03,-0.06 -0.05,-0.12 -0.05,-0.19 0,-0.06 0.02,-0.13 0.05,-0.18 0.03,-0.05 0.07,-0.1 0.13,-0.13 0.05,-0.03 0.11,-0.04 0.18,-0.04 0.07,0 0.14,0.01 0.19,0.04 0.06,0.03 0.1,0.08 0.13,0.13 0.03,0.05 0.05,0.12 0.05,0.18 0,0.07 -0.02,0.13 -0.05,0.19 -0.03,0.05 -0.07,0.09 -0.13,0.12 -0.05,0.04 -0.12,0.05 -0.19,0.05zm0 -0.11c0.05,0 0.09,-0.01 0.12,-0.03 0.04,-0.02 0.07,-0.05 0.09,-0.09 0.02,-0.04 0.03,-0.08 0.03,-0.13 0,-0.04 -0.01,-0.09 -0.03,-0.12 -0.02,-0.04 -0.05,-0.07 -0.09,-0.09 -0.03,-0.02 -0.07,-0.03 -0.12,-0.03 -0.04,0 -0.08,0.01 -0.12,0.03 -0.03,0.02 -0.06,0.05 -0.08,0.09 -0.02,0.03 -0.03,0.08 -0.03,0.12 0,0.05 0.01,0.09 0.03,0.13 0.02,0.04 0.05,0.07 0.08,0.09 0.04,0.02 0.08,0.03 0.12,0.03z"/>
   <path id="46" class="fil3" d="M25.92 17.21c0.1,0.02 0.14,0.08 0.14,0.17 0,0.06 -0.02,0.11 -0.07,0.14 -0.04,0.04 -0.11,0.05 -0.2,0.05l-0.34 0 0 -0.7 0.32 0c0.09,0 0.15,0.02 0.2,0.05 0.04,0.03 0.07,0.08 0.07,0.13 0,0.04 -0.01,0.07 -0.03,0.1 -0.02,0.03 -0.05,0.05 -0.09,0.06zm-0.35 -0.04l0.19 0c0.05,0 0.09,0 0.11,-0.02 0.03,-0.02 0.04,-0.04 0.04,-0.08 0,-0.06 -0.05,-0.1 -0.15,-0.1l-0.19 0 0 0.2zm0.21 0.31c0.05,0 0.09,-0.01 0.11,-0.03 0.03,-0.02 0.04,-0.04 0.04,-0.08 0,-0.03 -0.01,-0.06 -0.03,-0.08 -0.03,-0.02 -0.06,-0.02 -0.12,-0.02l-0.21 0 0 0.21 0.21 0z"/>
   <path id="47" class="fil3" d="M11.39 18.56l0 0.7 -0.13 0 0 -0.59 -0.3 0 -0.01 0.16c0,0.09 -0.01,0.17 -0.02,0.23 -0.01,0.06 -0.04,0.11 -0.06,0.15 -0.03,0.04 -0.07,0.06 -0.12,0.06 -0.02,0 -0.05,-0.01 -0.08,-0.01l0.01 -0.11c0.01,0 0.02,0 0.03,0 0.04,0 0.06,-0.01 0.08,-0.04 0.02,-0.03 0.03,-0.07 0.03,-0.11 0.01,-0.04 0.01,-0.1 0.02,-0.18l0.01 -0.26 0.54 0z"/>
   <path id="48" class="fil3" d="M12.25 18.55c0.07,0 0.13,0.02 0.18,0.05 0.06,0.03 0.1,0.07 0.13,0.12 0.03,0.06 0.04,0.12 0.04,0.19 0,0.07 -0.01,0.13 -0.04,0.18 -0.03,0.06 -0.07,0.1 -0.13,0.13 -0.05,0.03 -0.11,0.05 -0.18,0.05 -0.06,0 -0.12,-0.02 -0.17,-0.04 -0.05,-0.03 -0.09,-0.06 -0.12,-0.11 -0.03,-0.05 -0.05,-0.1 -0.06,-0.16l-0.14 0 0 0.3 -0.13 0 0 -0.7 0.13 0 0 0.29 0.14 0c0.01,-0.06 0.03,-0.11 0.06,-0.16 0.03,-0.04 0.07,-0.08 0.12,-0.1 0.05,-0.02 0.11,-0.04 0.17,-0.04zm0 0.6c0.04,0 0.08,-0.01 0.12,-0.03 0.03,-0.02 0.06,-0.04 0.08,-0.08 0.02,-0.04 0.03,-0.08 0.03,-0.13 0,-0.05 -0.01,-0.09 -0.03,-0.13 -0.02,-0.04 -0.05,-0.07 -0.08,-0.09 -0.04,-0.02 -0.08,-0.03 -0.12,-0.03 -0.04,0 -0.08,0.01 -0.12,0.03 -0.03,0.02 -0.06,0.05 -0.08,0.09 -0.02,0.04 -0.03,0.08 -0.03,0.13 0,0.05 0.01,0.09 0.03,0.13 0.02,0.04 0.05,0.06 0.08,0.08 0.04,0.02 0.08,0.03 0.12,0.03z"/>
   <path id="49" class="fil3" d="M13.14 18.58c0.07,0 0.12,0.02 0.18,0.05 0.05,0.03 0.09,0.07 0.11,0.12 0.03,0.05 0.05,0.11 0.05,0.17 0,0.07 -0.02,0.13 -0.05,0.18 -0.03,0.06 -0.07,0.1 -0.13,0.12 -0.05,0.03 -0.11,0.05 -0.18,0.05 -0.12,0 -0.21,-0.04 -0.28,-0.12 -0.06,-0.08 -0.09,-0.2 -0.09,-0.35 0,-0.14 0.02,-0.25 0.08,-0.33 0.06,-0.08 0.15,-0.14 0.27,-0.16l0.32 -0.08 0.02 0.12 -0.29 0.06c-0.09,0.02 -0.16,0.06 -0.21,0.11 -0.04,0.04 -0.07,0.11 -0.07,0.2 0.03,-0.04 0.06,-0.08 0.11,-0.1 0.05,-0.02 0.1,-0.04 0.16,-0.04zm-0.02 0.58c0.04,0 0.08,-0.01 0.12,-0.03 0.03,-0.02 0.06,-0.05 0.08,-0.08 0.02,-0.04 0.03,-0.08 0.03,-0.12 0,-0.07 -0.02,-0.13 -0.06,-0.17 -0.05,-0.04 -0.1,-0.06 -0.17,-0.06 -0.07,0 -0.12,0.02 -0.17,0.06 -0.04,0.04 -0.06,0.1 -0.06,0.17 0,0.04 0.01,0.08 0.03,0.12 0.02,0.03 0.05,0.06 0.08,0.08 0.04,0.02 0.08,0.03 0.12,0.03z"/>
   <path id="50" class="fil3" d="M13.96 19.27c-0.07,0 -0.13,-0.02 -0.19,-0.05 -0.06,-0.03 -0.1,-0.07 -0.13,-0.13 -0.03,-0.05 -0.05,-0.11 -0.05,-0.18 0,-0.07 0.02,-0.13 0.05,-0.19 0.03,-0.05 0.07,-0.09 0.13,-0.12 0.06,-0.03 0.12,-0.05 0.19,-0.05 0.07,0 0.13,0.02 0.18,0.05 0.06,0.03 0.1,0.07 0.13,0.12 0.03,0.06 0.05,0.12 0.05,0.19 0,0.07 -0.02,0.13 -0.05,0.18 -0.03,0.06 -0.07,0.1 -0.13,0.13 -0.05,0.03 -0.11,0.05 -0.18,0.05zm0 -0.12c0.04,0 0.08,-0.01 0.12,-0.03 0.03,-0.02 0.06,-0.05 0.08,-0.08 0.02,-0.04 0.03,-0.08 0.03,-0.13 0,-0.05 -0.01,-0.09 -0.03,-0.13 -0.02,-0.04 -0.05,-0.07 -0.08,-0.09 -0.04,-0.02 -0.08,-0.03 -0.12,-0.03 -0.05,0 -0.09,0.01 -0.12,0.03 -0.04,0.02 -0.07,0.05 -0.09,0.09 -0.02,0.04 -0.03,0.08 -0.03,0.13 0,0.05 0.01,0.09 0.03,0.13 0.02,0.03 0.05,0.06 0.09,0.08 0.03,0.02 0.07,0.03 0.12,0.03z"/>
   <path id="51" class="fil3" d="M14.5 18.56l0.13 0 0 0.51 0.43 -0.51 0.11 0 0 0.7 -0.13 0 0 -0.51 -0.42 0.51 -0.12 0 0 -0.7zm0.33 -0.09c-0.07,0 -0.12,-0.02 -0.15,-0.05 -0.04,-0.03 -0.06,-0.07 -0.06,-0.13l0.09 0c0,0.03 0.01,0.06 0.03,0.08 0.02,0.02 0.05,0.02 0.09,0.02 0.03,0 0.06,0 0.08,-0.02 0.03,-0.02 0.04,-0.05 0.04,-0.08l0.09 0c0,0.06 -0.02,0.1 -0.06,0.13 -0.04,0.03 -0.09,0.05 -0.15,0.05z"/>
   <path id="52" class="fil3" d="M16.07 19.27c-0.07,0 -0.13,-0.02 -0.19,-0.05 -0.05,-0.03 -0.09,-0.07 -0.13,-0.13 -0.03,-0.05 -0.04,-0.11 -0.04,-0.18 0,-0.07 0.01,-0.13 0.04,-0.19 0.04,-0.05 0.08,-0.09 0.13,-0.12 0.06,-0.03 0.12,-0.05 0.19,-0.05 0.07,0 0.12,0.02 0.17,0.04 0.05,0.03 0.09,0.06 0.12,0.11l-0.1 0.06c-0.02,-0.03 -0.05,-0.05 -0.08,-0.07 -0.03,-0.02 -0.07,-0.03 -0.11,-0.03 -0.04,0 -0.08,0.01 -0.12,0.03 -0.04,0.02 -0.06,0.05 -0.09,0.09 -0.02,0.04 -0.03,0.08 -0.03,0.13 0,0.05 0.01,0.09 0.03,0.13 0.03,0.04 0.05,0.06 0.09,0.08 0.04,0.02 0.08,0.03 0.12,0.03 0.04,0 0.08,0 0.11,-0.02 0.03,-0.02 0.06,-0.04 0.08,-0.08l0.1 0.07c-0.03,0.04 -0.07,0.08 -0.12,0.11 -0.05,0.02 -0.1,0.04 -0.17,0.04z"/>
   <path id="53" class="fil3" d="M17.1 18.56l0 0.7 -0.13 0 0 -0.59 -0.3 0 0 0.16c-0.01,0.09 -0.02,0.17 -0.03,0.23 -0.01,0.06 -0.03,0.11 -0.06,0.15 -0.03,0.04 -0.07,0.06 -0.12,0.06 -0.02,0 -0.05,-0.01 -0.07,-0.01l0 -0.11c0.02,0 0.03,0 0.04,0 0.03,0 0.06,-0.01 0.07,-0.04 0.02,-0.03 0.03,-0.07 0.04,-0.11 0,-0.04 0.01,-0.1 0.01,-0.18l0.02 -0.26 0.53 0z"/>
   <path id="54" class="fil3" d="M17.65 19.27c-0.07,0 -0.14,-0.02 -0.19,-0.05 -0.06,-0.03 -0.1,-0.07 -0.13,-0.13 -0.03,-0.05 -0.05,-0.11 -0.05,-0.18 0,-0.07 0.02,-0.13 0.05,-0.19 0.03,-0.05 0.07,-0.09 0.13,-0.12 0.05,-0.03 0.12,-0.05 0.19,-0.05 0.06,0 0.13,0.02 0.18,0.05 0.06,0.03 0.1,0.07 0.13,0.12 0.03,0.06 0.05,0.12 0.05,0.19 0,0.07 -0.02,0.13 -0.05,0.18 -0.03,0.06 -0.07,0.1 -0.13,0.13 -0.05,0.03 -0.12,0.05 -0.18,0.05zm0 -0.12c0.04,0 0.08,-0.01 0.12,-0.03 0.03,-0.02 0.06,-0.05 0.08,-0.08 0.02,-0.04 0.03,-0.08 0.03,-0.13 0,-0.05 -0.01,-0.09 -0.03,-0.13 -0.02,-0.04 -0.05,-0.07 -0.08,-0.09 -0.04,-0.02 -0.08,-0.03 -0.12,-0.03 -0.05,0 -0.09,0.01 -0.13,0.03 -0.03,0.02 -0.06,0.05 -0.08,0.09 -0.02,0.04 -0.03,0.08 -0.03,0.13 0,0.05 0.01,0.09 0.03,0.13 0.02,0.03 0.05,0.06 0.08,0.08 0.04,0.02 0.08,0.03 0.13,0.03z"/>
   <polygon id="55" class="fil3" points="18.8,18.96 18.67,18.96 18.67,19.26 18.54,19.26 18.54,18.96 18.4,18.96 18.21,19.26 18.06,19.26 18.3,18.9 18.08,18.56 18.21,18.56 18.4,18.85 18.54,18.85 18.54,18.56 18.67,18.56 18.67,18.85 18.8,18.85 18.99,18.56 19.13,18.56 18.91,18.9 19.15,19.26 19,19.26 "/>
   <polygon id="56" class="fil3" points="19.29,18.56 19.41,18.56 19.41,18.86 19.81,18.86 19.81,18.56 19.94,18.56 19.94,19.26 19.81,19.26 19.81,18.97 19.41,18.97 19.41,19.26 19.29,19.26 "/>
   <path id="57" class="fil3" d="M20.48 19.27c-0.07,0 -0.13,-0.02 -0.19,-0.05 -0.05,-0.03 -0.09,-0.07 -0.13,-0.13 -0.03,-0.05 -0.04,-0.11 -0.04,-0.18 0,-0.07 0.01,-0.13 0.04,-0.19 0.04,-0.05 0.08,-0.09 0.13,-0.12 0.06,-0.03 0.12,-0.05 0.19,-0.05 0.07,0 0.13,0.02 0.19,0.05 0.05,0.03 0.1,0.07 0.13,0.12 0.03,0.06 0.04,0.12 0.04,0.19 0,0.07 -0.01,0.13 -0.04,0.18 -0.03,0.06 -0.08,0.1 -0.13,0.13 -0.06,0.03 -0.12,0.05 -0.19,0.05zm0 -0.12c0.05,0 0.09,-0.01 0.12,-0.03 0.04,-0.02 0.06,-0.05 0.09,-0.08 0.02,-0.04 0.03,-0.08 0.03,-0.13 0,-0.05 -0.01,-0.09 -0.03,-0.13 -0.03,-0.04 -0.05,-0.07 -0.09,-0.09 -0.03,-0.02 -0.07,-0.03 -0.12,-0.03 -0.04,0 -0.08,0.01 -0.12,0.03 -0.04,0.02 -0.06,0.05 -0.08,0.09 -0.02,0.04 -0.03,0.08 -0.03,0.13 0,0.05 0.01,0.09 0.03,0.13 0.02,0.03 0.04,0.06 0.08,0.08 0.04,0.02 0.08,0.03 0.12,0.03z"/>
   <path id="58" class="fil3" d="M21.33 19.27c-0.07,0 -0.13,-0.02 -0.19,-0.05 -0.06,-0.03 -0.1,-0.07 -0.13,-0.13 -0.03,-0.05 -0.05,-0.11 -0.05,-0.18 0,-0.07 0.02,-0.13 0.05,-0.19 0.03,-0.05 0.07,-0.09 0.13,-0.12 0.06,-0.03 0.12,-0.05 0.19,-0.05 0.06,0 0.12,0.02 0.17,0.04 0.05,0.03 0.09,0.06 0.12,0.11l-0.1 0.06c-0.02,-0.03 -0.05,-0.05 -0.08,-0.07 -0.04,-0.02 -0.07,-0.03 -0.11,-0.03 -0.05,0 -0.09,0.01 -0.12,0.03 -0.04,0.02 -0.07,0.05 -0.09,0.09 -0.02,0.04 -0.03,0.08 -0.03,0.13 0,0.05 0.01,0.09 0.03,0.13 0.02,0.04 0.05,0.06 0.09,0.08 0.03,0.02 0.07,0.03 0.12,0.03 0.04,0 0.07,0 0.11,-0.02 0.03,-0.02 0.06,-0.04 0.08,-0.08l0.1 0.07c-0.03,0.04 -0.07,0.08 -0.12,0.11 -0.05,0.02 -0.11,0.04 -0.17,0.04z"/>
   <polygon id="59" class="fil3" points="22.29,18.67 22.03,18.67 22.03,19.26 21.91,19.26 21.91,18.67 21.65,18.67 21.65,18.56 22.29,18.56 "/>
   <polygon id="60" class="fil3" points="22.42,18.56 22.55,18.56 22.55,19.07 22.97,18.56 23.09,18.56 23.09,19.26 22.96,19.26 22.96,18.75 22.53,19.26 22.42,19.26 "/>
   <polygon id="61" class="fil3" points="11.78,20.24 11.78,20.94 11.65,20.94 11.65,20.36 11.26,20.36 11.26,20.94 11.13,20.94 11.13,20.24 "/>
   <path id="62" class="fil3" d="M12.32 20.95c-0.07,0 -0.13,-0.01 -0.18,-0.05 -0.06,-0.03 -0.1,-0.07 -0.13,-0.12 -0.03,-0.06 -0.05,-0.12 -0.05,-0.19 0,-0.06 0.02,-0.13 0.05,-0.18 0.03,-0.05 0.07,-0.1 0.13,-0.13 0.05,-0.03 0.11,-0.04 0.18,-0.04 0.07,0 0.13,0.01 0.19,0.04 0.05,0.03 0.1,0.08 0.13,0.13 0.03,0.05 0.05,0.12 0.05,0.18 0,0.07 -0.02,0.13 -0.05,0.19 -0.03,0.05 -0.08,0.09 -0.13,0.12 -0.06,0.04 -0.12,0.05 -0.19,0.05zm0 -0.11c0.05,0 0.09,-0.01 0.12,-0.03 0.04,-0.02 0.07,-0.05 0.09,-0.09 0.02,-0.04 0.03,-0.08 0.03,-0.13 0,-0.04 -0.01,-0.09 -0.03,-0.12 -0.02,-0.04 -0.05,-0.07 -0.09,-0.09 -0.03,-0.02 -0.07,-0.03 -0.12,-0.03 -0.04,0 -0.08,0.01 -0.12,0.03 -0.03,0.02 -0.06,0.05 -0.08,0.09 -0.02,0.03 -0.03,0.08 -0.03,0.12 0,0.05 0.01,0.09 0.03,0.13 0.02,0.04 0.05,0.07 0.08,0.09 0.04,0.02 0.08,0.03 0.12,0.03z"/>
   <path id="63" class="fil3" d="M13.57 20.83l0 0.27 -0.12 0 0 -0.16 -0.58 0 0 0.16 -0.12 0 0 -0.27 0.04 0c0.04,0 0.07,-0.03 0.09,-0.09 0.02,-0.06 0.03,-0.15 0.03,-0.26l0.01 -0.24 0.55 0 0 0.59 0.1 0zm-0.54 -0.34c0,0.09 -0.01,0.16 -0.02,0.22 -0.01,0.06 -0.03,0.1 -0.06,0.12l0.39 0 0 -0.47 -0.3 0 -0.01 0.13z"/>
   <path id="64" class="fil3" d="M14.69 20.24l0 0.7 -0.13 0 0 -0.58 -0.3 0 0 0.15c-0.01,0.09 -0.02,0.17 -0.03,0.24 -0.01,0.06 -0.03,0.11 -0.06,0.15 -0.03,0.03 -0.07,0.05 -0.12,0.05 -0.02,0 -0.04,0 -0.07,-0.01l0 -0.11c0.02,0.01 0.03,0.01 0.04,0.01 0.03,0 0.06,-0.02 0.07,-0.05 0.02,-0.03 0.03,-0.06 0.04,-0.11 0,-0.04 0.01,-0.1 0.01,-0.18l0.02 -0.26 0.53 0z"/>
   <path id="65" class="fil3" d="M15.55 20.24c0.07,0 0.13,0.01 0.19,0.04 0.05,0.03 0.09,0.08 0.12,0.13 0.03,0.05 0.05,0.12 0.05,0.18 0,0.07 -0.02,0.13 -0.05,0.19 -0.03,0.05 -0.07,0.09 -0.12,0.12 -0.06,0.04 -0.12,0.05 -0.19,0.05 -0.06,0 -0.11,-0.01 -0.16,-0.04 -0.05,-0.02 -0.09,-0.06 -0.13,-0.1 -0.03,-0.05 -0.05,-0.1 -0.06,-0.16l-0.14 0 0 0.29 -0.12 0 0 -0.7 0.12 0 0 0.29 0.15 0c0,-0.06 0.02,-0.11 0.06,-0.15 0.03,-0.05 0.07,-0.08 0.12,-0.11 0.05,-0.02 0.1,-0.03 0.16,-0.03zm0 0.6c0.05,0 0.09,-0.01 0.12,-0.03 0.04,-0.02 0.06,-0.05 0.08,-0.09 0.02,-0.03 0.03,-0.08 0.03,-0.13 0,-0.04 -0.01,-0.09 -0.03,-0.12 -0.02,-0.04 -0.04,-0.07 -0.08,-0.09 -0.03,-0.02 -0.07,-0.03 -0.12,-0.03 -0.04,0 -0.08,0.01 -0.11,0.03 -0.04,0.02 -0.07,0.05 -0.09,0.09 -0.02,0.03 -0.03,0.08 -0.03,0.12 0,0.05 0.01,0.1 0.03,0.13 0.02,0.04 0.05,0.07 0.09,0.09 0.03,0.02 0.07,0.03 0.11,0.03z"/>
   <path id="66" class="fil3" d="M16.45 20.27c0.06,0 0.12,0.01 0.17,0.04 0.05,0.03 0.09,0.07 0.12,0.12 0.03,0.05 0.04,0.11 0.04,0.18 0,0.07 -0.01,0.13 -0.04,0.18 -0.03,0.05 -0.08,0.09 -0.13,0.12 -0.06,0.03 -0.12,0.04 -0.19,0.04 -0.12,0 -0.21,-0.04 -0.27,-0.12 -0.07,-0.08 -0.1,-0.19 -0.1,-0.34 0,-0.14 0.03,-0.26 0.09,-0.34 0.06,-0.08 0.15,-0.13 0.27,-0.16l0.32 -0.07 0.01 0.12 -0.29 0.06c-0.09,0.02 -0.16,0.05 -0.2,0.1 -0.05,0.05 -0.07,0.12 -0.08,0.21 0.03,-0.05 0.07,-0.08 0.12,-0.1 0.04,-0.03 0.1,-0.04 0.16,-0.04zm-0.03 0.58c0.05,0 0.09,-0.01 0.12,-0.03 0.04,-0.02 0.06,-0.05 0.08,-0.09 0.02,-0.03 0.03,-0.07 0.03,-0.12 0,-0.07 -0.02,-0.12 -0.06,-0.17 -0.04,-0.04 -0.1,-0.06 -0.17,-0.06 -0.07,0 -0.12,0.02 -0.16,0.06 -0.05,0.05 -0.07,0.1 -0.07,0.17 0,0.05 0.01,0.09 0.03,0.12 0.02,0.04 0.05,0.07 0.08,0.09 0.04,0.02 0.08,0.03 0.12,0.03z"/>
   <path id="67" class="fil3" d="M17.28 20.48c0.08,0 0.15,0.02 0.2,0.06 0.05,0.04 0.07,0.1 0.07,0.17 0,0.08 -0.03,0.13 -0.08,0.17 -0.05,0.04 -0.12,0.06 -0.21,0.06l-0.3 0 0 -0.7 0.13 0 0 0.24 0.19 0zm0.37 -0.24l0.13 0 0 0.7 -0.13 0 0 -0.7zm-0.4 0.61c0.05,0 0.1,-0.01 0.13,-0.04 0.03,-0.02 0.04,-0.06 0.04,-0.1 0,-0.05 -0.01,-0.08 -0.04,-0.1 -0.03,-0.02 -0.08,-0.03 -0.13,-0.03l-0.16 -0.01 0 0.28 0.16 0z"/>
   <path id="68" class="fil3" d="M18.66 20.6c0,0.01 0,0.02 -0.01,0.04l-0.56 0c0,0.06 0.03,0.11 0.08,0.14 0.04,0.04 0.1,0.06 0.17,0.06 0.08,0 0.15,-0.03 0.2,-0.08l0.07 0.08c-0.03,0.03 -0.07,0.06 -0.12,0.08 -0.04,0.02 -0.1,0.03 -0.15,0.03 -0.08,0 -0.14,-0.01 -0.2,-0.04 -0.06,-0.04 -0.1,-0.08 -0.13,-0.13 -0.03,-0.06 -0.05,-0.12 -0.05,-0.19 0,-0.06 0.02,-0.13 0.05,-0.18 0.03,-0.05 0.07,-0.1 0.12,-0.13 0.05,-0.03 0.11,-0.04 0.18,-0.04 0.07,0 0.13,0.01 0.18,0.04 0.05,0.03 0.09,0.08 0.12,0.13 0.03,0.05 0.05,0.12 0.05,0.19zm-0.35 -0.26c-0.06,0 -0.11,0.02 -0.15,0.06 -0.04,0.04 -0.07,0.09 -0.07,0.14l0.44 0c0,-0.05 -0.03,-0.1 -0.07,-0.14 -0.04,-0.04 -0.09,-0.06 -0.15,-0.06z"/>
   <polygon id="69" class="fil3" points="19.95,20.83 19.95,21.11 19.83,21.11 19.83,20.94 19.21,20.94 19.21,20.24 19.33,20.24 19.33,20.83 19.72,20.83 19.72,20.24 19.84,20.24 19.84,20.83 "/>
   <path id="70" class="fil3" d="M20.75 20.6c0,0.01 0,0.02 -0.01,0.04l-0.56 0c0.01,0.06 0.03,0.11 0.08,0.14 0.04,0.04 0.1,0.06 0.17,0.06 0.08,0 0.15,-0.03 0.2,-0.08l0.07 0.08c-0.03,0.03 -0.07,0.06 -0.12,0.08 -0.04,0.02 -0.1,0.03 -0.15,0.03 -0.08,0 -0.14,-0.01 -0.2,-0.04 -0.06,-0.04 -0.1,-0.08 -0.13,-0.13 -0.03,-0.06 -0.05,-0.12 -0.05,-0.19 0,-0.06 0.02,-0.13 0.05,-0.18 0.03,-0.05 0.07,-0.1 0.12,-0.13 0.05,-0.03 0.11,-0.04 0.18,-0.04 0.07,0 0.13,0.01 0.18,0.04 0.05,0.03 0.09,0.08 0.12,0.13 0.03,0.05 0.05,0.12 0.05,0.19zm-0.35 -0.26c-0.06,0 -0.11,0.02 -0.15,0.06 -0.04,0.04 -0.07,0.09 -0.07,0.14l0.45 0c-0.01,-0.05 -0.04,-0.1 -0.08,-0.14 -0.04,-0.04 -0.09,-0.06 -0.15,-0.06z"/>
   <path id="71" class="fil3" d="M21.53 20.24l0 0.7 -0.13 0 0 -0.58 -0.3 0 0 0.15c-0.01,0.09 -0.02,0.17 -0.03,0.24 -0.01,0.06 -0.03,0.11 -0.06,0.15 -0.03,0.03 -0.07,0.05 -0.12,0.05 -0.02,0 -0.05,0 -0.08,-0.01l0.01 -0.11c0.01,0.01 0.02,0.01 0.03,0.01 0.04,0 0.07,-0.02 0.08,-0.05 0.02,-0.03 0.03,-0.06 0.04,-0.11 0,-0.04 0.01,-0.1 0.01,-0.18l0.01 -0.26 0.54 0z"/>
   <polygon id="72" class="fil3" points="21.78,20.24 21.9,20.24 21.9,20.75 22.33,20.24 22.44,20.24 22.44,20.94 22.32,20.94 22.32,20.43 21.89,20.94 21.78,20.94 "/>
   <path id="73" class="fil3" d="M22.72 20.95c-0.03,0 -0.05,-0.01 -0.07,-0.03 -0.01,-0.01 -0.02,-0.03 -0.02,-0.06 0,-0.03 0.01,-0.05 0.02,-0.06 0.02,-0.02 0.04,-0.03 0.07,-0.03 0.02,0 0.04,0.01 0.06,0.03 0.02,0.01 0.02,0.03 0.02,0.06 0,0.03 0,0.05 -0.02,0.06 -0.02,0.02 -0.04,0.03 -0.06,0.03z"/>
  </g>
 </g>
</svg>
