<?xml version="1.0" encoding="UTF-8"?>
<!DOCTYPE svg PUBLIC "-//W3C//DTD SVG 1.1//EN" "http://www.w3.org/Graphics/SVG/1.1/DTD/svg11.dtd">
<!-- Creator: CorelDRAW 2017 -->
<svg xmlns="http://www.w3.org/2000/svg" xml:space="preserve" width="825px" height="536px" version="1.1" style="shape-rendering:geometricPrecision; text-rendering:geometricPrecision; image-rendering:optimizeQuality; fill-rule:evenodd; clip-rule:evenodd"
viewBox="0 0 37.3 24.22"
 xmlns:xlink="http://www.w3.org/1999/xlink">
 <defs>
  <style type="text/css">
   <![CDATA[
    .fil2 {fill:none}
    .fil0 {fill:#91C9FF}
    .fil1 {fill:white;fill-opacity:0.501961}
   ]]>
  </style>
   <clipPath id="id0">
    <path d="M0 0l37.3 0 0 24.22 -37.3 0 0 -24.22z"/>
   </clipPath>
 </defs>
 <g id="Слой_x0020_1">
  <metadata id="CorelCorpID_0Corel-Layer"/>
  <polygon class="fil0" points="0,0 37.3,0 37.3,24.22 0,24.22 "/>
  <g style="clip-path:url(#id0)">
   <g id="_2227159259296">
    <path id="1" class="fil1" d="M7.81 3.53c6.07,0 10.99,4.93 10.99,11 0,6.08 -4.92,11 -10.99,11 -6.08,0 -11,-4.92 -11,-11 0,-6.07 4.92,-11 11,-11zm-2.88 6.02l0 9.97 8.63 -4.99 -8.63 -4.98z"/>
   </g>
  </g>
  <polygon class="fil2" points="0,0 37.3,0 37.3,24.22 0,24.22 "/>
 </g>
</svg>
