<?xml version="1.0" encoding="UTF-8"?>
<!DOCTYPE svg PUBLIC "-//W3C//DTD SVG 1.1//EN" "http://www.w3.org/Graphics/SVG/1.1/DTD/svg11.dtd">
<!-- Creator: CorelDRAW 2017 -->
<svg xmlns="http://www.w3.org/2000/svg" xml:space="preserve" width="825px" height="536px" version="1.1" style="shape-rendering:geometricPrecision; text-rendering:geometricPrecision; image-rendering:optimizeQuality; fill-rule:evenodd; clip-rule:evenodd"
viewBox="0 0 33.3 21.63"
 xmlns:xlink="http://www.w3.org/1999/xlink">
 <defs>
  <style type="text/css">
   <![CDATA[
    .fil2 {fill:none}
    .fil0 {fill:#CC99CC}
    .fil1 {fill:white;fill-rule:nonzero;fill-opacity:0.501961}
   ]]>
  </style>
   <clipPath id="id0">
    <path d="M33.3 0l-33.3 0 0 21.63 33.3 0 0 -21.63z"/>
   </clipPath>
 </defs>
 <g id="Слой_x0020_1">
  <metadata id="CorelCorpID_0Corel-Layer"/>
  <polygon class="fil0" points="33.3,0 0,0 0,21.63 33.3,21.63 "/>
  <g style="clip-path:url(#id0)">
   <g id="_2227377599296">
    <path id="1" class="fil1" d="M35.44 10.32l0 11.34c-3.27,1.89 -6.55,3.78 -9.82,5.67 -3.28,-1.89 -6.56,-3.78 -9.83,-5.67l0 -11.34 9.82 -5.67c3.28,1.89 6.56,3.78 9.83,5.67zm-8.44 3.55c1.33,-0.06 2.81,-0.07 3.17,1.55 0.21,0.99 -0.16,1.97 -1.08,2.39 -0.51,0.24 -1.48,0.2 -2.09,0.18l0 -4.12zm-7.19 -0.07l2.67 0c-0.16,0.21 -1.52,1.57 -1.59,1.61 0,0.1 0.14,0.76 0.2,0.92l0.04 0.07c0.12,0.1 1.72,-0.26 1.94,0.71 0.17,0.74 -0.59,1.22 -1.55,0.93 -0.28,-0.08 -0.67,-0.32 -0.83,-0.51 -0.06,-0.08 -0.15,-0.18 -0.24,-0.22 -0.11,0.05 -0.17,0.14 -0.26,0.25 -0.08,0.08 -0.74,0.66 -0.78,0.76 0.31,0.27 0.4,0.45 0.84,0.7 0.36,0.2 0.65,0.34 1.13,0.42 0.46,0.07 0.98,0.08 1.42,-0.02 0.21,-0.04 0.4,-0.11 0.58,-0.2 0.21,-0.11 0.3,-0.16 0.47,-0.3 0.5,-0.4 0.92,-1.33 0.67,-2.28 -0.11,-0.41 -0.39,-0.74 -0.64,-0.92 -0.53,-0.37 -0.86,-0.32 -1.12,-0.44l1.71 -1.66c0.03,-0.1 0.01,-0.96 0.01,-1.13l-4.67 0 0 1.31zm5.66 5.57l2.64 0.01c1.11,-0.01 2.19,-0.43 2.72,-1.04 0.09,-0.1 0.15,-0.12 0.32,-0.34 0.13,-0.17 0.23,-0.36 0.33,-0.56 0.67,-1.31 0.32,-3.07 -0.7,-3.98l-0.24 -0.2c-0.07,-0.06 -0.15,-0.13 -0.25,-0.19 -1.04,-0.65 -1.89,-0.58 -3,-0.58l-1.82 0 0 6.88z"/>
   </g>
  </g>
  <polygon class="fil2" points="33.3,0 0,0 0,21.63 33.3,21.63 "/>
 </g>
</svg>
