<?xml version="1.0" encoding="UTF-8"?>
<!DOCTYPE svg PUBLIC "-//W3C//DTD SVG 1.1//EN" "http://www.w3.org/Graphics/SVG/1.1/DTD/svg11.dtd">
<!-- Creator: CorelDRAW 2017 -->
<svg xmlns="http://www.w3.org/2000/svg" xml:space="preserve" width="1053px" height="465px" version="1.1" style="shape-rendering:geometricPrecision; text-rendering:geometricPrecision; image-rendering:optimizeQuality; fill-rule:evenodd; clip-rule:evenodd"
viewBox="0 0 60.77 26.81"
 xmlns:xlink="http://www.w3.org/1999/xlink">
 <defs>
  <style type="text/css">
   <![CDATA[
    .fil1 {fill:none}
    .fil0 {fill:white}
    .fil3 {fill:#7A447C;fill-rule:nonzero}
    .fil2 {fill:#CC99CC;fill-rule:nonzero}
   ]]>
  </style>
 </defs>
 <g id="Слой_x0020_1">
  <metadata id="CorelCorpID_0Corel-Layer"/>
  <rect class="fil0" y="0.04" width="60.77" height="26.78"/>
  <rect class="fil1" width="60.77" height="26.81"/>
  <g id="_2227155355152">
   <path class="fil2" d="M45.91 9.68l0 4.3c-1.24,0.71 -2.48,1.43 -3.72,2.14 -1.24,-0.71 -2.48,-1.43 -3.72,-2.14l0 -4.3 3.72 -2.15c1.24,0.72 2.48,1.44 3.72,2.15zm-3.19 1.35c0.5,-0.03 1.06,-0.03 1.2,0.59 0.08,0.37 -0.06,0.74 -0.41,0.9 -0.19,0.09 -0.56,0.07 -0.79,0.07l0 -1.56zm-2.72 -0.03l1.01 0c-0.07,0.08 -0.58,0.6 -0.61,0.61 0,0.04 0.06,0.29 0.08,0.35l0.01 0.03c0.05,0.03 0.66,-0.1 0.74,0.27 0.06,0.27 -0.23,0.46 -0.59,0.35 -0.1,-0.04 -0.25,-0.12 -0.31,-0.2 -0.03,-0.03 -0.06,-0.06 -0.09,-0.08 -0.04,0.02 -0.07,0.05 -0.1,0.09 -0.03,0.04 -0.28,0.25 -0.3,0.29 0.12,0.1 0.15,0.17 0.32,0.27 0.14,0.07 0.25,0.13 0.43,0.16 0.17,0.02 0.37,0.03 0.54,-0.01 0.08,-0.02 0.15,-0.04 0.22,-0.08 0.08,-0.04 0.11,-0.06 0.17,-0.11 0.19,-0.15 0.35,-0.51 0.26,-0.87 -0.04,-0.15 -0.15,-0.27 -0.24,-0.34 -0.21,-0.14 -0.33,-0.12 -0.43,-0.17l0.65 -0.63c0.01,-0.03 0,-0.36 0,-0.43l-1.76 0 0 0.5zm2.14 2.11l1 0c0.42,0 0.83,-0.16 1.03,-0.39 0.03,-0.04 0.05,-0.05 0.12,-0.13 0.05,-0.07 0.09,-0.13 0.12,-0.21 0.26,-0.5 0.13,-1.16 -0.26,-1.51l-0.09 -0.08c-0.03,-0.02 -0.06,-0.04 -0.1,-0.07 -0.39,-0.24 -0.71,-0.22 -1.13,-0.22l-0.69 0 0 2.61z"/>
   <path class="fil3" d="M31.9 17.83c0.15,0.03 0.26,0.08 0.34,0.17 0.08,0.08 0.12,0.19 0.12,0.32 0,0.09 -0.03,0.18 -0.08,0.27 -0.05,0.08 -0.13,0.15 -0.23,0.2 -0.11,0.04 -0.24,0.07 -0.39,0.07 -0.12,0 -0.23,-0.02 -0.35,-0.05 -0.11,-0.03 -0.21,-0.07 -0.29,-0.13l0.15 -0.3c0.06,0.05 0.14,0.09 0.22,0.11 0.09,0.03 0.17,0.04 0.26,0.04 0.1,0 0.18,-0.02 0.23,-0.05 0.06,-0.04 0.09,-0.09 0.09,-0.16 0,-0.14 -0.11,-0.21 -0.32,-0.21l-0.18 0 0 -0.26 0.35 -0.39 -0.72 0 0 -0.31 1.18 0 0 0.25 -0.38 0.43z"/>
   <path id="1" class="fil3" d="M36.28 18.16c0.15,0.05 0.23,0.15 0.23,0.3 0,0.12 -0.05,0.21 -0.13,0.27 -0.09,0.07 -0.22,0.1 -0.4,0.1l-0.69 0 0 -1.29 0.66 0c0.16,0 0.29,0.03 0.38,0.09 0.09,0.05 0.14,0.14 0.14,0.24 0,0.07 -0.02,0.12 -0.05,0.17 -0.03,0.05 -0.08,0.09 -0.14,0.12zm-0.65 -0.09l0.29 0c0.13,0 0.2,-0.05 0.2,-0.14 0,-0.09 -0.07,-0.14 -0.2,-0.14l-0.29 0 0 0.28zm0.32 0.51c0.14,0 0.21,-0.05 0.21,-0.15 0,-0.05 -0.02,-0.08 -0.05,-0.11 -0.03,-0.02 -0.08,-0.03 -0.15,-0.03l-0.33 0 0 0.29 0.32 0z"/>
   <polygon id="2" class="fil3" points="36.79,17.54 37.16,17.54 37.16,18.31 37.79,17.54 38.13,17.54 38.13,18.83 37.76,18.83 37.76,18.06 37.13,18.83 36.79,18.83 "/>
   <path id="3" class="fil3" d="M39.32 18.16c0.08,0.02 0.14,0.06 0.18,0.11 0.04,0.05 0.06,0.11 0.06,0.18 0,0.08 -0.03,0.15 -0.08,0.21 -0.06,0.06 -0.13,0.11 -0.23,0.14 -0.1,0.04 -0.21,0.05 -0.33,0.05 -0.11,0 -0.2,-0.01 -0.3,-0.03 -0.1,-0.02 -0.19,-0.05 -0.27,-0.09l0.1 -0.26c0.13,0.06 0.28,0.1 0.45,0.1 0.09,0 0.16,-0.02 0.21,-0.04 0.05,-0.03 0.07,-0.07 0.07,-0.11 0,-0.05 -0.02,-0.08 -0.05,-0.1 -0.04,-0.02 -0.09,-0.03 -0.15,-0.03l-0.27 0 0 -0.24 0.23 0c0.07,0 0.12,-0.01 0.15,-0.03 0.04,-0.02 0.06,-0.05 0.06,-0.09 0,-0.04 -0.03,-0.07 -0.07,-0.09 -0.04,-0.03 -0.11,-0.04 -0.19,-0.04 -0.12,0 -0.26,0.03 -0.41,0.09l-0.09 -0.26c0.18,-0.08 0.36,-0.12 0.53,-0.12 0.11,0 0.22,0.02 0.31,0.05 0.09,0.03 0.16,0.07 0.22,0.12 0.05,0.06 0.08,0.12 0.08,0.2 0,0.06 -0.02,0.11 -0.06,0.16 -0.04,0.05 -0.09,0.09 -0.15,0.12z"/>
   <path id="4" class="fil3" d="M41.13 17.54l-0.58 1.37c-0.06,0.15 -0.14,0.25 -0.22,0.32 -0.09,0.06 -0.2,0.09 -0.32,0.09 -0.07,0 -0.13,-0.01 -0.2,-0.03 -0.07,-0.03 -0.12,-0.05 -0.16,-0.09l0.14 -0.27c0.02,0.03 0.06,0.05 0.1,0.06 0.03,0.02 0.07,0.02 0.11,0.02 0.05,0 0.09,-0.01 0.12,-0.03 0.03,-0.03 0.06,-0.07 0.09,-0.13l0 -0.01 -0.56 -1.3 0.39 0 0.36 0.88 0.37 -0.88 0.36 0z"/>
   <path id="5" class="fil3" d="M41.77 17.52c0.2,0 0.35,0.05 0.46,0.14 0.11,0.1 0.16,0.24 0.16,0.43l0 0.74 -0.35 0 0 -0.16c-0.07,0.12 -0.2,0.18 -0.39,0.18 -0.1,0 -0.19,-0.02 -0.26,-0.05 -0.07,-0.03 -0.13,-0.08 -0.17,-0.14 -0.04,-0.06 -0.06,-0.13 -0.06,-0.2 0,-0.12 0.05,-0.22 0.14,-0.29 0.09,-0.06 0.23,-0.1 0.42,-0.1l0.3 0c0,-0.08 -0.03,-0.14 -0.08,-0.19 -0.05,-0.04 -0.12,-0.06 -0.22,-0.06 -0.07,0 -0.14,0.01 -0.2,0.03 -0.07,0.02 -0.13,0.05 -0.17,0.09l-0.14 -0.27c0.07,-0.04 0.16,-0.08 0.26,-0.11 0.09,-0.03 0.19,-0.04 0.3,-0.04zm-0.03 1.08c0.06,0 0.12,-0.02 0.17,-0.05 0.05,-0.03 0.09,-0.07 0.11,-0.13l0 -0.13 -0.26 0c-0.15,0 -0.23,0.05 -0.23,0.15 0,0.05 0.02,0.09 0.06,0.12 0.03,0.02 0.08,0.04 0.15,0.04z"/>
   <path id="6" class="fil3" d="M43.96 17.54l0 1.29 -0.38 0 0 -0.98 -0.4 0 -0.02 0.22c0,0.17 -0.02,0.31 -0.04,0.43 -0.03,0.11 -0.07,0.2 -0.13,0.26 -0.06,0.07 -0.14,0.1 -0.24,0.1 -0.05,0 -0.12,-0.01 -0.19,-0.03l0.01 -0.31c0.03,0 0.05,0.01 0.06,0.01 0.06,0 0.1,-0.02 0.13,-0.07 0.02,-0.04 0.04,-0.09 0.05,-0.15 0.01,-0.07 0.02,-0.15 0.02,-0.25l0.02 -0.52 1.11 0z"/>
   <polygon id="7" class="fil3" points="44.32,17.54 44.69,17.54 44.69,18.31 45.32,17.54 45.67,17.54 45.67,18.83 45.29,18.83 45.29,18.06 44.67,18.83 44.32,18.83 "/>
   <path id="8" class="fil3" d="M46.85 18.16c0.08,0.02 0.14,0.06 0.18,0.11 0.04,0.05 0.07,0.11 0.07,0.18 0,0.08 -0.03,0.15 -0.09,0.21 -0.05,0.06 -0.13,0.11 -0.23,0.14 -0.1,0.04 -0.21,0.05 -0.33,0.05 -0.1,0 -0.2,-0.01 -0.3,-0.03 -0.1,-0.02 -0.19,-0.05 -0.27,-0.09l0.1 -0.26c0.14,0.06 0.29,0.1 0.45,0.1 0.09,0 0.16,-0.02 0.21,-0.04 0.05,-0.03 0.08,-0.07 0.08,-0.11 0,-0.05 -0.02,-0.08 -0.06,-0.1 -0.03,-0.02 -0.08,-0.03 -0.15,-0.03l-0.27 0 0 -0.24 0.24 0c0.06,0 0.11,-0.01 0.15,-0.03 0.03,-0.02 0.05,-0.05 0.05,-0.09 0,-0.04 -0.02,-0.07 -0.07,-0.09 -0.04,-0.03 -0.1,-0.04 -0.18,-0.04 -0.13,0 -0.27,0.03 -0.41,0.09l-0.09 -0.26c0.17,-0.08 0.35,-0.12 0.52,-0.12 0.12,0 0.22,0.02 0.31,0.05 0.1,0.03 0.17,0.07 0.22,0.12 0.05,0.06 0.08,0.12 0.08,0.2 0,0.06 -0.02,0.11 -0.06,0.16 -0.03,0.05 -0.08,0.09 -0.15,0.12z"/>
   <path id="9" class="fil3" d="M47.87 17.52c0.2,0 0.35,0.05 0.46,0.14 0.11,0.1 0.16,0.24 0.16,0.43l0 0.74 -0.35 0 0 -0.16c-0.07,0.12 -0.2,0.18 -0.39,0.18 -0.1,0 -0.19,-0.02 -0.26,-0.05 -0.07,-0.03 -0.13,-0.08 -0.17,-0.14 -0.04,-0.06 -0.06,-0.13 -0.06,-0.2 0,-0.12 0.05,-0.22 0.14,-0.29 0.09,-0.06 0.23,-0.1 0.42,-0.1l0.3 0c0,-0.08 -0.03,-0.14 -0.08,-0.19 -0.05,-0.04 -0.12,-0.06 -0.22,-0.06 -0.07,0 -0.14,0.01 -0.2,0.03 -0.07,0.02 -0.13,0.05 -0.17,0.09l-0.14 -0.27c0.07,-0.04 0.16,-0.08 0.26,-0.11 0.09,-0.03 0.2,-0.04 0.3,-0.04zm-0.03 1.08c0.07,0 0.12,-0.02 0.17,-0.05 0.05,-0.03 0.09,-0.07 0.11,-0.13l0 -0.13 -0.26 0c-0.15,0 -0.23,0.05 -0.23,0.15 0,0.05 0.02,0.09 0.06,0.12 0.03,0.02 0.09,0.04 0.15,0.04z"/>
   <polygon id="10" class="fil3" points="50.28,18.52 50.28,19.11 49.93,19.11 49.93,18.83 48.82,18.83 48.82,17.54 49.19,17.54 49.19,18.52 49.71,18.52 49.71,17.54 50.09,17.54 50.09,18.52 "/>
   <polygon id="11" class="fil3" points="50.51,17.54 50.88,17.54 50.88,18.31 51.51,17.54 51.86,17.54 51.86,18.83 51.49,18.83 51.49,18.06 50.86,18.83 50.51,18.83 "/>
   <path id="12" class="fil3" d="M53.37 17.54l0 1.29 -0.34 0 0 -0.37 -0.27 0 -0.25 0.37 -0.4 0 0.3 -0.42c-0.09,-0.04 -0.16,-0.09 -0.21,-0.15 -0.04,-0.07 -0.07,-0.15 -0.07,-0.25 0,-0.15 0.06,-0.27 0.17,-0.35 0.11,-0.08 0.26,-0.12 0.45,-0.12l0.62 0zm-0.61 0.3c-0.08,0 -0.14,0.02 -0.18,0.05 -0.05,0.03 -0.07,0.07 -0.07,0.14 0,0.06 0.02,0.11 0.06,0.14 0.04,0.03 0.1,0.04 0.18,0.04l0.28 0 0 -0.37 -0.27 0z"/>
   <path id="13" class="fil3" d="M32.64 17.15l0.77 0c0.18,0 0.34,0.03 0.48,0.1 0.14,0.07 0.25,0.17 0.33,0.3 0.08,0.12 0.12,0.27 0.12,0.44 0,0.17 -0.04,0.32 -0.12,0.44 -0.08,0.13 -0.19,0.23 -0.33,0.3 -0.14,0.07 -0.3,0.1 -0.48,0.1l-0.77 0 0 -1.68zm0.75 1.36c0.17,0 0.3,-0.05 0.4,-0.14 0.1,-0.09 0.15,-0.22 0.15,-0.38 0,-0.16 -0.05,-0.29 -0.15,-0.38 -0.1,-0.1 -0.23,-0.14 -0.4,-0.14l-0.36 0 0 1.04 0.36 0z"/>
  </g>
 </g>
</svg>
