<?xml version="1.0" encoding="UTF-8"?>
<!DOCTYPE svg PUBLIC "-//W3C//DTD SVG 1.1//EN" "http://www.w3.org/Graphics/SVG/1.1/DTD/svg11.dtd">
<!-- Creator: CorelDRAW 2017 -->
<svg xmlns="http://www.w3.org/2000/svg" xml:space="preserve" width="4.4833mm" height="5.08mm" version="1.1" shape-rendering="geometricPrecision" text-rendering="geometricPrecision" image-rendering="optimizeQuality" fill-rule="evenodd" clip-rule="evenodd"
viewBox="0 0 1130 1281"
 xmlns:xlink="http://www.w3.org/1999/xlink">
 <g id="Слой_x0020_1">
  <metadata id="CorelCorpID_0Corel-Layer"/>
  <g id="_2227308997568">
   <path fill="white" d="M581 368l-23 0c-4,2 -19,2 -24,3 -106,13 -191,91 -220,193 -18,64 -8,130 17,184 12,25 14,15 6,39 -3,9 -41,119 -41,123 12,-2 118,-37 132,-42 18,-6 10,-5 31,4 11,5 20,8 32,12 125,39 245,-21 302,-111 51,-81 55,-188 5,-273 -20,-35 -52,-68 -85,-89 -73,-46 -122,-39 -132,-43zm-53 217c4,-8 -3,-21 -6,-27 -4,-8 -7,-16 -10,-25 -3,-8 -6,-18 -15,-20 -21,-4 -36,6 -46,23 -4,7 -7,16 -9,26 -3,22 4,42 12,57 8,15 18,29 28,42 32,42 68,69 122,88 29,10 55,14 82,-7 7,-5 11,-10 15,-20 11,-31 0,-31 -21,-42 -7,-4 -16,-7 -24,-11 -11,-5 -17,-8 -25,1 -15,17 -15,34 -40,22 -33,-15 -55,-36 -75,-65 -6,-9 -11,-14 -2,-24 4,-4 13,-13 15,-19z"/>
   <rect fill="none" width="1130" height="1281"/>
  </g>
 </g>
</svg>
