<?xml version="1.0" encoding="UTF-8"?>
<!DOCTYPE svg PUBLIC "-//W3C//DTD SVG 1.1//EN" "http://www.w3.org/Graphics/SVG/1.1/DTD/svg11.dtd">
<!-- Creator: CorelDRAW 2017 -->
<svg xmlns="http://www.w3.org/2000/svg" xml:space="preserve" width="4.4833mm" height="5.08mm" version="1.1" shape-rendering="geometricPrecision" text-rendering="geometricPrecision" image-rendering="optimizeQuality" fill-rule="evenodd" clip-rule="evenodd"
viewBox="0 0 1130 1281"
 xmlns:xlink="http://www.w3.org/1999/xlink">
 <g id="Слой_x0020_1">
  <metadata id="CorelCorpID_0Corel-Layer"/>
  <g id="_2227170262768">
   <path fill="white" d="M656 870c42,-1 94,-3 134,-8 32,-4 57,-12 77,-39 16,-23 19,-61 22,-89 6,-61 9,-233 -20,-276 -23,-34 -56,-40 -95,-43 -95,-9 -194,-8 -289,-7 -47,0 -163,2 -199,25 -20,12 -32,32 -37,55 -15,68 -20,256 5,320 23,54 85,55 136,59 88,7 178,5 267,3zm10 -233l-83 48 -83 48 0 -96 0 -96 83 48 83 48z"/>
   <rect fill="none" width="1130" height="1281"/>
  </g>
 </g>
</svg>
