<?xml version="1.0" encoding="UTF-8"?>
<!DOCTYPE svg PUBLIC "-//W3C//DTD SVG 1.1//EN" "http://www.w3.org/Graphics/SVG/1.1/DTD/svg11.dtd">
<!-- Creator: CorelDRAW 2017 -->
<svg xmlns="http://www.w3.org/2000/svg" xml:space="preserve" width="825px" height="536px" version="1.1" style="shape-rendering:geometricPrecision; text-rendering:geometricPrecision; image-rendering:optimizeQuality; fill-rule:evenodd; clip-rule:evenodd"
viewBox="0 0 37.3 24.22"
 xmlns:xlink="http://www.w3.org/1999/xlink">
 <defs>
  <style type="text/css">
   <![CDATA[
    .fil2 {fill:none}
    .fil0 {fill:#FF9999}
    .fil1 {fill:white;fill-rule:nonzero;fill-opacity:0.501961}
   ]]>
  </style>
   <clipPath id="id0">
    <path d="M0 0l37.3 0 0 24.22 -37.3 0 0 -24.22z"/>
   </clipPath>
 </defs>
 <g id="Слой_x0020_1">
  <metadata id="CorelCorpID_0Corel-Layer"/>
  <polygon class="fil0" points="0,0 37.3,0 37.3,24.22 0,24.22 "/>
  <g style="clip-path:url(#id0)">
   <g id="_2227376186032">
    <path id="1" class="fil1" d="M9.06 6.03c3.53,2.04 7.05,4.07 10.58,6.11l0 12.7c-3.67,2.12 -7.33,4.24 -11,6.36 -3.67,-2.12 -7.34,-4.24 -11.01,-6.36l0 -12.7 11.01 -6.35 0.42 0.24zm1.12 10.09c1.5,-0.07 3.16,-0.08 3.56,1.74 0.24,1.1 -0.18,2.2 -1.21,2.67 -0.57,0.26 -1.66,0.22 -2.35,0.2l0 -4.61zm-8.04 -0.08l2.99 0c-0.19,0.24 -1.71,1.76 -1.79,1.8 0,0.11 0.16,0.86 0.23,1.03l0.04 0.08c0.14,0.11 1.93,-0.29 2.18,0.8 0.19,0.82 -0.67,1.36 -1.74,1.04 -0.32,-0.09 -0.75,-0.36 -0.93,-0.57 -0.07,-0.09 -0.17,-0.2 -0.27,-0.25 -0.12,0.06 -0.19,0.16 -0.29,0.28 -0.09,0.1 -0.83,0.74 -0.88,0.85 0.35,0.3 0.45,0.5 0.94,0.78 0.41,0.23 0.73,0.39 1.27,0.47 0.51,0.09 1.1,0.1 1.6,-0.01 0.23,-0.06 0.44,-0.13 0.64,-0.23 0.24,-0.12 0.33,-0.18 0.53,-0.34 0.56,-0.44 1.03,-1.49 0.75,-2.55 -0.12,-0.46 -0.43,-0.82 -0.72,-1.03 -0.59,-0.42 -0.96,-0.35 -1.25,-0.5l1.91 -1.85c0.04,-0.11 0.02,-1.07 0.02,-1.27l-5.23 0 0 1.47zm6.33 6.24l2.96 0c1.24,0 2.45,-0.48 3.05,-1.16 0.1,-0.11 0.16,-0.13 0.35,-0.38 0.15,-0.19 0.26,-0.4 0.38,-0.63 0.74,-1.46 0.36,-3.44 -0.79,-4.45l-0.26 -0.23c-0.09,-0.07 -0.18,-0.14 -0.29,-0.21 -1.16,-0.73 -2.11,-0.65 -3.36,-0.65l-2.04 0 0 7.71zm1.01 -14.05l0 5.55 -1.37 0 -0.32 0 0 -5.55 -7.62 4.4 2 1.15 -0.82 0 0 1.48 -2.02 -1.17 0 8.8 1.93 -1.12c0.33,0.31 0.51,0.54 0.98,0.8 0.19,0.11 0.36,0.2 0.54,0.28l-2.61 1.51c2.54,1.46 5.08,2.93 7.62,4.4l0 -5.69 1.69 0 0 5.69c2.55,-1.47 5.08,-2.94 7.62,-4.4l-3.2 -1.85c0.45,-0.22 0.86,-0.51 1.17,-0.86 0.09,-0.1 0.17,-0.18 0.26,-0.27l2.62 1.51 0 -8.8 -2.54 1.47c-0.14,-0.18 -0.3,-0.34 -0.47,-0.5l-0.28 -0.24 -0.01 -0.01c-0.12,-0.09 -0.23,-0.18 -0.36,-0.25 -0.09,-0.06 -0.17,-0.11 -0.26,-0.16l3.07 -1.77c-2.54,-1.47 -5.07,-2.94 -7.62,-4.4z"/>
   </g>
  </g>
  <polygon class="fil2" points="0,0 37.3,0 37.3,24.22 0,24.22 "/>
 </g>
</svg>
