<?xml version="1.0" encoding="UTF-8"?>
<!DOCTYPE svg PUBLIC "-//W3C//DTD SVG 1.1//EN" "http://www.w3.org/Graphics/SVG/1.1/DTD/svg11.dtd">
<!-- Creator: CorelDRAW 2017 -->
<svg xmlns="http://www.w3.org/2000/svg" xml:space="preserve" width="1053px" height="465px" version="1.1" style="shape-rendering:geometricPrecision; text-rendering:geometricPrecision; image-rendering:optimizeQuality; fill-rule:evenodd; clip-rule:evenodd"
viewBox="0 0 55.5 24.49"
 xmlns:xlink="http://www.w3.org/1999/xlink">
 <defs>
  <style type="text/css">
   <![CDATA[
    .fil1 {fill:none}
    .fil0 {fill:white}
    .fil2 {fill:#990000;fill-rule:nonzero}
    .fil3 {fill:#FF9999;fill-rule:nonzero}
   ]]>
  </style>
 </defs>
 <g id="Слой_x0020_1">
  <metadata id="CorelCorpID_0Corel-Layer"/>
  <rect class="fil0" y="0.03" width="55.5" height="24.45"/>
  <rect class="fil1" width="55.5" height="24.49"/>
  <g id="_2227090698512">
   <path class="fil2" d="M6.29 16.3c0.13,0.02 0.24,0.07 0.31,0.15 0.07,0.08 0.1,0.18 0.1,0.29 0,0.09 -0.02,0.17 -0.07,0.25 -0.04,0.07 -0.11,0.13 -0.21,0.18 -0.1,0.04 -0.21,0.07 -0.35,0.07 -0.11,0 -0.22,-0.02 -0.32,-0.05 -0.11,-0.02 -0.19,-0.06 -0.27,-0.12l0.14 -0.27c0.06,0.04 0.13,0.08 0.2,0.1 0.08,0.03 0.16,0.04 0.24,0.04 0.09,0 0.16,-0.02 0.21,-0.05 0.05,-0.04 0.08,-0.09 0.08,-0.15 0,-0.12 -0.1,-0.19 -0.29,-0.19l-0.16 0 0 -0.23 0.31 -0.36 -0.65 0 0 -0.29 1.07 0 0 0.23 -0.34 0.4z"/>
   <polygon id="1" class="fil2" points="10.54,17.21 10.54,16.5 10.18,17.1 10.04,17.1 9.69,16.5 9.69,17.21 9.38,17.21 9.38,16.03 9.74,16.03 10.12,16.71 10.52,16.03 10.84,16.03 10.85,17.21 "/>
   <path id="2" class="fil2" d="M11.73 17.23c-0.13,0 -0.24,-0.03 -0.34,-0.08 -0.1,-0.05 -0.18,-0.12 -0.23,-0.22 -0.06,-0.09 -0.08,-0.19 -0.08,-0.31 0,-0.12 0.02,-0.22 0.08,-0.31 0.05,-0.1 0.13,-0.17 0.23,-0.22 0.1,-0.05 0.21,-0.08 0.34,-0.08 0.12,0 0.23,0.03 0.33,0.08 0.1,0.05 0.17,0.12 0.23,0.22 0.06,0.09 0.08,0.19 0.08,0.31 0,0.12 -0.02,0.22 -0.08,0.31 -0.06,0.1 -0.13,0.17 -0.23,0.22 -0.1,0.05 -0.21,0.08 -0.33,0.08zm0 -0.28c0.08,0 0.16,-0.03 0.21,-0.09 0.06,-0.06 0.09,-0.14 0.09,-0.24 0,-0.1 -0.03,-0.18 -0.09,-0.24 -0.05,-0.06 -0.13,-0.09 -0.21,-0.09 -0.09,0 -0.16,0.03 -0.22,0.09 -0.06,0.06 -0.09,0.14 -0.09,0.24 0,0.1 0.03,0.18 0.09,0.24 0.06,0.06 0.13,0.09 0.22,0.09z"/>
   <path id="3" class="fil2" d="M13.91 16.93l0 0.54 -0.31 0 0 -0.26 -0.83 0 0 0.26 -0.32 0 0 -0.54 0.05 0c0.07,0 0.12,-0.04 0.15,-0.13 0.03,-0.08 0.04,-0.21 0.05,-0.36l0.02 -0.41 1.03 0 0 0.9 0.16 0zm-0.9 -0.47c0,0.12 -0.01,0.22 -0.03,0.3 -0.01,0.07 -0.04,0.13 -0.08,0.17l0.5 0 0 -0.62 -0.38 0 -0.01 0.15z"/>
   <path id="4" class="fil2" d="M15.28 16.62c0,0.01 0,0.04 -0.01,0.1l-0.89 0c0.01,0.07 0.05,0.13 0.11,0.17 0.06,0.04 0.14,0.06 0.23,0.06 0.06,0 0.11,-0.01 0.16,-0.02 0.05,-0.02 0.09,-0.05 0.13,-0.09l0.18 0.2c-0.11,0.12 -0.27,0.19 -0.48,0.19 -0.14,0 -0.25,-0.03 -0.36,-0.08 -0.1,-0.05 -0.18,-0.12 -0.23,-0.22 -0.06,-0.09 -0.09,-0.19 -0.09,-0.31 0,-0.12 0.03,-0.22 0.09,-0.31 0.05,-0.1 0.13,-0.17 0.22,-0.22 0.1,-0.05 0.2,-0.08 0.32,-0.08 0.12,0 0.22,0.03 0.32,0.08 0.09,0.05 0.16,0.12 0.22,0.21 0.05,0.09 0.08,0.2 0.08,0.32zm-0.61 -0.35c-0.08,0 -0.15,0.02 -0.2,0.07 -0.05,0.04 -0.09,0.1 -0.1,0.18l0.58 0c-0.01,-0.08 -0.04,-0.14 -0.09,-0.18 -0.05,-0.05 -0.12,-0.07 -0.19,-0.07z"/>
   <path id="5" class="fil2" d="M16.66 16.03l0 1.18 -0.34 0 0 -0.9 -0.37 0 -0.01 0.21c-0.01,0.15 -0.02,0.28 -0.05,0.39 -0.02,0.1 -0.06,0.18 -0.11,0.24 -0.05,0.06 -0.13,0.09 -0.22,0.09 -0.05,0 -0.11,-0.01 -0.18,-0.03l0.02 -0.28c0.02,0 0.04,0 0.05,0 0.05,0 0.09,-0.02 0.11,-0.05 0.03,-0.04 0.05,-0.09 0.06,-0.15 0,-0.05 0.01,-0.13 0.02,-0.23l0.01 -0.47 1.01 0z"/>
   <polygon id="6" class="fil2" points="16.99,16.03 17.33,16.03 17.33,16.73 17.91,16.03 18.22,16.03 18.22,17.21 17.88,17.21 17.88,16.51 17.31,17.21 16.99,17.21 "/>
   <path id="7" class="fil2" d="M19.25 16.01c0.11,0 0.21,0.03 0.3,0.08 0.09,0.05 0.16,0.12 0.21,0.21 0.05,0.09 0.07,0.2 0.07,0.32 0,0.12 -0.02,0.23 -0.07,0.32 -0.05,0.09 -0.12,0.16 -0.21,0.21 -0.09,0.05 -0.19,0.08 -0.3,0.08 -0.15,0 -0.27,-0.05 -0.36,-0.14l0 0.55 -0.34 0 0 -1.61 0.33 0 0 0.14c0.08,-0.11 0.2,-0.16 0.37,-0.16zm-0.06 0.94c0.09,0 0.16,-0.03 0.21,-0.09 0.06,-0.06 0.09,-0.14 0.09,-0.24 0,-0.1 -0.03,-0.18 -0.09,-0.24 -0.05,-0.06 -0.12,-0.09 -0.21,-0.09 -0.09,0 -0.16,0.03 -0.22,0.09 -0.06,0.06 -0.08,0.14 -0.08,0.24 0,0.1 0.02,0.18 0.08,0.24 0.06,0.06 0.13,0.09 0.22,0.09z"/>
   <path id="8" class="fil2" d="M20.63 17.23c-0.13,0 -0.24,-0.03 -0.34,-0.08 -0.1,-0.05 -0.17,-0.12 -0.23,-0.22 -0.05,-0.09 -0.08,-0.19 -0.08,-0.31 0,-0.12 0.03,-0.22 0.08,-0.31 0.06,-0.1 0.13,-0.17 0.23,-0.22 0.1,-0.05 0.21,-0.08 0.34,-0.08 0.12,0 0.23,0.03 0.33,0.08 0.1,0.05 0.18,0.12 0.23,0.22 0.06,0.09 0.09,0.19 0.09,0.31 0,0.12 -0.03,0.22 -0.09,0.31 -0.05,0.1 -0.13,0.17 -0.23,0.22 -0.1,0.05 -0.21,0.08 -0.33,0.08zm0 -0.28c0.09,0 0.16,-0.03 0.21,-0.09 0.06,-0.06 0.09,-0.14 0.09,-0.24 0,-0.1 -0.03,-0.18 -0.09,-0.24 -0.05,-0.06 -0.12,-0.09 -0.21,-0.09 -0.09,0 -0.16,0.03 -0.22,0.09 -0.06,0.06 -0.09,0.14 -0.09,0.24 0,0.1 0.03,0.18 0.09,0.24 0.06,0.06 0.13,0.09 0.22,0.09z"/>
   <path id="9" class="fil2" d="M22.41 16.59c0.14,0.05 0.21,0.14 0.21,0.29 0,0.1 -0.04,0.18 -0.12,0.24 -0.08,0.06 -0.2,0.09 -0.36,0.09l-0.63 0 0 -1.18 0.6 0c0.15,0 0.27,0.03 0.35,0.08 0.08,0.05 0.13,0.13 0.13,0.23 0,0.05 -0.02,0.11 -0.05,0.15 -0.03,0.04 -0.07,0.08 -0.13,0.1zm-0.59 -0.07l0.26 0c0.12,0 0.18,-0.05 0.18,-0.13 0,-0.09 -0.06,-0.13 -0.18,-0.13l-0.26 0 0 0.26zm0.29 0.46c0.13,0 0.19,-0.04 0.19,-0.13 0,-0.05 -0.01,-0.08 -0.04,-0.1 -0.03,-0.02 -0.08,-0.03 -0.14,-0.03l-0.3 0 0 0.26 0.29 0z"/>
   <path id="10" class="fil2" d="M23.33 16.01c0.19,0 0.33,0.05 0.43,0.13 0.09,0.09 0.14,0.22 0.14,0.4l0 0.67 -0.32 0 0 -0.15c-0.06,0.11 -0.18,0.17 -0.36,0.17 -0.09,0 -0.17,-0.02 -0.23,-0.05 -0.07,-0.03 -0.12,-0.07 -0.16,-0.12 -0.03,-0.06 -0.05,-0.12 -0.05,-0.19 0,-0.11 0.04,-0.2 0.13,-0.26 0.08,-0.06 0.21,-0.09 0.38,-0.09l0.27 0c0,-0.08 -0.02,-0.13 -0.07,-0.18 -0.04,-0.04 -0.11,-0.06 -0.2,-0.06 -0.06,0 -0.13,0.01 -0.19,0.03 -0.06,0.02 -0.11,0.05 -0.15,0.08l-0.13 -0.23c0.07,-0.05 0.15,-0.09 0.24,-0.11 0.09,-0.03 0.18,-0.04 0.27,-0.04zm-0.02 0.99c0.06,0 0.11,-0.02 0.15,-0.04 0.05,-0.03 0.08,-0.07 0.1,-0.12l0 -0.12 -0.23 0c-0.14,0 -0.22,0.04 -0.22,0.14 0,0.04 0.02,0.07 0.06,0.1 0.03,0.03 0.08,0.04 0.14,0.04z"/>
   <polygon id="11" class="fil2" points="24.2,16.03 24.54,16.03 24.54,16.49 25.06,16.49 25.06,16.03 25.4,16.03 25.4,17.21 25.06,17.21 25.06,16.77 24.54,16.77 24.54,17.21 24.2,17.21 "/>
   <polygon id="12" class="fil2" points="25.73,16.03 26.07,16.03 26.07,16.73 26.64,16.03 26.95,16.03 26.95,17.21 26.61,17.21 26.61,16.51 26.04,17.21 25.73,17.21 "/>
   <path id="13" class="fil2" d="M28.43 16.62c0,0.01 0,0.04 0,0.1l-0.9 0c0.02,0.07 0.06,0.13 0.12,0.17 0.06,0.04 0.13,0.06 0.22,0.06 0.06,0 0.12,-0.01 0.16,-0.02 0.05,-0.02 0.1,-0.05 0.14,-0.09l0.18 0.2c-0.11,0.12 -0.28,0.19 -0.49,0.19 -0.13,0 -0.25,-0.03 -0.35,-0.08 -0.1,-0.05 -0.18,-0.12 -0.24,-0.22 -0.06,-0.09 -0.08,-0.19 -0.08,-0.31 0,-0.12 0.02,-0.22 0.08,-0.31 0.05,-0.1 0.13,-0.17 0.23,-0.22 0.09,-0.05 0.2,-0.08 0.32,-0.08 0.11,0 0.22,0.03 0.31,0.08 0.09,0.05 0.17,0.12 0.22,0.21 0.06,0.09 0.08,0.2 0.08,0.32zm-0.61 -0.35c-0.08,0 -0.14,0.02 -0.2,0.07 -0.05,0.04 -0.08,0.1 -0.09,0.18l0.58 0c-0.01,-0.08 -0.04,-0.14 -0.1,-0.18 -0.05,-0.05 -0.11,-0.07 -0.19,-0.07z"/>
   <path id="14" class="fil2" d="M6.97 15.67l0.69 0c0.17,0 0.32,0.04 0.45,0.1 0.12,0.06 0.22,0.15 0.3,0.27 0.07,0.11 0.1,0.25 0.1,0.4 0,0.16 -0.03,0.29 -0.1,0.41 -0.08,0.11 -0.18,0.2 -0.3,0.27 -0.13,0.06 -0.28,0.09 -0.45,0.09l-0.69 0 0 -1.54zm0.68 1.25c0.15,0 0.27,-0.04 0.36,-0.13 0.1,-0.09 0.14,-0.2 0.14,-0.35 0,-0.14 -0.04,-0.26 -0.14,-0.35 -0.09,-0.08 -0.21,-0.12 -0.36,-0.12l-0.33 0 0 0.95 0.33 0z"/>
   <path class="fil3" d="M17.09 6.96c1.09,0.63 2.18,1.26 3.27,1.89l0 3.92c-1.14,0.65 -2.27,1.31 -3.4,1.96 -1.14,-0.65 -2.27,-1.31 -3.4,-1.96l0 -3.92 3.4 -1.96 0.13 0.07zm0.34 3.12c0.47,-0.03 0.98,-0.03 1.1,0.53 0.08,0.34 -0.05,0.68 -0.37,0.83 -0.18,0.08 -0.51,0.07 -0.73,0.06l0 -1.42zm-2.48 -0.03l0.92 0c-0.05,0.07 -0.52,0.54 -0.55,0.56 0,0.03 0.05,0.26 0.07,0.32l0.01 0.02c0.05,0.03 0.6,-0.09 0.68,0.25 0.06,0.25 -0.21,0.42 -0.54,0.32 -0.1,-0.03 -0.23,-0.11 -0.29,-0.18 -0.02,-0.03 -0.05,-0.06 -0.08,-0.07 -0.04,0.01 -0.06,0.04 -0.09,0.08 -0.03,0.03 -0.25,0.23 -0.27,0.26 0.11,0.1 0.14,0.16 0.29,0.25 0.13,0.07 0.23,0.11 0.39,0.14 0.16,0.03 0.34,0.03 0.49,-0.01 0.08,-0.01 0.14,-0.03 0.2,-0.06 0.08,-0.04 0.11,-0.06 0.17,-0.11 0.17,-0.14 0.32,-0.46 0.23,-0.79 -0.04,-0.14 -0.14,-0.25 -0.22,-0.31 -0.19,-0.13 -0.3,-0.11 -0.39,-0.16l0.59 -0.57c0.01,-0.03 0.01,-0.33 0,-0.39l-1.61 0 0 0.45zm1.96 1.93l0.91 0c0.38,0 0.76,-0.15 0.94,-0.36 0.03,-0.04 0.05,-0.04 0.11,-0.12 0.04,-0.06 0.08,-0.12 0.12,-0.19 0.23,-0.45 0.11,-1.06 -0.25,-1.38l-0.08 -0.07c-0.02,-0.02 -0.05,-0.04 -0.09,-0.06 -0.36,-0.23 -0.65,-0.2 -1.04,-0.2l-0.62 0 0 2.38zm0.31 -4.34l0 1.71 -0.43 0 -0.09 0 0 -1.71 -2.36 1.36 0.62 0.35 -0.25 0 0 0.46 -0.63 -0.36 0 2.72 0.6 -0.35c0.1,0.1 0.16,0.17 0.3,0.25 0.06,0.03 0.11,0.06 0.17,0.08l-0.81 0.47c0.79,0.45 1.57,0.9 2.36,1.36l0 -1.76 0.52 0 0 1.76c0.78,-0.46 1.57,-0.91 2.35,-1.36l-0.99 -0.57c0.14,-0.07 0.27,-0.16 0.36,-0.27 0.03,-0.03 0.06,-0.05 0.08,-0.08l0.81 0.47 0 -2.72 -0.78 0.45c-0.05,-0.05 -0.09,-0.1 -0.15,-0.15l-0.08 -0.08 -0.01 0c-0.03,-0.03 -0.07,-0.05 -0.11,-0.08 -0.02,-0.01 -0.05,-0.03 -0.08,-0.05l0.95 -0.54c-0.78,-0.46 -1.57,-0.91 -2.35,-1.36z"/>
  </g>
 </g>
</svg>
