<?xml version="1.0" encoding="UTF-8"?>
<!DOCTYPE svg PUBLIC "-//W3C//DTD SVG 1.1//EN" "http://www.w3.org/Graphics/SVG/1.1/DTD/svg11.dtd">
<!-- Creator: CorelDRAW 2017 -->
<svg xmlns="http://www.w3.org/2000/svg" xml:space="preserve" width="4.4026mm" height="4.4357mm" version="1.1" shape-rendering="geometricPrecision" text-rendering="geometricPrecision" image-rendering="optimizeQuality" fill-rule="evenodd" clip-rule="evenodd"
viewBox="0 0 1176 1184"
 xmlns:xlink="http://www.w3.org/1999/xlink">
 <g id="Слой_x0020_1">
  <metadata id="CorelCorpID_0Corel-Layer"/>
  <g id="_2227183001216">
   <path fill="white" fill-rule="nonzero" d="M936 391l0 402c-116,67 -232,134 -348,201 -116,-67 -232,-134 -348,-201l0 -402 348 -201c116,67 232,134 348,201zm-299 126c47,-2 100,-3 112,55 8,35 -6,69 -38,84 -18,8 -52,7 -74,6l0 -146zm-254 -3l95 0c-6,8 -54,56 -57,57 0,3 5,27 7,33l1 2c4,4 61,-9 69,25 6,26 -21,43 -55,33 -10,-3 -23,-11 -29,-18 -2,-3 -6,-6 -9,-8 -4,2 -6,5 -9,9 -3,3 -26,23 -28,27 11,10 14,16 30,25 13,7 23,12 40,15 16,3 35,3 50,-1 7,-2 14,-4 20,-7 8,-4 11,-6 17,-11 18,-14 33,-47 24,-81 -4,-15 -14,-26 -23,-32 -19,-13 -30,-11 -40,-16l61 -59c1,-3 0,-34 0,-40l-165 0 0 46zm200 197l94 0c39,0 77,-15 96,-37 3,-4 5,-4 11,-12 5,-6 8,-12 12,-20 23,-46 11,-109 -25,-141l-8 -7c-3,-2 -5,-4 -9,-6 -37,-23 -67,-21 -106,-21l-64 0 0 244z"/>
   <rect fill="none" width="1176" height="1184"/>
  </g>
 </g>
</svg>
