<?xml version="1.0" encoding="UTF-8"?>
<!DOCTYPE svg PUBLIC "-//W3C//DTD SVG 1.1//EN" "http://www.w3.org/Graphics/SVG/1.1/DTD/svg11.dtd">
<!-- Creator: CorelDRAW 2017 -->
<svg xmlns="http://www.w3.org/2000/svg" xml:space="preserve" width="4.4026mm" height="4.4357mm" version="1.1" shape-rendering="geometricPrecision" text-rendering="geometricPrecision" image-rendering="optimizeQuality" fill-rule="evenodd" clip-rule="evenodd"
viewBox="0 0 1188 1197"
 xmlns:xlink="http://www.w3.org/1999/xlink">
 <g id="Слой_x0020_1">
  <metadata id="CorelCorpID_0Corel-Layer"/>
  <g id="_2227175020784">
   <rect fill="none" width="1188" height="1197"/>
   <path fill="#CC99CC" fill-rule="nonzero" d="M945 396l0 406c-117,68 -234,135 -352,203 -117,-68 -234,-135 -352,-203l0 -406 351 -203c117,68 234,135 352,203zm-302 127c48,-2 101,-3 113,55 8,35 -6,70 -39,85 -18,8 -53,7 -75,6l0 -147zm-257 -3l96 0c-6,8 -55,56 -57,58 0,4 5,27 7,33l1 3c4,4 62,-9 70,25 6,26 -21,43 -56,33 -10,-3 -24,-11 -29,-18 -2,-3 -6,-6 -9,-8 -4,2 -6,5 -9,9 -3,3 -26,24 -28,27 11,10 14,16 30,25 13,7 23,12 40,15 16,3 35,3 51,-1 7,-2 14,-4 21,-7 8,-4 11,-6 17,-11 18,-14 33,-48 24,-82 -4,-15 -14,-26 -23,-33 -19,-13 -31,-11 -40,-16l61 -59c1,-4 0,-34 0,-41l-167 0 0 47zm202 199l94 0c40,0 78,-15 97,-37 3,-4 5,-4 11,-12 5,-6 8,-13 12,-20 24,-47 12,-110 -25,-142l-8 -7c-3,-2 -6,-4 -9,-7 -37,-23 -68,-21 -107,-21l-65 0 0 246z"/>
  </g>
 </g>
</svg>
