<?xml version="1.0" encoding="UTF-8"?>
<!DOCTYPE svg PUBLIC "-//W3C//DTD SVG 1.1//EN" "http://www.w3.org/Graphics/SVG/1.1/DTD/svg11.dtd">
<!-- Creator: CorelDRAW 2017 -->
<svg xmlns="http://www.w3.org/2000/svg" xml:space="preserve" width="4.4026mm" height="4.4357mm" version="1.1" shape-rendering="geometricPrecision" text-rendering="geometricPrecision" image-rendering="optimizeQuality" fill-rule="evenodd" clip-rule="evenodd"
viewBox="0 0 1176 1184"
 xmlns:xlink="http://www.w3.org/1999/xlink">
 <g id="Слой_x0020_1">
  <metadata id="CorelCorpID_0Corel-Layer"/>
  <g id="_2227182941216">
   <path fill="white" d="M588 222c-204,0 -370,166 -370,370 0,125 62,235 156,302l52 -30c-23,-13 -43,-30 -62,-48 -57,-57 -93,-136 -93,-224 0,-87 35,-166 93,-224 57,-57 136,-93 224,-93l0 77 161 -93c-50,-24 -105,-37 -161,-37zm224 593c-57,57 -136,93 -224,93l0 -76 -161 93c49,23 103,37 161,37 204,0 370,-166 370,-370 0,-124 -61,-234 -155,-301l-52 30c22,13 43,29 61,48 57,57 93,136 93,224 0,87 -35,166 -93,224zm-320 -391l0 335 290 -168 -290 -168z"/>
   <rect fill="none" width="1176" height="1184"/>
  </g>
 </g>
</svg>
