<?xml version="1.0" encoding="UTF-8"?>
<!DOCTYPE svg PUBLIC "-//W3C//DTD SVG 1.1//EN" "http://www.w3.org/Graphics/SVG/1.1/DTD/svg11.dtd">
<!-- Creator: CorelDRAW 2017 -->
<svg xmlns="http://www.w3.org/2000/svg" xml:space="preserve" width="4.4026mm" height="4.4357mm" version="1.1" shape-rendering="geometricPrecision" text-rendering="geometricPrecision" image-rendering="optimizeQuality" fill-rule="evenodd" clip-rule="evenodd"
viewBox="0 0 1176 1184"
 xmlns:xlink="http://www.w3.org/1999/xlink">
 <g id="Слой_x0020_1">
  <metadata id="CorelCorpID_0Corel-Layer"/>
  <g id="_2227183007904">
   <path fill="white" d="M253 257l670 0 0 670 -670 0 0 -670zm402 147l161 0 0 161 -161 0 0 -161zm-295 107l242 0 0 54 -242 0 0 -54zm0 215l456 0 0 54 -456 0 0 -54zm0 -107l456 0 0 54 -456 0 0 -54zm0 -215l242 0 0 54 -242 0 0 -54zm509 -94l-563 0 0 563 563 0 0 -563z"/>
   <rect fill="none" width="1176" height="1184"/>
  </g>
 </g>
</svg>
