<?xml version="1.0" encoding="UTF-8"?>
<!DOCTYPE svg PUBLIC "-//W3C//DTD SVG 1.1//EN" "http://www.w3.org/Graphics/SVG/1.1/DTD/svg11.dtd">
<!-- Creator: CorelDRAW 2017 -->
<svg xmlns="http://www.w3.org/2000/svg" xml:space="preserve" width="1053px" height="465px" version="1.1" style="shape-rendering:geometricPrecision; text-rendering:geometricPrecision; image-rendering:optimizeQuality; fill-rule:evenodd; clip-rule:evenodd"
viewBox="0 0 55.5 24.49"
 xmlns:xlink="http://www.w3.org/1999/xlink">
 <defs>
  <style type="text/css">
   <![CDATA[
    .fil1 {fill:none}
    .fil3 {fill:#99CCCC}
    .fil0 {fill:white}
    .fil2 {fill:#003333;fill-rule:nonzero}
    .fil4 {fill:#333333;fill-rule:nonzero}
   ]]>
  </style>
 </defs>
 <g id="Слой_x0020_1">
  <metadata id="CorelCorpID_0Corel-Layer"/>
  <rect class="fil0" y="0.03" width="55.5" height="24.45"/>
  <rect class="fil1" width="55.5" height="24.49"/>
  <g id="_2227108301088">
   <polygon class="fil2" points="5.51,12.01 4.78,12.01 4.78,13.26 4.43,13.26 4.43,11.72 5.51,11.72 "/>
   <path id="1" class="fil2" d="M6.28 12.06c0.11,0 0.21,0.03 0.3,0.08 0.09,0.05 0.16,0.12 0.21,0.21 0.05,0.09 0.08,0.2 0.08,0.32 0,0.12 -0.03,0.23 -0.08,0.32 -0.05,0.09 -0.12,0.16 -0.21,0.21 -0.09,0.05 -0.19,0.08 -0.3,0.08 -0.15,0 -0.27,-0.05 -0.36,-0.15l0 0.56 -0.34 0 0 -1.61 0.33 0 0 0.13c0.08,-0.1 0.21,-0.15 0.37,-0.15zm-0.06 0.94c0.09,0 0.16,-0.03 0.22,-0.09 0.05,-0.06 0.08,-0.14 0.08,-0.24 0,-0.1 -0.03,-0.18 -0.08,-0.24 -0.06,-0.06 -0.13,-0.09 -0.22,-0.09 -0.09,0 -0.16,0.03 -0.22,0.09 -0.05,0.06 -0.08,0.14 -0.08,0.24 0,0.1 0.03,0.18 0.08,0.24 0.06,0.06 0.13,0.09 0.22,0.09z"/>
   <path id="2" class="fil2" d="M7.55 12.06c0.18,0 0.32,0.04 0.42,0.13 0.1,0.09 0.14,0.22 0.14,0.4l0 0.67 -0.32 0 0 -0.15c-0.06,0.11 -0.18,0.17 -0.36,0.17 -0.09,0 -0.17,-0.02 -0.23,-0.05 -0.07,-0.03 -0.12,-0.07 -0.15,-0.13 -0.04,-0.05 -0.06,-0.11 -0.06,-0.18 0,-0.11 0.04,-0.2 0.13,-0.26 0.08,-0.06 0.21,-0.09 0.38,-0.09l0.27 0c0,-0.08 -0.02,-0.14 -0.07,-0.18 -0.04,-0.04 -0.11,-0.06 -0.2,-0.06 -0.06,0 -0.13,0.01 -0.19,0.03 -0.06,0.02 -0.11,0.05 -0.15,0.08l-0.12 -0.24c0.06,-0.04 0.14,-0.08 0.23,-0.1 0.09,-0.03 0.18,-0.04 0.28,-0.04zm-0.03 0.99c0.06,0 0.11,-0.02 0.16,-0.04 0.04,-0.03 0.07,-0.07 0.09,-0.12l0 -0.12 -0.23 0c-0.14,0 -0.21,0.04 -0.21,0.13 0,0.05 0.01,0.08 0.05,0.11 0.03,0.02 0.08,0.04 0.14,0.04z"/>
   <path id="3" class="fil2" d="M10.04 12.66c0,0.19 -0.06,0.33 -0.18,0.44 -0.12,0.1 -0.3,0.16 -0.52,0.18l0 0.41 -0.32 0 0 -0.41c-0.22,-0.02 -0.4,-0.08 -0.52,-0.18 -0.12,-0.1 -0.18,-0.25 -0.18,-0.44 0,-0.18 0.06,-0.32 0.18,-0.42 0.12,-0.1 0.29,-0.16 0.52,-0.18l0 -0.43 0.32 0 0 0.43c0.22,0.02 0.4,0.08 0.52,0.18 0.12,0.1 0.18,0.24 0.18,0.42zm-1.39 0c0,0.11 0.03,0.19 0.09,0.25 0.06,0.05 0.15,0.09 0.28,0.11l0 -0.69c-0.13,0.01 -0.22,0.05 -0.28,0.1 -0.06,0.06 -0.09,0.13 -0.09,0.23zm0.69 0.36c0.13,-0.02 0.22,-0.06 0.28,-0.11 0.06,-0.06 0.09,-0.14 0.09,-0.25 0,-0.1 -0.03,-0.17 -0.09,-0.23 -0.06,-0.05 -0.15,-0.09 -0.28,-0.1l0 0.69z"/>
   <polygon id="4" class="fil2" points="10.28,12.08 10.62,12.08 10.62,12.78 11.19,12.08 11.51,12.08 11.51,13.26 11.17,13.26 11.17,12.56 10.59,13.26 10.28,13.26 "/>
   <path id="5" class="fil2" d="M12.9 12.08l0 1.18 -0.34 0 0 -0.44c-0.1,0.05 -0.21,0.07 -0.33,0.07 -0.16,0 -0.28,-0.03 -0.37,-0.1 -0.08,-0.08 -0.12,-0.19 -0.12,-0.34l0 -0.37 0.35 0 0 0.35c0,0.07 0.01,0.12 0.05,0.15 0.04,0.04 0.09,0.05 0.16,0.05 0.09,0 0.18,-0.02 0.26,-0.06l0 -0.49 0.34 0z"/>
   <path id="6" class="fil2" d="M14.38 12.67c0,0.01 -0.01,0.04 -0.01,0.1l-0.89 0c0.01,0.07 0.05,0.13 0.11,0.17 0.06,0.04 0.13,0.06 0.22,0.06 0.06,0 0.12,-0.01 0.17,-0.03 0.04,-0.01 0.09,-0.04 0.13,-0.08l0.18 0.2c-0.11,0.12 -0.27,0.19 -0.49,0.19 -0.13,0 -0.25,-0.03 -0.35,-0.08 -0.1,-0.05 -0.18,-0.13 -0.24,-0.22 -0.05,-0.09 -0.08,-0.19 -0.08,-0.31 0,-0.12 0.03,-0.22 0.08,-0.31 0.06,-0.1 0.13,-0.17 0.23,-0.22 0.09,-0.05 0.2,-0.08 0.32,-0.08 0.12,0 0.22,0.03 0.31,0.08 0.1,0.04 0.17,0.12 0.23,0.21 0.05,0.09 0.08,0.2 0.08,0.32zm-0.62 -0.35c-0.07,0 -0.14,0.02 -0.19,0.07 -0.06,0.04 -0.09,0.1 -0.1,0.18l0.58 0c-0.01,-0.08 -0.04,-0.14 -0.09,-0.18 -0.06,-0.05 -0.12,-0.07 -0.2,-0.07z"/>
   <path id="7" class="fil2" d="M15.2 13.28c-0.13,0 -0.24,-0.03 -0.34,-0.08 -0.1,-0.05 -0.18,-0.13 -0.23,-0.22 -0.06,-0.09 -0.09,-0.19 -0.09,-0.31 0,-0.12 0.03,-0.22 0.09,-0.32 0.05,-0.09 0.13,-0.16 0.23,-0.21 0.1,-0.05 0.21,-0.08 0.34,-0.08 0.13,0 0.23,0.03 0.33,0.08 0.09,0.05 0.16,0.12 0.2,0.22l-0.27 0.14c-0.06,-0.1 -0.15,-0.16 -0.26,-0.16 -0.09,0 -0.16,0.03 -0.22,0.09 -0.06,0.06 -0.09,0.14 -0.09,0.24 0,0.1 0.03,0.18 0.09,0.24 0.06,0.06 0.13,0.09 0.22,0.09 0.12,0 0.2,-0.06 0.26,-0.17l0.27 0.15c-0.04,0.09 -0.11,0.16 -0.2,0.22 -0.1,0.05 -0.2,0.08 -0.33,0.08z"/>
   <polygon id="8" class="fil2" points="16.46,12.81 16.28,12.81 16.28,13.26 15.94,13.26 15.94,12.08 16.28,12.08 16.28,12.54 16.47,12.54 16.79,12.08 17.15,12.08 16.74,12.64 17.18,13.26 16.77,13.26 "/>
   <polygon id="9" class="fil2" points="17.35,12.08 17.69,12.08 17.69,12.78 18.26,12.08 18.58,12.08 18.58,13.26 18.24,13.26 18.24,12.56 17.66,13.26 17.35,13.26 "/>
   <path id="10" class="fil2" d="M18.91 12.08l0.34 0 0 0.7 0.57 -0.7 0.32 0 0 1.18 -0.34 0 0 -0.7 -0.58 0.7 -0.31 0 0 -1.18zm0.59 -0.13c-0.26,0 -0.39,-0.11 -0.39,-0.34l0.22 0c0.01,0.05 0.02,0.09 0.05,0.12 0.02,0.03 0.06,0.04 0.12,0.04 0.05,0 0.09,-0.01 0.12,-0.04 0.03,-0.03 0.04,-0.07 0.04,-0.12l0.23 0c0,0.23 -0.13,0.34 -0.39,0.34z"/>
   <path id="11" class="fil2" d="M22.41 12.98l0 0.53 -0.32 0 0 -0.25 -0.83 0 0 0.25 -0.32 0 0 -0.53 0.05 0c0.08,0 0.13,-0.05 0.15,-0.13 0.03,-0.09 0.05,-0.21 0.06,-0.36l0.01 -0.41 1.03 0 0 0.9 0.17 0zm-0.9 -0.47c-0.01,0.12 -0.02,0.22 -0.03,0.29 -0.02,0.08 -0.04,0.14 -0.08,0.18l0.5 0 0 -0.62 -0.39 0 0 0.15z"/>
   <polygon id="12" class="fil2" points="22.63,12.08 22.97,12.08 22.97,12.78 23.54,12.08 23.85,12.08 23.85,13.26 23.51,13.26 23.51,12.56 22.94,13.26 22.63,13.26 "/>
   <path id="13" class="fil2" d="M24.94 12.64c0.07,0.03 0.12,0.06 0.16,0.11 0.04,0.04 0.06,0.09 0.06,0.16 0,0.07 -0.02,0.14 -0.08,0.19 -0.05,0.06 -0.12,0.1 -0.21,0.13 -0.09,0.04 -0.19,0.05 -0.3,0.05 -0.09,0 -0.18,-0.01 -0.27,-0.03 -0.09,-0.02 -0.17,-0.05 -0.25,-0.08l0.09 -0.24c0.13,0.06 0.26,0.09 0.41,0.09 0.09,0 0.15,-0.01 0.19,-0.04 0.05,-0.02 0.07,-0.06 0.07,-0.1 0,-0.04 -0.01,-0.07 -0.04,-0.09 -0.04,-0.02 -0.08,-0.03 -0.14,-0.03l-0.25 0 0 -0.21 0.21 0c0.06,0 0.11,-0.01 0.14,-0.03 0.03,-0.02 0.05,-0.05 0.05,-0.08 0,-0.04 -0.02,-0.07 -0.06,-0.09 -0.04,-0.02 -0.1,-0.03 -0.17,-0.03 -0.12,0 -0.24,0.03 -0.37,0.08l-0.09 -0.24c0.17,-0.07 0.33,-0.1 0.48,-0.1 0.11,0 0.2,0.01 0.29,0.04 0.08,0.02 0.15,0.06 0.2,0.11 0.04,0.05 0.07,0.11 0.07,0.18 0,0.05 -0.02,0.1 -0.05,0.15 -0.04,0.04 -0.08,0.08 -0.14,0.1z"/>
   <path id="14" class="fil2" d="M25.87 12.06c0.18,0 0.32,0.04 0.42,0.13 0.1,0.09 0.15,0.22 0.15,0.4l0 0.67 -0.32 0 0 -0.15c-0.07,0.11 -0.19,0.17 -0.36,0.17 -0.1,0 -0.17,-0.02 -0.24,-0.05 -0.07,-0.03 -0.12,-0.07 -0.15,-0.13 -0.04,-0.05 -0.06,-0.11 -0.06,-0.18 0,-0.11 0.05,-0.2 0.13,-0.26 0.08,-0.06 0.21,-0.09 0.38,-0.09l0.27 0c0,-0.08 -0.02,-0.14 -0.06,-0.18 -0.05,-0.04 -0.12,-0.06 -0.21,-0.06 -0.06,0 -0.12,0.01 -0.18,0.03 -0.06,0.02 -0.12,0.05 -0.16,0.08l-0.12 -0.24c0.06,-0.04 0.14,-0.08 0.23,-0.1 0.09,-0.03 0.18,-0.04 0.28,-0.04zm-0.03 0.99c0.06,0 0.11,-0.02 0.16,-0.04 0.04,-0.03 0.07,-0.07 0.09,-0.12l0 -0.12 -0.23 0c-0.14,0 -0.21,0.04 -0.21,0.13 0,0.05 0.02,0.08 0.05,0.11 0.03,0.02 0.08,0.04 0.14,0.04z"/>
   <path id="15" class="fil2" d="M26.73 12.08l0.35 0 0 0.7 0.57 -0.7 0.31 0 0 1.18 -0.34 0 0 -0.7 -0.57 0.7 -0.32 0 0 -1.18zm0.6 -0.13c-0.26,0 -0.39,-0.11 -0.39,-0.34l0.22 0c0,0.05 0.02,0.09 0.05,0.12 0.02,0.03 0.06,0.04 0.12,0.04 0.05,0 0.09,-0.01 0.12,-0.04 0.03,-0.03 0.04,-0.07 0.04,-0.12l0.23 0c0,0.23 -0.13,0.34 -0.39,0.34z"/>
   <polygon id="16" class="fil2" points="28.29,12.08 28.63,12.08 28.63,12.54 29.15,12.54 29.15,12.08 29.49,12.08 29.49,13.26 29.15,13.26 29.15,12.82 28.63,12.82 28.63,13.26 28.29,13.26 "/>
   <path class="fil3" d="M13.56 3.37l6.8 0 0 6.8 -6.8 0 0 -6.8zm4.08 1.5l1.63 0 0 1.63 -1.63 0 0 -1.63zm-2.99 1.08l2.44 0 0 0.55 -2.44 0 0 -0.55zm0 2.18l4.62 0 0 0.54 -4.62 0 0 -0.54zm0 -1.09l4.62 0 0 0.55 -4.62 0 0 -0.55zm0 -2.17l2.44 0 0 0.54 -2.44 0 0 -0.54zm5.16 -0.95l-5.71 0 0 5.7 5.71 0 0 -5.7z"/>
   <path class="fil4" d="M7.53 14.92c0.11,0 0.21,0.03 0.28,0.08 0.07,0.06 0.1,0.14 0.1,0.24 0,0.1 -0.03,0.18 -0.1,0.23 -0.07,0.06 -0.17,0.09 -0.28,0.09l-0.23 0 0 0.28 -0.13 0 0 -0.92 0.36 0zm-0.01 0.53c0.08,0 0.15,-0.02 0.19,-0.06 0.05,-0.03 0.07,-0.08 0.07,-0.15 0,-0.07 -0.02,-0.12 -0.07,-0.15 -0.04,-0.04 -0.11,-0.06 -0.19,-0.06l-0.22 0 0 0.42 0.22 0z"/>
   <path id="1" class="fil4" d="M8.31 15.13c0.1,0 0.17,0.03 0.23,0.08 0.05,0.04 0.07,0.11 0.07,0.21l0 0.42 -0.12 0 0 -0.09c-0.02,0.03 -0.05,0.05 -0.09,0.07 -0.04,0.02 -0.08,0.03 -0.14,0.03 -0.07,0 -0.14,-0.02 -0.18,-0.06 -0.05,-0.04 -0.07,-0.09 -0.07,-0.15 0,-0.06 0.02,-0.11 0.06,-0.15 0.05,-0.03 0.12,-0.05 0.22,-0.05l0.2 0 0 -0.03c0,-0.05 -0.02,-0.09 -0.05,-0.12 -0.03,-0.03 -0.08,-0.05 -0.14,-0.05 -0.04,0 -0.08,0.01 -0.12,0.02 -0.04,0.02 -0.07,0.04 -0.1,0.06l-0.05 -0.1c0.03,-0.02 0.07,-0.05 0.12,-0.06 0.05,-0.02 0.11,-0.03 0.16,-0.03zm-0.02 0.62c0.04,0 0.09,-0.01 0.12,-0.03 0.04,-0.02 0.06,-0.05 0.08,-0.09l0 -0.1 -0.2 0c-0.11,0 -0.16,0.03 -0.16,0.11 0,0.03 0.01,0.06 0.04,0.08 0.03,0.02 0.07,0.03 0.12,0.03z"/>
   <path id="2" class="fil4" d="M9.21 15.48c0.04,0.01 0.08,0.03 0.11,0.06 0.02,0.02 0.03,0.06 0.03,0.1 0,0.04 -0.01,0.07 -0.04,0.11 -0.03,0.03 -0.07,0.05 -0.12,0.07 -0.04,0.02 -0.1,0.03 -0.16,0.03 -0.05,0 -0.1,-0.01 -0.15,-0.02 -0.05,-0.02 -0.1,-0.04 -0.14,-0.06l0.04 -0.1c0.04,0.02 0.07,0.04 0.12,0.05 0.04,0.01 0.08,0.02 0.13,0.02 0.06,0 0.1,-0.01 0.14,-0.03 0.04,-0.02 0.05,-0.05 0.05,-0.08 0,-0.04 -0.01,-0.06 -0.04,-0.08 -0.03,-0.02 -0.07,-0.03 -0.12,-0.03l-0.13 0 0 -0.09 0.12 0c0.05,0 0.09,0 0.11,-0.02 0.03,-0.02 0.04,-0.04 0.04,-0.07 0,-0.03 -0.01,-0.06 -0.04,-0.07 -0.04,-0.02 -0.08,-0.03 -0.13,-0.03 -0.07,0 -0.15,0.02 -0.22,0.05l-0.04 -0.09c0.09,-0.05 0.18,-0.07 0.27,-0.07 0.05,0 0.11,0.01 0.15,0.03 0.05,0.01 0.08,0.03 0.11,0.06 0.02,0.03 0.03,0.06 0.03,0.1 0,0.04 -0.01,0.07 -0.03,0.09 -0.02,0.03 -0.05,0.05 -0.09,0.07z"/>
   <path id="3" class="fil4" d="M9.92 15.13c0.06,0 0.12,0.02 0.18,0.05 0.05,0.03 0.09,0.07 0.12,0.12 0.03,0.06 0.05,0.12 0.05,0.19 0,0.07 -0.02,0.13 -0.05,0.19 -0.03,0.05 -0.07,0.09 -0.12,0.12 -0.06,0.03 -0.12,0.05 -0.18,0.05 -0.05,0 -0.1,-0.01 -0.14,-0.03 -0.04,-0.02 -0.08,-0.05 -0.11,-0.09l0 0.36 -0.12 0 0 -0.95 0.12 0 0 0.11c0.03,-0.04 0.06,-0.07 0.1,-0.09 0.05,-0.02 0.09,-0.03 0.15,-0.03zm-0.01 0.61c0.04,0 0.08,-0.01 0.12,-0.03 0.03,-0.03 0.06,-0.05 0.08,-0.09 0.02,-0.04 0.03,-0.08 0.03,-0.13 0,-0.05 -0.01,-0.09 -0.03,-0.13 -0.02,-0.04 -0.05,-0.06 -0.08,-0.08 -0.04,-0.02 -0.08,-0.03 -0.12,-0.03 -0.05,0 -0.09,0.01 -0.12,0.03 -0.04,0.02 -0.07,0.05 -0.09,0.08 -0.02,0.04 -0.03,0.08 -0.03,0.13 0,0.05 0.01,0.09 0.03,0.13 0.02,0.04 0.05,0.06 0.09,0.09 0.03,0.02 0.07,0.03 0.12,0.03z"/>
   <path id="4" class="fil4" d="M10.69 15.13c0.1,0 0.18,0.03 0.23,0.08 0.05,0.04 0.07,0.11 0.07,0.21l0 0.42 -0.12 0 0 -0.09c-0.02,0.03 -0.05,0.05 -0.09,0.07 -0.04,0.02 -0.08,0.03 -0.14,0.03 -0.07,0 -0.14,-0.02 -0.18,-0.06 -0.05,-0.04 -0.07,-0.09 -0.07,-0.15 0,-0.06 0.02,-0.11 0.06,-0.15 0.05,-0.03 0.12,-0.05 0.22,-0.05l0.2 0 0 -0.03c0,-0.05 -0.02,-0.09 -0.05,-0.12 -0.03,-0.03 -0.08,-0.05 -0.14,-0.05 -0.04,0 -0.08,0.01 -0.12,0.02 -0.04,0.02 -0.07,0.04 -0.1,0.06l-0.05 -0.1c0.03,-0.02 0.08,-0.05 0.13,-0.06 0.05,-0.02 0.1,-0.03 0.15,-0.03zm-0.02 0.62c0.04,0 0.09,-0.01 0.12,-0.03 0.04,-0.02 0.06,-0.05 0.08,-0.09l0 -0.1 -0.2 0c-0.11,0 -0.16,0.03 -0.16,0.11 0,0.03 0.01,0.06 0.04,0.08 0.03,0.02 0.07,0.03 0.12,0.03z"/>
   <path id="5" class="fil4" d="M11.58 15.16c0.06,0 0.12,0.02 0.17,0.05 0.05,0.03 0.09,0.07 0.12,0.12 0.03,0.05 0.04,0.11 0.04,0.17 0,0.07 -0.01,0.13 -0.04,0.18 -0.03,0.06 -0.08,0.1 -0.13,0.13 -0.06,0.03 -0.12,0.04 -0.19,0.04 -0.12,0 -0.21,-0.04 -0.27,-0.12 -0.07,-0.08 -0.1,-0.2 -0.1,-0.35 0,-0.14 0.03,-0.25 0.09,-0.33 0.06,-0.08 0.15,-0.14 0.27,-0.16l0.32 -0.07 0.02 0.11 -0.3 0.06c-0.09,0.03 -0.16,0.06 -0.2,0.11 -0.05,0.05 -0.07,0.12 -0.08,0.21 0.03,-0.05 0.07,-0.08 0.12,-0.11 0.04,-0.02 0.1,-0.04 0.16,-0.04zm-0.03 0.58c0.05,0 0.09,-0.01 0.12,-0.03 0.04,-0.02 0.07,-0.04 0.08,-0.08 0.02,-0.04 0.03,-0.08 0.03,-0.12 0,-0.07 -0.02,-0.13 -0.06,-0.17 -0.04,-0.04 -0.1,-0.06 -0.17,-0.06 -0.06,0 -0.12,0.02 -0.16,0.06 -0.04,0.04 -0.07,0.1 -0.07,0.17 0,0.04 0.01,0.08 0.03,0.12 0.02,0.04 0.05,0.06 0.09,0.08 0.03,0.02 0.07,0.03 0.11,0.03z"/>
   <path id="6" class="fil4" d="M12.39 15.85c-0.07,0 -0.13,-0.02 -0.18,-0.05 -0.06,-0.03 -0.1,-0.07 -0.13,-0.13 -0.04,-0.05 -0.05,-0.11 -0.05,-0.18 0,-0.07 0.01,-0.13 0.05,-0.18 0.03,-0.06 0.07,-0.1 0.13,-0.13 0.05,-0.03 0.11,-0.05 0.18,-0.05 0.07,0 0.13,0.02 0.19,0.05 0.05,0.03 0.1,0.07 0.13,0.13 0.03,0.05 0.04,0.11 0.04,0.18 0,0.07 -0.01,0.13 -0.04,0.18 -0.03,0.06 -0.08,0.1 -0.13,0.13 -0.06,0.03 -0.12,0.05 -0.19,0.05zm0 -0.11c0.05,0 0.09,-0.01 0.12,-0.03 0.04,-0.03 0.07,-0.05 0.09,-0.09 0.02,-0.04 0.03,-0.08 0.03,-0.13 0,-0.05 -0.01,-0.09 -0.03,-0.13 -0.02,-0.04 -0.05,-0.06 -0.09,-0.08 -0.03,-0.02 -0.07,-0.03 -0.12,-0.03 -0.04,0 -0.08,0.01 -0.12,0.03 -0.03,0.02 -0.06,0.04 -0.08,0.08 -0.02,0.04 -0.03,0.08 -0.03,0.13 0,0.05 0.01,0.09 0.03,0.13 0.02,0.04 0.05,0.06 0.08,0.09 0.04,0.02 0.08,0.03 0.12,0.03z"/>
   <polygon id="7" class="fil4" points="13.43,15.25 13.18,15.25 13.18,15.84 13.05,15.84 13.05,15.25 12.79,15.25 12.79,15.14 13.43,15.14 "/>
   <polygon id="8" class="fil4" points="13.83,15.54 13.69,15.54 13.69,15.84 13.56,15.84 13.56,15.14 13.69,15.14 13.69,15.44 13.83,15.44 14.06,15.14 14.2,15.14 13.93,15.48 14.22,15.84 14.07,15.84 "/>
   <path id="9" class="fil4" d="M14.58 15.13c0.1,0 0.17,0.03 0.23,0.08 0.05,0.04 0.07,0.11 0.07,0.21l0 0.42 -0.12 0 0 -0.09c-0.02,0.03 -0.05,0.05 -0.09,0.07 -0.04,0.02 -0.08,0.03 -0.14,0.03 -0.07,0 -0.14,-0.02 -0.18,-0.06 -0.05,-0.04 -0.07,-0.09 -0.07,-0.15 0,-0.06 0.02,-0.11 0.06,-0.15 0.05,-0.03 0.12,-0.05 0.22,-0.05l0.2 0 0 -0.03c0,-0.05 -0.02,-0.09 -0.05,-0.12 -0.03,-0.03 -0.08,-0.05 -0.14,-0.05 -0.04,0 -0.08,0.01 -0.12,0.02 -0.04,0.02 -0.07,0.04 -0.1,0.06l-0.05 -0.1c0.03,-0.02 0.07,-0.05 0.12,-0.06 0.05,-0.02 0.11,-0.03 0.16,-0.03zm-0.02 0.62c0.04,0 0.09,-0.01 0.12,-0.03 0.04,-0.02 0.06,-0.05 0.08,-0.09l0 -0.1 -0.2 0c-0.11,0 -0.16,0.03 -0.16,0.11 0,0.03 0.01,0.06 0.04,0.08 0.03,0.02 0.07,0.03 0.12,0.03z"/>
   <path id="10" class="fil4" d="M16.53 15.73l0 0.27 -0.12 0 0 -0.16 -0.58 0 0 0.16 -0.12 0 0 -0.27 0.03 0c0.05,0 0.08,-0.04 0.1,-0.1 0.01,-0.06 0.02,-0.14 0.03,-0.25l0.01 -0.24 0.54 0 0 0.59 0.11 0zm-0.54 -0.34c-0.01,0.08 -0.01,0.16 -0.02,0.21 -0.02,0.06 -0.04,0.1 -0.06,0.13l0.39 0 0 -0.48 -0.31 0 0 0.14z"/>
   <polygon id="11" class="fil4" points="16.69,15.14 16.82,15.14 16.82,15.65 17.25,15.14 17.36,15.14 17.36,15.84 17.24,15.84 17.24,15.33 16.81,15.84 16.69,15.84 "/>
   <path id="12" class="fil4" d="M17.97 15.48c0.05,0.01 0.09,0.03 0.11,0.06 0.03,0.02 0.04,0.06 0.04,0.1 0,0.04 -0.01,0.07 -0.04,0.11 -0.03,0.03 -0.07,0.05 -0.12,0.07 -0.05,0.02 -0.1,0.03 -0.16,0.03 -0.06,0 -0.11,-0.01 -0.16,-0.02 -0.05,-0.02 -0.09,-0.04 -0.13,-0.06l0.04 -0.1c0.03,0.02 0.07,0.04 0.11,0.05 0.05,0.01 0.09,0.02 0.13,0.02 0.06,0 0.11,-0.01 0.15,-0.03 0.03,-0.02 0.05,-0.05 0.05,-0.08 0,-0.04 -0.01,-0.06 -0.04,-0.08 -0.03,-0.02 -0.07,-0.03 -0.12,-0.03l-0.13 0 0 -0.09 0.12 0c0.05,0 0.08,0 0.11,-0.02 0.03,-0.02 0.04,-0.04 0.04,-0.07 0,-0.03 -0.02,-0.06 -0.05,-0.07 -0.03,-0.02 -0.07,-0.03 -0.13,-0.03 -0.07,0 -0.14,0.02 -0.22,0.05l-0.03 -0.09c0.08,-0.05 0.17,-0.07 0.27,-0.07 0.05,0 0.1,0.01 0.15,0.03 0.04,0.01 0.08,0.03 0.1,0.06 0.03,0.03 0.04,0.06 0.04,0.1 0,0.04 -0.01,0.07 -0.03,0.09 -0.03,0.03 -0.06,0.05 -0.1,0.07z"/>
   <path id="13" class="fil4" d="M18.56 15.13c0.1,0 0.17,0.03 0.22,0.08 0.06,0.04 0.08,0.11 0.08,0.21l0 0.42 -0.12 0 0 -0.09c-0.02,0.03 -0.05,0.05 -0.09,0.07 -0.04,0.02 -0.08,0.03 -0.14,0.03 -0.08,0 -0.14,-0.02 -0.19,-0.06 -0.04,-0.04 -0.07,-0.09 -0.07,-0.15 0,-0.06 0.03,-0.11 0.07,-0.15 0.05,-0.03 0.12,-0.05 0.21,-0.05l0.2 0 0 -0.03c0,-0.05 -0.01,-0.09 -0.04,-0.12 -0.03,-0.03 -0.08,-0.05 -0.14,-0.05 -0.04,0 -0.08,0.01 -0.12,0.02 -0.04,0.02 -0.08,0.04 -0.1,0.06l-0.06 -0.1c0.04,-0.02 0.08,-0.05 0.13,-0.06 0.05,-0.02 0.11,-0.03 0.16,-0.03zm-0.03 0.62c0.05,0 0.09,-0.01 0.13,-0.03 0.03,-0.02 0.06,-0.05 0.07,-0.09l0 -0.1 -0.19 0c-0.11,0 -0.16,0.03 -0.16,0.11 0,0.03 0.01,0.06 0.04,0.08 0.03,0.02 0.06,0.03 0.11,0.03z"/>
   <path id="14" class="fil4" d="M19.09 15.14l0.13 0 0 0.51 0.42 -0.51 0.12 0 0 0.7 -0.13 0 0 -0.51 -0.43 0.51 -0.11 0 0 -0.7zm0.33 -0.09c-0.07,0 -0.12,-0.02 -0.16,-0.05 -0.03,-0.03 -0.05,-0.07 -0.05,-0.13l0.08 0c0.01,0.03 0.02,0.06 0.04,0.08 0.02,0.02 0.05,0.03 0.08,0.03 0.04,0 0.07,-0.01 0.09,-0.03 0.02,-0.02 0.03,-0.05 0.04,-0.08l0.08 0c0,0.06 -0.02,0.1 -0.05,0.13 -0.04,0.03 -0.09,0.05 -0.15,0.05z"/>
   <polygon id="15" class="fil4" points="20,15.14 20.13,15.14 20.13,15.44 20.53,15.44 20.53,15.14 20.65,15.14 20.65,15.84 20.53,15.84 20.53,15.55 20.13,15.55 20.13,15.84 20,15.84 "/>
   <polygon id="16" class="fil4" points="20.85,15.42 21.21,15.42 21.21,15.53 20.85,15.53 "/>
   <polygon id="17" class="fil4" points="22.21,15.14 22.21,15.84 22.09,15.84 22.09,15.33 21.83,15.76 21.78,15.76 21.52,15.33 21.52,15.84 21.4,15.84 21.4,15.14 21.53,15.14 21.81,15.61 22.09,15.14 "/>
   <path id="18" class="fil4" d="M22.7 15.13c0.1,0 0.18,0.03 0.23,0.08 0.05,0.04 0.07,0.11 0.07,0.21l0 0.42 -0.12 0 0 -0.09c-0.02,0.03 -0.05,0.05 -0.09,0.07 -0.04,0.02 -0.08,0.03 -0.14,0.03 -0.07,0 -0.14,-0.02 -0.18,-0.06 -0.05,-0.04 -0.07,-0.09 -0.07,-0.15 0,-0.06 0.02,-0.11 0.06,-0.15 0.05,-0.03 0.12,-0.05 0.22,-0.05l0.2 0 0 -0.03c0,-0.05 -0.02,-0.09 -0.05,-0.12 -0.03,-0.03 -0.08,-0.05 -0.14,-0.05 -0.04,0 -0.08,0.01 -0.12,0.02 -0.04,0.02 -0.07,0.04 -0.1,0.06l-0.05 -0.1c0.03,-0.02 0.08,-0.05 0.13,-0.06 0.05,-0.02 0.1,-0.03 0.15,-0.03zm-0.02 0.62c0.04,0 0.09,-0.01 0.12,-0.03 0.04,-0.02 0.06,-0.05 0.08,-0.09l0 -0.1 -0.2 0c-0.1,0 -0.16,0.03 -0.16,0.11 0,0.03 0.02,0.06 0.04,0.08 0.03,0.02 0.07,0.03 0.12,0.03z"/>
   <polygon id="19" class="fil4" points="23.5,15.54 23.36,15.54 23.36,15.84 23.23,15.84 23.23,15.14 23.36,15.14 23.36,15.44 23.51,15.44 23.73,15.14 23.87,15.14 23.6,15.48 23.89,15.84 23.74,15.84 "/>
   <path id="20" class="fil4" d="M24.63 15.49c0,0.01 0,0.03 -0.01,0.04l-0.56 0c0.01,0.06 0.03,0.11 0.08,0.15 0.04,0.04 0.1,0.06 0.17,0.06 0.08,0 0.15,-0.03 0.2,-0.09l0.07 0.08c-0.03,0.04 -0.07,0.07 -0.12,0.09 -0.04,0.02 -0.1,0.03 -0.15,0.03 -0.08,0 -0.14,-0.02 -0.2,-0.05 -0.06,-0.03 -0.1,-0.07 -0.13,-0.13 -0.03,-0.05 -0.05,-0.11 -0.05,-0.18 0,-0.07 0.02,-0.13 0.05,-0.18 0.03,-0.06 0.07,-0.1 0.12,-0.13 0.05,-0.03 0.11,-0.05 0.18,-0.05 0.07,0 0.13,0.02 0.18,0.05 0.05,0.03 0.09,0.07 0.12,0.13 0.03,0.05 0.05,0.11 0.05,0.18zm-0.35 -0.25c-0.06,0 -0.11,0.02 -0.15,0.06 -0.04,0.03 -0.07,0.08 -0.07,0.14l0.45 0c-0.01,-0.06 -0.04,-0.11 -0.08,-0.14 -0.04,-0.04 -0.09,-0.06 -0.15,-0.06z"/>
   <polygon id="21" class="fil4" points="25.31,15.25 25.06,15.25 25.06,15.84 24.93,15.84 24.93,15.25 24.68,15.25 24.68,15.14 25.31,15.14 "/>
   <path id="22" class="fil4" d="M25.71 15.85c-0.07,0 -0.13,-0.02 -0.19,-0.05 -0.05,-0.03 -0.09,-0.07 -0.13,-0.13 -0.03,-0.05 -0.04,-0.11 -0.04,-0.18 0,-0.07 0.01,-0.13 0.04,-0.18 0.04,-0.06 0.08,-0.1 0.13,-0.13 0.06,-0.03 0.12,-0.05 0.19,-0.05 0.07,0 0.13,0.02 0.19,0.05 0.05,0.03 0.1,0.07 0.13,0.13 0.03,0.05 0.04,0.11 0.04,0.18 0,0.07 -0.01,0.13 -0.04,0.18 -0.03,0.06 -0.08,0.1 -0.13,0.13 -0.06,0.03 -0.12,0.05 -0.19,0.05zm0 -0.11c0.05,0 0.09,-0.01 0.12,-0.03 0.04,-0.03 0.07,-0.05 0.09,-0.09 0.02,-0.04 0.03,-0.08 0.03,-0.13 0,-0.05 -0.01,-0.09 -0.03,-0.13 -0.02,-0.04 -0.05,-0.06 -0.09,-0.08 -0.03,-0.02 -0.07,-0.03 -0.12,-0.03 -0.04,0 -0.08,0.01 -0.12,0.03 -0.03,0.02 -0.06,0.04 -0.08,0.08 -0.02,0.04 -0.03,0.08 -0.03,0.13 0,0.05 0.01,0.09 0.03,0.13 0.02,0.04 0.05,0.06 0.08,0.09 0.04,0.02 0.08,0.03 0.12,0.03z"/>
   <path id="23" class="fil4" d="M26.73 15.48c0.09,0.02 0.14,0.08 0.14,0.17 0,0.06 -0.02,0.11 -0.07,0.14 -0.05,0.03 -0.12,0.05 -0.21,0.05l-0.33 0 0 -0.7 0.32 0c0.08,0 0.15,0.02 0.19,0.05 0.05,0.03 0.07,0.07 0.07,0.13 0,0.04 -0.01,0.07 -0.03,0.1 -0.02,0.02 -0.04,0.04 -0.08,0.06zm-0.35 -0.04l0.19 0c0.05,0 0.09,-0.01 0.11,-0.02 0.03,-0.02 0.04,-0.05 0.04,-0.08 0,-0.07 -0.05,-0.1 -0.15,-0.1l-0.19 0 0 0.2zm0.2 0.3c0.06,0 0.1,-0.01 0.12,-0.02 0.03,-0.02 0.04,-0.05 0.04,-0.08 0,-0.04 -0.01,-0.06 -0.03,-0.08 -0.03,-0.02 -0.07,-0.03 -0.12,-0.03l-0.21 0 0 0.21 0.2 0z"/>
   <path id="24" class="fil4" d="M4.73 17.41l0 0.28 -0.12 0 0 -0.17 -0.58 0 0 0.17 -0.12 0 0 -0.28 0.03 0c0.05,0 0.08,-0.03 0.1,-0.09 0.01,-0.06 0.02,-0.15 0.03,-0.26l0.01 -0.23 0.54 0 0 0.58 0.11 0zm-0.54 -0.34c-0.01,0.09 -0.02,0.16 -0.03,0.22 -0.01,0.06 -0.03,0.1 -0.06,0.12l0.4 0 0 -0.47 -0.31 0 0 0.13z"/>
   <path id="25" class="fil4" d="M5.49 16.83l0 0.69 -0.12 0 0 -0.58 -0.3 0 -0.01 0.15c-0.01,0.1 -0.02,0.17 -0.03,0.24 -0.01,0.06 -0.03,0.11 -0.06,0.15 -0.03,0.04 -0.07,0.05 -0.12,0.05 -0.02,0 -0.04,0 -0.07,-0.01l0 -0.1c0.02,0 0.03,0 0.04,0 0.03,0 0.06,-0.02 0.08,-0.05 0.01,-0.03 0.02,-0.06 0.03,-0.11 0.01,-0.04 0.01,-0.1 0.01,-0.18l0.02 -0.25 0.53 0z"/>
   <path id="26" class="fil4" d="M6.3 16.83l0 0.69 -0.12 0 0 -0.22 -0.2 0 -0.01 0 -0.16 0.22 -0.13 0 0.17 -0.23c-0.05,-0.02 -0.1,-0.05 -0.12,-0.08 -0.03,-0.04 -0.05,-0.08 -0.05,-0.14 0,-0.08 0.03,-0.14 0.09,-0.18 0.05,-0.04 0.13,-0.06 0.22,-0.06l0.31 0zm-0.49 0.25c0,0.04 0.02,0.08 0.05,0.1 0.03,0.02 0.07,0.03 0.13,0.03l0.19 0 0 -0.27 -0.18 0c-0.13,0 -0.19,0.04 -0.19,0.14z"/>
   <polygon id="27" class="fil4" points="7.54,16.83 7.54,17.52 7.42,17.52 7.42,16.94 7.02,16.94 7.02,17.52 6.9,17.52 6.9,16.83 "/>
   <path id="28" class="fil4" d="M8.42 17.18c0,0.01 0,0.02 0,0.04l-0.57 0c0.01,0.06 0.04,0.11 0.08,0.15 0.05,0.03 0.11,0.05 0.17,0.05 0.09,0 0.15,-0.03 0.21,-0.08l0.07 0.08c-0.04,0.04 -0.08,0.06 -0.12,0.08 -0.05,0.02 -0.1,0.03 -0.16,0.03 -0.07,0 -0.14,-0.01 -0.2,-0.04 -0.05,-0.03 -0.1,-0.08 -0.13,-0.13 -0.03,-0.05 -0.05,-0.12 -0.05,-0.18 0,-0.07 0.02,-0.13 0.05,-0.19 0.03,-0.05 0.07,-0.09 0.13,-0.12 0.05,-0.04 0.11,-0.05 0.18,-0.05 0.06,0 0.12,0.01 0.17,0.05 0.06,0.03 0.1,0.07 0.13,0.12 0.03,0.06 0.04,0.12 0.04,0.19zm-0.34 -0.25c-0.07,0 -0.12,0.01 -0.16,0.05 -0.04,0.04 -0.06,0.09 -0.07,0.15l0.45 0c-0.01,-0.06 -0.03,-0.11 -0.07,-0.15 -0.04,-0.04 -0.09,-0.05 -0.15,-0.05z"/>
   <path id="29" class="fil4" d="M9.17 16.83l0 0.69 -0.12 0 0 -0.28c-0.08,0.04 -0.15,0.06 -0.23,0.06 -0.08,0 -0.15,-0.03 -0.2,-0.07 -0.05,-0.04 -0.07,-0.1 -0.07,-0.18l0 -0.22 0.13 0 0 0.21c0,0.05 0.01,0.09 0.04,0.11 0.03,0.03 0.07,0.04 0.13,0.04 0.06,0 0.13,-0.01 0.2,-0.05l0 -0.31 0.12 0z"/>
   <path id="30" class="fil4" d="M9.67 16.82c0.09,0 0.17,0.02 0.22,0.07 0.05,0.05 0.08,0.12 0.08,0.21l0 0.42 -0.12 0 0 -0.09c-0.02,0.03 -0.05,0.06 -0.09,0.08 -0.04,0.01 -0.09,0.02 -0.14,0.02 -0.08,0 -0.14,-0.02 -0.19,-0.05 -0.05,-0.04 -0.07,-0.09 -0.07,-0.15 0,-0.06 0.02,-0.11 0.07,-0.15 0.04,-0.04 0.11,-0.06 0.21,-0.06l0.2 0 0 -0.02c0,-0.06 -0.02,-0.1 -0.05,-0.13 -0.03,-0.03 -0.08,-0.04 -0.14,-0.04 -0.04,0 -0.08,0.01 -0.12,0.02 -0.04,0.01 -0.07,0.03 -0.1,0.05l-0.05 -0.09c0.04,-0.03 0.08,-0.05 0.13,-0.07 0.05,-0.01 0.1,-0.02 0.16,-0.02zm-0.03 0.61c0.05,0 0.09,-0.01 0.12,-0.03 0.04,-0.02 0.06,-0.05 0.08,-0.09l0 -0.1 -0.19 0c-0.11,0 -0.17,0.04 -0.17,0.11 0,0.04 0.02,0.06 0.05,0.08 0.02,0.02 0.06,0.03 0.11,0.03z"/>
   <polygon id="31" class="fil4" points="10.71,16.94 10.46,16.94 10.46,17.52 10.33,17.52 10.33,16.94 10.08,16.94 10.08,16.83 10.71,16.83 "/>
   <polygon id="32" class="fil4" points="10.84,16.83 10.97,16.83 10.97,17.33 11.4,16.83 11.51,16.83 11.51,17.52 11.39,17.52 11.39,17.02 10.96,17.52 10.84,17.52 "/>
   <path id="33" class="fil4" d="M11.79 17.35c0.02,0 0.04,0.01 0.06,0.03 0.01,0.01 0.02,0.04 0.02,0.06 0,0.01 0,0.03 0,0.04 -0.01,0.01 -0.01,0.03 -0.02,0.06l-0.06 0.18 -0.08 0 0.04 -0.2c-0.01,0 -0.03,-0.01 -0.04,-0.03 -0.01,-0.01 -0.01,-0.03 -0.01,-0.05 0,-0.03 0.01,-0.05 0.02,-0.06 0.02,-0.02 0.04,-0.03 0.07,-0.03z"/>
   <polygon id="34" class="fil4" points="12.68,17.23 12.54,17.23 12.54,17.52 12.41,17.52 12.41,16.83 12.54,16.83 12.54,17.12 12.69,17.12 12.91,16.83 13.05,16.83 12.78,17.16 13.07,17.52 12.92,17.52 "/>
   <path id="35" class="fil4" d="M13.43 16.82c0.1,0 0.18,0.02 0.23,0.07 0.05,0.05 0.07,0.12 0.07,0.21l0 0.42 -0.12 0 0 -0.09c-0.02,0.03 -0.05,0.06 -0.09,0.08 -0.04,0.01 -0.08,0.02 -0.14,0.02 -0.07,0 -0.14,-0.02 -0.18,-0.05 -0.05,-0.04 -0.07,-0.09 -0.07,-0.15 0,-0.06 0.02,-0.11 0.06,-0.15 0.05,-0.04 0.12,-0.06 0.22,-0.06l0.2 0 0 -0.02c0,-0.06 -0.02,-0.1 -0.05,-0.13 -0.03,-0.03 -0.08,-0.04 -0.14,-0.04 -0.04,0 -0.08,0.01 -0.12,0.02 -0.04,0.01 -0.07,0.03 -0.1,0.05l-0.05 -0.09c0.03,-0.03 0.08,-0.05 0.13,-0.07 0.05,-0.01 0.1,-0.02 0.15,-0.02zm-0.02 0.61c0.04,0 0.09,-0.01 0.12,-0.03 0.04,-0.02 0.06,-0.05 0.08,-0.09l0 -0.1 -0.2 0c-0.1,0 -0.16,0.04 -0.16,0.11 0,0.04 0.02,0.06 0.04,0.08 0.03,0.02 0.07,0.03 0.12,0.03z"/>
   <path id="36" class="fil4" d="M14.33 16.82c0.07,0 0.13,0.01 0.18,0.04 0.06,0.03 0.1,0.08 0.13,0.13 0.03,0.05 0.04,0.12 0.04,0.19 0,0.07 -0.01,0.13 -0.04,0.18 -0.03,0.06 -0.07,0.1 -0.13,0.13 -0.05,0.03 -0.11,0.04 -0.18,0.04 -0.05,0 -0.09,-0.01 -0.14,-0.03 -0.04,-0.02 -0.07,-0.04 -0.1,-0.08l0 0.36 -0.13 0 0 -0.95 0.12 0 0 0.11c0.03,-0.04 0.07,-0.07 0.11,-0.09 0.04,-0.02 0.09,-0.03 0.14,-0.03zm-0.01 0.6c0.05,0 0.09,-0.01 0.12,-0.03 0.04,-0.02 0.07,-0.05 0.09,-0.09 0.02,-0.03 0.03,-0.08 0.03,-0.12 0,-0.05 -0.01,-0.1 -0.03,-0.13 -0.02,-0.04 -0.05,-0.07 -0.09,-0.09 -0.03,-0.02 -0.07,-0.03 -0.12,-0.03 -0.04,0 -0.08,0.01 -0.12,0.03 -0.03,0.02 -0.06,0.05 -0.08,0.09 -0.02,0.03 -0.03,0.08 -0.03,0.13 0,0.04 0.01,0.09 0.03,0.12 0.02,0.04 0.05,0.07 0.08,0.09 0.04,0.02 0.08,0.03 0.12,0.03z"/>
   <polygon id="37" class="fil4" points="15.36,16.94 15.11,16.94 15.11,17.52 14.98,17.52 14.98,16.94 14.72,16.94 14.72,16.83 15.36,16.83 "/>
   <path id="38" class="fil4" d="M15.76 17.53c-0.07,0 -0.13,-0.01 -0.19,-0.04 -0.05,-0.03 -0.1,-0.08 -0.13,-0.13 -0.03,-0.05 -0.04,-0.12 -0.04,-0.18 0,-0.07 0.01,-0.13 0.04,-0.19 0.03,-0.05 0.08,-0.09 0.13,-0.12 0.06,-0.04 0.12,-0.05 0.19,-0.05 0.07,0 0.13,0.01 0.19,0.05 0.05,0.03 0.09,0.07 0.13,0.12 0.03,0.06 0.04,0.12 0.04,0.19 0,0.06 -0.01,0.13 -0.04,0.18 -0.04,0.05 -0.08,0.1 -0.13,0.13 -0.06,0.03 -0.12,0.04 -0.19,0.04zm0 -0.11c0.04,0 0.08,-0.01 0.12,-0.03 0.04,-0.02 0.06,-0.05 0.08,-0.09 0.02,-0.03 0.03,-0.08 0.03,-0.12 0,-0.05 -0.01,-0.1 -0.03,-0.13 -0.02,-0.04 -0.04,-0.07 -0.08,-0.09 -0.04,-0.02 -0.08,-0.03 -0.12,-0.03 -0.05,0 -0.09,0.01 -0.12,0.03 -0.04,0.02 -0.06,0.05 -0.09,0.09 -0.02,0.03 -0.03,0.08 -0.03,0.13 0,0.04 0.01,0.09 0.03,0.12 0.03,0.04 0.05,0.07 0.09,0.09 0.03,0.02 0.07,0.03 0.12,0.03z"/>
   <path id="39" class="fil4" d="M16.86 16.83l0 0.69 -0.12 0 0 -0.28c-0.08,0.04 -0.15,0.06 -0.23,0.06 -0.09,0 -0.15,-0.03 -0.2,-0.07 -0.05,-0.04 -0.07,-0.1 -0.07,-0.18l0 -0.22 0.12 0 0 0.21c0,0.05 0.02,0.09 0.05,0.11 0.03,0.03 0.07,0.04 0.13,0.04 0.06,0 0.12,-0.01 0.2,-0.05l0 -0.31 0.12 0z"/>
   <path id="40" class="fil4" d="M17.74 17.18c0,0.01 0,0.02 0,0.04l-0.57 0c0.01,0.06 0.03,0.11 0.08,0.15 0.05,0.03 0.1,0.05 0.17,0.05 0.09,0 0.15,-0.03 0.2,-0.08l0.07 0.08c-0.03,0.04 -0.07,0.06 -0.11,0.08 -0.05,0.02 -0.1,0.03 -0.16,0.03 -0.08,0 -0.14,-0.01 -0.2,-0.04 -0.06,-0.03 -0.1,-0.08 -0.13,-0.13 -0.03,-0.05 -0.05,-0.12 -0.05,-0.18 0,-0.07 0.02,-0.13 0.05,-0.19 0.03,-0.05 0.07,-0.09 0.12,-0.12 0.06,-0.04 0.12,-0.05 0.18,-0.05 0.07,0 0.13,0.01 0.18,0.05 0.05,0.03 0.09,0.07 0.12,0.12 0.03,0.06 0.05,0.12 0.05,0.19zm-0.35 -0.25c-0.06,0 -0.11,0.01 -0.15,0.05 -0.04,0.04 -0.06,0.09 -0.07,0.15l0.45 0c-0.01,-0.06 -0.03,-0.11 -0.07,-0.15 -0.05,-0.04 -0.1,-0.05 -0.16,-0.05z"/>
   <polygon id="41" class="fil4" points="18.21,17.23 18.06,17.23 18.06,17.52 17.93,17.52 17.93,16.83 18.06,16.83 18.06,17.12 18.21,17.12 18.43,16.83 18.57,16.83 18.31,17.16 18.59,17.52 18.44,17.52 "/>
   <polygon id="42" class="fil4" points="19.88,16.83 19.88,17.52 19.77,17.52 19.77,17.01 19.51,17.45 19.45,17.45 19.19,17.01 19.19,17.52 19.08,17.52 19.08,16.83 19.21,16.83 19.48,17.3 19.76,16.83 "/>
   <path id="43" class="fil4" d="M20.38 16.82c0.09,0 0.17,0.02 0.22,0.07 0.05,0.05 0.08,0.12 0.08,0.21l0 0.42 -0.12 0 0 -0.09c-0.03,0.03 -0.06,0.06 -0.09,0.08 -0.04,0.01 -0.09,0.02 -0.14,0.02 -0.08,0 -0.14,-0.02 -0.19,-0.05 -0.05,-0.04 -0.07,-0.09 -0.07,-0.15 0,-0.06 0.02,-0.11 0.07,-0.15 0.04,-0.04 0.11,-0.06 0.21,-0.06l0.2 0 0 -0.02c0,-0.06 -0.02,-0.1 -0.05,-0.13 -0.03,-0.03 -0.08,-0.04 -0.14,-0.04 -0.04,0 -0.08,0.01 -0.12,0.02 -0.04,0.01 -0.07,0.03 -0.1,0.05l-0.05 -0.09c0.03,-0.03 0.08,-0.05 0.13,-0.07 0.05,-0.01 0.1,-0.02 0.16,-0.02zm-0.03 0.61c0.05,0 0.09,-0.01 0.12,-0.03 0.04,-0.02 0.06,-0.05 0.08,-0.09l0 -0.1 -0.2 0c-0.1,0 -0.16,0.04 -0.16,0.11 0,0.04 0.02,0.06 0.04,0.08 0.03,0.02 0.07,0.03 0.12,0.03z"/>
   <path id="44" class="fil4" d="M21.27 16.82c0.07,0 0.13,0.01 0.19,0.04 0.05,0.03 0.09,0.08 0.12,0.13 0.03,0.05 0.05,0.12 0.05,0.19 0,0.07 -0.02,0.13 -0.05,0.18 -0.03,0.06 -0.07,0.1 -0.12,0.13 -0.06,0.03 -0.12,0.04 -0.19,0.04 -0.05,0 -0.09,-0.01 -0.13,-0.03 -0.05,-0.02 -0.08,-0.04 -0.11,-0.08l0 0.36 -0.13 0 0 -0.95 0.12 0 0 0.11c0.03,-0.04 0.07,-0.07 0.11,-0.09 0.04,-0.02 0.09,-0.03 0.14,-0.03zm-0.01 0.6c0.05,0 0.09,-0.01 0.12,-0.03 0.04,-0.02 0.07,-0.05 0.09,-0.09 0.02,-0.03 0.03,-0.08 0.03,-0.12 0,-0.05 -0.01,-0.1 -0.03,-0.13 -0.02,-0.04 -0.05,-0.07 -0.09,-0.09 -0.03,-0.02 -0.07,-0.03 -0.12,-0.03 -0.04,0 -0.08,0.01 -0.12,0.03 -0.03,0.02 -0.06,0.05 -0.08,0.09 -0.02,0.03 -0.03,0.08 -0.03,0.13 0,0.04 0.01,0.09 0.03,0.12 0.02,0.04 0.05,0.07 0.08,0.09 0.04,0.02 0.08,0.03 0.12,0.03z"/>
   <polygon id="45" class="fil4" points="22.08,17.23 21.94,17.23 21.94,17.52 21.81,17.52 21.81,16.83 21.94,16.83 21.94,17.12 22.08,17.12 22.31,16.83 22.45,16.83 22.18,17.16 22.46,17.52 22.32,17.52 "/>
   <path id="46" class="fil4" d="M23.2 17.18c0,0.01 0,0.02 0,0.04l-0.56 0c0,0.06 0.03,0.11 0.08,0.15 0.04,0.03 0.1,0.05 0.17,0.05 0.08,0 0.15,-0.03 0.2,-0.08l0.07 0.08c-0.03,0.04 -0.07,0.06 -0.12,0.08 -0.05,0.02 -0.1,0.03 -0.16,0.03 -0.07,0 -0.13,-0.01 -0.19,-0.04 -0.06,-0.03 -0.1,-0.08 -0.13,-0.13 -0.04,-0.05 -0.05,-0.12 -0.05,-0.18 0,-0.07 0.01,-0.13 0.04,-0.19 0.03,-0.05 0.08,-0.09 0.13,-0.12 0.05,-0.04 0.11,-0.05 0.18,-0.05 0.07,0 0.13,0.01 0.18,0.05 0.05,0.03 0.09,0.07 0.12,0.12 0.03,0.06 0.04,0.12 0.04,0.19zm-0.34 -0.25c-0.06,0 -0.11,0.01 -0.15,0.05 -0.04,0.04 -0.07,0.09 -0.07,0.15l0.44 0c0,-0.06 -0.03,-0.11 -0.07,-0.15 -0.04,-0.04 -0.09,-0.05 -0.15,-0.05z"/>
   <polygon id="47" class="fil4" points="23.89,16.94 23.64,16.94 23.64,17.52 23.51,17.52 23.51,16.94 23.25,16.94 23.25,16.83 23.89,16.83 "/>
   <polygon id="48" class="fil4" points="24.67,16.83 24.67,17.52 24.54,17.52 24.54,16.94 24.15,16.94 24.15,17.52 24.02,17.52 24.02,16.83 "/>
   <path id="49" class="fil4" d="M25.51 16.83l0 0.69 -0.12 0 0 -0.58 -0.3 0 -0.01 0.15c-0.01,0.1 -0.02,0.17 -0.03,0.24 -0.01,0.06 -0.03,0.11 -0.06,0.15 -0.03,0.04 -0.07,0.05 -0.12,0.05 -0.02,0 -0.04,0 -0.07,-0.01l0 -0.1c0.02,0 0.03,0 0.04,0 0.03,0 0.06,-0.02 0.08,-0.05 0.01,-0.03 0.02,-0.06 0.03,-0.11 0,-0.04 0.01,-0.1 0.01,-0.18l0.02 -0.25 0.53 0z"/>
   <path id="50" class="fil4" d="M26.39 17.18c0,0.01 0,0.02 0,0.04l-0.57 0c0.01,0.06 0.03,0.11 0.08,0.15 0.05,0.03 0.1,0.05 0.17,0.05 0.09,0 0.15,-0.03 0.2,-0.08l0.07 0.08c-0.03,0.04 -0.07,0.06 -0.11,0.08 -0.05,0.02 -0.1,0.03 -0.16,0.03 -0.08,0 -0.14,-0.01 -0.2,-0.04 -0.06,-0.03 -0.1,-0.08 -0.13,-0.13 -0.03,-0.05 -0.05,-0.12 -0.05,-0.18 0,-0.07 0.02,-0.13 0.05,-0.19 0.03,-0.05 0.07,-0.09 0.12,-0.12 0.06,-0.04 0.12,-0.05 0.18,-0.05 0.07,0 0.13,0.01 0.18,0.05 0.05,0.03 0.09,0.07 0.12,0.12 0.03,0.06 0.05,0.12 0.05,0.19zm-0.35 -0.25c-0.06,0 -0.11,0.01 -0.15,0.05 -0.04,0.04 -0.06,0.09 -0.07,0.15l0.45 0c-0.01,-0.06 -0.03,-0.11 -0.07,-0.15 -0.05,-0.04 -0.1,-0.05 -0.16,-0.05z"/>
   <path id="51" class="fil4" d="M26.58 16.83l0.13 0 0 0.5 0.43 -0.5 0.11 0 0 0.69 -0.12 0 0 -0.5 -0.43 0.5 -0.12 0 0 -0.69zm0.33 -0.09c-0.06,0 -0.11,-0.02 -0.15,-0.05 -0.04,-0.03 -0.06,-0.08 -0.06,-0.14l0.09 0c0,0.04 0.01,0.06 0.03,0.08 0.02,0.02 0.05,0.03 0.09,0.03 0.04,0 0.06,-0.01 0.09,-0.03 0.02,-0.02 0.03,-0.04 0.03,-0.08l0.09 0c0,0.06 -0.02,0.11 -0.06,0.14 -0.03,0.03 -0.08,0.05 -0.15,0.05z"/>
   <path id="52" class="fil4" d="M27.8 17.53c-0.07,0 -0.13,-0.01 -0.19,-0.04 -0.05,-0.03 -0.1,-0.08 -0.13,-0.13 -0.03,-0.05 -0.05,-0.12 -0.05,-0.18 0,-0.07 0.02,-0.13 0.05,-0.19 0.03,-0.05 0.08,-0.09 0.13,-0.12 0.06,-0.04 0.12,-0.05 0.19,-0.05 0.07,0 0.12,0.01 0.17,0.04 0.05,0.02 0.09,0.06 0.12,0.11l-0.1 0.06c-0.02,-0.03 -0.05,-0.06 -0.08,-0.07 -0.03,-0.02 -0.07,-0.03 -0.11,-0.03 -0.04,0 -0.09,0.01 -0.12,0.03 -0.04,0.02 -0.07,0.05 -0.09,0.09 -0.02,0.03 -0.03,0.08 -0.03,0.13 0,0.04 0.01,0.09 0.03,0.13 0.02,0.03 0.05,0.06 0.09,0.08 0.03,0.02 0.08,0.03 0.12,0.03 0.04,0 0.08,-0.01 0.11,-0.02 0.03,-0.02 0.06,-0.05 0.08,-0.08l0.1 0.06c-0.03,0.05 -0.07,0.09 -0.12,0.11 -0.05,0.03 -0.1,0.04 -0.17,0.04z"/>
   <path id="53" class="fil4" d="M28.54 17.53c-0.07,0 -0.13,-0.01 -0.19,-0.04 -0.05,-0.03 -0.1,-0.08 -0.13,-0.13 -0.03,-0.05 -0.04,-0.12 -0.04,-0.18 0,-0.07 0.01,-0.13 0.04,-0.19 0.03,-0.05 0.08,-0.09 0.13,-0.12 0.06,-0.04 0.12,-0.05 0.19,-0.05 0.07,0 0.13,0.01 0.19,0.05 0.05,0.03 0.09,0.07 0.12,0.12 0.04,0.06 0.05,0.12 0.05,0.19 0,0.06 -0.01,0.13 -0.05,0.18 -0.03,0.05 -0.07,0.1 -0.12,0.13 -0.06,0.03 -0.12,0.04 -0.19,0.04zm0 -0.11c0.04,0 0.08,-0.01 0.12,-0.03 0.04,-0.02 0.06,-0.05 0.08,-0.09 0.02,-0.03 0.03,-0.08 0.03,-0.12 0,-0.05 -0.01,-0.1 -0.03,-0.13 -0.02,-0.04 -0.04,-0.07 -0.08,-0.09 -0.04,-0.02 -0.08,-0.03 -0.12,-0.03 -0.05,0 -0.09,0.01 -0.12,0.03 -0.04,0.02 -0.07,0.05 -0.09,0.09 -0.02,0.03 -0.03,0.08 -0.03,0.13 0,0.04 0.01,0.09 0.03,0.12 0.02,0.04 0.05,0.07 0.09,0.09 0.03,0.02 0.07,0.03 0.12,0.03z"/>
   <path id="54" class="fil4" d="M29.56 17.16c0.09,0.02 0.14,0.08 0.14,0.17 0,0.06 -0.03,0.11 -0.07,0.14 -0.05,0.04 -0.12,0.05 -0.21,0.05l-0.34 0 0 -0.69 0.33 0c0.08,0 0.15,0.01 0.19,0.04 0.05,0.03 0.07,0.08 0.07,0.14 0,0.03 -0.01,0.06 -0.03,0.09 -0.02,0.03 -0.05,0.05 -0.08,0.06zm-0.35 -0.03l0.19 0c0.05,0 0.08,-0.01 0.11,-0.03 0.02,-0.02 0.04,-0.04 0.04,-0.08 0,-0.06 -0.05,-0.1 -0.15,-0.1l-0.19 0 0 0.21zm0.2 0.3c0.05,0 0.09,-0.01 0.12,-0.03 0.03,-0.01 0.04,-0.04 0.04,-0.08 0,-0.03 -0.01,-0.06 -0.04,-0.08 -0.02,-0.01 -0.06,-0.02 -0.11,-0.02l-0.21 0 0 0.21 0.2 0z"/>
   <path id="55" class="fil4" d="M29.92 17.35c0.03,0 0.05,0.01 0.06,0.03 0.02,0.01 0.03,0.04 0.03,0.06 0,0.01 0,0.03 -0.01,0.04 0,0.01 -0.01,0.03 -0.01,0.06l-0.07 0.18 -0.08 0 0.05 -0.2c-0.02,0 -0.03,-0.01 -0.04,-0.03 -0.01,-0.01 -0.02,-0.03 -0.02,-0.05 0,-0.03 0.01,-0.05 0.03,-0.06 0.02,-0.02 0.04,-0.03 0.06,-0.03z"/>
   <path id="56" class="fil4" d="M6.38 19.22c-0.07,0 -0.14,-0.02 -0.19,-0.05 -0.06,-0.03 -0.1,-0.07 -0.13,-0.13 -0.03,-0.05 -0.05,-0.11 -0.05,-0.18 0,-0.07 0.02,-0.13 0.05,-0.18 0.03,-0.06 0.07,-0.1 0.13,-0.13 0.05,-0.03 0.12,-0.05 0.19,-0.05 0.07,0 0.13,0.02 0.18,0.05 0.06,0.03 0.1,0.07 0.13,0.13 0.03,0.05 0.05,0.11 0.05,0.18 0,0.07 -0.02,0.13 -0.05,0.18 -0.03,0.06 -0.07,0.1 -0.13,0.13 -0.05,0.03 -0.11,0.05 -0.18,0.05zm0 -0.11c0.04,0 0.08,-0.01 0.12,-0.03 0.03,-0.02 0.06,-0.05 0.08,-0.09 0.02,-0.04 0.03,-0.08 0.03,-0.13 0,-0.05 -0.01,-0.09 -0.03,-0.13 -0.02,-0.04 -0.05,-0.06 -0.08,-0.08 -0.04,-0.02 -0.08,-0.03 -0.12,-0.03 -0.05,0 -0.09,0.01 -0.12,0.03 -0.04,0.02 -0.07,0.04 -0.09,0.08 -0.02,0.04 -0.03,0.08 -0.03,0.13 0,0.05 0.01,0.09 0.03,0.13 0.02,0.04 0.05,0.07 0.09,0.09 0.03,0.02 0.07,0.03 0.12,0.03z"/>
   <path id="57" class="fil4" d="M7.8 18.86c0,0.11 -0.03,0.19 -0.11,0.25 -0.07,0.07 -0.17,0.1 -0.3,0.11l0 0.24 -0.12 0 0 -0.24c-0.13,-0.01 -0.24,-0.04 -0.31,-0.1 -0.07,-0.07 -0.1,-0.15 -0.1,-0.26 0,-0.11 0.03,-0.19 0.1,-0.25 0.07,-0.06 0.17,-0.1 0.31,-0.11l0 -0.27 0.12 0 0 0.27c0.13,0.01 0.23,0.05 0.3,0.11 0.08,0.06 0.11,0.14 0.11,0.25zm-0.82 0c0,0.07 0.02,0.13 0.07,0.17 0.05,0.05 0.12,0.07 0.22,0.08l0 -0.49c-0.1,0 -0.17,0.03 -0.22,0.07 -0.05,0.04 -0.07,0.1 -0.07,0.17zm0.41 0.25c0.19,-0.02 0.29,-0.1 0.29,-0.25 0,-0.07 -0.03,-0.13 -0.08,-0.17 -0.04,-0.04 -0.11,-0.07 -0.21,-0.07l0 0.49z"/>
   <path id="58" class="fil4" d="M8.28 19.22c-0.07,0 -0.13,-0.02 -0.19,-0.05 -0.05,-0.03 -0.09,-0.07 -0.13,-0.13 -0.03,-0.05 -0.04,-0.11 -0.04,-0.18 0,-0.07 0.01,-0.13 0.04,-0.18 0.04,-0.06 0.08,-0.1 0.13,-0.13 0.06,-0.03 0.12,-0.05 0.19,-0.05 0.07,0 0.13,0.02 0.19,0.05 0.05,0.03 0.09,0.07 0.13,0.13 0.03,0.05 0.04,0.11 0.04,0.18 0,0.07 -0.01,0.13 -0.04,0.18 -0.04,0.06 -0.08,0.1 -0.13,0.13 -0.06,0.03 -0.12,0.05 -0.19,0.05zm0 -0.11c0.05,0 0.09,-0.01 0.12,-0.03 0.04,-0.02 0.06,-0.05 0.08,-0.09 0.03,-0.04 0.04,-0.08 0.04,-0.13 0,-0.05 -0.01,-0.09 -0.04,-0.13 -0.02,-0.04 -0.04,-0.06 -0.08,-0.08 -0.03,-0.02 -0.07,-0.03 -0.12,-0.03 -0.04,0 -0.08,0.01 -0.12,0.03 -0.04,0.02 -0.06,0.04 -0.08,0.08 -0.02,0.04 -0.04,0.08 -0.04,0.13 0,0.05 0.02,0.09 0.04,0.13 0.02,0.04 0.04,0.07 0.08,0.09 0.04,0.02 0.08,0.03 0.12,0.03z"/>
   <path id="59" class="fil4" d="M9.2 18.5c0.06,0 0.12,0.02 0.18,0.05 0.05,0.03 0.09,0.07 0.12,0.12 0.03,0.06 0.05,0.12 0.05,0.19 0,0.07 -0.02,0.13 -0.05,0.19 -0.03,0.05 -0.07,0.09 -0.12,0.12 -0.06,0.03 -0.12,0.05 -0.18,0.05 -0.05,0 -0.1,-0.01 -0.14,-0.03 -0.04,-0.02 -0.08,-0.05 -0.11,-0.09l0 0.36 -0.12 0 0 -0.95 0.12 0 0 0.11c0.03,-0.04 0.06,-0.07 0.1,-0.09 0.05,-0.02 0.09,-0.03 0.15,-0.03zm-0.01 0.61c0.04,0 0.08,-0.01 0.12,-0.03 0.03,-0.02 0.06,-0.05 0.08,-0.09 0.02,-0.04 0.03,-0.08 0.03,-0.13 0,-0.05 -0.01,-0.09 -0.03,-0.13 -0.02,-0.04 -0.05,-0.06 -0.08,-0.08 -0.04,-0.02 -0.08,-0.03 -0.12,-0.03 -0.05,0 -0.09,0.01 -0.12,0.03 -0.04,0.02 -0.07,0.05 -0.09,0.08 -0.02,0.04 -0.03,0.08 -0.03,0.13 0,0.05 0.01,0.09 0.03,0.13 0.02,0.04 0.05,0.07 0.09,0.09 0.03,0.02 0.07,0.03 0.12,0.03z"/>
   <polygon id="60" class="fil4" points="10.54,18.51 10.54,19.21 10.42,19.21 10.42,18.7 10.16,19.13 10.11,19.13 9.85,18.7 9.85,19.21 9.73,19.21 9.73,18.51 9.86,18.51 10.14,18.98 10.42,18.51 "/>
   <path id="61" class="fil4" d="M11.38 18.51l0 0.7 -0.12 0 0 -0.59 -0.3 0 -0.01 0.16c-0.01,0.09 -0.01,0.17 -0.03,0.23 -0.01,0.07 -0.03,0.12 -0.06,0.15 -0.03,0.04 -0.06,0.06 -0.11,0.06 -0.03,0 -0.05,0 -0.08,-0.01l0.01 -0.11c0.01,0 0.02,0.01 0.03,0.01 0.03,0 0.06,-0.02 0.08,-0.05 0.01,-0.03 0.02,-0.07 0.03,-0.11 0.01,-0.04 0.01,-0.1 0.01,-0.18l0.02 -0.26 0.53 0z"/>
   <path id="62" class="fil4" d="M12.26 18.86c0,0.01 0,0.03 0,0.04l-0.57 0c0.01,0.06 0.03,0.11 0.08,0.15 0.05,0.04 0.1,0.06 0.17,0.06 0.09,0 0.15,-0.03 0.2,-0.09l0.07 0.08c-0.03,0.04 -0.07,0.07 -0.11,0.09 -0.05,0.02 -0.1,0.03 -0.16,0.03 -0.08,0 -0.14,-0.02 -0.2,-0.05 -0.05,-0.03 -0.1,-0.07 -0.13,-0.13 -0.03,-0.05 -0.05,-0.11 -0.05,-0.18 0,-0.07 0.02,-0.13 0.05,-0.18 0.03,-0.06 0.07,-0.1 0.12,-0.13 0.06,-0.03 0.12,-0.05 0.18,-0.05 0.07,0 0.13,0.02 0.18,0.05 0.05,0.03 0.1,0.07 0.12,0.13 0.03,0.05 0.05,0.11 0.05,0.18zm-0.35 -0.25c-0.06,0 -0.11,0.02 -0.15,0.06 -0.04,0.03 -0.06,0.08 -0.07,0.14l0.45 0c-0.01,-0.06 -0.03,-0.11 -0.07,-0.14 -0.05,-0.04 -0.1,-0.06 -0.16,-0.06z"/>
   <polygon id="63" class="fil4" points="12.45,18.51 12.58,18.51 12.58,18.81 12.98,18.81 12.98,18.51 13.11,18.51 13.11,19.21 12.98,19.21 12.98,18.92 12.58,18.92 12.58,19.21 12.45,19.21 "/>
   <polygon id="64" class="fil4" points="13.35,18.51 13.48,18.51 13.48,19.02 13.91,18.51 14.02,18.51 14.02,19.21 13.89,19.21 13.89,18.7 13.47,19.21 13.35,19.21 "/>
   <path id="65" class="fil4" d="M14.9 18.86c0,0.01 0,0.03 -0.01,0.04l-0.56 0c0.01,0.06 0.03,0.11 0.08,0.15 0.04,0.04 0.1,0.06 0.17,0.06 0.08,0 0.15,-0.03 0.2,-0.09l0.07 0.08c-0.03,0.04 -0.07,0.07 -0.12,0.09 -0.04,0.02 -0.1,0.03 -0.15,0.03 -0.08,0 -0.14,-0.02 -0.2,-0.05 -0.06,-0.03 -0.1,-0.07 -0.13,-0.13 -0.03,-0.05 -0.05,-0.11 -0.05,-0.18 0,-0.07 0.02,-0.13 0.05,-0.18 0.03,-0.06 0.07,-0.1 0.12,-0.13 0.06,-0.03 0.12,-0.05 0.18,-0.05 0.07,0 0.13,0.02 0.18,0.05 0.05,0.03 0.09,0.07 0.12,0.13 0.03,0.05 0.05,0.11 0.05,0.18zm-0.35 -0.25c-0.06,0 -0.11,0.02 -0.15,0.06 -0.04,0.03 -0.07,0.08 -0.07,0.14l0.45 0c-0.01,-0.06 -0.04,-0.11 -0.08,-0.14 -0.04,-0.04 -0.09,-0.06 -0.15,-0.06z"/>
   <polygon id="66" class="fil4" points="15.45,18.51 15.57,18.51 15.57,19.02 16,18.51 16.12,18.51 16.12,19.21 15.99,19.21 15.99,18.7 15.56,19.21 15.45,19.21 "/>
   <polygon id="67" class="fil4" points="16.36,18.51 16.49,18.51 16.49,18.81 16.89,18.81 16.89,18.51 17.01,18.51 17.01,19.21 16.89,19.21 16.89,18.92 16.49,18.92 16.49,19.21 16.36,19.21 "/>
   <path id="68" class="fil4" d="M18.14 18.86c0,0.11 -0.04,0.19 -0.11,0.25 -0.07,0.07 -0.17,0.1 -0.3,0.11l0 0.24 -0.13 0 0 -0.24c-0.13,-0.01 -0.23,-0.04 -0.3,-0.1 -0.07,-0.07 -0.11,-0.15 -0.11,-0.26 0,-0.11 0.04,-0.19 0.11,-0.25 0.07,-0.06 0.17,-0.1 0.3,-0.11l0 -0.27 0.13 0 0 0.27c0.13,0.01 0.23,0.05 0.3,0.11 0.07,0.06 0.11,0.14 0.11,0.25zm-0.82 0c0,0.07 0.02,0.13 0.07,0.17 0.05,0.05 0.12,0.07 0.21,0.08l0 -0.49c-0.09,0 -0.16,0.03 -0.21,0.07 -0.05,0.04 -0.07,0.1 -0.07,0.17zm0.41 0.25c0.19,-0.02 0.28,-0.1 0.28,-0.25 0,-0.07 -0.02,-0.13 -0.07,-0.17 -0.05,-0.04 -0.12,-0.07 -0.21,-0.07l0 0.49z"/>
   <path id="69" class="fil4" d="M18.62 19.22c-0.07,0 -0.13,-0.02 -0.19,-0.05 -0.05,-0.03 -0.1,-0.07 -0.13,-0.13 -0.03,-0.05 -0.05,-0.11 -0.05,-0.18 0,-0.07 0.02,-0.13 0.05,-0.18 0.03,-0.06 0.08,-0.1 0.13,-0.13 0.06,-0.03 0.12,-0.05 0.19,-0.05 0.07,0 0.13,0.02 0.18,0.05 0.06,0.03 0.1,0.07 0.13,0.13 0.03,0.05 0.05,0.11 0.05,0.18 0,0.07 -0.02,0.13 -0.05,0.18 -0.03,0.06 -0.07,0.1 -0.13,0.13 -0.05,0.03 -0.11,0.05 -0.18,0.05zm0 -0.11c0.04,0 0.08,-0.01 0.12,-0.03 0.03,-0.02 0.06,-0.05 0.08,-0.09 0.02,-0.04 0.03,-0.08 0.03,-0.13 0,-0.05 -0.01,-0.09 -0.03,-0.13 -0.02,-0.04 -0.05,-0.06 -0.08,-0.08 -0.04,-0.02 -0.08,-0.03 -0.12,-0.03 -0.05,0 -0.09,0.01 -0.12,0.03 -0.04,0.02 -0.07,0.04 -0.09,0.08 -0.02,0.04 -0.03,0.08 -0.03,0.13 0,0.05 0.01,0.09 0.03,0.13 0.02,0.04 0.05,0.07 0.09,0.09 0.03,0.02 0.07,0.03 0.12,0.03z"/>
   <path id="70" class="fil4" d="M19.53 18.5c0.07,0 0.13,0.02 0.19,0.05 0.05,0.03 0.09,0.07 0.12,0.12 0.03,0.06 0.05,0.12 0.05,0.19 0,0.07 -0.02,0.13 -0.05,0.19 -0.03,0.05 -0.07,0.09 -0.12,0.12 -0.06,0.03 -0.12,0.05 -0.19,0.05 -0.05,0 -0.09,-0.01 -0.13,-0.03 -0.05,-0.02 -0.08,-0.05 -0.11,-0.09l0 0.36 -0.13 0 0 -0.95 0.12 0 0 0.11c0.03,-0.04 0.07,-0.07 0.11,-0.09 0.04,-0.02 0.09,-0.03 0.14,-0.03zm-0.01 0.61c0.05,0 0.09,-0.01 0.12,-0.03 0.04,-0.02 0.07,-0.05 0.09,-0.09 0.02,-0.04 0.03,-0.08 0.03,-0.13 0,-0.05 -0.01,-0.09 -0.03,-0.13 -0.02,-0.04 -0.05,-0.06 -0.09,-0.08 -0.03,-0.02 -0.07,-0.03 -0.12,-0.03 -0.04,0 -0.08,0.01 -0.12,0.03 -0.03,0.02 -0.06,0.05 -0.08,0.08 -0.02,0.04 -0.03,0.08 -0.03,0.13 0,0.05 0.01,0.09 0.03,0.13 0.02,0.04 0.05,0.07 0.08,0.09 0.04,0.02 0.08,0.03 0.12,0.03z"/>
   <polygon id="71" class="fil4" points="20.87,18.51 20.87,19.21 20.76,19.21 20.76,18.7 20.5,19.13 20.44,19.13 20.19,18.7 20.19,19.21 20.07,19.21 20.07,18.51 20.2,18.51 20.47,18.98 20.76,18.51 "/>
   <path id="72" class="fil4" d="M21.37 18.5c0.1,0 0.17,0.03 0.22,0.08 0.05,0.04 0.08,0.11 0.08,0.21l0 0.42 -0.12 0 0 -0.09c-0.02,0.03 -0.05,0.05 -0.09,0.07 -0.04,0.02 -0.09,0.03 -0.14,0.03 -0.08,0 -0.14,-0.02 -0.19,-0.06 -0.05,-0.04 -0.07,-0.09 -0.07,-0.15 0,-0.06 0.02,-0.11 0.07,-0.15 0.04,-0.03 0.11,-0.05 0.21,-0.05l0.2 0 0 -0.03c0,-0.05 -0.01,-0.09 -0.05,-0.12 -0.03,-0.03 -0.07,-0.05 -0.13,-0.05 -0.05,0 -0.09,0.01 -0.13,0.02 -0.04,0.02 -0.07,0.04 -0.1,0.06l-0.05 -0.1c0.04,-0.02 0.08,-0.05 0.13,-0.06 0.05,-0.02 0.1,-0.03 0.16,-0.03zm-0.03 0.62c0.05,0 0.09,-0.01 0.13,-0.03 0.03,-0.02 0.06,-0.05 0.07,-0.09l0 -0.1 -0.19 0c-0.11,0 -0.16,0.03 -0.16,0.11 0,0.03 0.01,0.06 0.04,0.08 0.02,0.02 0.06,0.03 0.11,0.03z"/>
   <polygon id="73" class="fil4" points="22.64,19.1 22.64,19.38 22.52,19.38 22.52,19.21 21.9,19.21 21.9,18.51 22.02,18.51 22.02,19.1 22.4,19.1 22.4,18.51 22.53,18.51 22.53,19.1 "/>
   <polygon id="74" class="fil4" points="22.81,18.51 22.93,18.51 22.93,19.02 23.36,18.51 23.47,18.51 23.47,19.21 23.35,19.21 23.35,18.7 22.92,19.21 22.81,19.21 "/>
   <path id="75" class="fil4" d="M24.02 19.22c-0.07,0 -0.13,-0.02 -0.19,-0.05 -0.05,-0.03 -0.1,-0.07 -0.13,-0.13 -0.03,-0.05 -0.05,-0.11 -0.05,-0.18 0,-0.07 0.02,-0.13 0.05,-0.18 0.03,-0.06 0.08,-0.1 0.13,-0.13 0.06,-0.03 0.12,-0.05 0.19,-0.05 0.07,0 0.13,0.02 0.18,0.05 0.06,0.03 0.1,0.07 0.13,0.13 0.04,0.05 0.05,0.11 0.05,0.18 0,0.07 -0.01,0.13 -0.05,0.18 -0.03,0.06 -0.07,0.1 -0.13,0.13 -0.05,0.03 -0.11,0.05 -0.18,0.05zm0 -0.11c0.04,0 0.08,-0.01 0.12,-0.03 0.03,-0.02 0.06,-0.05 0.08,-0.09 0.02,-0.04 0.03,-0.08 0.03,-0.13 0,-0.05 -0.01,-0.09 -0.03,-0.13 -0.02,-0.04 -0.05,-0.06 -0.08,-0.08 -0.04,-0.02 -0.08,-0.03 -0.12,-0.03 -0.05,0 -0.09,0.01 -0.12,0.03 -0.04,0.02 -0.07,0.04 -0.09,0.08 -0.02,0.04 -0.03,0.08 -0.03,0.13 0,0.05 0.01,0.09 0.03,0.13 0.02,0.04 0.05,0.07 0.09,0.09 0.03,0.02 0.07,0.03 0.12,0.03z"/>
   <polygon id="76" class="fil4" points="24.56,18.51 24.69,18.51 24.69,18.81 25.09,18.81 25.09,18.51 25.21,18.51 25.21,19.21 25.09,19.21 25.09,18.92 24.69,18.92 24.69,19.21 24.56,19.21 "/>
   <polygon id="77" class="fil4" points="25.46,18.51 25.59,18.51 25.59,18.81 25.98,18.81 25.98,18.51 26.11,18.51 26.11,19.21 25.98,19.21 25.98,18.92 25.59,18.92 25.59,19.21 25.46,19.21 "/>
   <path id="78" class="fil4" d="M26.67 18.75c0.09,0 0.16,0.02 0.2,0.06 0.05,0.04 0.07,0.09 0.07,0.17 0,0.07 -0.02,0.13 -0.07,0.17 -0.05,0.04 -0.12,0.06 -0.22,0.06l-0.29 0 0 -0.7 0.12 0 0 0.24 0.19 0zm0.38 -0.24l0.12 0 0 0.7 -0.12 0 0 -0.7zm-0.41 0.6c0.06,0.01 0.1,-0.01 0.13,-0.03 0.03,-0.02 0.05,-0.06 0.05,-0.11 0,-0.04 -0.02,-0.07 -0.05,-0.1 -0.03,-0.02 -0.07,-0.03 -0.13,-0.03l-0.16 0 0 0.27 0.16 0z"/>
   <polygon id="79" class="fil4" points="27.86,19.21 27.66,18.94 27.45,19.21 27.31,19.21 27.59,18.85 27.32,18.51 27.46,18.51 27.66,18.76 27.85,18.51 27.99,18.51 27.72,18.85 28,19.21 "/>
   <polygon id="80" class="fil4" points="4.84,20.2 4.97,20.2 4.97,20.7 5.4,20.2 5.51,20.2 5.51,20.89 5.39,20.89 5.39,20.39 4.96,20.89 4.84,20.89 "/>
   <path id="81" class="fil4" d="M6.36 20.2l0 0.69 -0.13 0 0 -0.58 -0.3 0 -0.01 0.15c0,0.1 -0.01,0.17 -0.02,0.24 -0.01,0.06 -0.03,0.11 -0.06,0.15 -0.03,0.04 -0.07,0.05 -0.12,0.05 -0.02,0 -0.05,0 -0.08,-0.01l0.01 -0.1c0.01,0 0.02,0 0.03,0 0.04,0 0.06,-0.02 0.08,-0.05 0.02,-0.03 0.03,-0.06 0.04,-0.11 0,-0.04 0.01,-0.1 0.01,-0.18l0.01 -0.25 0.54 0z"/>
   <polygon id="82" class="fil4" points="6.6,20.2 6.73,20.2 6.73,20.7 7.16,20.2 7.27,20.2 7.27,20.89 7.15,20.89 7.15,20.39 6.72,20.89 6.6,20.89 "/>
   <path id="83" class="fil4" d="M8.24 20.19c0.07,0 0.13,0.01 0.18,0.04 0.06,0.03 0.1,0.08 0.13,0.13 0.03,0.05 0.04,0.12 0.04,0.19 0,0.07 -0.01,0.13 -0.04,0.18 -0.03,0.06 -0.07,0.1 -0.13,0.13 -0.05,0.03 -0.11,0.04 -0.18,0.04 -0.05,0 -0.09,-0.01 -0.14,-0.03 -0.04,-0.02 -0.07,-0.04 -0.1,-0.08l0 0.36 -0.13 0 0 -0.95 0.12 0 0 0.11c0.03,-0.04 0.07,-0.07 0.11,-0.09 0.04,-0.02 0.09,-0.03 0.14,-0.03zm-0.01 0.6c0.05,0 0.09,-0.01 0.12,-0.03 0.04,-0.02 0.06,-0.05 0.09,-0.09 0.02,-0.03 0.03,-0.08 0.03,-0.12 0,-0.05 -0.01,-0.1 -0.03,-0.13 -0.03,-0.04 -0.05,-0.07 -0.09,-0.09 -0.03,-0.02 -0.07,-0.03 -0.12,-0.03 -0.04,0 -0.08,0.01 -0.12,0.03 -0.03,0.02 -0.06,0.05 -0.08,0.09 -0.02,0.03 -0.03,0.08 -0.03,0.13 0,0.04 0.01,0.09 0.03,0.12 0.02,0.04 0.04,0.07 0.08,0.09 0.04,0.02 0.08,0.03 0.12,0.03z"/>
   <path id="84" class="fil4" d="M9.41 20.55c0,0.01 0,0.02 0,0.04l-0.57 0c0.01,0.06 0.03,0.11 0.08,0.15 0.05,0.03 0.1,0.05 0.17,0.05 0.09,0 0.15,-0.03 0.2,-0.08l0.07 0.08c-0.03,0.04 -0.07,0.06 -0.11,0.08 -0.05,0.02 -0.1,0.03 -0.16,0.03 -0.08,0 -0.14,-0.01 -0.2,-0.04 -0.06,-0.03 -0.1,-0.08 -0.13,-0.13 -0.03,-0.05 -0.05,-0.12 -0.05,-0.18 0,-0.07 0.02,-0.13 0.05,-0.19 0.03,-0.05 0.07,-0.09 0.12,-0.12 0.06,-0.04 0.12,-0.05 0.18,-0.05 0.07,0 0.13,0.01 0.18,0.05 0.05,0.03 0.09,0.07 0.12,0.12 0.03,0.06 0.05,0.12 0.05,0.19zm-0.35 -0.25c-0.06,0 -0.11,0.01 -0.15,0.05 -0.04,0.04 -0.06,0.09 -0.07,0.15l0.45 0c-0.01,-0.06 -0.03,-0.11 -0.07,-0.15 -0.05,-0.03 -0.1,-0.05 -0.16,-0.05z"/>
   <polygon id="85" class="fil4" points="9.88,20.6 9.73,20.6 9.73,20.89 9.6,20.89 9.6,20.2 9.73,20.2 9.73,20.49 9.88,20.49 10.11,20.2 10.24,20.2 9.98,20.53 10.26,20.89 10.11,20.89 "/>
   <path id="86" class="fil4" d="M10.99 20.2l0 0.69 -0.12 0 0 -0.58 -0.31 0 0 0.15c-0.01,0.1 -0.02,0.17 -0.03,0.24 -0.01,0.06 -0.03,0.11 -0.06,0.15 -0.03,0.04 -0.07,0.05 -0.12,0.05 -0.02,0 -0.04,0 -0.07,-0.01l0 -0.1c0.02,0 0.03,0 0.04,0 0.03,0 0.06,-0.02 0.07,-0.05 0.02,-0.03 0.03,-0.06 0.04,-0.11 0,-0.04 0.01,-0.1 0.01,-0.18l0.02 -0.25 0.53 0z"/>
   <path id="87" class="fil4" d="M11.49 20.19c0.09,0 0.17,0.02 0.22,0.07 0.05,0.05 0.07,0.12 0.07,0.21l0 0.42 -0.12 0 0 -0.09c-0.02,0.03 -0.05,0.06 -0.09,0.08 -0.03,0.01 -0.08,0.02 -0.13,0.02 -0.08,0 -0.15,-0.02 -0.19,-0.05 -0.05,-0.04 -0.07,-0.09 -0.07,-0.15 0,-0.06 0.02,-0.11 0.06,-0.15 0.05,-0.04 0.12,-0.06 0.22,-0.06l0.2 0 0 -0.02c0,-0.06 -0.02,-0.1 -0.05,-0.13 -0.03,-0.03 -0.08,-0.04 -0.14,-0.04 -0.04,0 -0.08,0.01 -0.12,0.02 -0.04,0.01 -0.07,0.03 -0.1,0.05l-0.05 -0.09c0.03,-0.03 0.08,-0.05 0.13,-0.07 0.05,-0.01 0.1,-0.02 0.16,-0.02zm-0.03 0.61c0.04,0 0.09,-0.01 0.12,-0.03 0.04,-0.02 0.06,-0.05 0.08,-0.09l0 -0.1 -0.2 0c-0.1,0 -0.16,0.04 -0.16,0.11 0,0.04 0.02,0.06 0.04,0.08 0.03,0.02 0.07,0.03 0.12,0.03z"/>
   <polygon id="88" class="fil4" points="12.82,20.2 12.82,20.89 12.7,20.89 12.7,20.38 12.44,20.82 12.39,20.82 12.13,20.38 12.13,20.89 12.01,20.89 12.01,20.2 12.14,20.2 12.42,20.67 12.7,20.2 "/>
   <polygon id="89" class="fil4" points="13.06,20.2 13.19,20.2 13.19,20.49 13.59,20.49 13.59,20.2 13.71,20.2 13.71,20.89 13.59,20.89 13.59,20.6 13.19,20.6 13.19,20.89 13.06,20.89 "/>
   <path id="90" class="fil4" d="M14.28 20.43c0.08,0 0.15,0.02 0.2,0.06 0.04,0.04 0.07,0.1 0.07,0.17 0,0.08 -0.03,0.13 -0.08,0.18 -0.05,0.04 -0.12,0.06 -0.22,0.06l-0.29 -0.01 0 -0.69 0.13 0 0 0.23 0.19 0zm0.37 -0.23l0.13 0 0 0.69 -0.13 0 0 -0.69zm-0.41 0.6c0.06,0 0.11,-0.01 0.13,-0.03 0.03,-0.03 0.05,-0.06 0.05,-0.11 0,-0.05 -0.02,-0.08 -0.04,-0.1 -0.03,-0.02 -0.08,-0.03 -0.14,-0.03l-0.15 -0.01 0 0.28 0.15 0z"/>
   <polygon id="91" class="fil4" points="15.46,20.89 15.26,20.63 15.05,20.89 14.91,20.89 15.19,20.54 14.93,20.2 15.07,20.2 15.26,20.45 15.45,20.2 15.59,20.2 15.33,20.54 15.6,20.89 "/>
   <polygon id="92" class="fil4" points="16.74,20.2 16.74,20.89 16.61,20.89 16.61,20.31 16.22,20.31 16.22,20.89 16.09,20.89 16.09,20.2 "/>
   <path id="93" class="fil4" d="M17.28 20.9c-0.07,0 -0.13,-0.01 -0.19,-0.04 -0.05,-0.03 -0.09,-0.08 -0.13,-0.13 -0.03,-0.05 -0.04,-0.12 -0.04,-0.18 0,-0.07 0.01,-0.13 0.04,-0.19 0.04,-0.05 0.08,-0.09 0.13,-0.12 0.06,-0.04 0.12,-0.05 0.19,-0.05 0.07,0 0.13,0.01 0.19,0.05 0.05,0.03 0.1,0.07 0.13,0.12 0.03,0.06 0.04,0.12 0.04,0.19 0,0.06 -0.01,0.13 -0.04,0.18 -0.03,0.05 -0.08,0.1 -0.13,0.13 -0.06,0.03 -0.12,0.04 -0.19,0.04zm0 -0.11c0.05,0 0.09,-0.01 0.12,-0.03 0.04,-0.02 0.07,-0.05 0.09,-0.09 0.02,-0.03 0.03,-0.08 0.03,-0.12 0,-0.05 -0.01,-0.1 -0.03,-0.13 -0.02,-0.04 -0.05,-0.07 -0.09,-0.09 -0.03,-0.02 -0.07,-0.03 -0.12,-0.03 -0.04,0 -0.08,0.01 -0.12,0.03 -0.04,0.02 -0.06,0.05 -0.08,0.09 -0.02,0.03 -0.03,0.08 -0.03,0.13 0,0.04 0.01,0.09 0.03,0.12 0.02,0.04 0.04,0.07 0.08,0.09 0.04,0.02 0.08,0.03 0.12,0.03z"/>
   <path id="94" class="fil4" d="M18.13 20.9c-0.07,0 -0.13,-0.01 -0.19,-0.04 -0.06,-0.03 -0.1,-0.08 -0.13,-0.13 -0.03,-0.05 -0.05,-0.12 -0.05,-0.18 0,-0.07 0.02,-0.13 0.05,-0.19 0.03,-0.05 0.07,-0.09 0.13,-0.12 0.06,-0.04 0.12,-0.05 0.19,-0.05 0.06,0 0.12,0.01 0.17,0.04 0.05,0.02 0.09,0.06 0.12,0.11l-0.1 0.06c-0.02,-0.03 -0.05,-0.06 -0.08,-0.07 -0.04,-0.02 -0.07,-0.03 -0.11,-0.03 -0.05,0 -0.09,0.01 -0.12,0.03 -0.04,0.02 -0.07,0.05 -0.09,0.09 -0.02,0.03 -0.03,0.08 -0.03,0.13 0,0.04 0.01,0.09 0.03,0.13 0.02,0.03 0.05,0.06 0.09,0.08 0.03,0.02 0.07,0.03 0.12,0.03 0.04,0 0.07,-0.01 0.11,-0.02 0.03,-0.02 0.06,-0.05 0.08,-0.08l0.1 0.06c-0.03,0.05 -0.07,0.09 -0.12,0.11 -0.05,0.03 -0.11,0.04 -0.17,0.04z"/>
   <polygon id="95" class="fil4" points="19.09,20.31 18.83,20.31 18.83,20.89 18.71,20.89 18.71,20.31 18.45,20.31 18.45,20.2 19.09,20.2 "/>
   <path id="96" class="fil4" d="M19.49 20.9c-0.07,0 -0.13,-0.01 -0.19,-0.04 -0.06,-0.03 -0.1,-0.08 -0.13,-0.13 -0.03,-0.05 -0.05,-0.12 -0.05,-0.18 0,-0.07 0.02,-0.13 0.05,-0.19 0.03,-0.05 0.07,-0.09 0.13,-0.12 0.06,-0.04 0.12,-0.05 0.19,-0.05 0.07,0 0.13,0.01 0.18,0.05 0.06,0.03 0.1,0.07 0.13,0.12 0.03,0.06 0.05,0.12 0.05,0.19 0,0.06 -0.02,0.13 -0.05,0.18 -0.03,0.05 -0.07,0.1 -0.13,0.13 -0.05,0.03 -0.11,0.04 -0.18,0.04zm0 -0.11c0.04,0 0.08,-0.01 0.12,-0.03 0.03,-0.02 0.06,-0.05 0.08,-0.09 0.02,-0.03 0.03,-0.08 0.03,-0.12 0,-0.05 -0.01,-0.1 -0.03,-0.13 -0.02,-0.04 -0.05,-0.07 -0.08,-0.09 -0.04,-0.02 -0.08,-0.03 -0.12,-0.03 -0.05,0 -0.09,0.01 -0.12,0.03 -0.04,0.02 -0.07,0.05 -0.09,0.09 -0.02,0.03 -0.03,0.08 -0.03,0.13 0,0.04 0.01,0.09 0.03,0.12 0.02,0.04 0.05,0.07 0.09,0.09 0.03,0.02 0.07,0.03 0.12,0.03z"/>
   <path id="97" class="fil4" d="M20.51 20.53c0.09,0.02 0.13,0.08 0.13,0.17 0,0.06 -0.02,0.11 -0.07,0.14 -0.04,0.04 -0.11,0.05 -0.2,0.05l-0.34 0 0 -0.69 0.33 0c0.08,0 0.14,0.01 0.19,0.04 0.05,0.03 0.07,0.08 0.07,0.14 0,0.03 -0.01,0.06 -0.03,0.09 -0.02,0.03 -0.05,0.05 -0.08,0.06zm-0.35 -0.03l0.19 0c0.04,0 0.08,-0.01 0.11,-0.03 0.02,-0.02 0.03,-0.04 0.03,-0.08 0,-0.06 -0.05,-0.1 -0.14,-0.1l-0.19 0 0 0.21zm0.2 0.3c0.05,0 0.09,-0.01 0.12,-0.03 0.02,-0.01 0.04,-0.04 0.04,-0.08 0,-0.03 -0.01,-0.06 -0.04,-0.08 -0.02,-0.01 -0.06,-0.02 -0.11,-0.02l-0.21 0 0 0.21 0.2 0z"/>
   <path id="98" class="fil4" d="M21.67 20.53c0.09,0.02 0.14,0.08 0.14,0.17 0,0.06 -0.03,0.11 -0.07,0.14 -0.05,0.04 -0.12,0.05 -0.21,0.05l-0.33 0 0 -0.69 0.32 0c0.08,0 0.15,0.01 0.19,0.04 0.05,0.03 0.07,0.08 0.07,0.14 0,0.03 -0.01,0.06 -0.03,0.09 -0.02,0.03 -0.04,0.05 -0.08,0.06zm-0.35 -0.03l0.19 0c0.05,0 0.08,-0.01 0.11,-0.03 0.02,-0.02 0.04,-0.04 0.04,-0.08 0,-0.06 -0.05,-0.1 -0.15,-0.1l-0.19 0 0 0.21zm0.2 0.3c0.06,0 0.09,-0.01 0.12,-0.03 0.03,-0.01 0.04,-0.04 0.04,-0.08 0,-0.03 -0.01,-0.06 -0.04,-0.08 -0.02,-0.01 -0.06,-0.02 -0.11,-0.02l-0.21 0 0 0.21 0.2 0z"/>
   <path id="99" class="fil4" d="M22.66 20.9c-0.07,0 -0.13,-0.01 -0.19,-0.04 -0.05,-0.03 -0.1,-0.08 -0.13,-0.13 -0.03,-0.05 -0.05,-0.12 -0.05,-0.18 0,-0.07 0.02,-0.13 0.05,-0.19 0.03,-0.05 0.08,-0.09 0.13,-0.12 0.06,-0.04 0.12,-0.05 0.19,-0.05 0.07,0 0.12,0.01 0.17,0.04 0.05,0.02 0.09,0.06 0.12,0.11l-0.1 0.06c-0.02,-0.03 -0.05,-0.06 -0.08,-0.07 -0.03,-0.02 -0.07,-0.03 -0.11,-0.03 -0.04,0 -0.08,0.01 -0.12,0.03 -0.04,0.02 -0.07,0.05 -0.09,0.09 -0.02,0.03 -0.03,0.08 -0.03,0.13 0,0.04 0.01,0.09 0.03,0.13 0.02,0.03 0.05,0.06 0.09,0.08 0.04,0.02 0.08,0.03 0.12,0.03 0.04,0 0.08,-0.01 0.11,-0.02 0.03,-0.02 0.06,-0.05 0.08,-0.08l0.1 0.06c-0.03,0.05 -0.07,0.09 -0.12,0.11 -0.05,0.03 -0.1,0.04 -0.17,0.04z"/>
   <path id="100" class="fil4" d="M23.4 20.9c-0.07,0 -0.13,-0.01 -0.19,-0.04 -0.05,-0.03 -0.1,-0.08 -0.13,-0.13 -0.03,-0.05 -0.04,-0.12 -0.04,-0.18 0,-0.07 0.01,-0.13 0.04,-0.19 0.03,-0.05 0.08,-0.09 0.13,-0.12 0.06,-0.04 0.12,-0.05 0.19,-0.05 0.07,0 0.13,0.01 0.19,0.05 0.05,0.03 0.09,0.07 0.12,0.12 0.04,0.06 0.05,0.12 0.05,0.19 0,0.06 -0.01,0.13 -0.05,0.18 -0.03,0.05 -0.07,0.1 -0.12,0.13 -0.06,0.03 -0.12,0.04 -0.19,0.04zm0 -0.11c0.04,0 0.08,-0.01 0.12,-0.03 0.04,-0.02 0.06,-0.05 0.08,-0.09 0.02,-0.03 0.03,-0.08 0.03,-0.12 0,-0.05 -0.01,-0.1 -0.03,-0.13 -0.02,-0.04 -0.04,-0.07 -0.08,-0.09 -0.04,-0.02 -0.08,-0.03 -0.12,-0.03 -0.05,0 -0.09,0.01 -0.12,0.03 -0.04,0.02 -0.06,0.05 -0.09,0.09 -0.02,0.03 -0.03,0.08 -0.03,0.13 0,0.04 0.01,0.09 0.03,0.12 0.03,0.04 0.05,0.07 0.09,0.09 0.03,0.02 0.07,0.03 0.12,0.03z"/>
   <polygon id="101" class="fil4" points="24.69,20.78 24.69,21.06 24.57,21.06 24.57,20.89 23.94,20.89 23.94,20.2 24.07,20.2 24.07,20.78 24.45,20.78 24.45,20.2 24.58,20.2 24.58,20.78 "/>
   <polygon id="102" class="fil4" points="24.81,20.48 25.16,20.48 25.16,20.59 24.81,20.59 "/>
   <path id="103" class="fil4" d="M25.68 20.9c-0.08,0 -0.14,-0.01 -0.19,-0.04 -0.06,-0.03 -0.1,-0.08 -0.14,-0.13 -0.03,-0.05 -0.04,-0.12 -0.04,-0.18 0,-0.07 0.01,-0.13 0.04,-0.19 0.04,-0.05 0.08,-0.09 0.14,-0.12 0.05,-0.04 0.11,-0.05 0.19,-0.05 0.06,0 0.12,0.01 0.16,0.04 0.05,0.02 0.09,0.06 0.12,0.11l-0.1 0.06c-0.02,-0.03 -0.05,-0.06 -0.08,-0.07 -0.03,-0.02 -0.07,-0.03 -0.11,-0.03 -0.04,0 -0.08,0.01 -0.12,0.03 -0.04,0.02 -0.06,0.05 -0.08,0.09 -0.03,0.03 -0.04,0.08 -0.04,0.13 0,0.04 0.01,0.09 0.04,0.13 0.02,0.03 0.04,0.06 0.08,0.08 0.04,0.02 0.08,0.03 0.12,0.03 0.04,0 0.08,-0.01 0.11,-0.02 0.03,-0.02 0.06,-0.05 0.08,-0.08l0.1 0.06c-0.03,0.05 -0.07,0.09 -0.12,0.11 -0.04,0.03 -0.1,0.04 -0.16,0.04z"/>
   <path id="104" class="fil4" d="M26.74 20.55c0,0.01 0,0.02 0,0.04l-0.57 0c0.01,0.06 0.04,0.11 0.09,0.15 0.04,0.03 0.1,0.05 0.17,0.05 0.08,0 0.15,-0.03 0.2,-0.08l0.07 0.08c-0.03,0.04 -0.07,0.06 -0.12,0.08 -0.05,0.02 -0.1,0.03 -0.16,0.03 -0.07,0 -0.14,-0.01 -0.19,-0.04 -0.06,-0.03 -0.1,-0.08 -0.13,-0.13 -0.04,-0.05 -0.05,-0.12 -0.05,-0.18 0,-0.07 0.01,-0.13 0.04,-0.19 0.03,-0.05 0.08,-0.09 0.13,-0.12 0.05,-0.04 0.11,-0.05 0.18,-0.05 0.07,0 0.12,0.01 0.18,0.05 0.05,0.03 0.09,0.07 0.12,0.12 0.03,0.06 0.04,0.12 0.04,0.19zm-0.34 -0.25c-0.06,0 -0.11,0.01 -0.15,0.05 -0.04,0.04 -0.07,0.09 -0.08,0.15l0.45 0c0,-0.06 -0.03,-0.11 -0.07,-0.15 -0.04,-0.03 -0.09,-0.05 -0.15,-0.05z"/>
   <polygon id="105" class="fil4" points="27.43,20.31 27.18,20.31 27.18,20.89 27.05,20.89 27.05,20.31 26.79,20.31 26.79,20.2 27.43,20.2 "/>
   <path id="106" class="fil4" d="M28.11 20.2l0 0.69 -0.11 0 0 -0.22 -0.21 0 -0.01 0 -0.16 0.22 -0.13 0 0.17 -0.23c-0.05,-0.02 -0.09,-0.05 -0.12,-0.08 -0.03,-0.04 -0.04,-0.08 -0.04,-0.14 0,-0.08 0.02,-0.14 0.08,-0.18 0.05,-0.04 0.13,-0.06 0.22,-0.06l0.31 0zm-0.49 0.25c0,0.04 0.02,0.08 0.05,0.1 0.03,0.02 0.07,0.03 0.13,0.03l0.2 0 0 -0.27 -0.19 0c-0.12,0 -0.19,0.04 -0.19,0.14z"/>
   <polygon id="107" class="fil4" points="28.79,20.89 28.59,20.63 28.38,20.89 28.24,20.89 28.52,20.54 28.26,20.2 28.4,20.2 28.59,20.45 28.78,20.2 28.92,20.2 28.66,20.54 28.93,20.89 "/>
   <path id="108" class="fil4" d="M29.09 20.9c-0.02,0 -0.04,-0.01 -0.06,-0.02 -0.02,-0.02 -0.02,-0.04 -0.02,-0.07 0,-0.02 0,-0.05 0.02,-0.06 0.02,-0.02 0.04,-0.03 0.06,-0.03 0.03,0 0.05,0.01 0.07,0.03 0.01,0.01 0.02,0.04 0.02,0.06 0,0.03 -0.01,0.05 -0.02,0.07 -0.02,0.01 -0.04,0.02 -0.07,0.02z"/>
  </g>
 </g>
</svg>
