<?xml version="1.0" encoding="UTF-8"?>
<!DOCTYPE svg PUBLIC "-//W3C//DTD SVG 1.1//EN" "http://www.w3.org/Graphics/SVG/1.1/DTD/svg11.dtd">
<!-- Creator: CorelDRAW 2017 -->
<svg xmlns="http://www.w3.org/2000/svg" xml:space="preserve" width="825px" height="536px" version="1.1" style="shape-rendering:geometricPrecision; text-rendering:geometricPrecision; image-rendering:optimizeQuality; fill-rule:evenodd; clip-rule:evenodd"
viewBox="0 0 37.3 24.22"
 xmlns:xlink="http://www.w3.org/1999/xlink">
 <defs>
  <style type="text/css">
   <![CDATA[
    .fil2 {fill:none}
    .fil0 {fill:#99CCCC}
    .fil1 {fill:white;fill-opacity:0.501961}
   ]]>
  </style>
   <clipPath id="id0">
    <path d="M0 0l37.3 0 0 24.22 -37.3 0 0 -24.22z"/>
   </clipPath>
 </defs>
 <g id="Слой_x0020_1">
  <metadata id="CorelCorpID_0Corel-Layer"/>
  <polygon class="fil0" points="0,0 37.3,0 37.3,24.22 0,24.22 "/>
  <g style="clip-path:url(#id0)">
   <g id="_2227108293440">
    <path id="1" class="fil1" d="M-3.73 7.06l22.01 0 0 22.01 -22.01 0 0 -22.01zm13.2 4.84l5.29 0 0 5.28 -5.29 0 0 -5.28zm-9.68 3.52l7.93 0 0 1.76 -7.93 0 0 -1.76zm0 7.05l14.97 0 0 1.76 -14.97 0 0 -1.76zm0 -3.53l14.97 0 0 1.77 -14.97 0 0 -1.77zm0 -7.04l7.93 0 0 1.76 -7.93 0 0 -1.76zm16.73 -3.08l-18.49 0 0 18.49 18.49 0 0 -18.49z"/>
   </g>
  </g>
  <polygon class="fil2" points="0,0 37.3,0 37.3,24.22 0,24.22 "/>
 </g>
</svg>
