<?xml version="1.0" encoding="UTF-8"?>
<!DOCTYPE svg PUBLIC "-//W3C//DTD SVG 1.1//EN" "http://www.w3.org/Graphics/SVG/1.1/DTD/svg11.dtd">
<!-- Creator: CorelDRAW 2017 -->
<svg xmlns="http://www.w3.org/2000/svg" xml:space="preserve" width="1053px" height="465px" version="1.1" style="shape-rendering:geometricPrecision; text-rendering:geometricPrecision; image-rendering:optimizeQuality; fill-rule:evenodd; clip-rule:evenodd"
viewBox="0 0 55.5 24.49"
 xmlns:xlink="http://www.w3.org/1999/xlink">
 <defs>
  <style type="text/css">
   <![CDATA[
    .fil1 {fill:none}
    .fil3 {fill:#CC99FF}
    .fil0 {fill:white}
    .fil2 {fill:#663399;fill-rule:nonzero}
   ]]>
  </style>
 </defs>
 <g id="Слой_x0020_1">
  <metadata id="CorelCorpID_0Corel-Layer"/>
  <rect class="fil0" y="0.03" width="55.5" height="24.45"/>
  <rect class="fil1" width="55.5" height="24.49"/>
  <g id="_2227155411600">
   <path class="fil2" d="M10.94 14.73c0.13,0 0.25,0.03 0.35,0.07 0.1,0.05 0.18,0.11 0.23,0.2 0.06,0.08 0.08,0.18 0.08,0.29 0,0.11 -0.02,0.21 -0.08,0.3 -0.05,0.08 -0.13,0.15 -0.23,0.19 -0.1,0.04 -0.22,0.07 -0.35,0.07l-0.31 0 0 0.42 -0.36 0 0 -1.54 0.67 0zm-0.02 0.83c0.1,0 0.19,-0.03 0.24,-0.07 0.06,-0.05 0.08,-0.11 0.08,-0.2 0,-0.08 -0.02,-0.15 -0.08,-0.2 -0.05,-0.04 -0.14,-0.07 -0.24,-0.07l-0.29 0 0 0.54 0.29 0z"/>
   <path id="1" class="fil2" d="M12.26 15.07c0.18,0 0.32,0.05 0.42,0.13 0.1,0.09 0.15,0.22 0.15,0.4l0 0.67 -0.32 0 0 -0.15c-0.07,0.11 -0.19,0.17 -0.36,0.17 -0.09,0 -0.17,-0.02 -0.24,-0.05 -0.06,-0.03 -0.11,-0.07 -0.15,-0.13 -0.03,-0.05 -0.05,-0.11 -0.05,-0.18 0,-0.11 0.04,-0.2 0.12,-0.26 0.08,-0.06 0.21,-0.09 0.39,-0.09l0.27 0c0,-0.08 -0.03,-0.14 -0.07,-0.18 -0.05,-0.04 -0.11,-0.06 -0.2,-0.06 -0.07,0 -0.13,0.01 -0.19,0.03 -0.06,0.02 -0.11,0.05 -0.16,0.08l-0.12 -0.24c0.07,-0.04 0.14,-0.08 0.23,-0.1 0.09,-0.03 0.19,-0.04 0.28,-0.04zm-0.03 0.99c0.06,0 0.12,-0.02 0.16,-0.04 0.05,-0.03 0.08,-0.07 0.1,-0.12l0 -0.12 -0.24 0c-0.14,0 -0.21,0.04 -0.21,0.14 0,0.04 0.02,0.07 0.05,0.1 0.04,0.02 0.08,0.04 0.14,0.04z"/>
   <path id="2" class="fil2" d="M13.88 15.66c0.07,0.02 0.13,0.05 0.17,0.1 0.04,0.04 0.06,0.1 0.06,0.16 0,0.07 -0.03,0.14 -0.08,0.2 -0.05,0.05 -0.12,0.1 -0.21,0.13 -0.09,0.03 -0.19,0.04 -0.31,0.04 -0.09,0 -0.18,-0.01 -0.27,-0.03 -0.09,-0.01 -0.17,-0.04 -0.25,-0.08l0.1 -0.24c0.12,0.06 0.26,0.09 0.41,0.09 0.08,0 0.14,-0.01 0.19,-0.04 0.05,-0.02 0.07,-0.06 0.07,-0.1 0,-0.04 -0.02,-0.07 -0.05,-0.09 -0.03,-0.02 -0.08,-0.03 -0.14,-0.03l-0.24 0 0 -0.21 0.21 0c0.06,0 0.1,-0.01 0.14,-0.03 0.03,-0.02 0.05,-0.04 0.05,-0.08 0,-0.04 -0.02,-0.07 -0.06,-0.09 -0.05,-0.02 -0.1,-0.03 -0.18,-0.03 -0.11,0 -0.24,0.03 -0.37,0.08l-0.08 -0.23c0.16,-0.08 0.32,-0.11 0.47,-0.11 0.11,0 0.21,0.01 0.29,0.04 0.09,0.02 0.15,0.06 0.2,0.11 0.05,0.05 0.07,0.11 0.07,0.18 0,0.05 -0.01,0.1 -0.05,0.15 -0.03,0.04 -0.08,0.08 -0.14,0.11z"/>
   <path id="3" class="fil2" d="M15.05 15.07c0.11,0 0.21,0.03 0.3,0.08 0.09,0.05 0.16,0.12 0.21,0.21 0.05,0.09 0.08,0.2 0.08,0.32 0,0.12 -0.03,0.23 -0.08,0.32 -0.05,0.09 -0.12,0.16 -0.21,0.21 -0.09,0.05 -0.19,0.08 -0.3,0.08 -0.15,0 -0.27,-0.05 -0.36,-0.14l0 0.55 -0.34 0 0 -1.61 0.33 0 0 0.14c0.08,-0.11 0.21,-0.16 0.37,-0.16zm-0.06 0.94c0.09,0 0.16,-0.03 0.22,-0.09 0.05,-0.06 0.08,-0.14 0.08,-0.24 0,-0.1 -0.03,-0.18 -0.08,-0.24 -0.06,-0.06 -0.13,-0.09 -0.22,-0.09 -0.09,0 -0.16,0.03 -0.22,0.09 -0.05,0.06 -0.08,0.14 -0.08,0.24 0,0.1 0.03,0.18 0.08,0.24 0.06,0.06 0.13,0.09 0.22,0.09z"/>
   <path id="4" class="fil2" d="M16.32 15.07c0.18,0 0.32,0.05 0.42,0.13 0.1,0.09 0.14,0.22 0.14,0.4l0 0.67 -0.32 0 0 -0.15c-0.06,0.11 -0.18,0.17 -0.36,0.17 -0.09,0 -0.17,-0.02 -0.23,-0.05 -0.07,-0.03 -0.12,-0.07 -0.15,-0.13 -0.04,-0.05 -0.06,-0.11 -0.06,-0.18 0,-0.11 0.04,-0.2 0.13,-0.26 0.08,-0.06 0.21,-0.09 0.38,-0.09l0.27 0c0,-0.08 -0.02,-0.14 -0.07,-0.18 -0.04,-0.04 -0.11,-0.06 -0.2,-0.06 -0.06,0 -0.12,0.01 -0.19,0.03 -0.06,0.02 -0.11,0.05 -0.15,0.08l-0.12 -0.24c0.06,-0.04 0.14,-0.08 0.23,-0.1 0.09,-0.03 0.18,-0.04 0.28,-0.04zm-0.03 0.99c0.06,0 0.11,-0.02 0.16,-0.04 0.04,-0.03 0.07,-0.07 0.09,-0.12l0 -0.12 -0.23 0c-0.14,0 -0.21,0.04 -0.21,0.14 0,0.04 0.01,0.07 0.05,0.1 0.03,0.02 0.08,0.04 0.14,0.04z"/>
   <path id="5" class="fil2" d="M17.87 15.17c0.11,0 0.21,0.02 0.29,0.07 0.09,0.05 0.15,0.11 0.2,0.19 0.04,0.09 0.07,0.18 0.07,0.29 0,0.12 -0.03,0.22 -0.08,0.3 -0.06,0.09 -0.14,0.16 -0.23,0.21 -0.1,0.04 -0.21,0.07 -0.34,0.07 -0.2,0 -0.37,-0.07 -0.48,-0.2 -0.12,-0.13 -0.18,-0.33 -0.18,-0.58 0,-0.24 0.05,-0.43 0.15,-0.57 0.11,-0.14 0.27,-0.24 0.48,-0.28l0.56 -0.11 0.05 0.29 -0.5 0.1c-0.13,0.03 -0.23,0.07 -0.3,0.13 -0.06,0.06 -0.1,0.15 -0.11,0.26 0.05,-0.05 0.11,-0.09 0.18,-0.12 0.07,-0.03 0.15,-0.05 0.24,-0.05zm-0.09 0.86c0.09,0 0.16,-0.03 0.22,-0.08 0.05,-0.06 0.08,-0.13 0.08,-0.22 0,-0.09 -0.03,-0.16 -0.08,-0.21 -0.06,-0.06 -0.13,-0.08 -0.22,-0.08 -0.08,0 -0.16,0.02 -0.21,0.08 -0.05,0.05 -0.08,0.12 -0.08,0.21 0,0.09 0.03,0.16 0.08,0.22 0.06,0.05 0.13,0.08 0.21,0.08z"/>
   <path id="6" class="fil2" d="M19.21 16.29c-0.12,0 -0.23,-0.03 -0.33,-0.08 -0.1,-0.05 -0.18,-0.12 -0.23,-0.22 -0.06,-0.09 -0.09,-0.19 -0.09,-0.31 0,-0.12 0.03,-0.22 0.09,-0.31 0.05,-0.1 0.13,-0.17 0.23,-0.22 0.1,-0.05 0.21,-0.08 0.33,-0.08 0.13,0 0.24,0.03 0.34,0.08 0.1,0.05 0.17,0.12 0.23,0.22 0.05,0.09 0.08,0.19 0.08,0.31 0,0.12 -0.03,0.22 -0.08,0.31 -0.06,0.1 -0.13,0.17 -0.23,0.22 -0.1,0.05 -0.21,0.08 -0.34,0.08zm0 -0.28c0.09,0 0.16,-0.03 0.22,-0.09 0.06,-0.06 0.08,-0.14 0.08,-0.24 0,-0.1 -0.02,-0.18 -0.08,-0.24 -0.06,-0.06 -0.13,-0.09 -0.22,-0.09 -0.08,0 -0.16,0.03 -0.21,0.09 -0.06,0.06 -0.09,0.14 -0.09,0.24 0,0.1 0.03,0.18 0.09,0.24 0.05,0.06 0.13,0.09 0.21,0.09z"/>
   <polygon id="7" class="fil2" points="21.04,15.37 20.65,15.37 20.65,16.27 20.3,16.27 20.3,15.37 19.91,15.37 19.91,15.09 21.04,15.09 "/>
   <polygon id="8" class="fil2" points="21.75,15.82 21.57,15.82 21.57,16.27 21.23,16.27 21.23,15.09 21.57,15.09 21.57,15.55 21.75,15.55 22.07,15.09 22.44,15.09 22.03,15.66 22.47,16.27 22.06,16.27 "/>
   <path id="9" class="fil2" d="M23.07 15.07c0.19,0 0.33,0.05 0.42,0.13 0.1,0.09 0.15,0.22 0.15,0.4l0 0.67 -0.32 0 0 -0.15c-0.06,0.11 -0.18,0.17 -0.36,0.17 -0.09,0 -0.17,-0.02 -0.23,-0.05 -0.07,-0.03 -0.12,-0.07 -0.16,-0.13 -0.03,-0.05 -0.05,-0.11 -0.05,-0.18 0,-0.11 0.04,-0.2 0.12,-0.26 0.09,-0.06 0.21,-0.09 0.39,-0.09l0.27 0c0,-0.08 -0.02,-0.14 -0.07,-0.18 -0.04,-0.04 -0.11,-0.06 -0.2,-0.06 -0.07,0 -0.13,0.01 -0.19,0.03 -0.06,0.02 -0.11,0.05 -0.15,0.08l-0.13 -0.24c0.07,-0.04 0.15,-0.08 0.24,-0.1 0.09,-0.03 0.18,-0.04 0.27,-0.04zm-0.02 0.99c0.06,0 0.11,-0.02 0.15,-0.04 0.05,-0.03 0.08,-0.07 0.1,-0.12l0 -0.12 -0.24 0c-0.14,0 -0.21,0.04 -0.21,0.14 0,0.04 0.02,0.07 0.06,0.1 0.03,0.02 0.08,0.04 0.14,0.04z"/>
   <path id="10" class="fil2" d="M12.76 17.09l0 1.18 -0.34 0 0 -0.9 -0.38 0 -0.01 0.21c0,0.15 -0.02,0.28 -0.04,0.39 -0.02,0.1 -0.06,0.18 -0.12,0.24 -0.05,0.06 -0.12,0.08 -0.21,0.08 -0.05,0 -0.11,0 -0.18,-0.02l0.02 -0.28c0.02,0 0.04,0 0.05,0 0.05,0 0.09,-0.02 0.11,-0.05 0.03,-0.04 0.04,-0.09 0.05,-0.15 0.01,-0.05 0.02,-0.13 0.02,-0.23l0.02 -0.47 1.01 0z"/>
   <path id="11" class="fil2" d="M13.64 18.29c-0.12,0 -0.23,-0.03 -0.33,-0.08 -0.1,-0.05 -0.18,-0.12 -0.23,-0.22 -0.06,-0.09 -0.09,-0.19 -0.09,-0.31 0,-0.12 0.03,-0.22 0.09,-0.31 0.05,-0.1 0.13,-0.17 0.23,-0.22 0.1,-0.05 0.21,-0.08 0.33,-0.08 0.13,0 0.24,0.03 0.34,0.08 0.09,0.05 0.17,0.12 0.23,0.22 0.05,0.09 0.08,0.19 0.08,0.31 0,0.12 -0.03,0.22 -0.08,0.31 -0.06,0.1 -0.14,0.17 -0.23,0.22 -0.1,0.05 -0.21,0.08 -0.34,0.08zm0 -0.28c0.09,0 0.16,-0.03 0.22,-0.09 0.05,-0.06 0.08,-0.14 0.08,-0.24 0,-0.1 -0.03,-0.18 -0.08,-0.24 -0.06,-0.06 -0.13,-0.09 -0.22,-0.09 -0.09,0 -0.16,0.03 -0.22,0.09 -0.05,0.06 -0.08,0.14 -0.08,0.24 0,0.1 0.03,0.18 0.08,0.24 0.06,0.06 0.13,0.09 0.22,0.09z"/>
   <polygon id="12" class="fil2" points="15.47,17.37 14.86,17.37 14.86,18.27 14.52,18.27 14.52,17.09 15.47,17.09 "/>
   <path id="13" class="fil2" d="M16.16 18.29c-0.13,0 -0.24,-0.03 -0.34,-0.08 -0.1,-0.05 -0.17,-0.12 -0.23,-0.22 -0.05,-0.09 -0.08,-0.19 -0.08,-0.31 0,-0.12 0.03,-0.22 0.08,-0.31 0.06,-0.1 0.13,-0.17 0.23,-0.22 0.1,-0.05 0.21,-0.08 0.34,-0.08 0.12,0 0.23,0.03 0.33,0.08 0.1,0.05 0.18,0.12 0.23,0.22 0.06,0.09 0.09,0.19 0.09,0.31 0,0.12 -0.03,0.22 -0.09,0.31 -0.05,0.1 -0.13,0.17 -0.23,0.22 -0.1,0.05 -0.21,0.08 -0.33,0.08zm0 -0.28c0.09,0 0.16,-0.03 0.21,-0.09 0.06,-0.06 0.09,-0.14 0.09,-0.24 0,-0.1 -0.03,-0.18 -0.09,-0.24 -0.05,-0.06 -0.12,-0.09 -0.21,-0.09 -0.09,0 -0.16,0.03 -0.22,0.09 -0.06,0.06 -0.09,0.14 -0.09,0.24 0,0.1 0.03,0.18 0.09,0.24 0.06,0.06 0.13,0.09 0.22,0.09z"/>
   <polygon id="14" class="fil2" points="17.99,17.37 17.59,17.37 17.59,18.27 17.25,18.27 17.25,17.37 16.85,17.37 16.85,17.09 17.99,17.09 "/>
   <polygon id="15" class="fil2" points="18.17,17.09 18.51,17.09 18.51,17.79 19.09,17.09 19.4,17.09 19.4,18.27 19.06,18.27 19.06,17.57 18.49,18.27 18.17,18.27 "/>
   <polygon id="16" class="fil2" points="20.9,17.09 20.9,18.27 20.56,18.27 20.56,17.37 20.07,17.37 20.07,18.27 19.73,18.27 19.73,17.09 "/>
   <path id="17" class="fil2" d="M21.69 17.07c0.19,0 0.33,0.05 0.42,0.13 0.1,0.09 0.15,0.22 0.15,0.4l0 0.67 -0.32 0 0 -0.15c-0.06,0.11 -0.18,0.17 -0.36,0.17 -0.09,0 -0.17,-0.02 -0.24,-0.05 -0.06,-0.03 -0.11,-0.07 -0.15,-0.13 -0.03,-0.05 -0.05,-0.11 -0.05,-0.18 0,-0.11 0.04,-0.2 0.12,-0.26 0.09,-0.06 0.21,-0.09 0.39,-0.09l0.27 0c0,-0.08 -0.02,-0.14 -0.07,-0.18 -0.05,-0.04 -0.11,-0.06 -0.2,-0.06 -0.07,0 -0.13,0.01 -0.19,0.03 -0.06,0.02 -0.11,0.05 -0.15,0.08l-0.13 -0.24c0.07,-0.04 0.14,-0.08 0.23,-0.1 0.09,-0.03 0.19,-0.04 0.28,-0.04zm-0.02 0.99c0.05,0 0.11,-0.02 0.15,-0.04 0.05,-0.03 0.08,-0.07 0.1,-0.12l0 -0.12 -0.24 0c-0.14,0 -0.21,0.04 -0.21,0.13 0,0.05 0.02,0.08 0.05,0.11 0.04,0.02 0.09,0.04 0.15,0.04z"/>
   <path class="fil3" d="M16.96 6.23l3.92 6.79 -7.85 0 3.93 -6.79zm2.98 6.25l-2.98 -5.17 -2.99 5.17 5.97 0z"/>
  </g>
 </g>
</svg>
