<?xml version="1.0" encoding="UTF-8"?>
<!DOCTYPE svg PUBLIC "-//W3C//DTD SVG 1.1//EN" "http://www.w3.org/Graphics/SVG/1.1/DTD/svg11.dtd">
<!-- Creator: CorelDRAW 2017 -->
<svg xmlns="http://www.w3.org/2000/svg" xml:space="preserve" width="1053px" height="465px" version="1.1" style="shape-rendering:geometricPrecision; text-rendering:geometricPrecision; image-rendering:optimizeQuality; fill-rule:evenodd; clip-rule:evenodd"
viewBox="0 0 60.77 26.81"
 xmlns:xlink="http://www.w3.org/1999/xlink">
 <defs>
  <style type="text/css">
   <![CDATA[
    .fil1 {fill:none}
    .fil3 {fill:#FFCCCC}
    .fil0 {fill:white}
    .fil4 {fill:#333333;fill-rule:nonzero}
    .fil2 {fill:#993366;fill-rule:nonzero}
   ]]>
  </style>
 </defs>
 <g id="Слой_x0020_1">
  <metadata id="CorelCorpID_0Corel-Layer"/>
  <rect class="fil0" y="0.04" width="60.77" height="26.78"/>
  <rect class="fil1" width="60.77" height="26.81"/>
  <g id="_2227184902448">
   <path class="fil2" d="M36.82 12.82l-0.78 0 -0.15 0.36 -0.4 0 0.75 -1.69 0.39 0 0.75 1.69 -0.41 0 -0.15 -0.36zm-0.12 -0.3l-0.27 -0.64 -0.26 0.64 0.53 0z"/>
   <polygon id="1" class="fil2" points="37.58,11.88 37.95,11.88 37.95,12.39 38.51,12.39 38.51,11.88 38.89,11.88 38.89,13.18 38.51,13.18 38.51,12.69 37.95,12.69 37.95,13.18 37.58,13.18 "/>
   <polygon id="2" class="fil2" points="39.24,11.88 39.62,11.88 39.62,12.65 40.25,11.88 40.59,11.88 40.59,13.18 40.22,13.18 40.22,12.41 39.59,13.18 39.24,13.18 "/>
   <polygon id="3" class="fil2" points="42.21,13.18 42.21,12.4 41.83,13.05 41.67,13.05 41.29,12.4 41.29,13.18 40.95,13.18 40.95,11.88 41.34,11.88 41.76,12.63 42.2,11.88 42.55,11.88 42.55,13.18 "/>
   <path id="4" class="fil2" d="M43.41 11.86c0.2,0 0.36,0.05 0.46,0.15 0.11,0.09 0.17,0.24 0.17,0.43l0 0.74 -0.36 0 0 -0.16c-0.07,0.12 -0.2,0.18 -0.39,0.18 -0.1,0 -0.19,-0.02 -0.26,-0.05 -0.07,-0.04 -0.13,-0.08 -0.17,-0.14 -0.03,-0.06 -0.05,-0.13 -0.05,-0.21 0,-0.12 0.04,-0.21 0.13,-0.28 0.09,-0.07 0.23,-0.1 0.42,-0.1l0.3 0c0,-0.08 -0.02,-0.15 -0.07,-0.19 -0.05,-0.05 -0.13,-0.07 -0.23,-0.07 -0.07,0 -0.13,0.01 -0.2,0.03 -0.07,0.03 -0.12,0.06 -0.17,0.09l-0.14 -0.26c0.08,-0.05 0.16,-0.09 0.26,-0.11 0.1,-0.03 0.2,-0.05 0.3,-0.05zm-0.03 1.08c0.07,0 0.12,-0.01 0.17,-0.04 0.05,-0.03 0.09,-0.07 0.11,-0.13l0 -0.13 -0.26 0c-0.15,0 -0.23,0.05 -0.23,0.15 0,0.05 0.02,0.08 0.06,0.11 0.04,0.03 0.09,0.04 0.15,0.04z"/>
   <polygon id="5" class="fil2" points="45.82,12.87 45.82,13.46 45.47,13.46 45.47,13.18 44.36,13.18 44.36,11.88 44.73,11.88 44.73,12.87 45.26,12.87 45.26,11.88 45.63,11.88 45.63,12.87 "/>
   <polygon id="6" class="fil2" points="46.05,11.88 46.43,11.88 46.43,12.65 47.06,11.88 47.4,11.88 47.4,13.18 47.03,13.18 47.03,12.41 46.4,13.18 46.05,13.18 "/>
   <path id="7" class="fil2" d="M48.91 11.88l0 1.3 -0.33 0 0 -0.37 -0.28 0 -0.25 0.37 -0.39 0 0.29 -0.43c-0.09,-0.03 -0.16,-0.08 -0.2,-0.15 -0.05,-0.07 -0.08,-0.15 -0.08,-0.24 0,-0.15 0.06,-0.27 0.17,-0.35 0.11,-0.09 0.26,-0.13 0.45,-0.13l0.62 0zm-0.61 0.31c-0.08,0 -0.14,0.01 -0.18,0.04 -0.04,0.03 -0.06,0.08 -0.06,0.14 0,0.07 0.02,0.11 0.06,0.14 0.03,0.03 0.09,0.05 0.17,0.05l0.29 0 0 -0.37 -0.28 0z"/>
   <path class="fil3" d="M42.2 2.35c-2.05,0 -3.72,1.67 -3.72,3.72 0,1.26 0.62,2.37 1.57,3.04l0.52 -0.3c-0.22,-0.14 -0.43,-0.3 -0.62,-0.49 -0.57,-0.57 -0.93,-1.37 -0.93,-2.25 0,-0.87 0.36,-1.67 0.93,-2.25 0.58,-0.57 1.37,-0.93 2.25,-0.93l0 0.77 1.63 -0.93c-0.51,-0.25 -1.06,-0.38 -1.63,-0.38zm2.25 5.97c-0.57,0.58 -1.37,0.94 -2.25,0.94l0 -0.77 -1.62 0.94c0.49,0.23 1.04,0.37 1.62,0.37 2.06,0 3.72,-1.67 3.72,-3.73 0,-1.25 -0.61,-2.35 -1.56,-3.03l-0.52 0.3c0.22,0.14 0.43,0.3 0.61,0.48 0.58,0.58 0.93,1.38 0.93,2.25 0,0.88 -0.35,1.68 -0.93,2.25zm-3.22 -3.93l0 3.37 2.92 -1.69 -2.92 -1.68z"/>
   <path class="fil4" d="M30.93 15.69c-0.12,0 -0.22,-0.02 -0.32,-0.07 -0.09,-0.06 -0.17,-0.13 -0.22,-0.22 -0.05,-0.09 -0.08,-0.19 -0.08,-0.31 0,-0.11 0.03,-0.22 0.08,-0.31 0.05,-0.09 0.13,-0.16 0.22,-0.21 0.1,-0.05 0.21,-0.08 0.32,-0.08 0.1,0 0.18,0.01 0.26,0.05 0.07,0.03 0.14,0.07 0.19,0.13l-0.11 0.11c-0.09,-0.09 -0.2,-0.14 -0.33,-0.14 -0.09,0 -0.17,0.02 -0.24,0.06 -0.07,0.04 -0.12,0.09 -0.16,0.16 -0.04,0.07 -0.06,0.15 -0.06,0.23 0,0.09 0.02,0.16 0.06,0.23 0.04,0.07 0.09,0.13 0.16,0.17 0.07,0.03 0.15,0.05 0.24,0.05 0.13,0 0.24,-0.04 0.33,-0.14l0.11 0.11c-0.05,0.06 -0.12,0.11 -0.2,0.14 -0.07,0.03 -0.16,0.04 -0.25,0.04z"/>
   <path id="1" class="fil4" d="M31.93 15.69c-0.09,0 -0.17,-0.02 -0.24,-0.06 -0.07,-0.04 -0.12,-0.09 -0.16,-0.16 -0.04,-0.07 -0.06,-0.15 -0.06,-0.24 0,-0.08 0.02,-0.16 0.06,-0.23 0.04,-0.07 0.09,-0.12 0.16,-0.16 0.07,-0.04 0.15,-0.06 0.24,-0.06 0.09,0 0.17,0.02 0.24,0.06 0.07,0.04 0.12,0.09 0.16,0.16 0.04,0.07 0.06,0.15 0.06,0.23 0,0.09 -0.02,0.17 -0.06,0.24 -0.04,0.07 -0.09,0.12 -0.16,0.16 -0.07,0.04 -0.15,0.06 -0.24,0.06zm0 -0.14c0.06,0 0.11,-0.01 0.15,-0.04 0.05,-0.03 0.09,-0.06 0.11,-0.11 0.03,-0.05 0.04,-0.1 0.04,-0.17 0,-0.06 -0.01,-0.11 -0.04,-0.16 -0.02,-0.05 -0.06,-0.08 -0.11,-0.11 -0.04,-0.03 -0.09,-0.04 -0.15,-0.04 -0.06,0 -0.11,0.01 -0.15,0.04 -0.05,0.03 -0.08,0.06 -0.11,0.11 -0.03,0.05 -0.04,0.1 -0.04,0.16 0,0.07 0.01,0.12 0.04,0.17 0.03,0.05 0.06,0.08 0.11,0.11 0.04,0.03 0.09,0.04 0.15,0.04z"/>
   <path id="2" class="fil4" d="M33.1 15.22c0.06,0.01 0.11,0.04 0.14,0.07 0.03,0.04 0.05,0.08 0.05,0.13 0,0.05 -0.02,0.1 -0.06,0.14 -0.03,0.04 -0.08,0.07 -0.15,0.1 -0.06,0.02 -0.13,0.03 -0.21,0.03 -0.06,0 -0.13,-0.01 -0.19,-0.02 -0.07,-0.02 -0.12,-0.05 -0.17,-0.08l0.05 -0.12c0.04,0.03 0.09,0.05 0.14,0.06 0.06,0.02 0.11,0.02 0.17,0.02 0.08,0 0.14,-0.01 0.18,-0.04 0.05,-0.02 0.07,-0.06 0.07,-0.1 0,-0.04 -0.02,-0.08 -0.05,-0.1 -0.04,-0.02 -0.09,-0.03 -0.16,-0.03l-0.16 0 0 -0.12 0.15 0c0.06,0 0.11,-0.01 0.14,-0.03 0.04,-0.02 0.06,-0.05 0.06,-0.09 0,-0.04 -0.03,-0.07 -0.07,-0.09 -0.04,-0.02 -0.09,-0.04 -0.16,-0.04 -0.09,0 -0.18,0.03 -0.28,0.07l-0.05 -0.12c0.11,-0.06 0.23,-0.08 0.34,-0.08 0.08,0 0.14,0.01 0.2,0.03 0.06,0.02 0.1,0.05 0.13,0.08 0.04,0.04 0.05,0.08 0.05,0.13 0,0.04 -0.01,0.08 -0.04,0.12 -0.03,0.03 -0.07,0.06 -0.12,0.08z"/>
   <path id="3" class="fil4" d="M34.44 15.54l0 0.35 -0.15 0 0 -0.21 -0.75 0 0 0.21 -0.15 0 0 -0.35 0.05 0c0.05,0 0.09,-0.04 0.11,-0.12 0.03,-0.08 0.04,-0.19 0.05,-0.33l0.01 -0.3 0.69 0 0 0.75 0.14 0zm-0.69 -0.44c-0.01,0.11 -0.02,0.21 -0.03,0.28 -0.02,0.07 -0.04,0.13 -0.08,0.16l0.5 0 0 -0.61 -0.39 0 0 0.17z"/>
   <path id="4" class="fil4" d="M34.97 14.78c0.12,0 0.22,0.03 0.28,0.09 0.07,0.06 0.1,0.15 0.1,0.27l0 0.54 -0.15 0 0 -0.12c-0.03,0.04 -0.07,0.08 -0.12,0.1 -0.05,0.02 -0.11,0.03 -0.18,0.03 -0.1,0 -0.18,-0.02 -0.24,-0.07 -0.06,-0.05 -0.09,-0.11 -0.09,-0.19 0,-0.08 0.03,-0.14 0.09,-0.19 0.06,-0.05 0.15,-0.07 0.27,-0.07l0.26 0 0 -0.03c0,-0.07 -0.02,-0.13 -0.06,-0.16 -0.04,-0.04 -0.1,-0.06 -0.18,-0.06 -0.05,0 -0.1,0.01 -0.16,0.03 -0.05,0.01 -0.09,0.04 -0.12,0.07l-0.07 -0.13c0.05,-0.03 0.1,-0.06 0.16,-0.08 0.07,-0.02 0.14,-0.03 0.21,-0.03zm-0.04 0.79c0.06,0 0.12,-0.02 0.16,-0.05 0.05,-0.02 0.08,-0.06 0.1,-0.11l0 -0.13 -0.25 0c-0.14,0 -0.21,0.05 -0.21,0.14 0,0.05 0.02,0.08 0.06,0.11 0.03,0.02 0.08,0.04 0.14,0.04z"/>
   <polygon id="5" class="fil4" points="35.64,14.79 35.8,14.79 35.8,15.17 36.31,15.17 36.31,14.79 36.47,14.79 36.47,15.68 36.31,15.68 36.31,15.31 35.8,15.31 35.8,15.68 35.64,15.68 "/>
   <polygon id="6" class="fil4" points="36.79,14.79 36.95,14.79 36.95,15.44 37.5,14.79 37.64,14.79 37.64,15.68 37.48,15.68 37.48,15.03 36.94,15.68 36.79,15.68 "/>
   <path id="7" class="fil4" d="M38.76 15.24c0,0.01 0,0.03 0,0.05l-0.73 0c0.01,0.08 0.05,0.14 0.11,0.19 0.06,0.05 0.13,0.07 0.22,0.07 0.1,0 0.19,-0.04 0.25,-0.11l0.09 0.11c-0.04,0.04 -0.09,0.08 -0.15,0.1 -0.06,0.03 -0.12,0.04 -0.2,0.04 -0.09,0 -0.18,-0.02 -0.25,-0.06 -0.07,-0.04 -0.13,-0.09 -0.17,-0.16 -0.04,-0.07 -0.06,-0.15 -0.06,-0.24 0,-0.08 0.02,-0.16 0.06,-0.23 0.04,-0.07 0.09,-0.12 0.16,-0.16 0.07,-0.04 0.14,-0.06 0.23,-0.06 0.09,0 0.16,0.02 0.23,0.06 0.06,0.04 0.12,0.09 0.15,0.16 0.04,0.07 0.06,0.15 0.06,0.24zm-0.44 -0.32c-0.08,0 -0.14,0.02 -0.19,0.07 -0.06,0.04 -0.09,0.11 -0.1,0.18l0.58 0c-0.01,-0.07 -0.04,-0.13 -0.1,-0.18 -0.05,-0.05 -0.11,-0.07 -0.19,-0.07z"/>
   <path id="8" class="fil4" d="M39.38 15.23l0.25 -0.32 0.15 0 -0.24 0.32 0.24 0.33 -0.15 0 -0.25 -0.33zm0.33 0l0.24 -0.32 0.15 0 -0.24 0.32 0.24 0.33 -0.15 0 -0.24 -0.33z"/>
   <polygon id="9" class="fil4" points="41.12,15.3 40.95,15.3 40.95,15.68 40.79,15.68 40.79,15.3 40.61,15.3 40.37,15.68 40.18,15.68 40.48,15.22 40.2,14.79 40.37,14.79 40.61,15.17 40.79,15.17 40.79,14.79 40.95,14.79 40.95,15.17 41.12,15.17 41.37,14.79 41.54,14.79 41.26,15.22 41.56,15.68 41.37,15.68 "/>
   <polygon id="10" class="fil4" points="41.74,14.79 41.9,14.79 41.9,15.44 42.45,14.79 42.6,14.79 42.6,15.68 42.43,15.68 42.43,15.03 41.89,15.68 41.74,15.68 "/>
   <path id="11" class="fil4" d="M43.52 15.22c0.11,0.03 0.17,0.1 0.17,0.21 0,0.08 -0.03,0.14 -0.09,0.19 -0.06,0.04 -0.15,0.06 -0.26,0.06l-0.43 0 0 -0.89 0.41 0c0.11,0 0.19,0.02 0.25,0.06 0.06,0.04 0.09,0.09 0.09,0.17 0,0.04 -0.01,0.09 -0.04,0.12 -0.02,0.03 -0.06,0.06 -0.1,0.08zm-0.45 -0.05l0.24 0c0.06,0 0.11,-0.01 0.14,-0.03 0.03,-0.02 0.05,-0.06 0.05,-0.1 0,-0.08 -0.07,-0.13 -0.19,-0.13l-0.24 0 0 0.26zm0.26 0.39c0.06,0 0.11,-0.01 0.15,-0.04 0.03,-0.02 0.05,-0.05 0.05,-0.1 0,-0.04 -0.02,-0.08 -0.05,-0.1 -0.03,-0.02 -0.08,-0.03 -0.14,-0.03l-0.27 0 0 0.27 0.26 0z"/>
   <path id="12" class="fil4" d="M44.34 15.09c0.12,0 0.2,0.03 0.26,0.08 0.06,0.05 0.09,0.12 0.09,0.21 0,0.1 -0.03,0.17 -0.1,0.23 -0.06,0.05 -0.15,0.07 -0.27,0.07l-0.38 0 0 -0.89 0.16 0 0 0.3 0.24 0zm0.48 -0.3l0.16 0 0 0.89 -0.16 0 0 -0.89zm-0.52 0.77c0.08,0 0.13,-0.01 0.17,-0.04 0.04,-0.03 0.06,-0.08 0.06,-0.14 0,-0.06 -0.02,-0.1 -0.06,-0.13 -0.04,-0.02 -0.09,-0.04 -0.17,-0.04l-0.2 0 0 0.35 0.2 0z"/>
   <polygon id="13" class="fil4" points="45.86,15.68 45.6,15.34 45.34,15.68 45.16,15.68 45.51,15.22 45.17,14.79 45.35,14.79 45.6,15.11 45.84,14.79 46.02,14.79 45.68,15.22 46.04,15.68 "/>
   <path id="14" class="fil4" d="M46.11 15.56l0.24 -0.33 -0.24 -0.32 0.15 0 0.24 0.32 -0.24 0.33 -0.15 0zm0.32 0l0.24 -0.33 -0.24 -0.32 0.15 0 0.24 0.32 -0.24 0.33 -0.15 0z"/>
   <polygon id="15" class="fil4" points="47.51,14.79 47.67,14.79 47.67,15.44 48.22,14.79 48.36,14.79 48.36,15.68 48.2,15.68 48.2,15.03 47.66,15.68 47.51,15.68 "/>
   <polygon id="16" class="fil4" points="49.02,15.3 48.84,15.3 48.84,15.68 48.68,15.68 48.68,14.79 48.84,14.79 48.84,15.17 49.03,15.17 49.32,14.79 49.49,14.79 49.15,15.22 49.51,15.68 49.32,15.68 "/>
   <path id="17" class="fil4" d="M50.04 15.69c-0.09,0 -0.17,-0.02 -0.24,-0.06 -0.07,-0.04 -0.13,-0.09 -0.17,-0.16 -0.04,-0.07 -0.06,-0.15 -0.06,-0.24 0,-0.08 0.02,-0.16 0.06,-0.23 0.04,-0.07 0.1,-0.12 0.17,-0.16 0.07,-0.04 0.15,-0.06 0.24,-0.06 0.08,0 0.16,0.02 0.23,0.06 0.07,0.04 0.13,0.09 0.17,0.16 0.04,0.07 0.06,0.15 0.06,0.23 0,0.09 -0.02,0.17 -0.06,0.24 -0.04,0.07 -0.1,0.12 -0.17,0.16 -0.07,0.04 -0.15,0.06 -0.23,0.06zm0 -0.14c0.05,0 0.1,-0.01 0.15,-0.04 0.05,-0.03 0.08,-0.06 0.11,-0.11 0.02,-0.05 0.04,-0.1 0.04,-0.17 0,-0.06 -0.02,-0.11 -0.04,-0.16 -0.03,-0.05 -0.06,-0.08 -0.11,-0.11 -0.05,-0.03 -0.1,-0.04 -0.15,-0.04 -0.06,0 -0.11,0.01 -0.16,0.04 -0.04,0.03 -0.08,0.06 -0.11,0.11 -0.02,0.05 -0.04,0.1 -0.04,0.16 0,0.07 0.02,0.12 0.04,0.17 0.03,0.05 0.07,0.08 0.11,0.11 0.05,0.03 0.1,0.04 0.16,0.04z"/>
   <polygon id="18" class="fil4" points="50.73,14.79 50.89,14.79 50.89,15.17 51.4,15.17 51.4,14.79 51.56,14.79 51.56,15.68 51.4,15.68 51.4,15.31 50.89,15.31 50.89,15.68 50.73,15.68 "/>
   <path id="19" class="fil4" d="M52.26 15.69c-0.09,0 -0.17,-0.02 -0.24,-0.06 -0.07,-0.04 -0.12,-0.09 -0.16,-0.16 -0.04,-0.07 -0.06,-0.15 -0.06,-0.24 0,-0.08 0.02,-0.16 0.06,-0.23 0.04,-0.07 0.09,-0.12 0.16,-0.16 0.07,-0.04 0.15,-0.06 0.24,-0.06 0.09,0 0.17,0.02 0.24,0.06 0.07,0.04 0.12,0.09 0.16,0.16 0.04,0.07 0.06,0.15 0.06,0.23 0,0.09 -0.02,0.17 -0.06,0.24 -0.04,0.07 -0.09,0.12 -0.16,0.16 -0.07,0.04 -0.15,0.06 -0.24,0.06zm0 -0.14c0.06,0 0.11,-0.01 0.15,-0.04 0.05,-0.03 0.09,-0.06 0.11,-0.11 0.03,-0.05 0.04,-0.1 0.04,-0.17 0,-0.06 -0.01,-0.11 -0.04,-0.16 -0.02,-0.05 -0.06,-0.08 -0.11,-0.11 -0.04,-0.03 -0.09,-0.04 -0.15,-0.04 -0.06,0 -0.11,0.01 -0.15,0.04 -0.05,0.03 -0.09,0.06 -0.11,0.11 -0.03,0.05 -0.04,0.1 -0.04,0.16 0,0.07 0.01,0.12 0.04,0.17 0.02,0.05 0.06,0.08 0.11,0.11 0.04,0.03 0.09,0.04 0.15,0.04z"/>
   <polygon id="20" class="fil4" points="53.3,15.3 53.12,15.3 53.12,15.68 52.96,15.68 52.96,14.79 53.12,14.79 53.12,15.17 53.31,15.17 53.6,14.79 53.77,14.79 53.43,15.22 53.79,15.68 53.6,15.68 "/>
   <path id="21" class="fil4" d="M54 15.46c0.03,0 0.06,0.01 0.08,0.03 0.02,0.02 0.03,0.05 0.03,0.08 0,0.02 0,0.04 -0.01,0.05 0,0.02 -0.01,0.04 -0.02,0.08l-0.08 0.23 -0.1 0 0.06 -0.25c-0.02,-0.01 -0.04,-0.02 -0.05,-0.04 -0.02,-0.02 -0.02,-0.04 -0.02,-0.07 0,-0.03 0.01,-0.06 0.03,-0.08 0.02,-0.02 0.05,-0.03 0.08,-0.03z"/>
   <path id="22" class="fil4" d="M28.41 17.84c-0.09,0 -0.17,-0.02 -0.24,-0.06 -0.07,-0.04 -0.13,-0.09 -0.17,-0.16 -0.04,-0.07 -0.06,-0.15 -0.06,-0.23 0,-0.09 0.02,-0.17 0.06,-0.24 0.04,-0.07 0.1,-0.12 0.17,-0.16 0.07,-0.04 0.15,-0.06 0.24,-0.06 0.08,0 0.15,0.02 0.22,0.05 0.06,0.03 0.11,0.08 0.14,0.14l-0.12 0.08c-0.03,-0.04 -0.06,-0.07 -0.1,-0.09 -0.04,-0.03 -0.09,-0.04 -0.14,-0.04 -0.06,0 -0.11,0.02 -0.16,0.04 -0.04,0.03 -0.08,0.07 -0.11,0.11 -0.02,0.05 -0.04,0.11 -0.04,0.17 0,0.06 0.02,0.12 0.04,0.16 0.03,0.05 0.07,0.09 0.11,0.11 0.05,0.03 0.1,0.04 0.16,0.04 0.05,0 0.1,-0.01 0.14,-0.03 0.04,-0.02 0.07,-0.05 0.1,-0.1l0.12 0.08c-0.03,0.06 -0.08,0.11 -0.14,0.14 -0.07,0.04 -0.14,0.05 -0.22,0.05z"/>
   <polygon id="23" class="fil4" points="29.64,17.08 29.31,17.08 29.31,17.83 29.15,17.83 29.15,17.08 28.82,17.08 28.82,16.94 29.64,16.94 "/>
   <polygon id="24" class="fil4" points="29.8,16.94 29.96,16.94 29.96,17.59 30.51,16.94 30.66,16.94 30.66,17.83 30.49,17.83 30.49,17.18 29.95,17.83 29.8,17.83 "/>
   <polygon id="25" class="fil4" points="31.32,17.46 31.13,17.46 31.13,17.83 30.97,17.83 30.97,16.94 31.13,16.94 31.13,17.32 31.32,17.32 31.61,16.94 31.78,16.94 31.44,17.37 31.8,17.83 31.61,17.83 "/>
   <path id="26" class="fil4" d="M32.75 17.39c0,0.01 0,0.03 0,0.05l-0.73 0c0.01,0.08 0.05,0.14 0.11,0.19 0.06,0.05 0.13,0.07 0.22,0.07 0.1,0 0.19,-0.03 0.25,-0.11l0.09 0.11c-0.04,0.05 -0.09,0.08 -0.15,0.11 -0.06,0.02 -0.12,0.03 -0.2,0.03 -0.09,0 -0.18,-0.02 -0.25,-0.06 -0.07,-0.03 -0.13,-0.09 -0.17,-0.16 -0.04,-0.07 -0.06,-0.15 -0.06,-0.23 0,-0.09 0.02,-0.17 0.06,-0.24 0.04,-0.07 0.09,-0.12 0.16,-0.16 0.07,-0.04 0.14,-0.06 0.23,-0.06 0.08,0 0.16,0.02 0.23,0.06 0.06,0.04 0.12,0.09 0.15,0.16 0.04,0.07 0.06,0.15 0.06,0.24zm-0.44 -0.32c-0.08,0 -0.14,0.02 -0.19,0.07 -0.06,0.05 -0.09,0.11 -0.1,0.18l0.58 0c-0.01,-0.07 -0.04,-0.13 -0.1,-0.18 -0.05,-0.05 -0.11,-0.07 -0.19,-0.07z"/>
   <path id="27" class="fil4" d="M33.47 16.93c0.09,0 0.17,0.02 0.24,0.06 0.06,0.04 0.12,0.09 0.16,0.16 0.04,0.07 0.05,0.15 0.05,0.24 0,0.09 -0.01,0.17 -0.05,0.24 -0.04,0.06 -0.1,0.12 -0.16,0.16 -0.07,0.03 -0.15,0.05 -0.24,0.05 -0.06,0 -0.12,-0.01 -0.17,-0.03 -0.06,-0.03 -0.1,-0.06 -0.14,-0.11l0 0.46 -0.16 0 0 -1.22 0.16 0 0 0.14c0.03,-0.05 0.08,-0.08 0.13,-0.11 0.06,-0.02 0.12,-0.04 0.18,-0.04zm-0.01 0.77c0.06,0 0.11,-0.01 0.15,-0.04 0.05,-0.02 0.09,-0.06 0.11,-0.11 0.03,-0.05 0.04,-0.1 0.04,-0.16 0,-0.06 -0.01,-0.12 -0.04,-0.17 -0.02,-0.04 -0.06,-0.08 -0.11,-0.11 -0.04,-0.02 -0.09,-0.04 -0.15,-0.04 -0.06,0 -0.11,0.02 -0.15,0.04 -0.05,0.03 -0.08,0.07 -0.11,0.11 -0.03,0.05 -0.04,0.11 -0.04,0.17 0,0.06 0.01,0.11 0.04,0.16 0.03,0.05 0.06,0.09 0.11,0.11 0.04,0.03 0.09,0.04 0.15,0.04z"/>
   <path id="28" class="fil4" d="M34.54 17.84c-0.09,0 -0.17,-0.02 -0.24,-0.06 -0.07,-0.04 -0.12,-0.09 -0.16,-0.16 -0.04,-0.07 -0.06,-0.15 -0.06,-0.23 0,-0.09 0.02,-0.17 0.06,-0.24 0.04,-0.07 0.09,-0.12 0.16,-0.16 0.07,-0.04 0.15,-0.06 0.24,-0.06 0.09,0 0.17,0.02 0.24,0.06 0.07,0.04 0.12,0.09 0.16,0.16 0.04,0.07 0.06,0.15 0.06,0.24 0,0.08 -0.02,0.16 -0.06,0.23 -0.04,0.07 -0.09,0.12 -0.16,0.16 -0.07,0.04 -0.15,0.06 -0.24,0.06zm0 -0.14c0.06,0 0.11,-0.01 0.15,-0.04 0.05,-0.02 0.09,-0.06 0.11,-0.11 0.03,-0.05 0.04,-0.1 0.04,-0.16 0,-0.06 -0.01,-0.12 -0.04,-0.17 -0.02,-0.04 -0.06,-0.08 -0.11,-0.11 -0.04,-0.02 -0.09,-0.04 -0.15,-0.04 -0.06,0 -0.11,0.02 -0.15,0.04 -0.05,0.03 -0.08,0.07 -0.11,0.11 -0.03,0.05 -0.04,0.11 -0.04,0.17 0,0.06 0.01,0.11 0.04,0.16 0.03,0.05 0.06,0.09 0.11,0.11 0.04,0.03 0.09,0.04 0.15,0.04z"/>
   <path id="29" class="fil4" d="M35.84 17.37c0.12,0.03 0.18,0.1 0.18,0.22 0,0.08 -0.03,0.14 -0.09,0.18 -0.06,0.04 -0.15,0.06 -0.26,0.06l-0.43 0 0 -0.89 0.41 0c0.11,0 0.19,0.02 0.25,0.06 0.06,0.04 0.09,0.1 0.09,0.17 0,0.05 -0.01,0.09 -0.04,0.12 -0.03,0.04 -0.06,0.06 -0.11,0.08zm-0.44 -0.05l0.24 0c0.06,0 0.11,-0.01 0.14,-0.03 0.03,-0.02 0.05,-0.05 0.05,-0.1 0,-0.08 -0.07,-0.12 -0.19,-0.12l-0.24 0 0 0.25zm0.25 0.39c0.07,0 0.12,-0.01 0.16,-0.03 0.03,-0.02 0.05,-0.06 0.05,-0.1 0,-0.05 -0.02,-0.08 -0.05,-0.11 -0.03,-0.02 -0.08,-0.03 -0.15,-0.03l-0.26 0 0 0.27 0.25 0z"/>
   <path id="30" class="fil4" d="M36.31 17.61c0.03,0 0.05,0.01 0.08,0.04 0.02,0.02 0.03,0.04 0.03,0.08 0,0.01 -0.01,0.03 -0.01,0.05 0,0.01 -0.01,0.04 -0.02,0.07l-0.08 0.23 -0.11 0 0.07 -0.25c-0.03,-0.01 -0.04,-0.02 -0.06,-0.04 -0.01,-0.02 -0.02,-0.04 -0.02,-0.06 0,-0.04 0.02,-0.06 0.04,-0.09 0.02,-0.02 0.04,-0.03 0.08,-0.03z"/>
   <path id="31" class="fil4" d="M37.58 16.93c0.08,0 0.16,0.02 0.23,0.06 0.07,0.04 0.12,0.09 0.16,0.16 0.04,0.07 0.06,0.15 0.06,0.24 0,0.09 -0.02,0.17 -0.06,0.24 -0.04,0.06 -0.09,0.12 -0.16,0.16 -0.07,0.03 -0.15,0.05 -0.23,0.05 -0.07,0 -0.12,-0.01 -0.18,-0.03 -0.05,-0.03 -0.1,-0.06 -0.13,-0.11l0 0.46 -0.17 0 0 -1.22 0.16 0 0 0.14c0.04,-0.05 0.08,-0.08 0.14,-0.11 0.05,-0.02 0.11,-0.04 0.18,-0.04zm-0.02 0.77c0.06,0 0.11,-0.01 0.16,-0.04 0.04,-0.02 0.08,-0.06 0.11,-0.11 0.02,-0.05 0.04,-0.1 0.04,-0.16 0,-0.06 -0.02,-0.12 -0.04,-0.17 -0.03,-0.04 -0.07,-0.08 -0.11,-0.11 -0.05,-0.02 -0.1,-0.04 -0.16,-0.04 -0.05,0 -0.1,0.02 -0.15,0.04 -0.04,0.03 -0.08,0.07 -0.11,0.11 -0.02,0.05 -0.04,0.11 -0.04,0.17 0,0.06 0.02,0.11 0.04,0.16 0.03,0.05 0.07,0.09 0.11,0.11 0.05,0.03 0.1,0.04 0.15,0.04z"/>
   <path id="32" class="fil4" d="M39.07 17.39c0,0.01 0,0.03 0,0.05l-0.73 0c0.01,0.08 0.05,0.14 0.11,0.19 0.05,0.05 0.13,0.07 0.21,0.07 0.11,0 0.2,-0.03 0.26,-0.11l0.09 0.11c-0.04,0.05 -0.09,0.08 -0.15,0.11 -0.06,0.02 -0.13,0.03 -0.2,0.03 -0.09,0 -0.18,-0.02 -0.25,-0.06 -0.07,-0.03 -0.13,-0.09 -0.17,-0.16 -0.04,-0.07 -0.06,-0.15 -0.06,-0.23 0,-0.09 0.02,-0.17 0.06,-0.24 0.04,-0.07 0.09,-0.12 0.16,-0.16 0.07,-0.04 0.14,-0.06 0.23,-0.06 0.08,0 0.16,0.02 0.23,0.06 0.06,0.04 0.11,0.09 0.15,0.16 0.04,0.07 0.06,0.15 0.06,0.24zm-0.44 -0.32c-0.08,0 -0.14,0.02 -0.2,0.07 -0.05,0.05 -0.08,0.11 -0.09,0.18l0.57 0c-0.01,-0.07 -0.04,-0.13 -0.09,-0.18 -0.05,-0.05 -0.11,-0.07 -0.19,-0.07z"/>
   <polygon id="33" class="fil4" points="39.67,17.46 39.48,17.46 39.48,17.83 39.32,17.83 39.32,16.94 39.48,16.94 39.48,17.32 39.67,17.32 39.96,16.94 40.13,16.94 39.79,17.37 40.16,17.83 39.97,17.83 "/>
   <path id="34" class="fil4" d="M41.09 16.94l0 0.89 -0.16 0 0 -0.75 -0.38 0 -0.01 0.2c-0.01,0.12 -0.02,0.22 -0.04,0.3 -0.01,0.08 -0.04,0.15 -0.07,0.19 -0.04,0.05 -0.09,0.08 -0.15,0.08 -0.03,0 -0.07,-0.01 -0.1,-0.02l0.01 -0.14c0.01,0.01 0.03,0.01 0.04,0.01 0.04,0 0.08,-0.02 0.1,-0.06 0.02,-0.04 0.04,-0.08 0.04,-0.14 0.01,-0.05 0.02,-0.13 0.02,-0.23l0.02 -0.33 0.68 0z"/>
   <path id="35" class="fil4" d="M41.72 16.93c0.13,0 0.22,0.03 0.29,0.09 0.06,0.06 0.09,0.15 0.09,0.27l0 0.54 -0.15 0 0 -0.11c-0.03,0.04 -0.06,0.07 -0.11,0.09 -0.05,0.02 -0.11,0.03 -0.18,0.03 -0.1,0 -0.18,-0.02 -0.24,-0.07 -0.06,-0.05 -0.09,-0.11 -0.09,-0.19 0,-0.08 0.03,-0.14 0.08,-0.19 0.06,-0.05 0.15,-0.07 0.28,-0.07l0.25 0 0 -0.03c0,-0.07 -0.02,-0.13 -0.06,-0.16 -0.04,-0.04 -0.1,-0.06 -0.18,-0.06 -0.05,0 -0.1,0.01 -0.15,0.03 -0.05,0.02 -0.09,0.04 -0.13,0.07l-0.07 -0.12c0.05,-0.04 0.1,-0.07 0.17,-0.09 0.06,-0.02 0.13,-0.03 0.2,-0.03zm-0.04 0.79c0.07,0 0.12,-0.02 0.16,-0.04 0.05,-0.03 0.08,-0.07 0.1,-0.12l0 -0.12 -0.25 0c-0.13,0 -0.2,0.04 -0.2,0.13 0,0.05 0.02,0.08 0.05,0.11 0.03,0.03 0.08,0.04 0.14,0.04z"/>
   <polygon id="36" class="fil4" points="43.42,16.94 43.42,17.83 43.28,17.83 43.28,17.18 42.94,17.73 42.87,17.73 42.54,17.18 42.54,17.83 42.4,17.83 42.4,16.94 42.56,16.94 42.91,17.54 43.27,16.94 "/>
   <polygon id="37" class="fil4" points="43.74,16.94 43.9,16.94 43.9,17.32 44.41,17.32 44.41,16.94 44.57,16.94 44.57,17.83 44.41,17.83 44.41,17.46 43.9,17.46 43.9,17.83 43.74,17.83 "/>
   <path id="38" class="fil4" d="M45.29 17.24c0.11,0.01 0.19,0.03 0.25,0.08 0.06,0.05 0.09,0.12 0.09,0.22 0,0.09 -0.03,0.17 -0.09,0.22 -0.07,0.05 -0.16,0.08 -0.28,0.07l-0.38 0 0 -0.89 0.17 0 0 0.3 0.24 0zm0.48 -0.3l0.16 0 0 0.89 -0.16 0 0 -0.89zm-0.52 0.77c0.07,0 0.13,-0.01 0.16,-0.04 0.04,-0.03 0.06,-0.08 0.06,-0.14 0,-0.05 -0.02,-0.1 -0.06,-0.12 -0.03,-0.03 -0.09,-0.05 -0.16,-0.05l-0.2 0 0 0.35 0.2 0z"/>
   <polygon id="39" class="fil4" points="46.8,17.83 46.54,17.49 46.28,17.83 46.1,17.83 46.45,17.38 46.12,16.94 46.3,16.94 46.54,17.26 46.79,16.94 46.96,16.94 46.63,17.38 46.98,17.83 "/>
   <path id="40" class="fil4" d="M48.06 16.97c0.08,0 0.16,0.02 0.22,0.06 0.07,0.03 0.12,0.09 0.15,0.15 0.04,0.07 0.06,0.14 0.06,0.23 0,0.08 -0.02,0.16 -0.06,0.23 -0.04,0.06 -0.09,0.11 -0.16,0.15 -0.07,0.04 -0.15,0.06 -0.24,0.06 -0.15,0 -0.27,-0.06 -0.35,-0.16 -0.09,-0.1 -0.13,-0.25 -0.13,-0.44 0,-0.18 0.04,-0.32 0.11,-0.43 0.08,-0.1 0.2,-0.17 0.35,-0.2l0.41 -0.09 0.02 0.14 -0.37 0.08c-0.12,0.03 -0.21,0.07 -0.27,0.14 -0.05,0.06 -0.09,0.15 -0.09,0.26 0.04,-0.06 0.08,-0.1 0.15,-0.13 0.06,-0.03 0.12,-0.05 0.2,-0.05zm-0.03 0.74c0.06,0 0.11,-0.01 0.15,-0.04 0.05,-0.02 0.08,-0.06 0.11,-0.1 0.02,-0.05 0.03,-0.1 0.03,-0.16 0,-0.09 -0.02,-0.16 -0.08,-0.21 -0.05,-0.06 -0.12,-0.08 -0.21,-0.08 -0.09,0 -0.16,0.02 -0.21,0.08 -0.06,0.05 -0.08,0.12 -0.08,0.21 0,0.06 0.01,0.11 0.03,0.16 0.03,0.04 0.06,0.08 0.11,0.1 0.04,0.03 0.09,0.04 0.15,0.04z"/>
   <path id="41" class="fil4" d="M49.03 16.93c0.12,0 0.22,0.03 0.28,0.09 0.07,0.06 0.1,0.15 0.1,0.27l0 0.54 -0.15 0 0 -0.11c-0.03,0.04 -0.07,0.07 -0.12,0.09 -0.05,0.02 -0.11,0.03 -0.18,0.03 -0.1,0 -0.18,-0.02 -0.24,-0.07 -0.06,-0.05 -0.09,-0.11 -0.09,-0.19 0,-0.08 0.03,-0.14 0.09,-0.19 0.06,-0.05 0.15,-0.07 0.27,-0.07l0.26 0 0 -0.03c0,-0.07 -0.02,-0.13 -0.06,-0.16 -0.04,-0.04 -0.1,-0.06 -0.18,-0.06 -0.05,0 -0.11,0.01 -0.16,0.03 -0.05,0.02 -0.09,0.04 -0.12,0.07l-0.07 -0.12c0.05,-0.04 0.1,-0.07 0.16,-0.09 0.07,-0.02 0.14,-0.03 0.21,-0.03zm-0.04 0.79c0.06,0 0.12,-0.02 0.16,-0.04 0.05,-0.03 0.08,-0.07 0.1,-0.12l0 -0.12 -0.25 0c-0.14,0 -0.21,0.04 -0.21,0.13 0,0.05 0.02,0.08 0.06,0.11 0.03,0.03 0.08,0.04 0.14,0.04z"/>
   <polygon id="42" class="fil4" points="49.7,16.94 49.86,16.94 49.86,17.32 50.37,17.32 50.37,16.94 50.53,16.94 50.53,17.83 50.37,17.83 50.37,17.46 49.86,17.46 49.86,17.83 49.7,17.83 "/>
   <polygon id="43" class="fil4" points="50.85,16.94 51.01,16.94 51.01,17.32 51.52,17.32 51.52,16.94 51.68,16.94 51.68,17.83 51.52,17.83 51.52,17.46 51.01,17.46 51.01,17.83 50.85,17.83 "/>
   <path id="44" class="fil4" d="M52.8 17.39c0,0.01 0,0.03 0,0.05l-0.73 0c0.01,0.08 0.05,0.14 0.11,0.19 0.05,0.05 0.13,0.07 0.21,0.07 0.11,0 0.2,-0.03 0.26,-0.11l0.09 0.11c-0.04,0.05 -0.09,0.08 -0.15,0.11 -0.06,0.02 -0.13,0.03 -0.2,0.03 -0.09,0 -0.18,-0.02 -0.25,-0.06 -0.07,-0.03 -0.13,-0.09 -0.17,-0.16 -0.04,-0.07 -0.06,-0.15 -0.06,-0.23 0,-0.09 0.02,-0.17 0.06,-0.24 0.04,-0.07 0.09,-0.12 0.16,-0.16 0.07,-0.04 0.14,-0.06 0.23,-0.06 0.08,0 0.16,0.02 0.23,0.06 0.06,0.04 0.11,0.09 0.15,0.16 0.04,0.07 0.06,0.15 0.06,0.24zm-0.44 -0.32c-0.08,0 -0.14,0.02 -0.2,0.07 -0.05,0.05 -0.08,0.11 -0.09,0.18l0.57 0c-0.01,-0.07 -0.04,-0.13 -0.09,-0.18 -0.05,-0.05 -0.11,-0.07 -0.19,-0.07z"/>
   <path id="45" class="fil4" d="M53.52 16.93c0.09,0 0.17,0.02 0.23,0.06 0.07,0.04 0.13,0.09 0.16,0.16 0.04,0.07 0.06,0.15 0.06,0.24 0,0.09 -0.02,0.17 -0.06,0.24 -0.03,0.06 -0.09,0.12 -0.16,0.16 -0.06,0.03 -0.14,0.05 -0.23,0.05 -0.06,0 -0.12,-0.01 -0.17,-0.03 -0.06,-0.03 -0.1,-0.06 -0.14,-0.11l0 0.46 -0.16 0 0 -1.22 0.15 0 0 0.14c0.04,-0.05 0.09,-0.08 0.14,-0.11 0.06,-0.02 0.12,-0.04 0.18,-0.04zm-0.01 0.77c0.06,0 0.11,-0.01 0.15,-0.04 0.05,-0.02 0.08,-0.06 0.11,-0.11 0.03,-0.05 0.04,-0.1 0.04,-0.16 0,-0.06 -0.01,-0.12 -0.04,-0.17 -0.03,-0.04 -0.06,-0.08 -0.11,-0.11 -0.04,-0.02 -0.09,-0.04 -0.15,-0.04 -0.06,0 -0.11,0.02 -0.15,0.04 -0.05,0.03 -0.09,0.07 -0.11,0.11 -0.03,0.05 -0.04,0.11 -0.04,0.17 0,0.06 0.01,0.11 0.04,0.16 0.02,0.05 0.06,0.09 0.11,0.11 0.04,0.03 0.09,0.04 0.15,0.04z"/>
   <path id="46" class="fil4" d="M54.59 17.84c-0.09,0 -0.17,-0.02 -0.24,-0.06 -0.07,-0.04 -0.13,-0.09 -0.17,-0.16 -0.04,-0.07 -0.06,-0.15 -0.06,-0.23 0,-0.09 0.02,-0.17 0.06,-0.24 0.04,-0.07 0.1,-0.12 0.17,-0.16 0.07,-0.04 0.15,-0.06 0.24,-0.06 0.09,0 0.17,0.02 0.24,0.06 0.07,0.04 0.12,0.09 0.16,0.16 0.04,0.07 0.06,0.15 0.06,0.24 0,0.08 -0.02,0.16 -0.06,0.23 -0.04,0.07 -0.09,0.12 -0.16,0.16 -0.07,0.04 -0.15,0.06 -0.24,0.06zm0 -0.14c0.06,0 0.11,-0.01 0.15,-0.04 0.05,-0.02 0.08,-0.06 0.11,-0.11 0.03,-0.05 0.04,-0.1 0.04,-0.16 0,-0.06 -0.01,-0.12 -0.04,-0.17 -0.03,-0.04 -0.06,-0.08 -0.11,-0.11 -0.04,-0.02 -0.09,-0.04 -0.15,-0.04 -0.06,0 -0.11,0.02 -0.16,0.04 -0.04,0.03 -0.08,0.07 -0.1,0.11 -0.03,0.05 -0.04,0.11 -0.04,0.17 0,0.06 0.01,0.11 0.04,0.16 0.02,0.05 0.06,0.09 0.1,0.11 0.05,0.03 0.1,0.04 0.16,0.04z"/>
   <path id="47" class="fil4" d="M55.89 17.37c0.12,0.03 0.18,0.1 0.18,0.22 0,0.08 -0.03,0.14 -0.09,0.18 -0.06,0.04 -0.15,0.06 -0.27,0.06l-0.42 0 0 -0.89 0.41 0c0.1,0 0.19,0.02 0.25,0.06 0.06,0.04 0.09,0.1 0.09,0.17 0,0.05 -0.02,0.09 -0.04,0.12 -0.03,0.04 -0.06,0.06 -0.11,0.08zm-0.45 -0.05l0.25 0c0.06,0 0.1,-0.01 0.14,-0.03 0.03,-0.02 0.04,-0.05 0.04,-0.1 0,-0.08 -0.06,-0.12 -0.18,-0.12l-0.25 0 0 0.25zm0.26 0.39c0.07,0 0.12,-0.01 0.15,-0.03 0.04,-0.02 0.05,-0.06 0.05,-0.1 0,-0.05 -0.01,-0.08 -0.04,-0.11 -0.03,-0.02 -0.08,-0.03 -0.15,-0.03l-0.27 0 0 0.27 0.26 0z"/>
   <path id="48" class="fil4" d="M56.36 17.61c0.03,0 0.05,0.01 0.07,0.04 0.02,0.02 0.03,0.04 0.03,0.08 0,0.01 0,0.03 0,0.05 0,0.01 -0.01,0.04 -0.02,0.07l-0.08 0.23 -0.11 0 0.06 -0.25c-0.02,-0.01 -0.03,-0.02 -0.05,-0.04 -0.01,-0.02 -0.02,-0.04 -0.02,-0.06 0,-0.04 0.01,-0.06 0.03,-0.09 0.03,-0.02 0.05,-0.03 0.09,-0.03z"/>
   <path id="49" class="fil4" d="M30.34 19.08c0.09,0 0.18,0.02 0.25,0.06 0.07,0.04 0.13,0.1 0.17,0.17 0.04,0.07 0.06,0.14 0.06,0.23 0,0.09 -0.02,0.17 -0.06,0.24 -0.04,0.06 -0.1,0.12 -0.17,0.16 -0.07,0.04 -0.16,0.06 -0.25,0.06 -0.08,0 -0.15,-0.02 -0.21,-0.04 -0.06,-0.02 -0.12,-0.06 -0.16,-0.11l0.09 -0.09c0.08,0.07 0.17,0.1 0.28,0.1 0.08,0 0.16,-0.02 0.22,-0.07 0.06,-0.05 0.1,-0.12 0.11,-0.2l-0.45 0 0 -0.12 0.45 0c-0.02,-0.07 -0.05,-0.14 -0.11,-0.18 -0.07,-0.05 -0.14,-0.08 -0.22,-0.08 -0.11,0 -0.2,0.04 -0.28,0.11l-0.09 -0.09c0.04,-0.05 0.1,-0.08 0.16,-0.11 0.07,-0.02 0.14,-0.04 0.21,-0.04z"/>
   <path id="50" class="fil4" d="M31.81 19.09l0 0.9 -0.16 0 0 -0.76 -0.38 0 -0.01 0.2c-0.01,0.12 -0.02,0.22 -0.03,0.3 -0.02,0.08 -0.05,0.15 -0.08,0.2 -0.04,0.04 -0.09,0.07 -0.15,0.07 -0.03,0 -0.06,-0.01 -0.1,-0.02l0.01 -0.13c0.01,0 0.03,0 0.04,0 0.04,0 0.08,-0.02 0.1,-0.06 0.02,-0.04 0.04,-0.08 0.04,-0.14 0.01,-0.05 0.02,-0.13 0.02,-0.23l0.02 -0.33 0.68 0z"/>
   <path id="51" class="fil4" d="M32.93 19.54c0,0.02 0,0.03 0,0.05l-0.73 0c0.01,0.08 0.05,0.14 0.11,0.19 0.06,0.05 0.13,0.07 0.22,0.07 0.1,0 0.19,-0.03 0.25,-0.1l0.09 0.1c-0.04,0.05 -0.09,0.08 -0.15,0.11 -0.06,0.02 -0.12,0.04 -0.2,0.04 -0.09,0 -0.18,-0.02 -0.25,-0.06 -0.07,-0.04 -0.13,-0.1 -0.17,-0.16 -0.04,-0.07 -0.06,-0.15 -0.06,-0.24 0,-0.09 0.02,-0.16 0.06,-0.23 0.04,-0.07 0.09,-0.13 0.16,-0.17 0.07,-0.04 0.15,-0.05 0.23,-0.05 0.09,0 0.16,0.01 0.23,0.05 0.07,0.04 0.12,0.1 0.15,0.17 0.04,0.07 0.06,0.14 0.06,0.23zm-0.44 -0.32c-0.08,0 -0.14,0.03 -0.19,0.07 -0.06,0.05 -0.09,0.11 -0.1,0.19l0.58 0c-0.01,-0.08 -0.04,-0.14 -0.1,-0.19 -0.05,-0.04 -0.11,-0.07 -0.19,-0.07z"/>
   <polygon id="52" class="fil4" points="34.21,19.09 34.21,19.99 34.06,19.99 34.06,19.33 33.73,19.88 33.66,19.88 33.33,19.33 33.33,19.99 33.18,19.99 33.18,19.09 33.35,19.09 33.7,19.7 34.06,19.09 "/>
   <path id="53" class="fil4" d="M35.33 19.54c0,0.02 0,0.03 0,0.05l-0.73 0c0.01,0.08 0.05,0.14 0.11,0.19 0.06,0.05 0.13,0.07 0.22,0.07 0.1,0 0.19,-0.03 0.25,-0.1l0.09 0.1c-0.04,0.05 -0.09,0.08 -0.15,0.11 -0.06,0.02 -0.12,0.04 -0.2,0.04 -0.09,0 -0.18,-0.02 -0.25,-0.06 -0.07,-0.04 -0.13,-0.1 -0.17,-0.16 -0.04,-0.07 -0.06,-0.15 -0.06,-0.24 0,-0.09 0.02,-0.16 0.06,-0.23 0.04,-0.07 0.09,-0.13 0.16,-0.17 0.07,-0.04 0.14,-0.05 0.23,-0.05 0.08,0 0.16,0.01 0.23,0.05 0.06,0.04 0.12,0.1 0.15,0.17 0.04,0.07 0.06,0.14 0.06,0.23zm-0.44 -0.32c-0.08,0 -0.14,0.03 -0.19,0.07 -0.06,0.05 -0.09,0.11 -0.1,0.19l0.58 0c-0.01,-0.08 -0.04,-0.14 -0.1,-0.19 -0.05,-0.04 -0.11,-0.07 -0.19,-0.07z"/>
   <polygon id="54" class="fil4" points="35.58,19.09 35.74,19.09 35.74,19.47 36.25,19.47 36.25,19.09 36.41,19.09 36.41,19.99 36.25,19.99 36.25,19.61 35.74,19.61 35.74,19.99 35.58,19.99 "/>
   <polygon id="55" class="fil4" points="37.39,19.23 37.07,19.23 37.07,19.99 36.9,19.99 36.9,19.23 36.58,19.23 36.58,19.09 37.39,19.09 "/>
   <path id="56" class="fil4" d="M37.9 20c-0.09,0 -0.17,-0.02 -0.24,-0.06 -0.07,-0.04 -0.12,-0.1 -0.16,-0.17 -0.04,-0.06 -0.06,-0.14 -0.06,-0.23 0,-0.09 0.02,-0.17 0.06,-0.24 0.04,-0.06 0.09,-0.12 0.16,-0.16 0.07,-0.04 0.15,-0.05 0.24,-0.05 0.09,0 0.17,0.01 0.24,0.05 0.07,0.04 0.12,0.1 0.16,0.16 0.04,0.07 0.06,0.15 0.06,0.24 0,0.09 -0.02,0.17 -0.06,0.23 -0.04,0.07 -0.09,0.13 -0.16,0.17 -0.07,0.04 -0.15,0.06 -0.24,0.06zm0 -0.15c0.06,0 0.11,-0.01 0.15,-0.04 0.05,-0.02 0.08,-0.06 0.11,-0.11 0.03,-0.04 0.04,-0.1 0.04,-0.16 0,-0.06 -0.01,-0.12 -0.04,-0.16 -0.03,-0.05 -0.06,-0.09 -0.11,-0.11 -0.04,-0.03 -0.09,-0.04 -0.15,-0.04 -0.06,0 -0.11,0.01 -0.15,0.04 -0.05,0.02 -0.09,0.06 -0.11,0.11 -0.03,0.04 -0.04,0.1 -0.04,0.16 0,0.06 0.01,0.12 0.04,0.16 0.02,0.05 0.06,0.09 0.11,0.11 0.04,0.03 0.09,0.04 0.15,0.04z"/>
   <path id="57" class="fil4" d="M39.2 19.52c0.12,0.03 0.18,0.1 0.18,0.22 0,0.08 -0.03,0.14 -0.09,0.18 -0.06,0.04 -0.15,0.07 -0.26,0.07l-0.43 0 0 -0.9 0.41 0c0.11,0 0.19,0.02 0.25,0.06 0.06,0.04 0.09,0.1 0.09,0.17 0,0.05 -0.02,0.09 -0.04,0.12 -0.03,0.04 -0.06,0.06 -0.11,0.08zm-0.45 -0.04l0.25 0c0.06,0 0.11,-0.01 0.14,-0.04 0.03,-0.02 0.05,-0.05 0.05,-0.09 0,-0.09 -0.07,-0.13 -0.19,-0.13l-0.25 0 0 0.26zm0.26 0.38c0.07,0 0.12,-0.01 0.16,-0.03 0.03,-0.02 0.05,-0.06 0.05,-0.1 0,-0.05 -0.02,-0.08 -0.05,-0.1 -0.03,-0.03 -0.08,-0.04 -0.15,-0.04l-0.27 0 0 0.27 0.26 0z"/>
   <polygon id="58" class="fil4" points="40.08,19.09 40.24,19.09 40.24,19.74 40.79,19.09 40.94,19.09 40.94,19.99 40.78,19.99 40.78,19.34 40.23,19.99 40.08,19.99 "/>
   <polygon id="59" class="fil4" points="41.25,19.09 41.41,19.09 41.41,19.47 41.92,19.47 41.92,19.09 42.08,19.09 42.08,19.99 41.92,19.99 41.92,19.61 41.41,19.61 41.41,19.99 41.25,19.99 "/>
   <path id="60" class="fil4" d="M42.78 20c-0.09,0 -0.17,-0.02 -0.24,-0.06 -0.07,-0.04 -0.13,-0.1 -0.17,-0.17 -0.04,-0.06 -0.06,-0.14 -0.06,-0.23 0,-0.09 0.02,-0.17 0.06,-0.24 0.04,-0.06 0.1,-0.12 0.17,-0.16 0.07,-0.04 0.15,-0.05 0.24,-0.05 0.09,0 0.16,0.01 0.22,0.04 0.06,0.04 0.11,0.08 0.15,0.15l-0.12 0.07c-0.03,-0.04 -0.07,-0.07 -0.11,-0.09 -0.04,-0.02 -0.09,-0.03 -0.14,-0.03 -0.06,0 -0.11,0.01 -0.15,0.04 -0.05,0.02 -0.09,0.06 -0.11,0.11 -0.03,0.04 -0.04,0.1 -0.04,0.16 0,0.06 0.01,0.12 0.04,0.17 0.02,0.04 0.06,0.08 0.11,0.11 0.04,0.02 0.09,0.03 0.15,0.03 0.05,0 0.1,-0.01 0.14,-0.03 0.04,-0.02 0.08,-0.05 0.11,-0.09l0.12 0.07c-0.04,0.07 -0.09,0.11 -0.15,0.15 -0.06,0.03 -0.13,0.05 -0.22,0.05z"/>
   <polygon id="61" class="fil4" points="44.01,19.23 43.68,19.23 43.68,19.99 43.52,19.99 43.52,19.23 43.2,19.23 43.2,19.09 44.01,19.09 "/>
   <path id="62" class="fil4" d="M44.65 19.09c0.08,0 0.16,0.01 0.23,0.05 0.07,0.04 0.12,0.09 0.16,0.16 0.04,0.07 0.06,0.15 0.06,0.24 0,0.09 -0.02,0.17 -0.06,0.24 -0.04,0.07 -0.09,0.12 -0.16,0.16 -0.07,0.04 -0.15,0.06 -0.23,0.06 -0.07,0 -0.13,-0.02 -0.18,-0.04 -0.05,-0.03 -0.1,-0.06 -0.13,-0.11l0 0.46 -0.17 0 0 -1.22 0.16 0 0 0.14c0.04,-0.04 0.08,-0.08 0.14,-0.11 0.05,-0.02 0.11,-0.03 0.18,-0.03zm-0.02 0.76c0.06,0 0.11,-0.01 0.16,-0.04 0.04,-0.02 0.08,-0.06 0.11,-0.11 0.02,-0.04 0.03,-0.1 0.03,-0.16 0,-0.06 -0.01,-0.12 -0.03,-0.16 -0.03,-0.05 -0.07,-0.09 -0.11,-0.11 -0.05,-0.03 -0.1,-0.04 -0.16,-0.04 -0.05,0 -0.1,0.01 -0.15,0.04 -0.04,0.02 -0.08,0.06 -0.11,0.11 -0.02,0.04 -0.04,0.1 -0.04,0.16 0,0.06 0.02,0.12 0.04,0.16 0.03,0.05 0.06,0.09 0.11,0.11 0.05,0.03 0.1,0.04 0.15,0.04z"/>
   <path id="63" class="fil4" d="M46.1 19.09l-0.43 0.98c-0.04,0.1 -0.08,0.16 -0.13,0.2 -0.05,0.03 -0.12,0.05 -0.19,0.05 -0.04,0 -0.08,-0.01 -0.12,-0.02 -0.05,-0.01 -0.08,-0.03 -0.11,-0.06l0.07 -0.12c0.05,0.04 0.1,0.06 0.16,0.06 0.04,0 0.07,-0.01 0.1,-0.03 0.03,-0.02 0.05,-0.05 0.07,-0.1l0.03 -0.07 -0.39 -0.89 0.17 0 0.31 0.72 0.3 -0.72 0.16 0z"/>
   <polygon id="64" class="fil4" points="46.61,19.61 46.43,19.61 46.43,19.99 46.27,19.99 46.27,19.09 46.43,19.09 46.43,19.47 46.62,19.47 46.91,19.09 47.08,19.09 46.74,19.52 47.1,19.99 46.91,19.99 "/>
   <polygon id="65" class="fil4" points="48.23,19.84 48.23,20.2 48.07,20.2 48.07,19.99 47.27,19.99 47.27,19.09 47.44,19.09 47.44,19.84 47.92,19.84 47.92,19.09 48.08,19.09 48.08,19.84 "/>
   <polygon id="66" class="fil4" points="48.43,19.09 48.6,19.09 48.6,19.74 49.14,19.09 49.29,19.09 49.29,19.99 49.13,19.99 49.13,19.34 48.58,19.99 48.43,19.99 "/>
   <path id="67" class="fil4" d="M49.6 19.09l0.16 0 0 0.65 0.55 -0.65 0.15 0 0 0.9 -0.16 0 0 -0.65 -0.55 0.65 -0.15 0 0 -0.9zm0.42 -0.11c-0.08,0 -0.15,-0.02 -0.19,-0.06 -0.05,-0.04 -0.07,-0.1 -0.07,-0.17l0.1 0c0.01,0.04 0.02,0.07 0.05,0.1 0.03,0.02 0.06,0.03 0.11,0.03 0.04,0 0.08,-0.01 0.11,-0.03 0.03,-0.03 0.04,-0.06 0.04,-0.1l0.12 0c-0.01,0.07 -0.03,0.13 -0.08,0.17 -0.04,0.04 -0.11,0.06 -0.19,0.06z"/>
   <polygon id="68" class="fil4" points="51.22,19.09 51.38,19.09 51.38,19.74 51.93,19.09 52.08,19.09 52.08,19.99 51.92,19.99 51.92,19.34 51.37,19.99 51.22,19.99 "/>
   <path id="69" class="fil4" d="M53.16 19.09l0 0.9 -0.17 0 0 -0.76 -0.38 0 -0.01 0.2c0,0.12 -0.02,0.22 -0.03,0.3 -0.02,0.08 -0.04,0.15 -0.08,0.2 -0.03,0.04 -0.08,0.07 -0.15,0.07 -0.03,0 -0.06,-0.01 -0.1,-0.02l0.01 -0.13c0.02,0 0.03,0 0.04,0 0.05,0 0.08,-0.02 0.1,-0.06 0.03,-0.04 0.04,-0.08 0.05,-0.14 0,-0.05 0.01,-0.13 0.02,-0.23l0.01 -0.33 0.69 0z"/>
   <polygon id="70" class="fil4" points="53.47,19.09 53.63,19.09 53.63,19.74 54.18,19.09 54.32,19.09 54.32,19.99 54.16,19.99 54.16,19.34 53.62,19.99 53.47,19.99 "/>
   <path id="71" class="fil4" d="M29.02 21.24c0.12,0 0.22,0.03 0.28,0.09 0.07,0.06 0.1,0.15 0.1,0.27l0 0.54 -0.15 0 0 -0.12c-0.03,0.04 -0.07,0.07 -0.12,0.1 -0.05,0.02 -0.1,0.03 -0.17,0.03 -0.1,0 -0.18,-0.03 -0.24,-0.07 -0.06,-0.05 -0.09,-0.12 -0.09,-0.19 0,-0.08 0.03,-0.15 0.08,-0.19 0.06,-0.05 0.15,-0.08 0.28,-0.08l0.25 0 0 -0.03c0,-0.07 -0.02,-0.12 -0.06,-0.16 -0.04,-0.03 -0.1,-0.05 -0.18,-0.05 -0.05,0 -0.1,0.01 -0.15,0.02 -0.05,0.02 -0.1,0.04 -0.13,0.07l-0.07 -0.12c0.05,-0.03 0.1,-0.06 0.17,-0.08 0.06,-0.02 0.13,-0.03 0.2,-0.03zm-0.04 0.78c0.07,0 0.12,-0.01 0.16,-0.04 0.05,-0.03 0.08,-0.06 0.1,-0.11l0 -0.13 -0.25 0c-0.13,0 -0.2,0.05 -0.2,0.14 0,0.04 0.01,0.08 0.05,0.1 0.03,0.03 0.08,0.04 0.14,0.04z"/>
   <polygon id="72" class="fil4" points="29.69,21.25 29.86,21.25 29.86,21.62 30.36,21.62 30.36,21.25 30.53,21.25 30.53,22.14 30.36,22.14 30.36,21.76 29.86,21.76 29.86,22.14 29.69,22.14 "/>
   <polygon id="73" class="fil4" points="30.84,21.25 31,21.25 31,21.9 31.55,21.25 31.69,21.25 31.69,22.14 31.53,22.14 31.53,21.49 30.99,22.14 30.84,22.14 "/>
   <polygon id="74" class="fil4" points="33.04,21.25 33.04,22.14 32.89,22.14 32.89,21.49 32.56,22.04 32.49,22.04 32.16,21.49 32.16,22.14 32.01,22.14 32.01,21.25 32.17,21.25 32.52,21.85 32.88,21.25 "/>
   <polygon id="75" class="fil4" points="33.35,21.25 33.51,21.25 33.51,21.9 34.06,21.25 34.2,21.25 34.2,22.14 34.04,22.14 34.04,21.49 33.5,22.14 33.35,22.14 "/>
   <path id="76" class="fil4" d="M34.99 21.24c0.09,0 0.16,0.02 0.23,0.05 0.07,0.04 0.12,0.1 0.16,0.16 0.04,0.07 0.06,0.15 0.06,0.24 0,0.09 -0.02,0.17 -0.06,0.24 -0.04,0.07 -0.09,0.12 -0.16,0.16 -0.07,0.04 -0.14,0.06 -0.23,0.06 -0.06,0 -0.12,-0.01 -0.18,-0.04 -0.05,-0.02 -0.09,-0.06 -0.13,-0.11l0 0.46 -0.16 0 0 -1.21 0.15 0 0 0.14c0.04,-0.05 0.08,-0.09 0.14,-0.11 0.05,-0.03 0.11,-0.04 0.18,-0.04zm-0.01 0.77c0.05,0 0.11,-0.02 0.15,-0.04 0.05,-0.03 0.08,-0.07 0.11,-0.11 0.03,-0.05 0.04,-0.11 0.04,-0.17 0,-0.06 -0.01,-0.11 -0.04,-0.16 -0.03,-0.05 -0.06,-0.09 -0.11,-0.11 -0.04,-0.03 -0.1,-0.04 -0.15,-0.04 -0.06,0 -0.11,0.01 -0.15,0.04 -0.05,0.02 -0.09,0.06 -0.11,0.11 -0.03,0.05 -0.04,0.1 -0.04,0.16 0,0.06 0.01,0.12 0.04,0.17 0.02,0.04 0.06,0.08 0.1,0.11 0.05,0.02 0.1,0.04 0.16,0.04z"/>
   <path id="77" class="fil4" d="M36.06 22.15c-0.09,0 -0.17,-0.02 -0.24,-0.06 -0.07,-0.04 -0.13,-0.09 -0.17,-0.16 -0.04,-0.07 -0.06,-0.15 -0.06,-0.24 0,-0.09 0.02,-0.16 0.06,-0.23 0.04,-0.07 0.1,-0.13 0.17,-0.16 0.07,-0.04 0.15,-0.06 0.24,-0.06 0.09,0 0.17,0.02 0.24,0.06 0.07,0.03 0.12,0.09 0.16,0.16 0.04,0.07 0.06,0.14 0.06,0.23 0,0.09 -0.02,0.17 -0.06,0.24 -0.04,0.07 -0.09,0.12 -0.16,0.16 -0.07,0.04 -0.15,0.06 -0.24,0.06zm0 -0.14c0.05,0 0.11,-0.02 0.15,-0.04 0.05,-0.03 0.08,-0.07 0.11,-0.11 0.02,-0.05 0.04,-0.11 0.04,-0.17 0,-0.06 -0.02,-0.11 -0.04,-0.16 -0.03,-0.05 -0.06,-0.09 -0.11,-0.11 -0.04,-0.03 -0.1,-0.04 -0.15,-0.04 -0.06,0 -0.11,0.01 -0.16,0.04 -0.04,0.02 -0.08,0.06 -0.1,0.11 -0.03,0.05 -0.04,0.1 -0.04,0.16 0,0.06 0.01,0.12 0.04,0.17 0.02,0.04 0.06,0.08 0.1,0.11 0.05,0.02 0.1,0.04 0.16,0.04z"/>
   <path id="78" class="fil4" d="M37.36 21.68c0.12,0.02 0.17,0.1 0.17,0.21 0,0.08 -0.02,0.14 -0.08,0.18 -0.06,0.05 -0.15,0.07 -0.27,0.07l-0.43 0 0 -0.89 0.42 0c0.1,0 0.19,0.02 0.25,0.06 0.05,0.04 0.08,0.09 0.08,0.16 0,0.05 -0.01,0.09 -0.03,0.13 -0.03,0.03 -0.06,0.06 -0.11,0.08zm-0.45 -0.05l0.24 0c0.07,0 0.11,-0.01 0.15,-0.03 0.03,-0.03 0.04,-0.06 0.04,-0.1 0,-0.09 -0.06,-0.13 -0.19,-0.13l-0.24 0 0 0.26zm0.26 0.38c0.07,0 0.12,-0.01 0.15,-0.03 0.04,-0.02 0.05,-0.05 0.05,-0.1 0,-0.04 -0.01,-0.08 -0.04,-0.1 -0.03,-0.02 -0.08,-0.03 -0.15,-0.03l-0.27 0 0 0.26 0.26 0z"/>
   <path id="79" class="fil4" d="M38.11 21.24c0.12,0 0.21,0.03 0.28,0.09 0.06,0.06 0.1,0.15 0.1,0.27l0 0.54 -0.16 0 0 -0.12c-0.02,0.04 -0.06,0.07 -0.11,0.1 -0.05,0.02 -0.11,0.03 -0.18,0.03 -0.1,0 -0.18,-0.03 -0.24,-0.07 -0.06,-0.05 -0.09,-0.12 -0.09,-0.19 0,-0.08 0.03,-0.15 0.09,-0.19 0.05,-0.05 0.15,-0.08 0.27,-0.08l0.26 0 0 -0.03c0,-0.07 -0.02,-0.12 -0.06,-0.16 -0.05,-0.03 -0.1,-0.05 -0.18,-0.05 -0.06,0 -0.11,0.01 -0.16,0.02 -0.05,0.02 -0.09,0.04 -0.13,0.07l-0.06 -0.12c0.04,-0.03 0.1,-0.06 0.16,-0.08 0.07,-0.02 0.13,-0.03 0.21,-0.03zm-0.04 0.78c0.06,0 0.11,-0.01 0.16,-0.04 0.04,-0.03 0.08,-0.06 0.1,-0.11l0 -0.13 -0.25 0c-0.14,0 -0.21,0.05 -0.21,0.14 0,0.04 0.02,0.08 0.05,0.1 0.04,0.03 0.09,0.04 0.15,0.04z"/>
   <polygon id="80" class="fil4" points="38.78,21.25 38.94,21.25 38.94,21.62 39.45,21.62 39.45,21.25 39.61,21.25 39.61,22.14 39.45,22.14 39.45,21.76 38.94,21.76 38.94,22.14 38.78,22.14 "/>
   <polygon id="81" class="fil4" points="39.92,21.25 40.09,21.25 40.09,21.62 40.59,21.62 40.59,21.25 40.76,21.25 40.76,22.14 40.59,22.14 40.59,21.76 40.09,21.76 40.09,22.14 39.92,22.14 "/>
   <path id="82" class="fil4" d="M41.47 21.55c0.11,0 0.2,0.03 0.26,0.08 0.06,0.05 0.09,0.12 0.09,0.21 0,0.1 -0.03,0.17 -0.1,0.22 -0.06,0.06 -0.15,0.08 -0.27,0.08l-0.38 0 0 -0.89 0.16 0 0 0.3 0.24 0zm0.48 -0.3l0.16 0 0 0.89 -0.16 0 0 -0.89zm-0.52 0.77c0.08,0 0.13,-0.02 0.17,-0.05 0.04,-0.03 0.06,-0.07 0.06,-0.13 0,-0.06 -0.02,-0.1 -0.06,-0.13 -0.04,-0.03 -0.09,-0.04 -0.17,-0.04l-0.2 0 0 0.34 0.2 0.01z"/>
   <polygon id="83" class="fil4" points="42.98,22.14 42.73,21.8 42.47,22.14 42.29,22.14 42.64,21.68 42.3,21.25 42.48,21.25 42.73,21.57 42.97,21.25 43.15,21.25 42.81,21.68 43.17,22.14 "/>
   <path id="84" class="fil4" d="M43.71 21.69l0.24 -0.32 0.15 0 -0.24 0.32 0.24 0.32 -0.15 0 -0.24 -0.32zm0.32 0l0.25 -0.32 0.15 0 -0.24 0.32 0.24 0.32 -0.15 0 -0.25 -0.32z"/>
   <polygon id="85" class="fil4" points="45.46,21.25 45.46,22.14 45.3,22.14 45.3,21.39 44.8,21.39 44.8,22.14 44.64,22.14 44.64,21.25 "/>
   <path id="86" class="fil4" d="M46.54 21.25l0 0.89 -0.16 0 0 -0.75 -0.38 0 -0.01 0.2c-0.01,0.12 -0.02,0.22 -0.03,0.3 -0.02,0.08 -0.05,0.14 -0.08,0.19 -0.04,0.05 -0.09,0.07 -0.15,0.07 -0.03,0 -0.06,0 -0.1,-0.01l0.01 -0.14c0.01,0 0.03,0 0.04,0 0.05,0 0.08,-0.01 0.1,-0.05 0.02,-0.04 0.04,-0.09 0.04,-0.14 0.01,-0.06 0.02,-0.13 0.02,-0.23l0.02 -0.33 0.68 0z"/>
   <path id="87" class="fil4" d="M47.17 21.24c0.13,0 0.22,0.03 0.29,0.09 0.06,0.06 0.1,0.15 0.1,0.27l0 0.54 -0.16 0 0 -0.12c-0.02,0.04 -0.06,0.07 -0.11,0.1 -0.05,0.02 -0.11,0.03 -0.18,0.03 -0.1,0 -0.18,-0.03 -0.24,-0.07 -0.06,-0.05 -0.09,-0.12 -0.09,-0.19 0,-0.08 0.03,-0.15 0.09,-0.19 0.05,-0.05 0.14,-0.08 0.27,-0.08l0.25 0 0 -0.03c0,-0.07 -0.02,-0.12 -0.06,-0.16 -0.04,-0.03 -0.1,-0.05 -0.17,-0.05 -0.06,0 -0.11,0.01 -0.16,0.02 -0.05,0.02 -0.09,0.04 -0.13,0.07l-0.06 -0.12c0.04,-0.03 0.1,-0.06 0.16,-0.08 0.06,-0.02 0.13,-0.03 0.2,-0.03zm-0.03 0.78c0.06,0 0.11,-0.01 0.16,-0.04 0.04,-0.03 0.07,-0.06 0.09,-0.11l0 -0.13 -0.24 0c-0.14,0 -0.21,0.05 -0.21,0.14 0,0.04 0.02,0.08 0.05,0.1 0.04,0.03 0.09,0.04 0.15,0.04z"/>
   <polygon id="88" class="fil4" points="49.12,21.25 49.12,22.14 47.85,22.14 47.85,21.25 48.01,21.25 48.01,22 48.4,22 48.4,21.25 48.56,21.25 48.56,22 48.96,22 48.96,21.25 "/>
   <path id="89" class="fil4" d="M50.24 21.7c0,0.01 0,0.03 -0.01,0.05l-0.72 0c0.01,0.07 0.04,0.14 0.1,0.19 0.06,0.04 0.14,0.07 0.22,0.07 0.11,0 0.2,-0.04 0.26,-0.11l0.09 0.1c-0.04,0.05 -0.09,0.09 -0.15,0.11 -0.06,0.03 -0.13,0.04 -0.2,0.04 -0.1,0 -0.18,-0.02 -0.25,-0.06 -0.08,-0.04 -0.13,-0.09 -0.17,-0.16 -0.04,-0.07 -0.06,-0.15 -0.06,-0.24 0,-0.08 0.02,-0.16 0.06,-0.23 0.04,-0.07 0.09,-0.13 0.16,-0.16 0.06,-0.04 0.14,-0.06 0.23,-0.06 0.08,0 0.16,0.02 0.22,0.06 0.07,0.03 0.12,0.09 0.16,0.16 0.04,0.07 0.06,0.15 0.06,0.24zm-0.44 -0.33c-0.08,0 -0.15,0.03 -0.2,0.07 -0.05,0.05 -0.08,0.11 -0.09,0.19l0.57 0c-0.01,-0.08 -0.04,-0.14 -0.09,-0.18 -0.05,-0.05 -0.12,-0.08 -0.19,-0.08z"/>
   <polygon id="90" class="fil4" points="50.83,21.76 50.65,21.76 50.65,22.14 50.49,22.14 50.49,21.25 50.65,21.25 50.65,21.62 50.84,21.62 51.13,21.25 51.3,21.25 50.96,21.68 51.32,22.14 51.13,22.14 "/>
   <path id="91" class="fil4" d="M51.39 22.01l0.24 -0.32 -0.24 -0.32 0.15 0 0.24 0.32 -0.24 0.32 -0.15 0zm0.33 0l0.23 -0.32 -0.23 -0.32 0.15 0 0.24 0.32 -0.24 0.32 -0.15 0z"/>
   <path id="92" class="fil4" d="M53.7 22l0 0.34 -0.15 0 0 -0.2 -0.75 0 0 0.2 -0.15 0 0 -0.34 0.05 0c0.06,-0.01 0.09,-0.05 0.12,-0.12 0.02,-0.08 0.03,-0.19 0.04,-0.33l0.01 -0.3 0.69 0 0 0.75 0.14 0zm-0.69 -0.44c-0.01,0.11 -0.02,0.2 -0.03,0.28 -0.01,0.07 -0.04,0.12 -0.08,0.16l0.5 0 0 -0.61 -0.38 0 -0.01 0.17z"/>
   <path id="93" class="fil4" d="M54.68 21.25l0 0.89 -0.16 0 0 -0.75 -0.39 0 -0.01 0.2c0,0.12 -0.01,0.22 -0.03,0.3 -0.02,0.08 -0.04,0.14 -0.08,0.19 -0.03,0.05 -0.08,0.07 -0.15,0.07 -0.03,0 -0.06,0 -0.1,-0.01l0.01 -0.14c0.02,0 0.03,0 0.04,0 0.05,0 0.08,-0.01 0.1,-0.05 0.03,-0.04 0.04,-0.09 0.05,-0.14 0.01,-0.06 0.01,-0.13 0.02,-0.23l0.01 -0.33 0.69 0z"/>
   <path id="94" class="fil4" d="M55.71 21.25l0 0.89 -0.15 0 0 -0.28 -0.26 0 -0.02 0 -0.19 0.28 -0.18 0 0.22 -0.31c-0.07,-0.02 -0.12,-0.05 -0.15,-0.1 -0.04,-0.04 -0.06,-0.1 -0.06,-0.17 0,-0.1 0.04,-0.18 0.11,-0.23 0.07,-0.06 0.16,-0.08 0.28,-0.08l0.4 0zm-0.62 0.31c0,0.06 0.02,0.11 0.05,0.14 0.04,0.02 0.1,0.04 0.17,0.04l0.25 0 0 -0.35 -0.24 0c-0.15,0 -0.23,0.06 -0.23,0.17z"/>
   <path id="95" class="fil4" d="M32.35 23.83c0.12,0.03 0.18,0.1 0.18,0.21 0,0.08 -0.03,0.14 -0.09,0.19 -0.06,0.04 -0.15,0.06 -0.27,0.06l-0.42 0 0 -0.89 0.41 0c0.1,0 0.19,0.02 0.25,0.06 0.06,0.04 0.09,0.09 0.09,0.17 0,0.04 -0.02,0.09 -0.04,0.12 -0.03,0.03 -0.06,0.06 -0.11,0.08zm-0.45 -0.05l0.25 0c0.06,0 0.1,-0.01 0.14,-0.03 0.03,-0.02 0.04,-0.06 0.04,-0.1 0,-0.08 -0.06,-0.13 -0.18,-0.13l-0.25 0 0 0.26zm0.26 0.39c0.07,0 0.12,-0.01 0.15,-0.04 0.04,-0.02 0.05,-0.05 0.05,-0.1 0,-0.04 -0.01,-0.08 -0.04,-0.1 -0.03,-0.02 -0.08,-0.03 -0.15,-0.03l-0.27 0 0 0.27 0.26 0z"/>
   <path id="96" class="fil4" d="M33.1 23.39c0.12,0 0.21,0.03 0.28,0.09 0.07,0.06 0.1,0.15 0.1,0.27l0 0.54 -0.16 0 0 -0.12c-0.02,0.04 -0.06,0.08 -0.11,0.1 -0.05,0.02 -0.11,0.03 -0.18,0.03 -0.1,0 -0.18,-0.02 -0.24,-0.07 -0.06,-0.05 -0.09,-0.11 -0.09,-0.19 0,-0.08 0.03,-0.14 0.09,-0.19 0.06,-0.05 0.15,-0.07 0.27,-0.07l0.26 0 0 -0.03c0,-0.07 -0.02,-0.13 -0.06,-0.16 -0.04,-0.04 -0.1,-0.06 -0.18,-0.06 -0.06,0 -0.11,0.01 -0.16,0.03 -0.05,0.01 -0.09,0.04 -0.13,0.07l-0.06 -0.13c0.04,-0.03 0.1,-0.06 0.16,-0.08 0.07,-0.02 0.13,-0.03 0.21,-0.03zm-0.04 0.79c0.06,0 0.11,-0.02 0.16,-0.05 0.04,-0.02 0.08,-0.06 0.1,-0.11l0 -0.13 -0.25 0c-0.14,0 -0.21,0.05 -0.21,0.14 0,0.05 0.02,0.08 0.05,0.11 0.04,0.02 0.09,0.04 0.15,0.04z"/>
   <polygon id="97" class="fil4" points="35.04,23.4 35.04,24.29 33.77,24.29 33.77,23.4 33.93,23.4 33.93,24.15 34.32,24.15 34.32,23.4 34.49,23.4 34.49,24.15 34.88,24.15 34.88,23.4 "/>
   <polygon id="98" class="fil4" points="35.35,23.4 35.51,23.4 35.51,24.05 36.06,23.4 36.21,23.4 36.21,24.29 36.05,24.29 36.05,23.64 35.5,24.29 35.35,24.29 "/>
   <polygon id="99" class="fil4" points="37.08,24.29 36.82,23.95 36.56,24.29 36.38,24.29 36.73,23.83 36.4,23.4 36.58,23.4 36.82,23.72 37.07,23.4 37.24,23.4 36.91,23.83 37.26,24.29 "/>
   <path id="100" class="fil4" d="M38.49 23.83c0.12,0.03 0.17,0.1 0.17,0.21 0,0.08 -0.03,0.14 -0.08,0.19 -0.06,0.04 -0.15,0.06 -0.27,0.06l-0.43 0 0 -0.89 0.42 0c0.1,0 0.18,0.02 0.24,0.06 0.06,0.04 0.09,0.09 0.09,0.17 0,0.04 -0.01,0.09 -0.03,0.12 -0.03,0.03 -0.06,0.06 -0.11,0.08zm-0.45 -0.05l0.24 0c0.07,0 0.11,-0.01 0.14,-0.03 0.04,-0.02 0.05,-0.06 0.05,-0.1 0,-0.08 -0.06,-0.13 -0.19,-0.13l-0.24 0 0 0.26zm0.26 0.39c0.07,0 0.12,-0.01 0.15,-0.04 0.04,-0.02 0.05,-0.05 0.05,-0.1 0,-0.04 -0.01,-0.08 -0.04,-0.1 -0.03,-0.02 -0.08,-0.03 -0.15,-0.03l-0.27 0 0 0.27 0.26 0z"/>
   <polygon id="101" class="fil4" points="38.92,23.4 39.08,23.4 39.08,24.05 39.62,23.4 39.77,23.4 39.77,24.29 39.61,24.29 39.61,23.64 39.06,24.29 38.92,24.29 "/>
   <path id="102" class="fil4" d="M40.99 24.15l0 0.35 -0.15 0 0 -0.21 -0.75 0 0 0.21 -0.15 0 0 -0.35 0.05 0c0.06,0 0.09,-0.04 0.12,-0.12 0.02,-0.08 0.03,-0.19 0.04,-0.33l0.01 -0.3 0.69 0 0 0.75 0.14 0zm-0.69 -0.44c-0.01,0.11 -0.02,0.21 -0.03,0.28 -0.01,0.07 -0.04,0.13 -0.08,0.16l0.5 0 0 -0.61 -0.38 0 -0.01 0.17z"/>
   <path id="103" class="fil4" d="M42.01 23.85c0,0.01 0,0.03 -0.01,0.05l-0.72 0c0.01,0.08 0.04,0.14 0.1,0.19 0.06,0.05 0.14,0.07 0.22,0.07 0.11,0 0.2,-0.04 0.26,-0.11l0.09 0.11c-0.04,0.04 -0.09,0.08 -0.15,0.1 -0.06,0.03 -0.13,0.04 -0.2,0.04 -0.1,0 -0.18,-0.02 -0.25,-0.06 -0.08,-0.04 -0.13,-0.09 -0.17,-0.16 -0.04,-0.07 -0.06,-0.15 -0.06,-0.24 0,-0.08 0.02,-0.16 0.06,-0.23 0.04,-0.07 0.09,-0.12 0.16,-0.16 0.06,-0.04 0.14,-0.06 0.23,-0.06 0.08,0 0.16,0.02 0.22,0.06 0.07,0.04 0.12,0.09 0.16,0.16 0.04,0.07 0.06,0.15 0.06,0.24zm-0.44 -0.32c-0.08,0 -0.15,0.02 -0.2,0.07 -0.05,0.04 -0.08,0.11 -0.09,0.18l0.57 0c-0.01,-0.07 -0.04,-0.13 -0.09,-0.18 -0.05,-0.05 -0.12,-0.07 -0.19,-0.07z"/>
   <path id="104" class="fil4" d="M42.64 24.3c-0.09,0 -0.17,-0.02 -0.24,-0.06 -0.07,-0.04 -0.13,-0.09 -0.16,-0.16 -0.04,-0.07 -0.06,-0.15 -0.06,-0.24 0,-0.08 0.02,-0.16 0.06,-0.23 0.03,-0.07 0.09,-0.12 0.16,-0.16 0.07,-0.04 0.15,-0.06 0.24,-0.06 0.09,0 0.17,0.02 0.24,0.06 0.07,0.04 0.12,0.09 0.16,0.16 0.04,0.07 0.06,0.15 0.06,0.23 0,0.09 -0.02,0.17 -0.06,0.24 -0.04,0.07 -0.09,0.12 -0.16,0.16 -0.07,0.04 -0.15,0.06 -0.24,0.06zm0 -0.14c0.06,0 0.11,-0.01 0.15,-0.04 0.05,-0.03 0.08,-0.06 0.11,-0.11 0.03,-0.05 0.04,-0.1 0.04,-0.17 0,-0.06 -0.01,-0.11 -0.04,-0.16 -0.03,-0.05 -0.06,-0.08 -0.11,-0.11 -0.04,-0.03 -0.09,-0.04 -0.15,-0.04 -0.06,0 -0.11,0.01 -0.15,0.04 -0.05,0.03 -0.09,0.06 -0.11,0.11 -0.03,0.05 -0.04,0.1 -0.04,0.16 0,0.07 0.01,0.12 0.04,0.17 0.02,0.05 0.06,0.08 0.11,0.11 0.04,0.03 0.09,0.04 0.15,0.04z"/>
   <polygon id="105" class="fil4" points="43.79,23.4 43.95,23.4 43.95,24.05 44.5,23.4 44.64,23.4 44.64,24.29 44.48,24.29 44.48,23.64 43.94,24.29 43.79,24.29 "/>
   <path id="106" class="fil4" d="M45.72 23.4l0 0.89 -0.16 0 0 -0.75 -0.38 0 -0.01 0.2c-0.01,0.12 -0.02,0.22 -0.03,0.3 -0.02,0.08 -0.05,0.14 -0.08,0.19 -0.04,0.05 -0.09,0.07 -0.15,0.07 -0.03,0 -0.06,0 -0.1,-0.01l0.01 -0.14c0.01,0.01 0.03,0.01 0.04,0.01 0.04,0 0.08,-0.02 0.1,-0.06 0.02,-0.04 0.04,-0.09 0.04,-0.14 0.01,-0.06 0.02,-0.13 0.02,-0.23l0.02 -0.33 0.68 0z"/>
   <polygon id="107" class="fil4" points="46.04,23.4 46.2,23.4 46.2,24.05 46.74,23.4 46.89,23.4 46.89,24.29 46.73,24.29 46.73,23.64 46.18,24.29 46.04,24.29 "/>
   <path id="108" class="fil4" d="M48.04 24.3c-0.09,0 -0.17,-0.02 -0.24,-0.06 -0.07,-0.04 -0.13,-0.09 -0.17,-0.16 -0.04,-0.07 -0.06,-0.15 -0.06,-0.24 0,-0.08 0.02,-0.16 0.06,-0.23 0.04,-0.07 0.1,-0.12 0.17,-0.16 0.07,-0.04 0.15,-0.06 0.24,-0.06 0.09,0 0.16,0.02 0.22,0.05 0.06,0.03 0.11,0.08 0.15,0.14l-0.13 0.08c-0.02,-0.04 -0.06,-0.08 -0.1,-0.1 -0.04,-0.02 -0.09,-0.03 -0.14,-0.03 -0.06,0 -0.11,0.01 -0.15,0.04 -0.05,0.03 -0.09,0.06 -0.11,0.11 -0.03,0.05 -0.04,0.1 -0.04,0.16 0,0.07 0.01,0.12 0.04,0.17 0.02,0.05 0.06,0.08 0.11,0.11 0.04,0.03 0.09,0.04 0.15,0.04 0.05,0 0.1,-0.01 0.14,-0.03 0.04,-0.02 0.08,-0.06 0.1,-0.1l0.13 0.08c-0.04,0.06 -0.09,0.11 -0.15,0.14 -0.06,0.03 -0.13,0.05 -0.22,0.05z"/>
   <path id="109" class="fil4" d="M48.93 23.39c0.13,0 0.22,0.03 0.29,0.09 0.06,0.06 0.1,0.15 0.1,0.27l0 0.54 -0.16 0 0 -0.12c-0.02,0.04 -0.06,0.08 -0.11,0.1 -0.05,0.02 -0.11,0.03 -0.18,0.03 -0.1,0 -0.18,-0.02 -0.24,-0.07 -0.06,-0.05 -0.09,-0.11 -0.09,-0.19 0,-0.08 0.03,-0.14 0.09,-0.19 0.05,-0.05 0.14,-0.07 0.27,-0.07l0.25 0 0 -0.03c0,-0.07 -0.02,-0.13 -0.06,-0.16 -0.04,-0.04 -0.1,-0.06 -0.17,-0.06 -0.06,0 -0.11,0.01 -0.16,0.03 -0.05,0.01 -0.09,0.04 -0.13,0.07l-0.06 -0.13c0.04,-0.03 0.1,-0.06 0.16,-0.08 0.06,-0.02 0.13,-0.03 0.2,-0.03zm-0.03 0.79c0.06,0 0.11,-0.02 0.16,-0.05 0.04,-0.02 0.07,-0.06 0.09,-0.11l0 -0.13 -0.24 0c-0.14,0 -0.21,0.05 -0.21,0.14 0,0.05 0.02,0.08 0.05,0.11 0.04,0.02 0.09,0.04 0.15,0.04z"/>
   <path id="110" class="fil4" d="M49.61 23.4l0.16 0 0 0.65 0.55 -0.65 0.14 0 0 0.89 -0.16 0 0 -0.65 -0.54 0.65 -0.15 0 0 -0.89zm0.41 -0.12c-0.08,0 -0.14,-0.02 -0.19,-0.06 -0.04,-0.04 -0.07,-0.09 -0.07,-0.17l0.11 0c0,0.04 0.02,0.08 0.04,0.1 0.03,0.03 0.07,0.04 0.11,0.04 0.05,0 0.09,-0.01 0.11,-0.04 0.03,-0.02 0.05,-0.06 0.05,-0.1l0.11 0c0,0.08 -0.02,0.13 -0.07,0.17 -0.05,0.04 -0.11,0.06 -0.2,0.06z"/>
   <polygon id="111" class="fil4" points="51.44,23.54 51.11,23.54 51.11,24.29 50.95,24.29 50.95,23.54 50.63,23.54 50.63,23.4 51.44,23.4 "/>
   <path id="112" class="fil4" d="M51.92 23.39c0.13,0 0.22,0.03 0.29,0.09 0.06,0.06 0.09,0.15 0.09,0.27l0 0.54 -0.15 0 0 -0.12c-0.03,0.04 -0.06,0.08 -0.11,0.1 -0.05,0.02 -0.11,0.03 -0.18,0.03 -0.1,0 -0.18,-0.02 -0.24,-0.07 -0.06,-0.05 -0.09,-0.11 -0.09,-0.19 0,-0.08 0.03,-0.14 0.08,-0.19 0.06,-0.05 0.15,-0.07 0.28,-0.07l0.25 0 0 -0.03c0,-0.07 -0.02,-0.13 -0.06,-0.16 -0.04,-0.04 -0.1,-0.06 -0.18,-0.06 -0.05,0 -0.1,0.01 -0.15,0.03 -0.05,0.01 -0.09,0.04 -0.13,0.07l-0.07 -0.13c0.05,-0.03 0.11,-0.06 0.17,-0.08 0.06,-0.02 0.13,-0.03 0.2,-0.03zm-0.03 0.79c0.06,0 0.11,-0.02 0.16,-0.05 0.04,-0.02 0.07,-0.06 0.09,-0.11l0 -0.13 -0.25 0c-0.13,0 -0.2,0.05 -0.2,0.14 0,0.05 0.02,0.08 0.05,0.11 0.04,0.02 0.08,0.04 0.15,0.04z"/>
   <path id="113" class="fil4" d="M52.63 24.3c-0.03,0 -0.06,-0.01 -0.08,-0.03 -0.02,-0.02 -0.03,-0.05 -0.03,-0.09 0,-0.03 0.01,-0.06 0.03,-0.08 0.02,-0.02 0.05,-0.03 0.08,-0.03 0.03,0 0.06,0.01 0.08,0.03 0.02,0.02 0.03,0.05 0.03,0.08 0,0.04 -0.01,0.07 -0.03,0.09 -0.02,0.02 -0.05,0.03 -0.08,0.03z"/>
  </g>
 </g>
</svg>
