<?xml version="1.0" encoding="UTF-8"?>
<!DOCTYPE svg PUBLIC "-//W3C//DTD SVG 1.1//EN" "http://www.w3.org/Graphics/SVG/1.1/DTD/svg11.dtd">
<!-- Creator: CorelDRAW 2017 -->
<svg xmlns="http://www.w3.org/2000/svg" xml:space="preserve" width="825px" height="536px" version="1.1" style="shape-rendering:geometricPrecision; text-rendering:geometricPrecision; image-rendering:optimizeQuality; fill-rule:evenodd; clip-rule:evenodd"
viewBox="0 0 33.29 21.63"
 xmlns:xlink="http://www.w3.org/1999/xlink">
 <defs>
  <style type="text/css">
   <![CDATA[
    .fil2 {fill:none}
    .fil0 {fill:#FFCCCC}
    .fil1 {fill:white;fill-opacity:0.501961}
   ]]>
  </style>
   <clipPath id="id0">
    <path d="M33.29 0l-33.29 0 0 21.63 33.29 0 0 -21.63z"/>
   </clipPath>
 </defs>
 <g id="Слой_x0020_1">
  <metadata id="CorelCorpID_0Corel-Layer"/>
  <polygon class="fil0" points="33.29,0 0,0 0,21.63 33.29,21.63 "/>
  <g style="clip-path:url(#id0)">
   <g id="_2227184913520">
    <path id="1" class="fil1" d="M24.34 5.76c-5.42,0 -9.82,4.39 -9.82,9.82 0,3.3 1.63,6.23 4.14,8.01l1.38 -0.8c-0.6,-0.36 -1.15,-0.79 -1.64,-1.28 -1.52,-1.52 -2.46,-3.62 -2.46,-5.93 0,-2.32 0.94,-4.42 2.46,-5.94 1.52,-1.52 3.62,-2.46 5.94,-2.46l0 2.03 4.28 -2.47c-1.33,-0.65 -2.79,-0.98 -4.28,-0.98zm5.93 15.75c-1.51,1.52 -3.61,2.46 -5.93,2.46l0 -2.01 -4.27 2.46c1.29,0.62 2.74,0.97 4.27,0.97 5.42,0 9.82,-4.39 9.82,-9.81 0,-3.31 -1.63,-6.23 -4.13,-8.01l-1.38 0.8c0.59,0.36 1.14,0.78 1.62,1.27 1.52,1.52 2.46,3.62 2.46,5.94 0,2.31 -0.94,4.41 -2.46,5.93zm-8.5 -10.38l0 8.9 7.71 -4.45 -7.71 -4.45z"/>
   </g>
  </g>
  <polygon class="fil2" points="33.29,0 0,0 0,21.63 33.29,21.63 "/>
 </g>
</svg>
