<?xml version="1.0" encoding="UTF-8"?>
<!DOCTYPE svg PUBLIC "-//W3C//DTD SVG 1.1//EN" "http://www.w3.org/Graphics/SVG/1.1/DTD/svg11.dtd">
<!-- Creator: CorelDRAW 2017 -->
<svg xmlns="http://www.w3.org/2000/svg" xml:space="preserve" width="4.4833mm" height="5.08mm" version="1.1" shape-rendering="geometricPrecision" text-rendering="geometricPrecision" image-rendering="optimizeQuality" fill-rule="evenodd" clip-rule="evenodd"
viewBox="0 0 1139 1291"
 xmlns:xlink="http://www.w3.org/1999/xlink">
 <g id="Слой_x0020_1">
  <metadata id="CorelCorpID_0Corel-Layer"/>
  <g id="_2227188911104">
   <rect fill="none" width="1139" height="1291"/>
   <path fill="#FE4080" d="M289 644c0,78 31,148 82,199 1,1 3,3 4,4 31,-63 79,-117 137,-156 28,-19 59,-34 92,-46 -2,-6 -5,-12 -7,-18 -2,-6 -5,-12 -8,-18 -46,18 -95,28 -147,28 -31,0 -61,-4 -90,-10 -21,-5 -41,-11 -61,-19 -1,12 -2,24 -2,36zm365 268c0,-80 -13,-156 -36,-228 -30,10 -57,24 -83,41 -55,37 -99,88 -127,148 46,32 101,51 162,51 29,0 58,-5 84,-13zm147 -242c-21,-4 -42,-6 -65,-6 -27,0 -53,3 -78,8 23,70 36,145 37,222 27,-14 52,-31 73,-53 42,-42 71,-98 80,-161 -15,-5 -31,-9 -47,-12zm-22 -214c-34,52 -80,95 -134,127 -6,3 -12,7 -18,10 3,6 5,12 8,19 3,7 6,15 9,23 30,-7 60,-11 92,-11 24,0 48,2 72,7 14,3 29,6 42,10 -1,-71 -28,-135 -72,-184zm-294 -80c50,53 92,113 125,179 5,-3 10,-5 15,-8 50,-29 93,-71 124,-120 -49,-40 -111,-64 -178,-64 -30,0 -59,5 -86,13zm-123 210c26,6 53,9 81,9 46,0 89,-8 129,-24 -34,-66 -77,-126 -128,-179 -27,14 -51,31 -72,52 -33,33 -58,75 -72,121 20,8 40,15 61,20z"/>
  </g>
 </g>
</svg>
