<?xml version="1.0" encoding="UTF-8"?>
<!DOCTYPE svg PUBLIC "-//W3C//DTD SVG 1.1//EN" "http://www.w3.org/Graphics/SVG/1.1/DTD/svg11.dtd">
<!-- Creator: CorelDRAW 2017 -->
<svg xmlns="http://www.w3.org/2000/svg" xml:space="preserve" width="4.4833mm" height="5.08mm" version="1.1" shape-rendering="geometricPrecision" text-rendering="geometricPrecision" image-rendering="optimizeQuality" fill-rule="evenodd" clip-rule="evenodd"
viewBox="0 0 1130 1281"
 xmlns:xlink="http://www.w3.org/1999/xlink">
 <g id="Слой_x0020_1">
  <metadata id="CorelCorpID_0Corel-Layer"/>
  <g id="_2227308997472">
   <path fill="white" d="M286 639c0,77 31,147 82,197 1,1 3,3 4,4 31,-63 78,-116 136,-155 28,-19 59,-34 91,-45 -2,-6 -5,-12 -7,-18 -2,-6 -5,-12 -8,-17 -45,18 -95,28 -146,28 -31,0 -61,-4 -90,-10 -21,-5 -41,-11 -60,-19 -1,12 -2,24 -2,36zm363 266c0,-79 -13,-155 -36,-226 -29,10 -57,24 -82,41 -54,36 -98,87 -126,147 45,32 101,51 160,51 29,0 57,-4 84,-13zm146 -240c-21,-4 -42,-6 -64,-6 -27,0 -53,3 -78,8 22,70 35,144 37,221 27,-13 51,-31 72,-52 42,-42 71,-97 79,-159 -15,-5 -31,-9 -47,-12zm-22 -213c-34,51 -79,95 -133,126 -6,3 -12,7 -17,10 3,6 5,12 8,19 3,7 6,15 9,22 29,-7 60,-10 91,-10 24,0 48,2 72,6 14,3 28,6 42,10 -1,-70 -28,-134 -72,-182zm-292 -79c49,53 91,112 124,177 5,-3 10,-5 15,-8 50,-29 92,-70 123,-119 -48,-40 -110,-63 -177,-63 -30,0 -58,5 -85,13zm-122 209c26,6 53,9 80,9 45,0 89,-8 128,-24 -34,-65 -77,-125 -127,-177 -27,13 -51,31 -71,52 -33,33 -58,74 -71,120 19,8 40,15 61,20z"/>
   <rect fill="none" width="1130" height="1281"/>
  </g>
 </g>
</svg>
