<?xml version="1.0" encoding="UTF-8"?>
<!DOCTYPE svg PUBLIC "-//W3C//DTD SVG 1.1//EN" "http://www.w3.org/Graphics/SVG/1.1/DTD/svg11.dtd">
<!-- Creator: CorelDRAW 2017 -->
<svg xmlns="http://www.w3.org/2000/svg" xml:space="preserve" width="4.4833mm" height="5.08mm" version="1.1" shape-rendering="geometricPrecision" text-rendering="geometricPrecision" image-rendering="optimizeQuality" fill-rule="evenodd" clip-rule="evenodd"
viewBox="0 0 1130 1281"
 xmlns:xlink="http://www.w3.org/1999/xlink">
 <g id="Слой_x0020_1">
  <metadata id="CorelCorpID_0Corel-Layer"/>
  <g id="_2227170249520">
   <path fill="white" d="M588 687c12,-6 22,-16 27,-30l0 0c5,-14 4,-28 -2,-41 -6,-12 -16,-22 -30,-27l0 0c-14,-5 -28,-4 -41,2 -12,6 -22,16 -27,30l0 0c-5,14 -4,28 2,41 6,12 16,22 30,27 14,5 28,4 41,-2zm35 37c-4,3 -9,6 -14,8 -24,11 -52,14 -79,5 -27,-9 -48,-29 -59,-53 -11,-23 -14,-50 -5,-77 0,-1 1,-3 1,-4 10,-26 29,-46 52,-57 23,-11 50,-14 77,-5 1,0 3,1 4,1 26,10 46,29 57,52 11,23 14,50 5,77 0,1 -1,2 -1,3 -2,7 -1,13 2,19 3,6 8,11 15,14 7,2 14,2 21,-1 6,-3 11,-8 14,-15 0,-1 1,-2 1,-3 13,-40 9,-82 -8,-118 -18,-36 -49,-66 -90,-80 -41,-14 -84,-10 -120,7 -36,18 -66,49 -80,90 -14,41 -10,84 7,120 18,36 49,66 90,80 8,3 17,5 25,6 8,1 17,2 26,2 14,0 25,11 25,25 0,14 -11,25 -25,25 -11,0 -23,-1 -34,-3 -11,-2 -22,-5 -34,-9 -54,-19 -96,-58 -119,-105 -23,-48 -28,-104 -9,-158 19,-54 58,-96 105,-119 48,-23 104,-28 158,-9 54,19 96,58 119,105 23,48 28,104 9,158 0,1 -1,2 -1,3 -7,19 -21,33 -38,41 -18,9 -39,10 -59,3 -17,-6 -30,-17 -39,-30zm-59 194c154,0 280,-125 280,-280 0,-154 -125,-280 -280,-280 -154,0 -280,125 -280,280 0,154 125,280 280,280z"/>
   <rect fill="none" width="1130" height="1281"/>
  </g>
 </g>
</svg>
