<?xml version="1.0" encoding="UTF-8"?>
<!DOCTYPE svg PUBLIC "-//W3C//DTD SVG 1.1//EN" "http://www.w3.org/Graphics/SVG/1.1/DTD/svg11.dtd">
<!-- Creator: CorelDRAW 2017 -->
<svg xmlns="http://www.w3.org/2000/svg" xml:space="preserve" width="4.4833mm" height="5.08mm" version="1.1" shape-rendering="geometricPrecision" text-rendering="geometricPrecision" image-rendering="optimizeQuality" fill-rule="evenodd" clip-rule="evenodd"
viewBox="0 0 1139 1291"
 xmlns:xlink="http://www.w3.org/1999/xlink">
 <g id="Слой_x0020_1">
  <metadata id="CorelCorpID_0Corel-Layer"/>
  <g id="_2227170249168">
   <rect fill="none" width="1139" height="1291"/>
   <path fill="red" d="M661 877c42,-1 94,-3 135,-8 32,-4 57,-12 77,-39 16,-23 19,-61 22,-89 6,-61 9,-235 -20,-278 -23,-35 -57,-40 -96,-44 -95,-9 -195,-8 -291,-7 -47,0 -165,2 -201,25 -20,13 -32,32 -37,55 -15,69 -20,258 5,322 23,55 86,56 137,60 89,7 180,5 269,4zm10 -235l-84 48 -84 48 0 -97 0 -97 84 48 84 48z"/>
  </g>
 </g>
</svg>
