<?xml version="1.0" encoding="UTF-8"?>
<!DOCTYPE svg PUBLIC "-//W3C//DTD SVG 1.1//EN" "http://www.w3.org/Graphics/SVG/1.1/DTD/svg11.dtd">
<!-- Creator: CorelDRAW 2017 -->
<svg xmlns="http://www.w3.org/2000/svg" xml:space="preserve" width="4.4026mm" height="4.4357mm" version="1.1" shape-rendering="geometricPrecision" text-rendering="geometricPrecision" image-rendering="optimizeQuality" fill-rule="evenodd" clip-rule="evenodd"
viewBox="0 0 1188 1197"
 xmlns:xlink="http://www.w3.org/1999/xlink">
 <g id="Слой_x0020_1">
  <metadata id="CorelCorpID_0Corel-Layer"/>
  <g id="_2227182942432">
   <rect fill="none" width="1188" height="1197"/>
   <path fill="#FFCCCC" d="M594 225c-206,0 -374,167 -374,374 0,126 62,237 158,305l53 -30c-23,-14 -44,-30 -62,-49 -58,-58 -94,-138 -94,-226 0,-88 36,-168 94,-226 58,-58 138,-94 226,-94l0 77 163 -94c-51,-25 -106,-37 -163,-37zm226 600c-58,58 -138,94 -226,94l0 -77 -162 94c49,24 104,37 162,37 206,0 374,-167 374,-374 0,-126 -62,-237 -157,-305l-53 30c23,14 43,30 62,48 58,58 94,138 94,226 0,88 -36,168 -94,226zm-324 -395l0 339 293 -169 -293 -169z"/>
  </g>
 </g>
</svg>
