<?xml version="1.0" encoding="UTF-8"?>
<!DOCTYPE svg PUBLIC "-//W3C//DTD SVG 1.1//EN" "http://www.w3.org/Graphics/SVG/1.1/DTD/svg11.dtd">
<!-- Creator: CorelDRAW 2017 -->
<svg xmlns="http://www.w3.org/2000/svg" xml:space="preserve" width="4.4026mm" height="4.4357mm" version="1.1" shape-rendering="geometricPrecision" text-rendering="geometricPrecision" image-rendering="optimizeQuality" fill-rule="evenodd" clip-rule="evenodd"
viewBox="0 0 1188 1197"
 xmlns:xlink="http://www.w3.org/1999/xlink">
 <g id="Слой_x0020_1">
  <metadata id="CorelCorpID_0Corel-Layer"/>
  <g id="_2227183005216">
   <rect fill="none" width="1188" height="1197"/>
   <path fill="#99CCCC" d="M255 260l677 0 0 677 -677 0 0 -677zm406 149l163 0 0 163 -163 0 0 -163zm-298 108l244 0 0 54 -244 0 0 -54zm0 217l461 0 0 54 -461 0 0 -54zm0 -108l461 0 0 54 -461 0 0 -54zm0 -217l244 0 0 54 -244 0 0 -54zm515 -95l-569 0 0 569 569 0 0 -569z"/>
  </g>
 </g>
</svg>
