<?xml version="1.0" encoding="UTF-8"?>
<!DOCTYPE svg PUBLIC "-//W3C//DTD SVG 1.1//EN" "http://www.w3.org/Graphics/SVG/1.1/DTD/svg11.dtd">
<!-- Creator: CorelDRAW 2017 -->
<svg xmlns="http://www.w3.org/2000/svg" xml:space="preserve" width="4.4026mm" height="4.4357mm" version="1.1" shape-rendering="geometricPrecision" text-rendering="geometricPrecision" image-rendering="optimizeQuality" fill-rule="evenodd" clip-rule="evenodd"
viewBox="0 0 1188 1197"
 xmlns:xlink="http://www.w3.org/1999/xlink">
 <g id="Слой_x0020_1">
  <metadata id="CorelCorpID_0Corel-Layer"/>
  <g id="_2227167764080">
   <rect fill="none" width="1188" height="1197"/>
   <path fill="#FFCC99" fill-rule="nonzero" d="M607 200l162 94 0 0 176 101 0 406 -176 101 0 0 -176 101 -176 -101 0 0 -176 -101 0 -406 351 -203 14 8zm97 537l-110 -64 -110 64 0 86 17 10 18 -10 0 -49 58 33 0 69 17 10 18 -10 0 -69 58 -33 0 49 18 10 17 -10 0 -86zm-7 -111l0 -244 99 57 0 244 95 55 0 -312 -149 -86 0 0 -122 -70 0 312 76 44zm-198 -96l0 -62 -52 30 0 62 52 -30zm0 -141l-52 30 0 62 52 -30 0 -62zm-65 178l0 -62 -52 30 0 62 52 -30zm0 -141l-52 30 0 62 52 -30 0 -62zm430 358l-270 -156 -270 156 122 70 0 0 149 86 149 -86 0 0 122 -70zm-568 -47l270 -156 0 -312 -270 156 0 312z"/>
  </g>
 </g>
</svg>
