<?xml version="1.0" encoding="UTF-8"?>
<!DOCTYPE svg PUBLIC "-//W3C//DTD SVG 1.1//EN" "http://www.w3.org/Graphics/SVG/1.1/DTD/svg11.dtd">
<!-- Creator: CorelDRAW 2017 -->
<svg xmlns="http://www.w3.org/2000/svg" xml:space="preserve" width="4.4026mm" height="4.4357mm" version="1.1" shape-rendering="geometricPrecision" text-rendering="geometricPrecision" image-rendering="optimizeQuality" fill-rule="evenodd" clip-rule="evenodd"
viewBox="0 0 1176 1184"
 xmlns:xlink="http://www.w3.org/1999/xlink">
 <g id="Слой_x0020_1">
  <metadata id="CorelCorpID_0Corel-Layer"/>
  <g id="_2227204499248">
   <path fill="white" fill-rule="nonzero" d="M601 198l161 93 0 0 174 100 0 402 -174 100 0 0 -174 100 -174 -100 0 0 -174 -100 0 -402 348 -201 13 8zm96 532l-109 -63 -109 63 0 85 17 10 17 -10 0 -49 57 33 0 69 17 10 17 -10 0 -69 57 -33 0 49 17 10 17 -10 0 -85zm-7 -110l0 -241 98 57 0 241 94 54 0 -309 -147 -85 0 0 -120 -70 0 309 75 43zm-196 -95l0 -62 -51 30 0 62 51 -30zm0 -139l-51 30 0 62 51 -30 0 -62zm-64 176l0 -62 -51 30 0 62 51 -30zm0 -139l-51 30 0 62 51 -30 0 -62zm425 354l-268 -155 -268 155 120 70 0 0 147 85 147 -85 0 0 120 -70zm-562 -46l267 -154 0 -309 -267 154 0 309z"/>
   <rect fill="none" width="1176" height="1184"/>
  </g>
 </g>
</svg>
