<?xml version="1.0" encoding="UTF-8"?>
<!DOCTYPE svg PUBLIC "-//W3C//DTD SVG 1.1//EN" "http://www.w3.org/Graphics/SVG/1.1/DTD/svg11.dtd">
<!-- Creator: CorelDRAW 2017 -->
<svg xmlns="http://www.w3.org/2000/svg" xml:space="preserve" width="45.7905mm" height="6.1629mm" version="1.1" shape-rendering="geometricPrecision" text-rendering="geometricPrecision" image-rendering="optimizeQuality" fill-rule="evenodd" clip-rule="evenodd"
viewBox="0 0 118845 15995"
 xmlns:xlink="http://www.w3.org/1999/xlink">
 <g id="Слой_x0020_1">
  <metadata id="CorelCorpID_0Corel-Layer"/>
  <g id="_2227203053584">
   <path fill="black" fill-rule="nonzero" d="M79368 1931l1443 0 0 6234 -1443 0 0 -6234zm11793 1176l0 5059 1443 0 0 -5059 1995 0 0 -1176 -5433 0 0 1176 1995 0zm-60418 0l0 5059 1443 0 0 -5059 1995 0 0 -1176 -5433 0 0 1176 1995 0zm-13886 0l1175 0c434,0 763,93 989,281 226,187 338,456 338,806 0,344 -113,612 -338,802 -226,190 -555,285 -989,285l-645 0c667,962 1332,1924 1999,2886l1550 0 -1398 -2004c410,-178 726,-435 948,-770 223,-336 334,-735 334,-1198 0,-463 -110,-864 -329,-1202 -220,-338 -533,-600 -940,-784 -407,-184 -886,-276 -1438,-276l-2698 0 0 6234 1443 0c0,-1686 0,-3372 0,-5059zm-13183 241c668,1605 1331,3212 1995,4818l1514 0 -2788 -6234 -1425 0 -2779 6234c493,0 986,0 1479,0 663,-1604 1330,-3208 2004,-4818zm49087 4925c-891,0 -1584,-247 -2080,-739 -496,-493 -744,-1196 -744,-2111l0 -3491 1443 0 0 3438c0,1116 463,1674 1390,1674 451,0 795,-135 1033,-405 237,-270 356,-693 356,-1269l0 -3438 1425 0 0 3491c0,914 -248,1618 -744,2111 -496,493 -1189,739 -2080,739zm17547 -6341l0 6234 -1185 0 -3108 -3785 0 3785 -1425 0 0 -6234 1193 0 3099 3785 0 -3785 1425 0z"/>
   <path fill="black" fill-rule="nonzero" d="M1044 15104c-201,0 -381,-43 -539,-131 -158,-87 -282,-207 -371,-360 -89,-153 -134,-326 -134,-520 0,-194 45,-367 134,-520 90,-153 213,-272 371,-358 158,-86 337,-129 539,-129 179,0 339,36 479,108 140,72 249,176 326,313l-272 175c-62,-94 -139,-165 -231,-213 -92,-47 -194,-71 -306,-71 -129,0 -246,29 -349,86 -103,57 -184,139 -242,244 -59,106 -88,227 -88,363 0,139 29,262 88,368 58,106 139,187 242,244 103,57 220,86 349,86 112,0 214,-24 306,-71 92,-47 169,-118 231,-213l272 172c-77,137 -186,242 -326,315 -141,73 -300,110 -479,110z"/>
   <path id="1" fill="black" fill-rule="nonzero" d="M3815 15104c-196,0 -373,-43 -529,-131 -157,-87 -279,-207 -368,-360 -88,-153 -132,-326 -132,-520 0,-194 44,-367 132,-520 88,-153 211,-272 368,-358 157,-86 333,-129 529,-129 196,0 372,43 528,129 155,86 277,205 365,358 88,153 132,326 132,520 0,194 -44,368 -132,520 -88,153 -210,273 -365,360 -155,87 -331,131 -528,131zm0 -313c127,0 240,-29 341,-87 101,-58 180,-141 237,-246 57,-106 86,-227 86,-364 0,-137 -29,-258 -86,-363 -57,-106 -136,-187 -237,-244 -101,-57 -214,-86 -341,-86 -127,0 -241,29 -341,86 -101,57 -180,139 -239,244 -59,106 -88,227 -88,363 0,137 29,258 88,364 58,106 138,188 239,246 101,58 214,87 341,87z"/>
   <path id="2" fill="black" fill-rule="nonzero" d="M7093 14052c132,35 234,91 306,168 72,77 108,173 108,287 0,117 -40,221 -119,311 -80,91 -189,162 -330,213 -140,51 -298,77 -472,77 -147,0 -290,-19 -431,-58 -140,-39 -265,-94 -375,-166l108 -272c94,60 203,106 324,140 122,34 245,50 369,50 169,0 304,-29 405,-87 101,-58 151,-137 151,-237 0,-92 -40,-163 -121,-213 -81,-50 -194,-74 -341,-74l-362 0 0 -257 336 0c134,0 240,-24 317,-71 77,-47 116,-112 116,-194 0,-90 -45,-159 -136,-209 -91,-50 -213,-74 -367,-74 -196,0 -404,51 -623,153l-97 -276c241,-122 493,-183 757,-183 159,0 302,23 429,67 127,45 226,108 298,190 72,82 108,175 108,280 0,97 -32,184 -97,261 -65,77 -152,135 -261,175z"/>
   <path id="3" fill="black" fill-rule="nonzero" d="M10748 14768l0 772 -336 0 0 -459 -1652 0 0 459 -339 0 0 -772 104 0c127,-8 214,-97 261,-268 47,-172 80,-414 97,-727l30 -668 1533 0 0 1663 302 0zm-1536 -970c-10,249 -30,454 -62,617 -31,163 -88,280 -170,352l1107 0 0 -1350 -858 0 -19 380z"/>
   <path id="4" fill="black" fill-rule="nonzero" d="M12606 13087c273,0 483,67 628,201 145,134 218,334 218,600l0 1193 -339 0 0 -261c-60,92 -145,162 -255,211 -111,49 -242,73 -393,73 -221,0 -398,-53 -532,-160 -133,-107 -199,-247 -199,-421 0,-174 63,-314 190,-420 127,-106 328,-158 604,-158l567 0 0 -71c0,-154 -45,-272 -134,-354 -90,-82 -221,-123 -395,-123 -117,0 -231,19 -343,58 -112,39 -206,90 -283,155l-149 -269c102,-82 224,-145 365,-188 142,-44 292,-65 451,-65zm-82 1742c137,0 255,-30 354,-91 99,-61 172,-147 216,-259l0 -276 -552 0c-303,0 -455,102 -455,306 0,99 38,178 115,235 77,57 184,86 321,86z"/>
   <path id="5" fill="black" fill-rule="nonzero" d="M14784 13105l358 0 0 839 1126 0 0 -839 358 0 0 1976 -358 0 0 -828 -1126 0 0 828 -358 0 0 -1976z"/>
   <path id="6" fill="black" fill-rule="nonzero" d="M18010 13105l358 0 0 1439 1212 -1439 324 0 0 1976 -358 0 0 -1439 -1208 1439 -328 0 0 -1976z"/>
   <path id="7" fill="black" fill-rule="nonzero" d="M23070 14105c0,27 -2,63 -7,108l-1603 0c22,174 99,314 229,420 131,106 293,158 487,158 236,0 426,-79 570,-239l198 231c-90,104 -201,184 -334,239 -133,55 -282,82 -446,82 -209,0 -394,-43 -556,-128 -161,-86 -287,-206 -375,-360 -88,-154 -132,-328 -132,-522 0,-191 43,-364 129,-518 86,-154 204,-274 354,-360 150,-86 320,-129 509,-129 189,0 357,43 505,129 148,86 263,206 347,360 83,154 125,331 125,530zm-977 -716c-172,0 -315,52 -431,157 -116,105 -183,241 -203,410l1268 0c-20,-167 -88,-303 -203,-408 -116,-106 -259,-159 -431,-159z"/>
   <path id="8" fill="black" fill-rule="nonzero" d="M25316 13105l358 0 0 839 1126 0 0 -839 358 0 0 1976 -358 0 0 -828 -1126 0 0 828 -358 0 0 -1976z"/>
   <path id="9" fill="black" fill-rule="nonzero" d="M29388 15104c-196,0 -373,-43 -529,-131 -157,-87 -279,-207 -368,-360 -88,-153 -132,-326 -132,-520 0,-194 44,-367 132,-520 88,-153 211,-272 368,-358 157,-86 333,-129 529,-129 196,0 372,43 528,129 155,86 277,205 365,358 88,153 132,326 132,520 0,194 -44,368 -132,520 -88,153 -210,273 -365,360 -155,87 -331,131 -528,131zm0 -313c127,0 240,-29 341,-87 101,-58 180,-141 237,-246 57,-106 86,-227 86,-364 0,-137 -29,-258 -86,-363 -57,-106 -136,-187 -237,-244 -101,-57 -214,-86 -341,-86 -127,0 -241,29 -341,86 -101,57 -180,139 -239,244 -59,106 -88,227 -88,363 0,137 29,258 88,364 58,106 138,188 239,246 101,58 214,87 341,87z"/>
   <path id="10" fill="black" fill-rule="nonzero" d="M32965 14056c256,65 384,225 384,481 0,174 -65,308 -196,403 -131,94 -325,142 -584,142l-951 0 0 -1976 917 0c234,0 416,44 548,132 132,88 198,213 198,375 0,104 -28,195 -84,270 -56,76 -134,134 -233,173zm-996 -101l537 0c137,0 241,-25 311,-74 71,-50 106,-122 106,-216 0,-189 -139,-283 -418,-283l-537 0 0 574zm574 850c149,0 261,-24 336,-71 74,-47 112,-121 112,-220 0,-102 -34,-178 -103,-227 -69,-50 -176,-75 -323,-75l-597 0 0 593 574 0z"/>
   <path id="11" fill="black" fill-rule="nonzero" d="M35441 15104c-196,0 -373,-43 -529,-131 -157,-87 -279,-207 -368,-360 -88,-153 -132,-326 -132,-520 0,-194 44,-367 132,-520 88,-153 211,-272 368,-358 157,-86 333,-129 529,-129 196,0 372,43 528,129 155,86 277,205 365,358 88,153 132,326 132,520 0,194 -44,368 -132,520 -88,153 -210,273 -365,360 -155,87 -331,131 -528,131zm0 -313c127,0 240,-29 341,-87 101,-58 180,-141 237,-246 57,-106 86,-227 86,-364 0,-137 -29,-258 -86,-363 -57,-106 -136,-187 -237,-244 -101,-57 -214,-86 -341,-86 -127,0 -241,29 -341,86 -101,57 -180,139 -239,244 -59,106 -88,227 -88,363 0,137 29,258 88,364 58,106 138,188 239,246 101,58 214,87 341,87z"/>
   <path id="12" fill="black" fill-rule="nonzero" d="M37671 13105l358 0 0 1439 1212 -1439 324 0 0 1976 -358 0 0 -1439 -1208 1439 -328 0 0 -1976zm925 -257c-184,0 -327,-44 -429,-132 -102,-89 -154,-216 -157,-382l242 0c2,92 34,166 95,222 61,56 142,84 244,84 102,0 184,-28 246,-84 62,-56 94,-130 97,-222l250 0c-3,167 -56,294 -160,382 -104,88 -247,132 -429,132z"/>
   <path id="13" fill="black" fill-rule="nonzero" d="M43295 14056c256,65 384,225 384,481 0,174 -65,308 -196,403 -131,94 -325,142 -584,142l-951 0 0 -1976 917 0c234,0 416,44 548,132 132,88 198,213 198,375 0,104 -28,195 -84,270 -56,76 -134,134 -233,173zm-996 -101l537 0c137,0 241,-25 311,-74 71,-50 106,-122 106,-216 0,-189 -139,-283 -418,-283l-537 0 0 574zm574 850c149,0 261,-24 336,-71 74,-47 112,-121 112,-220 0,-102 -34,-178 -103,-227 -69,-50 -176,-75 -323,-75l-597 0 0 593 574 0z"/>
   <path id="14" fill="black" fill-rule="nonzero" d="M44925 13105l358 0 0 1439 1212 -1439 324 0 0 1976 -358 0 0 -1439 -1208 1439 -328 0 0 -1976z"/>
   <path id="15" fill="black" fill-rule="nonzero" d="M49236 14052c132,35 234,91 306,168 72,77 108,173 108,287 0,117 -40,221 -119,311 -80,91 -189,162 -330,213 -140,51 -298,77 -472,77 -147,0 -290,-19 -431,-58 -140,-39 -265,-94 -375,-166l108 -272c94,60 203,106 324,140 122,34 245,50 369,50 169,0 304,-29 405,-87 101,-58 151,-137 151,-237 0,-92 -40,-163 -121,-213 -81,-50 -194,-74 -341,-74l-362 0 0 -257 336 0c134,0 240,-24 317,-71 77,-47 116,-112 116,-194 0,-90 -45,-159 -136,-209 -91,-50 -213,-74 -367,-74 -196,0 -404,51 -623,153l-97 -276c241,-122 493,-183 757,-183 159,0 302,23 429,67 127,45 226,108 298,190 72,82 108,175 108,280 0,97 -32,184 -97,261 -65,77 -152,135 -261,175z"/>
   <path id="16" fill="black" fill-rule="nonzero" d="M52645 13105l-958 2174c-85,201 -183,343 -297,425 -113,82 -249,123 -408,123 -97,0 -191,-16 -282,-47 -91,-31 -166,-77 -226,-136l153 -269c102,97 220,145 354,145 87,0 160,-23 218,-69 58,-46 111,-125 158,-237l64 -138 -873 -1973 373 0 690 1581 683 -1581 350 0z"/>
   <path id="17" fill="black" fill-rule="nonzero" d="M54338 13087c273,0 483,67 628,201 145,134 218,334 218,600l0 1193 -339 0 0 -261c-60,92 -145,162 -255,211 -111,49 -242,73 -393,73 -221,0 -398,-53 -532,-160 -133,-107 -199,-247 -199,-421 0,-174 63,-314 190,-420 127,-106 328,-158 604,-158l567 0 0 -71c0,-154 -45,-272 -134,-354 -90,-82 -221,-123 -395,-123 -117,0 -231,19 -343,58 -112,39 -206,90 -283,155l-149 -269c102,-82 224,-145 365,-188 142,-44 292,-65 451,-65zm-82 1742c137,0 255,-30 354,-91 99,-61 172,-147 216,-259l0 -276 -552 0c-303,0 -455,102 -455,306 0,99 38,178 115,235 77,57 184,86 321,86z"/>
   <path id="18" fill="black" fill-rule="nonzero" d="M58213 13105l0 1976 -358 0 0 -1663 -850 0 -22 440c-12,266 -36,488 -71,666 -35,178 -92,320 -172,427 -79,107 -190,160 -332,160 -65,0 -138,-11 -220,-33l22 -302c32,8 62,11 90,11 99,0 174,-44 224,-131 50,-87 82,-190 97,-309 15,-119 29,-290 41,-511l33 -731 1518 0z"/>
   <path id="19" fill="black" fill-rule="nonzero" d="M60507 13776c251,3 443,60 574,172 132,112 198,270 198,474 0,214 -72,378 -215,494 -143,115 -347,172 -613,169l-858 -4 0 -1976 358 0 0 668 555 4zm-86 1037c162,2 284,-30 367,-97 83,-67 125,-167 125,-298 0,-129 -40,-224 -121,-283 -81,-60 -205,-91 -371,-93l-470 -7 0 776 470 4z"/>
   <path id="20" fill="black" fill-rule="nonzero" d="M62424 13105l358 0 0 839 1126 0 0 -839 358 0 0 1976 -358 0 0 -828 -1126 0 0 828 -358 0 0 -1976z"/>
   <path id="21" fill="black" fill-rule="nonzero" d="M66497 15104c-196,0 -373,-43 -529,-131 -157,-87 -279,-207 -368,-360 -88,-153 -132,-326 -132,-520 0,-194 44,-367 132,-520 88,-153 211,-272 368,-358 157,-86 333,-129 529,-129 196,0 372,43 528,129 155,86 277,205 365,358 88,153 132,326 132,520 0,194 -44,368 -132,520 -88,153 -210,273 -365,360 -155,87 -331,131 -528,131zm0 -313c127,0 240,-29 341,-87 101,-58 180,-141 237,-246 57,-106 86,-227 86,-364 0,-137 -29,-258 -86,-363 -57,-106 -136,-187 -237,-244 -101,-57 -214,-86 -341,-86 -127,0 -241,29 -341,86 -101,57 -180,139 -239,244 -59,106 -88,227 -88,363 0,137 29,258 88,364 58,106 138,188 239,246 101,58 214,87 341,87z"/>
   <path id="22" fill="black" fill-rule="nonzero" d="M68727 13105l358 0 0 1439 1212 -1439 324 0 0 1976 -358 0 0 -1439 -1208 1439 -328 0 0 -1976zm925 -257c-184,0 -327,-44 -429,-132 -102,-89 -154,-216 -157,-382l242 0c2,92 34,166 95,222 61,56 142,84 244,84 102,0 184,-28 246,-84 62,-56 94,-130 97,-222l250 0c-3,167 -56,294 -160,382 -104,88 -247,132 -429,132z"/>
   <path id="23" fill="black" fill-rule="nonzero" d="M73773 14246l-410 0 0 835 -358 0 0 -1976 358 0 0 835 418 0 641 -835 384 0 -750 951 802 1025 -421 0 -664 -835z"/>
   <path id="24" fill="black" fill-rule="nonzero" d="M77573 13105l-958 2174c-85,201 -183,343 -297,425 -113,82 -249,123 -408,123 -97,0 -191,-16 -282,-47 -91,-31 -166,-77 -226,-136l153 -269c102,97 220,145 354,145 87,0 160,-23 218,-69 58,-46 111,-125 158,-237l64 -138 -873 -1973 373 0 690 1581 683 -1581 350 0z"/>
   <path id="25" fill="black" fill-rule="nonzero" d="M80217 13105l0 1976 -358 0 0 -1663 -850 0 -22 440c-12,266 -36,488 -71,666 -35,178 -92,320 -172,427 -79,107 -190,160 -332,160 -65,0 -138,-11 -220,-33l22 -302c32,8 62,11 90,11 99,0 174,-44 224,-131 50,-87 82,-190 97,-309 15,-119 29,-290 41,-511l33 -731 1518 0z"/>
   <path id="26" fill="black" fill-rule="nonzero" d="M82511 13776c251,3 443,60 574,172 132,112 198,270 198,474 0,214 -72,378 -215,494 -143,115 -347,172 -613,169l-858 -4 0 -1976 358 0 0 668 555 4zm-86 1037c162,2 284,-30 367,-97 83,-67 125,-167 125,-298 0,-129 -40,-224 -121,-283 -81,-60 -205,-91 -371,-93l-470 -7 0 776 470 4z"/>
   <path id="27" fill="black" fill-rule="nonzero" d="M85707 13418l-724 0 0 1663 -358 0 0 -1663 -724 0 0 -313 1805 0 0 313z"/>
   <path id="28" fill="black" fill-rule="nonzero" d="M88534 13105l-958 2174c-85,201 -183,343 -297,425 -113,82 -249,123 -408,123 -97,0 -191,-16 -282,-47 -91,-31 -166,-77 -226,-136l153 -269c102,97 220,145 354,145 87,0 160,-23 218,-69 58,-46 111,-125 158,-237l64 -138 -873 -1973 373 0 690 1581 683 -1581 350 0z"/>
   <path id="29" fill="black" fill-rule="nonzero" d="M90634 13087c191,0 363,42 514,127 152,84 270,202 356,354 86,152 128,327 128,526 0,199 -43,375 -128,528 -86,153 -205,271 -356,356 -152,84 -323,127 -514,127 -142,0 -272,-27 -390,-82 -118,-55 -218,-134 -300,-239l0 1022 -358 0 0 -2700 343 0 0 313c80,-110 180,-192 302,-248 122,-56 256,-84 403,-84zm-30 1704c127,0 240,-29 341,-87 101,-58 180,-141 239,-246 58,-106 88,-227 88,-364 0,-137 -29,-258 -88,-363 -58,-106 -138,-187 -239,-244 -101,-57 -214,-86 -341,-86 -124,0 -237,29 -338,88 -101,58 -180,140 -239,244 -58,104 -88,225 -88,362 0,137 29,258 86,364 57,106 137,188 239,246 102,58 215,87 339,87z"/>
   <path id="30" fill="black" fill-rule="nonzero" d="M93729 13776c249,3 439,60 570,172 132,112 198,270 198,474 0,214 -71,378 -214,494 -143,115 -348,172 -614,169l-832 -4 0 -1976 358 0 0 668 533 4zm1063 -671l358 0 0 1976 -358 0 0 -1976zm-1148 1708c161,2 284,-30 367,-97 83,-67 125,-167 125,-298 0,-129 -41,-224 -123,-283 -82,-60 -205,-91 -369,-93l-447 -7 0 776 447 4z"/>
   <path fill="black" d="M106051 10649c0,983 398,1873 1043,2517 644,644 1534,1043 2517,1043 983,0 1873,-399 2517,-1043 644,-644 1043,-1534 1043,-2517l0 -4469 -3559 -6180 -1974 3419 0 1579 1973 -3418 2767 4793 0 4275c0,764 -310,1456 -810,1956 -501,501 -1192,810 -1956,810 -764,0 -1456,-310 -1956,-810 -501,-501 -810,-1192 -810,-1956 0,-1952 0,-3904 0,-5856 -2156,3734 -4312,7467 -6469,11202l18469 0c-1627,-2819 -3254,-5638 -4881,-8457l0 1581 3512 6083 -15728 0 4304 -7456 0 2903z"/>
  </g>
 </g>
</svg>
