<?xml version="1.0" encoding="UTF-8"?>
<!DOCTYPE svg PUBLIC "-//W3C//DTD SVG 1.1//EN" "http://www.w3.org/Graphics/SVG/1.1/DTD/svg11.dtd">
<!-- Creator: CorelDRAW 2017 -->
<svg xmlns="http://www.w3.org/2000/svg" xml:space="preserve" width="825px" height="536px" version="1.1" style="shape-rendering:geometricPrecision; text-rendering:geometricPrecision; image-rendering:optimizeQuality; fill-rule:evenodd; clip-rule:evenodd"
viewBox="0 0 33.3 21.63"
 xmlns:xlink="http://www.w3.org/1999/xlink">
 <defs>
  <style type="text/css">
   <![CDATA[
    .fil2 {fill:none}
    .fil0 {fill:#FF9933}
    .fil1 {fill:white;fill-opacity:0.501961}
   ]]>
  </style>
   <clipPath id="id0">
    <path d="M33.3 0l-33.3 0 0 21.63 33.3 0 0 -21.63z"/>
   </clipPath>
 </defs>
 <g id="Слой_x0020_1">
  <metadata id="CorelCorpID_0Corel-Layer"/>
  <polygon class="fil0" points="33.3,0 0,0 0,21.63 33.3,21.63 "/>
  <g style="clip-path:url(#id0)">
   <g id="_2227184918480">
    <path id="1" class="fil1" d="M14.36 11.1l3.93 -3.93 5.9 5.89 5.9 -5.89 3.93 3.93 -5.9 5.9 5.9 5.89 -3.93 3.93 -5.9 -5.89 -5.9 5.89 -3.93 -3.93 5.9 -5.89 -5.9 -5.9zm3.93 -1.71l-1.7 1.71 5.89 5.9 -5.89 5.89 1.7 1.71 5.9 -5.9 5.9 5.9 1.7 -1.71 -5.89 -5.89 5.89 -5.9 -1.7 -1.71 -5.9 5.9 -5.9 -5.9z"/>
   </g>
  </g>
  <polygon class="fil2" points="33.3,0 0,0 0,21.63 33.3,21.63 "/>
 </g>
</svg>
