<?xml version="1.0" encoding="UTF-8"?>
<!DOCTYPE svg PUBLIC "-//W3C//DTD SVG 1.1//EN" "http://www.w3.org/Graphics/SVG/1.1/DTD/svg11.dtd">
<!-- Creator: CorelDRAW 2017 -->
<svg xmlns="http://www.w3.org/2000/svg" xml:space="preserve" width="1053px" height="465px" version="1.1" style="shape-rendering:geometricPrecision; text-rendering:geometricPrecision; image-rendering:optimizeQuality; fill-rule:evenodd; clip-rule:evenodd"
viewBox="0 0 60.77 26.81"
 xmlns:xlink="http://www.w3.org/1999/xlink">
 <defs>
  <style type="text/css">
   <![CDATA[
    .fil1 {fill:none}
    .fil3 {fill:#FF9933}
    .fil0 {fill:white}
    .fil2 {fill:#CC3300;fill-rule:nonzero}
   ]]>
  </style>
 </defs>
 <g id="Слой_x0020_1">
  <metadata id="CorelCorpID_0Corel-Layer"/>
  <rect class="fil0" y="0.04" width="60.77" height="26.78"/>
  <rect class="fil1" width="60.77" height="26.81"/>
  <g id="_2227184900112">
   <path class="fil2" d="M35.69 14.78c0.15,0 0.27,0.03 0.38,0.08 0.11,0.05 0.2,0.12 0.26,0.21 0.06,0.09 0.09,0.2 0.09,0.32 0,0.12 -0.03,0.23 -0.09,0.32 -0.06,0.1 -0.15,0.17 -0.26,0.22 -0.11,0.05 -0.23,0.07 -0.38,0.07l-0.34 0 0 0.46 -0.39 0 0 -1.68 0.73 0zm-0.03 0.9c0.12,0 0.21,-0.02 0.27,-0.07 0.06,-0.05 0.09,-0.13 0.09,-0.22 0,-0.09 -0.03,-0.17 -0.09,-0.22 -0.06,-0.05 -0.15,-0.07 -0.27,-0.07l-0.31 0 0 0.58 0.31 0z"/>
   <path id="1" class="fil2" d="M37.14 15.15c0.2,0 0.35,0.05 0.46,0.14 0.1,0.1 0.16,0.24 0.16,0.44l0 0.73 -0.35 0 0 -0.16c-0.07,0.12 -0.2,0.18 -0.4,0.18 -0.1,0 -0.18,-0.01 -0.26,-0.05 -0.07,-0.03 -0.12,-0.08 -0.16,-0.14 -0.04,-0.06 -0.06,-0.12 -0.06,-0.2 0,-0.12 0.05,-0.21 0.14,-0.28 0.09,-0.07 0.23,-0.11 0.42,-0.11l0.29 0c0,-0.08 -0.02,-0.14 -0.07,-0.18 -0.05,-0.05 -0.13,-0.07 -0.22,-0.07 -0.07,0 -0.14,0.01 -0.21,0.03 -0.06,0.02 -0.12,0.05 -0.17,0.09l-0.13 -0.26c0.07,-0.05 0.15,-0.09 0.25,-0.12 0.1,-0.03 0.2,-0.04 0.31,-0.04zm-0.03 1.08c0.06,0 0.12,-0.01 0.17,-0.04 0.05,-0.03 0.08,-0.08 0.1,-0.13l0 -0.14 -0.25 0c-0.16,0 -0.23,0.05 -0.23,0.15 0,0.05 0.01,0.09 0.05,0.12 0.04,0.03 0.09,0.04 0.16,0.04z"/>
   <path id="2" class="fil2" d="M38.91 15.79c0.08,0.02 0.14,0.06 0.18,0.11 0.04,0.05 0.07,0.11 0.07,0.18 0,0.08 -0.03,0.15 -0.09,0.21 -0.06,0.07 -0.13,0.11 -0.23,0.15 -0.1,0.03 -0.21,0.05 -0.33,0.05 -0.1,0 -0.2,-0.01 -0.3,-0.03 -0.1,-0.02 -0.19,-0.06 -0.27,-0.1l0.1 -0.26c0.14,0.07 0.29,0.1 0.45,0.1 0.09,0 0.16,-0.01 0.21,-0.04 0.05,-0.03 0.08,-0.06 0.08,-0.11 0,-0.04 -0.02,-0.08 -0.06,-0.1 -0.03,-0.02 -0.08,-0.03 -0.15,-0.03l-0.27 0 0 -0.23 0.23 0c0.07,0 0.12,-0.01 0.16,-0.03 0.03,-0.02 0.05,-0.06 0.05,-0.1 0,-0.04 -0.02,-0.07 -0.07,-0.09 -0.04,-0.02 -0.1,-0.04 -0.19,-0.04 -0.12,0 -0.26,0.03 -0.4,0.09l-0.1 -0.26c0.18,-0.07 0.36,-0.11 0.53,-0.11 0.12,0 0.22,0.01 0.31,0.04 0.09,0.03 0.17,0.07 0.22,0.13 0.05,0.05 0.08,0.12 0.08,0.19 0,0.06 -0.02,0.12 -0.06,0.16 -0.03,0.05 -0.08,0.09 -0.15,0.12z"/>
   <path id="3" class="fil2" d="M40.19 15.15c0.12,0 0.23,0.03 0.33,0.08 0.1,0.06 0.17,0.14 0.23,0.24 0.05,0.1 0.08,0.21 0.08,0.35 0,0.13 -0.03,0.25 -0.08,0.35 -0.06,0.1 -0.13,0.17 -0.23,0.23 -0.1,0.06 -0.21,0.08 -0.33,0.08 -0.17,0 -0.3,-0.05 -0.39,-0.15l0 0.6 -0.38 0 0 -1.76 0.36 0 0 0.15c0.1,-0.11 0.23,-0.17 0.41,-0.17zm-0.07 1.03c0.1,0 0.18,-0.04 0.24,-0.1 0.06,-0.07 0.09,-0.15 0.09,-0.26 0,-0.11 -0.03,-0.2 -0.09,-0.26 -0.06,-0.07 -0.14,-0.1 -0.24,-0.1 -0.09,0 -0.17,0.03 -0.23,0.1 -0.06,0.06 -0.1,0.15 -0.1,0.26 0,0.11 0.04,0.19 0.1,0.26 0.06,0.06 0.14,0.1 0.23,0.1z"/>
   <path id="4" class="fil2" d="M41.58 15.15c0.2,0 0.35,0.05 0.46,0.14 0.1,0.1 0.16,0.24 0.16,0.44l0 0.73 -0.35 0 0 -0.16c-0.07,0.12 -0.2,0.18 -0.4,0.18 -0.1,0 -0.18,-0.01 -0.26,-0.05 -0.07,-0.03 -0.12,-0.08 -0.16,-0.14 -0.04,-0.06 -0.06,-0.12 -0.06,-0.2 0,-0.12 0.05,-0.21 0.14,-0.28 0.09,-0.07 0.23,-0.11 0.42,-0.11l0.29 0c0,-0.08 -0.02,-0.14 -0.07,-0.18 -0.05,-0.05 -0.13,-0.07 -0.22,-0.07 -0.07,0 -0.14,0.01 -0.21,0.03 -0.06,0.02 -0.12,0.05 -0.17,0.09l-0.13 -0.26c0.07,-0.05 0.15,-0.09 0.25,-0.12 0.1,-0.03 0.2,-0.04 0.31,-0.04zm-0.03 1.08c0.06,0 0.12,-0.01 0.17,-0.04 0.05,-0.03 0.08,-0.08 0.1,-0.13l0 -0.14 -0.25 0c-0.16,0 -0.23,0.05 -0.23,0.15 0,0.05 0.01,0.09 0.05,0.12 0.04,0.03 0.09,0.04 0.16,0.04z"/>
   <path id="5" class="fil2" d="M43.27 15.26c0.13,0 0.23,0.02 0.33,0.08 0.09,0.05 0.16,0.12 0.21,0.21 0.05,0.09 0.08,0.19 0.08,0.32 0,0.12 -0.03,0.23 -0.09,0.32 -0.06,0.1 -0.15,0.17 -0.25,0.22 -0.11,0.06 -0.23,0.08 -0.37,0.08 -0.22,0 -0.4,-0.07 -0.53,-0.22 -0.13,-0.14 -0.19,-0.35 -0.19,-0.63 0,-0.26 0.05,-0.47 0.16,-0.62 0.12,-0.16 0.29,-0.26 0.53,-0.31l0.61 -0.12 0.05 0.32 -0.54 0.11c-0.15,0.03 -0.26,0.08 -0.33,0.14 -0.07,0.07 -0.11,0.17 -0.13,0.29 0.06,-0.06 0.13,-0.11 0.21,-0.14 0.07,-0.03 0.16,-0.05 0.25,-0.05zm-0.09 0.94c0.1,0 0.18,-0.03 0.24,-0.09 0.05,-0.06 0.08,-0.14 0.08,-0.24 0,-0.1 -0.03,-0.18 -0.08,-0.23 -0.06,-0.06 -0.14,-0.09 -0.24,-0.09 -0.09,0 -0.17,0.03 -0.23,0.09 -0.06,0.05 -0.09,0.13 -0.09,0.23 0,0.1 0.03,0.18 0.09,0.24 0.06,0.06 0.14,0.09 0.23,0.09z"/>
   <path id="6" class="fil2" d="M44.75 16.48c-0.14,0 -0.26,-0.03 -0.37,-0.08 -0.11,-0.06 -0.19,-0.14 -0.25,-0.24 -0.06,-0.1 -0.09,-0.21 -0.09,-0.34 0,-0.13 0.03,-0.25 0.09,-0.35 0.06,-0.1 0.14,-0.18 0.25,-0.23 0.11,-0.06 0.23,-0.09 0.37,-0.09 0.13,0 0.26,0.03 0.36,0.09 0.11,0.05 0.2,0.13 0.26,0.23 0.06,0.1 0.09,0.22 0.09,0.35 0,0.13 -0.03,0.24 -0.09,0.34 -0.06,0.1 -0.15,0.18 -0.26,0.24 -0.1,0.05 -0.23,0.08 -0.36,0.08zm0 -0.3c0.09,0 0.17,-0.04 0.24,-0.1 0.06,-0.07 0.09,-0.15 0.09,-0.26 0,-0.11 -0.03,-0.2 -0.09,-0.26 -0.07,-0.07 -0.15,-0.1 -0.24,-0.1 -0.1,0 -0.18,0.03 -0.24,0.1 -0.06,0.06 -0.09,0.15 -0.09,0.26 0,0.11 0.03,0.19 0.09,0.26 0.06,0.06 0.14,0.1 0.24,0.1z"/>
   <polygon id="7" class="fil2" points="46.75,15.48 46.32,15.48 46.32,16.46 45.94,16.46 45.94,15.48 45.51,15.48 45.51,15.17 46.75,15.17 "/>
   <polygon id="8" class="fil2" points="47.52,15.97 47.33,15.97 47.33,16.46 46.95,16.46 46.95,15.17 47.33,15.17 47.33,15.67 47.53,15.67 47.88,15.17 48.28,15.17 47.83,15.79 48.31,16.46 47.87,16.46 "/>
   <path id="9" class="fil2" d="M48.97 15.15c0.2,0 0.36,0.05 0.47,0.14 0.1,0.1 0.16,0.24 0.16,0.44l0 0.73 -0.35 0 0 -0.16c-0.07,0.12 -0.21,0.18 -0.4,0.18 -0.1,0 -0.18,-0.01 -0.26,-0.05 -0.07,-0.03 -0.13,-0.08 -0.16,-0.14 -0.04,-0.06 -0.06,-0.12 -0.06,-0.2 0,-0.12 0.04,-0.21 0.13,-0.28 0.1,-0.07 0.23,-0.11 0.42,-0.11l0.3 0c0,-0.08 -0.02,-0.14 -0.07,-0.18 -0.05,-0.05 -0.13,-0.07 -0.23,-0.07 -0.06,0 -0.13,0.01 -0.2,0.03 -0.07,0.02 -0.12,0.05 -0.17,0.09l-0.13 -0.26c0.07,-0.05 0.15,-0.09 0.25,-0.12 0.1,-0.03 0.2,-0.04 0.3,-0.04zm-0.02 1.08c0.06,0 0.12,-0.01 0.17,-0.04 0.05,-0.03 0.08,-0.08 0.1,-0.13l0 -0.14 -0.26 0c-0.15,0 -0.23,0.05 -0.23,0.15 0,0.05 0.02,0.09 0.06,0.12 0.04,0.03 0.09,0.04 0.16,0.04z"/>
   <path id="10" class="fil2" d="M31.82 18c0,0.2 -0.07,0.36 -0.2,0.48 -0.13,0.11 -0.33,0.18 -0.57,0.2l0 0.44 -0.35 0 0 -0.44c-0.25,-0.02 -0.44,-0.09 -0.57,-0.2 -0.13,-0.12 -0.2,-0.27 -0.2,-0.48 0,-0.2 0.06,-0.35 0.2,-0.46 0.13,-0.12 0.32,-0.18 0.57,-0.2l0 -0.47 0.35 0 0 0.47c0.24,0.02 0.44,0.09 0.57,0.2 0.13,0.11 0.2,0.26 0.2,0.46zm-1.53 0c0,0.12 0.03,0.21 0.1,0.27 0.07,0.06 0.17,0.1 0.31,0.12l0 -0.76c-0.14,0.02 -0.24,0.06 -0.31,0.12 -0.07,0.06 -0.1,0.14 -0.1,0.25zm0.76 0.39c0.14,-0.02 0.24,-0.06 0.31,-0.12 0.07,-0.06 0.1,-0.15 0.1,-0.27 0,-0.11 -0.03,-0.19 -0.1,-0.25 -0.07,-0.06 -0.17,-0.1 -0.31,-0.12l0 0.76z"/>
   <polygon id="11" class="fil2" points="32.07,17.36 32.45,17.36 32.45,18.13 33.08,17.36 33.42,17.36 33.42,18.65 33.05,18.65 33.05,17.88 32.42,18.65 32.07,18.65 "/>
   <path id="12" class="fil2" d="M34.54 17.34c0.12,0 0.23,0.03 0.33,0.08 0.1,0.06 0.18,0.14 0.23,0.24 0.06,0.1 0.09,0.21 0.09,0.35 0,0.13 -0.03,0.25 -0.09,0.35 -0.05,0.1 -0.13,0.17 -0.23,0.23 -0.1,0.05 -0.21,0.08 -0.33,0.08 -0.16,0 -0.29,-0.05 -0.39,-0.15l0 0.6 -0.37 0 0 -1.76 0.36 0 0 0.15c0.09,-0.11 0.23,-0.17 0.4,-0.17zm-0.06 1.02c0.09,0 0.17,-0.03 0.24,-0.09 0.06,-0.07 0.09,-0.15 0.09,-0.26 0,-0.11 -0.03,-0.2 -0.09,-0.26 -0.07,-0.07 -0.15,-0.1 -0.24,-0.1 -0.1,0 -0.18,0.03 -0.24,0.1 -0.06,0.06 -0.09,0.15 -0.09,0.26 0,0.11 0.03,0.19 0.09,0.26 0.06,0.06 0.14,0.09 0.24,0.09z"/>
   <polygon id="13" class="fil2" points="36.71,18.65 36.71,17.88 36.32,18.53 36.17,18.53 35.79,17.88 35.79,18.65 35.45,18.65 35.45,17.36 35.84,17.36 36.25,18.11 36.69,17.36 37.05,17.36 37.05,18.65 "/>
   <path id="14" class="fil2" d="M38.67 18.01c0,0.01 -0.01,0.04 -0.01,0.1l-0.98 0c0.02,0.08 0.06,0.15 0.13,0.19 0.06,0.05 0.14,0.07 0.24,0.07 0.07,0 0.13,-0.01 0.18,-0.03 0.05,-0.02 0.1,-0.05 0.15,-0.09l0.19 0.21c-0.12,0.14 -0.3,0.21 -0.53,0.21 -0.14,0 -0.27,-0.03 -0.39,-0.08 -0.11,-0.06 -0.19,-0.14 -0.26,-0.24 -0.06,-0.1 -0.09,-0.22 -0.09,-0.34 0,-0.13 0.03,-0.24 0.09,-0.35 0.06,-0.1 0.15,-0.18 0.25,-0.23 0.11,-0.06 0.22,-0.09 0.35,-0.09 0.13,0 0.24,0.03 0.35,0.08 0.1,0.06 0.18,0.14 0.24,0.24 0.06,0.1 0.09,0.22 0.09,0.35zm-0.67 -0.39c-0.09,0 -0.16,0.03 -0.22,0.08 -0.06,0.04 -0.09,0.11 -0.1,0.19l0.63 0c-0.01,-0.08 -0.05,-0.14 -0.1,-0.19 -0.06,-0.05 -0.13,-0.08 -0.21,-0.08z"/>
   <polygon id="15" class="fil2" points="38.95,17.36 39.33,17.36 39.33,17.86 39.89,17.86 39.89,17.36 40.26,17.36 40.26,18.65 39.89,18.65 39.89,18.17 39.33,18.17 39.33,18.65 38.95,18.65 "/>
   <polygon id="16" class="fil2" points="40.62,17.36 41,17.36 41,17.86 41.56,17.86 41.56,17.36 41.93,17.36 41.93,18.65 41.56,18.65 41.56,18.17 41,18.17 41,18.65 40.62,18.65 "/>
   <path id="17" class="fil2" d="M42.9 18.67c-0.14,0 -0.26,-0.03 -0.37,-0.08 -0.11,-0.06 -0.19,-0.14 -0.25,-0.24 -0.06,-0.1 -0.09,-0.22 -0.09,-0.34 0,-0.13 0.03,-0.25 0.09,-0.35 0.06,-0.1 0.14,-0.18 0.25,-0.23 0.11,-0.06 0.23,-0.09 0.37,-0.09 0.13,0 0.25,0.03 0.36,0.09 0.11,0.05 0.19,0.13 0.25,0.23 0.07,0.1 0.1,0.22 0.1,0.35 0,0.12 -0.03,0.24 -0.1,0.34 -0.06,0.1 -0.14,0.18 -0.25,0.24 -0.11,0.05 -0.23,0.08 -0.36,0.08zm0 -0.31c0.09,0 0.17,-0.03 0.23,-0.09 0.06,-0.07 0.1,-0.15 0.1,-0.26 0,-0.11 -0.04,-0.2 -0.1,-0.26 -0.06,-0.07 -0.14,-0.1 -0.23,-0.1 -0.1,0 -0.18,0.03 -0.24,0.1 -0.06,0.06 -0.1,0.15 -0.1,0.26 0,0.11 0.04,0.19 0.1,0.26 0.06,0.06 0.14,0.09 0.24,0.09z"/>
   <polygon id="18" class="fil2" points="44.9,17.67 44.24,17.67 44.24,18.65 43.86,18.65 43.86,17.36 44.9,17.36 "/>
   <path id="19" class="fil2" d="M45.65 18.67c-0.13,0 -0.26,-0.03 -0.37,-0.08 -0.1,-0.06 -0.19,-0.14 -0.25,-0.24 -0.06,-0.1 -0.09,-0.22 -0.09,-0.34 0,-0.13 0.03,-0.25 0.09,-0.35 0.06,-0.1 0.15,-0.18 0.25,-0.23 0.11,-0.06 0.24,-0.09 0.37,-0.09 0.14,0 0.26,0.03 0.37,0.09 0.1,0.05 0.19,0.13 0.25,0.23 0.06,0.1 0.09,0.22 0.09,0.35 0,0.12 -0.03,0.24 -0.09,0.34 -0.06,0.1 -0.15,0.18 -0.25,0.24 -0.11,0.05 -0.23,0.08 -0.37,0.08zm0 -0.31c0.1,0 0.18,-0.03 0.24,-0.09 0.06,-0.07 0.09,-0.15 0.09,-0.26 0,-0.11 -0.03,-0.2 -0.09,-0.26 -0.06,-0.07 -0.14,-0.1 -0.24,-0.1 -0.09,0 -0.17,0.03 -0.24,0.1 -0.06,0.06 -0.09,0.15 -0.09,0.26 0,0.11 0.03,0.19 0.09,0.26 0.07,0.06 0.15,0.09 0.24,0.09z"/>
   <path id="20" class="fil2" d="M47.91 18.67c-0.13,0 -0.26,-0.03 -0.37,-0.08 -0.11,-0.06 -0.19,-0.14 -0.26,-0.24 -0.06,-0.1 -0.09,-0.22 -0.09,-0.34 0,-0.13 0.03,-0.25 0.09,-0.35 0.07,-0.1 0.15,-0.18 0.26,-0.23 0.11,-0.06 0.24,-0.09 0.37,-0.09 0.14,0 0.26,0.03 0.36,0.09 0.1,0.05 0.18,0.13 0.22,0.24l-0.29 0.16c-0.07,-0.12 -0.16,-0.18 -0.29,-0.18 -0.1,0 -0.18,0.03 -0.24,0.09 -0.07,0.07 -0.1,0.16 -0.1,0.27 0,0.11 0.03,0.19 0.1,0.26 0.06,0.06 0.14,0.09 0.24,0.09 0.13,0 0.23,-0.05 0.29,-0.17l0.29 0.16c-0.04,0.1 -0.12,0.18 -0.22,0.24 -0.1,0.05 -0.22,0.08 -0.36,0.08z"/>
   <polygon id="21" class="fil2" points="49.8,17.67 49.37,17.67 49.37,18.65 48.99,18.65 48.99,17.67 48.55,17.67 48.55,17.36 49.8,17.36 "/>
   <polygon id="22" class="fil2" points="50,17.36 50.37,17.36 50.37,18.13 51,17.36 51.35,17.36 51.35,18.65 50.98,18.65 50.98,17.88 50.35,18.65 50,18.65 "/>
   <path id="23" class="fil2" d="M52.95 17.36l0 1.29 -0.38 0 0 -0.98 -0.4 0 -0.02 0.23c0,0.17 -0.02,0.31 -0.04,0.42 -0.03,0.11 -0.07,0.2 -0.13,0.26 -0.06,0.07 -0.14,0.1 -0.24,0.1 -0.05,0 -0.12,-0.01 -0.19,-0.03l0.01 -0.31c0.03,0.01 0.05,0.01 0.06,0.01 0.06,0 0.1,-0.02 0.13,-0.06 0.02,-0.04 0.04,-0.1 0.05,-0.16 0.01,-0.06 0.02,-0.15 0.02,-0.25l0.02 -0.52 1.11 0z"/>
   <path id="24" class="fil2" d="M54.46 17.36l0 1.29 -0.34 0 0 -0.37 -0.27 0 -0.25 0.37 -0.4 0 0.3 -0.42c-0.09,-0.04 -0.16,-0.09 -0.21,-0.15 -0.04,-0.07 -0.07,-0.15 -0.07,-0.24 0,-0.16 0.06,-0.27 0.17,-0.36 0.11,-0.08 0.26,-0.12 0.45,-0.12l0.62 0zm-0.61 0.31c-0.08,0 -0.14,0.01 -0.18,0.04 -0.04,0.03 -0.06,0.07 -0.06,0.14 0,0.06 0.01,0.11 0.05,0.14 0.04,0.03 0.1,0.04 0.18,0.04l0.28 0 0 -0.36 -0.27 0z"/>
   <polygon id="25" class="fil2" points="36.41,19.55 36.79,19.55 36.79,20.32 37.42,19.55 37.76,19.55 37.76,20.84 37.39,20.84 37.39,20.07 36.76,20.84 36.41,20.84 "/>
   <path id="26" class="fil2" d="M39.55 19.64c0.12,0 0.23,0.02 0.32,0.07 0.1,0.05 0.17,0.13 0.22,0.22 0.05,0.09 0.07,0.19 0.07,0.31 0,0.13 -0.03,0.24 -0.09,0.33 -0.06,0.1 -0.14,0.17 -0.25,0.22 -0.1,0.06 -0.23,0.08 -0.36,0.08 -0.23,0 -0.41,-0.07 -0.53,-0.22 -0.13,-0.14 -0.2,-0.35 -0.2,-0.63 0,-0.26 0.06,-0.47 0.17,-0.63 0.11,-0.15 0.29,-0.25 0.52,-0.3l0.62 -0.12 0.05 0.32 -0.55 0.11c-0.14,0.03 -0.25,0.08 -0.32,0.14 -0.07,0.07 -0.12,0.17 -0.13,0.29 0.06,-0.06 0.12,-0.11 0.2,-0.14 0.08,-0.04 0.17,-0.05 0.26,-0.05zm-0.09 0.94c0.1,0 0.17,-0.03 0.23,-0.09 0.06,-0.07 0.09,-0.14 0.09,-0.24 0,-0.1 -0.03,-0.18 -0.09,-0.23 -0.06,-0.06 -0.13,-0.09 -0.23,-0.09 -0.1,0 -0.18,0.03 -0.24,0.09 -0.05,0.05 -0.08,0.13 -0.08,0.23 0,0.1 0.03,0.18 0.09,0.24 0.06,0.06 0.14,0.09 0.23,0.09z"/>
   <path id="27" class="fil2" d="M41.18 19.53c0.12,0 0.23,0.03 0.33,0.08 0.1,0.06 0.18,0.14 0.23,0.24 0.06,0.1 0.09,0.21 0.09,0.35 0,0.13 -0.03,0.25 -0.09,0.35 -0.05,0.1 -0.13,0.17 -0.23,0.23 -0.1,0.05 -0.21,0.08 -0.33,0.08 -0.16,0 -0.29,-0.05 -0.39,-0.15l0 0.6 -0.37 0 0 -1.76 0.36 0 0 0.15c0.09,-0.11 0.22,-0.17 0.4,-0.17zm-0.06 1.02c0.09,0 0.17,-0.03 0.23,-0.09 0.06,-0.07 0.1,-0.15 0.1,-0.26 0,-0.11 -0.04,-0.2 -0.1,-0.26 -0.06,-0.07 -0.14,-0.1 -0.23,-0.1 -0.1,0 -0.18,0.03 -0.24,0.1 -0.06,0.06 -0.09,0.15 -0.09,0.26 0,0.11 0.03,0.19 0.09,0.26 0.06,0.06 0.14,0.09 0.24,0.09z"/>
   <path id="28" class="fil2" d="M43.34 20.2c0,0.01 0,0.04 0,0.1l-0.98 0c0.02,0.08 0.06,0.15 0.12,0.19 0.07,0.05 0.15,0.07 0.25,0.07 0.07,0 0.13,-0.01 0.18,-0.03 0.05,-0.02 0.1,-0.05 0.14,-0.09l0.2 0.21c-0.12,0.14 -0.3,0.21 -0.53,0.21 -0.15,0 -0.27,-0.03 -0.39,-0.08 -0.11,-0.06 -0.2,-0.14 -0.26,-0.24 -0.06,-0.1 -0.09,-0.22 -0.09,-0.34 0,-0.13 0.03,-0.24 0.09,-0.35 0.06,-0.1 0.14,-0.18 0.25,-0.23 0.1,-0.06 0.22,-0.09 0.35,-0.09 0.13,0 0.24,0.03 0.35,0.08 0.1,0.06 0.18,0.13 0.24,0.24 0.06,0.1 0.08,0.22 0.08,0.35zm-0.67 -0.39c-0.08,0 -0.15,0.03 -0.21,0.08 -0.06,0.04 -0.09,0.11 -0.11,0.19l0.64 0c-0.01,-0.08 -0.05,-0.14 -0.1,-0.19 -0.06,-0.05 -0.13,-0.08 -0.22,-0.08z"/>
   <polygon id="29" class="fil2" points="43.63,19.55 44.01,19.55 44.01,20.05 44.57,20.05 44.57,19.55 44.94,19.55 44.94,20.84 44.57,20.84 44.57,20.36 44.01,20.36 44.01,20.84 43.63,20.84 "/>
   <path id="30" class="fil2" d="M46.75 20.54l0 0.58 -0.35 0 0 -0.28 -0.91 0 0 0.28 -0.34 0 0 -0.58 0.05 0c0.08,-0.01 0.13,-0.05 0.16,-0.15 0.03,-0.09 0.05,-0.22 0.06,-0.39l0.02 -0.45 1.13 0 0 0.99 0.18 0zm-0.99 -0.52c0,0.13 -0.01,0.24 -0.03,0.33 -0.01,0.08 -0.04,0.14 -0.08,0.19l0.54 0 0 -0.68 -0.42 0 -0.01 0.16z"/>
   <path id="31" class="fil2" d="M47.49 19.53c0.2,0 0.35,0.05 0.46,0.14 0.11,0.1 0.16,0.24 0.16,0.43l0 0.74 -0.35 0 0 -0.16c-0.07,0.12 -0.2,0.18 -0.39,0.18 -0.1,0 -0.19,-0.01 -0.26,-0.05 -0.08,-0.03 -0.13,-0.08 -0.17,-0.14 -0.04,-0.06 -0.06,-0.12 -0.06,-0.2 0,-0.12 0.05,-0.21 0.14,-0.28 0.09,-0.07 0.23,-0.11 0.42,-0.11l0.3 0c0,-0.08 -0.03,-0.14 -0.08,-0.19 -0.05,-0.04 -0.12,-0.06 -0.22,-0.06 -0.07,0 -0.14,0.01 -0.2,0.03 -0.07,0.02 -0.13,0.05 -0.17,0.09l-0.14 -0.26c0.07,-0.05 0.16,-0.09 0.25,-0.12 0.1,-0.03 0.2,-0.04 0.31,-0.04zm-0.03 1.08c0.06,0 0.12,-0.02 0.17,-0.04 0.05,-0.03 0.09,-0.08 0.11,-0.14l0 -0.13 -0.26 0c-0.15,0 -0.23,0.05 -0.23,0.15 0,0.05 0.02,0.09 0.05,0.12 0.04,0.03 0.09,0.04 0.16,0.04z"/>
   <path class="fil3" d="M38.47 7.03l1.49 -1.49 2.23 2.23 2.24 -2.23 1.48 1.49 -2.23 2.23 2.23 2.23 -1.48 1.49 -2.24 -2.23 -2.23 2.23 -1.49 -1.49 2.24 -2.23 -2.24 -2.23zm1.49 -0.65l-0.65 0.65 2.24 2.23 -2.24 2.23 0.65 0.65 2.23 -2.23 2.24 2.23 0.64 -0.65 -2.23 -2.23 2.23 -2.23 -0.64 -0.65 -2.24 2.24 -2.23 -2.24z"/>
  </g>
 </g>
</svg>
