<?xml version="1.0" encoding="UTF-8"?>
<!DOCTYPE svg PUBLIC "-//W3C//DTD SVG 1.1//EN" "http://www.w3.org/Graphics/SVG/1.1/DTD/svg11.dtd">
<!-- Creator: CorelDRAW 2017 -->
<svg xmlns="http://www.w3.org/2000/svg" xml:space="preserve" width="1053px" height="465px" version="1.1" style="shape-rendering:geometricPrecision; text-rendering:geometricPrecision; image-rendering:optimizeQuality; fill-rule:evenodd; clip-rule:evenodd"
viewBox="0 0 55.5 24.49"
 xmlns:xlink="http://www.w3.org/1999/xlink">
 <defs>
  <style type="text/css">
   <![CDATA[
    .fil1 {fill:none}
    .fil0 {fill:white}
    .fil2 {fill:#663333;fill-rule:nonzero}
    .fil3 {fill:#FFCC99;fill-rule:nonzero}
   ]]>
  </style>
 </defs>
 <g id="Слой_x0020_1">
  <metadata id="CorelCorpID_0Corel-Layer"/>
  <rect class="fil0" y="0.03" width="55.5" height="24.45"/>
  <rect class="fil1" width="55.5" height="24.49"/>
  <g id="_2227203289584">
   <polygon class="fil2" points="8.29,14.77 8.29,16.31 7.93,16.31 7.93,15.06 7.24,15.06 7.24,16.31 6.89,16.31 6.89,14.77 "/>
   <path id="1" class="fil2" d="M9.34 15.11c0.11,0 0.21,0.03 0.3,0.08 0.09,0.05 0.16,0.12 0.21,0.21 0.05,0.09 0.08,0.2 0.08,0.32 0,0.12 -0.03,0.23 -0.08,0.32 -0.05,0.09 -0.12,0.16 -0.21,0.21 -0.09,0.05 -0.19,0.08 -0.3,0.08 -0.15,0 -0.27,-0.05 -0.36,-0.14l0 0.55 -0.34 0 0 -1.61 0.33 0 0 0.14c0.08,-0.11 0.21,-0.16 0.37,-0.16zm-0.06 0.94c0.09,0 0.16,-0.03 0.22,-0.09 0.05,-0.06 0.08,-0.14 0.08,-0.24 0,-0.1 -0.03,-0.18 -0.08,-0.24 -0.06,-0.06 -0.13,-0.09 -0.22,-0.09 -0.09,0 -0.16,0.03 -0.22,0.09 -0.05,0.06 -0.08,0.14 -0.08,0.24 0,0.1 0.03,0.18 0.08,0.24 0.06,0.06 0.13,0.09 0.22,0.09z"/>
   <path id="2" class="fil2" d="M10.72 16.33c-0.12,0 -0.24,-0.03 -0.33,-0.08 -0.1,-0.05 -0.18,-0.12 -0.24,-0.22 -0.05,-0.09 -0.08,-0.19 -0.08,-0.31 0,-0.12 0.03,-0.22 0.08,-0.31 0.06,-0.1 0.14,-0.17 0.24,-0.22 0.09,-0.05 0.21,-0.08 0.33,-0.08 0.12,0 0.24,0.03 0.33,0.08 0.1,0.05 0.18,0.12 0.23,0.22 0.06,0.09 0.09,0.19 0.09,0.31 0,0.12 -0.03,0.22 -0.09,0.31 -0.05,0.1 -0.13,0.17 -0.23,0.22 -0.09,0.05 -0.21,0.08 -0.33,0.08zm0 -0.28c0.09,0 0.16,-0.03 0.22,-0.09 0.05,-0.06 0.08,-0.14 0.08,-0.24 0,-0.1 -0.03,-0.18 -0.08,-0.24 -0.06,-0.06 -0.13,-0.09 -0.22,-0.09 -0.09,0 -0.16,0.03 -0.22,0.09 -0.05,0.06 -0.08,0.14 -0.08,0.24 0,0.1 0.03,0.18 0.08,0.24 0.06,0.06 0.13,0.09 0.22,0.09z"/>
   <path id="3" class="fil2" d="M12.75 15.73c0,0 0,0.03 -0.01,0.09l-0.89 0c0.02,0.07 0.05,0.13 0.11,0.17 0.06,0.04 0.14,0.06 0.23,0.06 0.06,0 0.11,0 0.16,-0.02 0.05,-0.02 0.09,-0.05 0.14,-0.09l0.18 0.2c-0.11,0.13 -0.28,0.19 -0.49,0.19 -0.13,0 -0.25,-0.03 -0.35,-0.08 -0.11,-0.05 -0.18,-0.12 -0.24,-0.22 -0.06,-0.09 -0.08,-0.19 -0.08,-0.31 0,-0.11 0.02,-0.22 0.08,-0.31 0.05,-0.09 0.13,-0.17 0.22,-0.22 0.1,-0.05 0.21,-0.08 0.33,-0.08 0.11,0 0.22,0.03 0.31,0.08 0.09,0.05 0.17,0.12 0.22,0.21 0.05,0.09 0.08,0.2 0.08,0.33zm-0.61 -0.36c-0.08,0 -0.14,0.02 -0.2,0.07 -0.05,0.04 -0.08,0.1 -0.09,0.18l0.58 0c-0.01,-0.08 -0.05,-0.14 -0.1,-0.18 -0.05,-0.05 -0.12,-0.07 -0.19,-0.07z"/>
   <polygon id="4" class="fil2" points="13.53,15.86 13.36,15.86 13.36,16.31 13.01,16.31 13.01,15.13 13.36,15.13 13.36,15.59 13.54,15.59 13.86,15.13 14.23,15.13 13.81,15.7 14.25,16.31 13.85,16.31 "/>
   <polygon id="5" class="fil2" points="15.4,15.41 15.01,15.41 15.01,16.31 14.67,16.31 14.67,15.41 14.27,15.41 14.27,15.13 15.4,15.13 "/>
   <polygon id="6" class="fil2" points="15.59,15.13 15.93,15.13 15.93,15.83 16.5,15.13 16.82,15.13 16.82,16.31 16.48,16.31 16.48,15.61 15.9,16.31 15.59,16.31 "/>
   <path id="7" class="fil2" d="M17.84 15.11c0.11,0 0.21,0.03 0.3,0.08 0.09,0.05 0.16,0.12 0.21,0.21 0.05,0.09 0.08,0.2 0.08,0.32 0,0.12 -0.03,0.23 -0.08,0.32 -0.05,0.09 -0.12,0.16 -0.21,0.21 -0.09,0.05 -0.19,0.08 -0.3,0.08 -0.15,0 -0.27,-0.05 -0.35,-0.14l0 0.55 -0.35 0 0 -1.61 0.33 0 0 0.14c0.09,-0.11 0.21,-0.16 0.37,-0.16zm-0.06 0.94c0.09,0 0.16,-0.03 0.22,-0.09 0.06,-0.06 0.08,-0.14 0.08,-0.24 0,-0.1 -0.02,-0.18 -0.08,-0.24 -0.06,-0.06 -0.13,-0.09 -0.22,-0.09 -0.09,0 -0.16,0.03 -0.21,0.09 -0.06,0.06 -0.09,0.14 -0.09,0.24 0,0.1 0.03,0.18 0.09,0.24 0.05,0.06 0.12,0.09 0.21,0.09z"/>
   <path id="8" class="fil2" d="M19.22 16.33c-0.12,0 -0.23,-0.03 -0.33,-0.08 -0.1,-0.05 -0.18,-0.12 -0.23,-0.22 -0.06,-0.09 -0.09,-0.19 -0.09,-0.31 0,-0.12 0.03,-0.22 0.09,-0.31 0.05,-0.1 0.13,-0.17 0.23,-0.22 0.1,-0.05 0.21,-0.08 0.33,-0.08 0.13,0 0.24,0.03 0.34,0.08 0.09,0.05 0.17,0.12 0.23,0.22 0.05,0.09 0.08,0.19 0.08,0.31 0,0.12 -0.03,0.22 -0.08,0.31 -0.06,0.1 -0.14,0.17 -0.23,0.22 -0.1,0.05 -0.21,0.08 -0.34,0.08zm0 -0.28c0.09,0 0.16,-0.03 0.22,-0.09 0.06,-0.06 0.08,-0.14 0.08,-0.24 0,-0.1 -0.02,-0.18 -0.08,-0.24 -0.06,-0.06 -0.13,-0.09 -0.22,-0.09 -0.09,0 -0.16,0.03 -0.21,0.09 -0.06,0.06 -0.09,0.14 -0.09,0.24 0,0.1 0.03,0.18 0.09,0.24 0.05,0.06 0.12,0.09 0.21,0.09z"/>
   <path id="9" class="fil2" d="M21.01 15.69c0.14,0.05 0.21,0.15 0.21,0.29 0,0.1 -0.04,0.19 -0.12,0.24 -0.09,0.06 -0.21,0.09 -0.36,0.09l-0.63 0 0 -1.18 0.6 0c0.15,0 0.26,0.03 0.35,0.08 0.08,0.05 0.12,0.13 0.12,0.23 0,0.05 -0.01,0.11 -0.04,0.15 -0.03,0.04 -0.08,0.08 -0.13,0.1zm-0.59 -0.07l0.26 0c0.12,0 0.18,-0.05 0.18,-0.13 0,-0.09 -0.06,-0.13 -0.18,-0.13l-0.26 0 0 0.26zm0.29 0.46c0.12,0 0.19,-0.04 0.19,-0.13 0,-0.05 -0.02,-0.08 -0.05,-0.1 -0.03,-0.02 -0.07,-0.03 -0.14,-0.03l-0.29 0 0 0.26 0.29 0z"/>
   <path id="10" class="fil2" d="M21.93 15.11c0.18,0 0.32,0.05 0.42,0.13 0.1,0.09 0.15,0.22 0.15,0.4l0 0.67 -0.32 0 0 -0.15c-0.07,0.11 -0.19,0.17 -0.36,0.17 -0.09,0 -0.17,-0.02 -0.24,-0.05 -0.07,-0.03 -0.12,-0.07 -0.15,-0.12 -0.04,-0.06 -0.05,-0.12 -0.05,-0.19 0,-0.11 0.04,-0.19 0.12,-0.26 0.08,-0.06 0.21,-0.09 0.38,-0.09l0.28 0c0,-0.08 -0.03,-0.13 -0.07,-0.17 -0.05,-0.04 -0.12,-0.06 -0.21,-0.06 -0.06,0 -0.12,0 -0.18,0.02 -0.06,0.02 -0.11,0.05 -0.16,0.08l-0.12 -0.23c0.06,-0.05 0.14,-0.08 0.23,-0.11 0.09,-0.02 0.18,-0.04 0.28,-0.04zm-0.03 0.99c0.06,0 0.11,-0.02 0.16,-0.04 0.04,-0.03 0.08,-0.07 0.1,-0.12l0 -0.12 -0.24 0c-0.14,0 -0.21,0.04 -0.21,0.14 0,0.04 0.02,0.07 0.05,0.1 0.04,0.03 0.08,0.04 0.14,0.04z"/>
   <polygon id="11" class="fil2" points="22.8,15.13 23.14,15.13 23.14,15.59 23.65,15.59 23.65,15.13 23.99,15.13 23.99,16.31 23.65,16.31 23.65,15.87 23.14,15.87 23.14,16.31 22.8,16.31 "/>
   <polygon id="12" class="fil2" points="24.32,15.13 24.66,15.13 24.66,15.83 25.24,15.13 25.55,15.13 25.55,16.31 25.21,16.31 25.21,15.61 24.64,16.31 24.32,16.31 "/>
   <path id="13" class="fil2" d="M27.03 15.73c0,0 -0.01,0.03 -0.01,0.09l-0.89 0c0.01,0.07 0.05,0.13 0.11,0.17 0.06,0.04 0.14,0.06 0.22,0.06 0.07,0 0.12,0 0.17,-0.02 0.05,-0.02 0.09,-0.05 0.13,-0.09l0.18 0.2c-0.11,0.13 -0.27,0.19 -0.48,0.19 -0.14,0 -0.25,-0.03 -0.36,-0.08 -0.1,-0.05 -0.18,-0.12 -0.23,-0.22 -0.06,-0.09 -0.09,-0.19 -0.09,-0.31 0,-0.11 0.03,-0.22 0.08,-0.31 0.06,-0.09 0.13,-0.17 0.23,-0.22 0.1,-0.05 0.2,-0.08 0.32,-0.08 0.12,0 0.22,0.03 0.32,0.08 0.09,0.05 0.16,0.12 0.22,0.21 0.05,0.09 0.08,0.2 0.08,0.33zm-0.62 -0.36c-0.07,0 -0.14,0.02 -0.19,0.07 -0.05,0.04 -0.09,0.1 -0.1,0.18l0.58 0c-0.01,-0.08 -0.04,-0.14 -0.09,-0.18 -0.06,-0.05 -0.12,-0.07 -0.2,-0.07z"/>
   <polygon id="14" class="fil2" points="10.72,17.13 11.06,17.13 11.06,17.83 11.63,17.13 11.95,17.13 11.95,18.31 11.61,18.31 11.61,17.61 11.04,18.31 10.72,18.31 "/>
   <polygon id="15" class="fil2" points="12.28,17.13 12.62,17.13 12.62,17.59 13.13,17.59 13.13,17.13 13.47,17.13 13.47,18.31 13.13,18.31 13.13,17.87 12.62,17.87 12.62,18.31 12.28,18.31 "/>
   <polygon id="16" class="fil2" points="14.79,17.41 14.39,17.41 14.39,18.31 14.05,18.31 14.05,17.41 13.65,17.41 13.65,17.13 14.79,17.13 "/>
   <path id="17" class="fil2" d="M16.08 17.73c0,0 -0.01,0.03 -0.01,0.09l-0.89 0c0.01,0.07 0.05,0.13 0.11,0.17 0.06,0.04 0.13,0.06 0.22,0.06 0.07,0 0.12,0 0.17,-0.02 0.04,-0.02 0.09,-0.05 0.13,-0.09l0.18 0.2c-0.11,0.13 -0.27,0.19 -0.49,0.19 -0.13,0 -0.25,-0.03 -0.35,-0.08 -0.1,-0.05 -0.18,-0.12 -0.24,-0.22 -0.05,-0.09 -0.08,-0.19 -0.08,-0.31 0,-0.11 0.03,-0.22 0.08,-0.31 0.06,-0.1 0.13,-0.17 0.23,-0.22 0.1,-0.05 0.2,-0.08 0.32,-0.08 0.12,0 0.22,0.03 0.31,0.08 0.1,0.05 0.17,0.12 0.23,0.21 0.05,0.09 0.08,0.2 0.08,0.33zm-0.62 -0.36c-0.07,0 -0.14,0.02 -0.19,0.07 -0.06,0.04 -0.09,0.1 -0.1,0.18l0.58 0c-0.01,-0.08 -0.04,-0.14 -0.09,-0.18 -0.06,-0.05 -0.12,-0.07 -0.2,-0.07z"/>
   <path id="18" class="fil2" d="M17.03 17.11c0.11,0 0.21,0.03 0.3,0.08 0.09,0.05 0.17,0.12 0.22,0.21 0.05,0.09 0.07,0.2 0.07,0.32 0,0.12 -0.02,0.23 -0.07,0.32 -0.05,0.09 -0.13,0.16 -0.22,0.21 -0.09,0.05 -0.19,0.08 -0.3,0.08 -0.15,0 -0.26,-0.05 -0.35,-0.14l0 0.55 -0.34 0 0 -1.61 0.32 0 0 0.14c0.09,-0.11 0.21,-0.16 0.37,-0.16zm-0.05 0.94c0.08,0 0.16,-0.03 0.21,-0.09 0.06,-0.06 0.09,-0.14 0.09,-0.24 0,-0.1 -0.03,-0.18 -0.09,-0.24 -0.05,-0.06 -0.13,-0.09 -0.21,-0.09 -0.09,0 -0.16,0.03 -0.22,0.09 -0.06,0.06 -0.09,0.14 -0.09,0.24 0,0.1 0.03,0.18 0.09,0.24 0.06,0.06 0.13,0.09 0.22,0.09z"/>
   <path id="19" class="fil2" d="M18.5 17.51c0.16,0 0.27,0.03 0.35,0.1 0.09,0.07 0.13,0.17 0.13,0.29 0,0.13 -0.05,0.23 -0.14,0.3 -0.09,0.08 -0.22,0.11 -0.38,0.11l-0.6 0 0 -1.18 0.34 0 0 0.38 0.3 0zm-0.08 0.56c0.07,0 0.12,-0.01 0.16,-0.04 0.03,-0.03 0.05,-0.08 0.05,-0.13 0,-0.06 -0.02,-0.1 -0.05,-0.13 -0.04,-0.03 -0.09,-0.04 -0.16,-0.04l-0.22 0 0 0.34 0.22 0z"/>
   <path id="20" class="fil2" d="M20.34 17.73c0,0 0,0.03 -0.01,0.09l-0.89 0c0.01,0.07 0.05,0.13 0.11,0.17 0.06,0.04 0.14,0.06 0.23,0.06 0.06,0 0.11,0 0.16,-0.02 0.05,-0.02 0.09,-0.05 0.13,-0.09l0.19 0.2c-0.12,0.13 -0.28,0.19 -0.49,0.19 -0.14,0 -0.25,-0.03 -0.36,-0.08 -0.1,-0.05 -0.18,-0.12 -0.23,-0.22 -0.06,-0.09 -0.09,-0.19 -0.09,-0.31 0,-0.11 0.03,-0.22 0.09,-0.31 0.05,-0.1 0.13,-0.17 0.22,-0.22 0.1,-0.05 0.21,-0.08 0.32,-0.08 0.12,0 0.22,0.03 0.32,0.08 0.09,0.05 0.17,0.12 0.22,0.21 0.05,0.09 0.08,0.2 0.08,0.33zm-0.61 -0.36c-0.08,0 -0.15,0.02 -0.2,0.07 -0.05,0.04 -0.08,0.1 -0.1,0.18l0.59 0c-0.02,-0.08 -0.05,-0.14 -0.1,-0.18 -0.05,-0.05 -0.12,-0.07 -0.19,-0.07z"/>
   <path id="21" class="fil2" d="M21.3 17.11c0.11,0 0.21,0.03 0.3,0.08 0.09,0.05 0.16,0.12 0.21,0.21 0.05,0.09 0.08,0.2 0.08,0.32 0,0.12 -0.03,0.23 -0.08,0.32 -0.05,0.09 -0.12,0.16 -0.21,0.21 -0.09,0.05 -0.19,0.08 -0.3,0.08 -0.15,0 -0.27,-0.05 -0.36,-0.14l0 0.55 -0.34 0 0 -1.61 0.33 0 0 0.14c0.08,-0.11 0.21,-0.16 0.37,-0.16zm-0.06 0.94c0.09,0 0.16,-0.03 0.22,-0.09 0.05,-0.06 0.08,-0.14 0.08,-0.24 0,-0.1 -0.03,-0.18 -0.08,-0.24 -0.06,-0.06 -0.13,-0.09 -0.22,-0.09 -0.09,0 -0.16,0.03 -0.22,0.09 -0.05,0.06 -0.08,0.14 -0.08,0.24 0,0.1 0.03,0.18 0.08,0.24 0.06,0.06 0.13,0.09 0.22,0.09z"/>
   <path id="22" class="fil2" d="M22.56 17.11c0.19,0 0.33,0.05 0.43,0.13 0.09,0.09 0.14,0.22 0.14,0.4l0 0.67 -0.32 0 0 -0.15c-0.06,0.11 -0.18,0.17 -0.36,0.17 -0.09,0 -0.17,-0.02 -0.23,-0.05 -0.07,-0.03 -0.12,-0.07 -0.16,-0.12 -0.03,-0.06 -0.05,-0.12 -0.05,-0.19 0,-0.11 0.04,-0.2 0.13,-0.26 0.08,-0.06 0.21,-0.09 0.38,-0.09l0.27 0c0,-0.08 -0.02,-0.13 -0.07,-0.17 -0.04,-0.05 -0.11,-0.07 -0.2,-0.07 -0.06,0 -0.13,0.01 -0.19,0.03 -0.06,0.02 -0.11,0.05 -0.15,0.08l-0.12 -0.23c0.06,-0.05 0.14,-0.09 0.23,-0.11 0.09,-0.02 0.18,-0.04 0.27,-0.04zm-0.02 0.99c0.06,0 0.11,-0.02 0.15,-0.04 0.05,-0.03 0.08,-0.07 0.1,-0.12l0 -0.12 -0.23 0c-0.14,0 -0.21,0.04 -0.21,0.14 0,0.04 0.01,0.07 0.05,0.1 0.03,0.03 0.08,0.04 0.14,0.04z"/>
   <path class="fil3" d="M17.09 5.86l1.57 0.91 0 0 1.7 0.98 0 3.92 -1.7 0.98 0 0 -1.7 0.98 -1.7 -0.98 0 0 -1.7 -0.98 0 -3.92 3.4 -1.97 0.13 0.08zm0.93 5.19l-1.06 -0.61 -1.07 0.61 0 0.83 0.17 0.1 0.17 -0.1 0 -0.47 0.56 0.32 0 0.67 0.17 0.09 0.17 -0.09 0 -0.67 0.55 -0.32 0 0.47 0.17 0.1 0.17 -0.1 0 -0.83zm-0.07 -1.07l0 -2.35 0.97 0.55 0 2.36 0.91 0.53 0 -3.02 -1.44 -0.83 0 0 -1.17 -0.68 0 3.02 0.73 0.42zm-1.91 -0.92l0 -0.61 -0.5 0.29 0 0.61 0.5 -0.29zm0 -1.36l-0.5 0.28 0 0.61 0.5 -0.29 0 -0.6zm-0.62 1.72l0 -0.6 -0.5 0.28 0 0.61 0.5 -0.29zm0 -1.36l-0.5 0.29 0 0.6 0.5 -0.29 0 -0.6zm4.15 3.46l-2.61 -1.51 -2.62 1.51 1.18 0.68 0 0 1.44 0.83 1.43 -0.83 0 0 1.18 -0.68zm-5.49 -0.45l2.62 -1.51 0 -3.02 -2.62 1.51 0 3.02z"/>
  </g>
 </g>
</svg>
