<?xml version="1.0" encoding="UTF-8"?>
<!DOCTYPE svg PUBLIC "-//W3C//DTD SVG 1.1//EN" "http://www.w3.org/Graphics/SVG/1.1/DTD/svg11.dtd">
<!-- Creator: CorelDRAW 2017 -->
<svg xmlns="http://www.w3.org/2000/svg" xml:space="preserve" width="825px" height="536px" version="1.1" style="shape-rendering:geometricPrecision; text-rendering:geometricPrecision; image-rendering:optimizeQuality; fill-rule:evenodd; clip-rule:evenodd"
viewBox="0 0 37.3 24.22"
 xmlns:xlink="http://www.w3.org/1999/xlink">
 <defs>
  <style type="text/css">
   <![CDATA[
    .fil2 {fill:none}
    .fil0 {fill:#FFCC99}
    .fil1 {fill:white;fill-rule:nonzero;fill-opacity:0.501961}
   ]]>
  </style>
   <clipPath id="id0">
    <path d="M0 0l37.3 0 0 24.22 -37.3 0 0 -24.22z"/>
   </clipPath>
 </defs>
 <g id="Слой_x0020_1">
  <metadata id="CorelCorpID_0Corel-Layer"/>
  <polygon class="fil0" points="0,0 37.3,0 37.3,24.22 0,24.22 "/>
  <g style="clip-path:url(#id0)">
   <g id="_2227377553600">
    <path id="1" class="fil1" d="M7.64 3.45l5.08 2.93 0.01 0 5.5 3.18 0 12.7 -5.5 3.18 -0.01 0 -5.5 3.17 -5.5 -3.17 0 0 -5.5 -3.18 0 -12.7 11 -6.36 0.42 0.25zm3.03 16.81l-3.45 -1.99 -3.44 1.99 0 2.68 0.55 0.32 0.54 -0.32 0 -1.54 1.81 1.04 0 2.17 0.54 0.32 0.55 -0.32 0 -2.17 1.8 -1.04 0 1.54 0.55 0.32 0.55 -0.32 0 -2.68zm-0.22 -3.47l0 -7.62 3.12 1.79 0 7.63 2.96 1.71 0 -9.77 -4.65 -2.69 0 0 -3.81 -2.2 0 9.78 2.38 1.37zm-6.19 -2.99l0 -1.95 -1.62 0.93 0 1.95 1.62 -0.93zm0 -4.41l-1.62 0.94 0 1.95 1.62 -0.94 0 -1.95zm-2.03 5.58l0 -1.95 -1.61 0.93 0 1.95 1.61 -0.93zm0 -4.41l-1.61 0.94 0 1.95 1.61 -0.94 0 -1.95zm13.46 11.21l-8.47 -4.89 -8.46 4.89 3.81 2.2 0 0 4.65 2.69 4.66 -2.69 0 0 3.81 -2.2zm-17.78 -1.47l8.47 -4.88 0 -9.78 -8.47 4.89 0 9.77z"/>
   </g>
  </g>
  <polygon class="fil2" points="0,0 37.3,0 37.3,24.22 0,24.22 "/>
 </g>
</svg>
