<?xml version="1.0" encoding="UTF-8"?>
<!DOCTYPE svg PUBLIC "-//W3C//DTD SVG 1.1//EN" "http://www.w3.org/Graphics/SVG/1.1/DTD/svg11.dtd">
<!-- Creator: CorelDRAW 2017 -->
<svg xmlns="http://www.w3.org/2000/svg" xml:space="preserve" width="57.9515mm" height="10.7405mm" version="1.1" shape-rendering="geometricPrecision" text-rendering="geometricPrecision" image-rendering="optimizeQuality" fill-rule="evenodd" clip-rule="evenodd"
viewBox="0 0 203617 37738"
 xmlns:xlink="http://www.w3.org/1999/xlink">
 <g id="Слой_x0020_1">
  <metadata id="CorelCorpID_0Corel-Layer"/>
  <path fill="white" fill-rule="nonzero" d="M178124 5909l2405 0 0 10391 -2405 0 0 -10391zm-164734 19215c0,2319 940,4419 2460,5939 1520,1520 3620,2460 5939,2460 2319,0 4419,-940 5939,-2460 1520,-1520 2460,-3620 2460,-5939l0 -10545 -8398 -14580 -4658 8067 0 3726 4655 -8063 6529 11308 0 10087c0,1802 -730,3435 -1912,4616 -1181,1181 -2813,1912 -4616,1912 -1802,0 -3435,-731 -4615,-1912 -1181,-1181 -1912,-2813 -1912,-4616 0,-4606 0,-9211 0,-13816 -5087,8810 -10174,17618 -15261,26430l43575 0c-3839,-6650 -7678,-13302 -11517,-19952l0 3730 8286 14351 -37109 0 10155 -17592 0 6850zm190227 3475c0,52 -5,120 -14,204l-3032 0c42,329 187,593 434,793 247,200 553,300 920,300 447,0 806,-151 1079,-451l374 437c-169,197 -380,348 -631,451 -252,103 -532,155 -843,155 -395,0 -745,-81 -1051,-243 -305,-162 -542,-389 -709,-681 -167,-291 -250,-620 -250,-987 0,-362 81,-689 243,-980 162,-292 386,-518 670,-681 284,-162 605,-243 963,-243 357,0 676,81 955,243 280,162 498,389 656,681 157,291 236,625 236,1001zm-1847 -1354c-325,0 -596,99 -815,296 -219,197 -346,456 -384,776l2397 0c-38,-315 -165,-572 -384,-772 -219,-200 -490,-300 -814,-300zm-4986 92c117,-216 291,-381 522,-494 230,-113 510,-169 839,-169l0 656c-38,-5 -89,-7 -155,-7 -367,0 -655,109 -864,328 -209,219 -314,530 -314,935l0 1861 -677 0 0 -3737 649 0 0 628zm-3237 -628l0 3737 -642 0 0 -564c-136,193 -316,342 -540,448 -223,106 -467,158 -730,158 -498,0 -891,-137 -1178,-412 -287,-275 -430,-680 -430,-1216l0 -2151 677 0 0 2073c0,362 87,636 261,822 174,186 423,278 748,278 357,0 639,-108 846,-324 207,-216 310,-522 310,-917l0 -1932 677 0zm-5600 3519c-99,85 -221,149 -366,194 -146,45 -296,67 -451,67 -376,0 -668,-101 -875,-303 -207,-202 -310,-491 -310,-867l0 -2052 -635 0 0 -557 635 0 0 -818 677 0 0 818 1072 0 0 557 -1072 0 0 2024c0,202 51,357 152,465 101,108 246,162 434,162 207,0 383,-59 529,-176l212 487zm-5458 -5014l677 0 0 5232 -677 0 0 -5232zm-2588 1495l0 3737 -642 0 0 -564c-136,193 -316,342 -540,448 -223,106 -467,158 -730,158 -498,0 -891,-137 -1178,-412 -287,-275 -430,-680 -430,-1216l0 -2151 677 0 0 2073c0,362 87,636 261,822 174,186 423,278 748,278 357,0 639,-108 846,-324 207,-216 310,-522 310,-917l0 -1932 677 0zm-7179 3780c-381,0 -721,-82 -1019,-247 -298,-164 -532,-391 -702,-681 -169,-289 -254,-617 -254,-984 0,-366 85,-694 254,-983 169,-289 403,-515 702,-677 299,-162 638,-243 1019,-243 338,0 641,68 906,204 266,136 471,334 617,592l-515 332c-118,-179 -264,-313 -437,-402 -174,-89 -366,-134 -578,-134 -244,0 -464,54 -659,162 -195,108 -348,262 -459,462 -110,200 -165,429 -165,687 0,264 55,495 165,695 111,200 264,354 459,462 195,108 415,162 659,162 212,0 404,-45 578,-134 174,-89 320,-223 437,-402l515 324c-146,259 -351,457 -617,596 -266,139 -568,208 -906,208zm-10586 -5275l677 0 0 5232 -677 0 0 -5232zm-4154 1460c517,0 913,127 1188,381 275,254 412,632 412,1136l0 2256 -642 0 0 -494c-113,174 -274,307 -483,398 -209,92 -457,137 -744,137 -418,0 -753,-101 -1005,-303 -252,-202 -377,-468 -377,-797 0,-329 120,-593 359,-793 240,-200 620,-300 1142,-300l1072 0 0 -134c0,-291 -85,-515 -254,-670 -169,-155 -418,-233 -748,-233 -221,0 -437,37 -649,109 -212,73 -390,170 -536,293l-282 -508c193,-155 423,-274 691,-356 268,-82 553,-123 853,-123zm-155 3293c259,0 482,-58 670,-173 188,-115 324,-279 409,-490l0 -522 -1044 0c-574,0 -860,193 -860,578 0,188 73,336 219,444 146,108 348,162 606,162zm-3794 -3258l0 3737 -642 0 0 -564c-136,193 -316,342 -540,448 -223,106 -467,158 -730,158 -498,0 -891,-137 -1178,-412 -287,-275 -430,-680 -430,-1216l0 -2151 677 0 0 2073c0,362 87,636 261,822 174,186 423,278 748,278 357,0 639,-108 846,-324 207,-216 310,-522 310,-917l0 -1932 677 0zm-7243 3780c-306,0 -599,-41 -882,-123 -282,-82 -503,-187 -663,-314l282 -536c165,117 364,212 599,282 235,70 473,106 713,106 592,0 888,-169 888,-508 0,-113 -40,-202 -120,-268 -80,-66 -180,-114 -300,-145 -120,-30 -290,-65 -511,-102 -301,-47 -546,-101 -737,-162 -190,-61 -354,-164 -490,-310 -136,-146 -204,-350 -204,-613 0,-339 141,-610 423,-814 282,-204 661,-307 1135,-307 249,0 499,31 748,91 249,61 454,144 613,247l-289 536c-306,-197 -665,-296 -1079,-296 -287,0 -505,47 -656,141 -150,94 -226,219 -226,373 0,122 42,219 127,289 85,71 189,122 314,155 124,33 300,71 525,113 301,52 544,107 730,166 186,59 344,158 476,300 132,141 197,338 197,592 0,339 -144,608 -434,807 -289,200 -683,300 -1181,300zm-4338 -3780l677 0 0 3737 -677 0 0 -3737zm339 -719c-132,0 -241,-43 -328,-127 -87,-84 -130,-188 -130,-310 0,-122 44,-227 130,-314 87,-87 196,-130 328,-130 131,0 241,41 328,123 87,82 130,184 130,307 0,127 -43,234 -130,321 -87,87 -196,131 -328,131zm-2271 719l-1636 3737 -691 0 -1636 -3737 705 0 1284 2997 1312 -2997 663 0zm-12539 628c117,-216 291,-381 522,-494 230,-113 510,-169 839,-169l0 656c-38,-5 -89,-7 -155,-7 -367,0 -655,109 -864,328 -209,219 -314,530 -314,935l0 1861 -677 0 0 -3737 649 0 0 628zm-2885 1262c0,52 -5,120 -14,204l-3032 0c42,329 187,593 434,793 247,200 553,300 920,300 447,0 806,-151 1079,-451l374 437c-169,197 -380,348 -631,451 -252,103 -532,155 -843,155 -395,0 -745,-81 -1051,-243 -305,-162 -542,-389 -709,-681 -167,-291 -250,-620 -250,-987 0,-362 81,-689 243,-980 162,-292 386,-518 670,-681 284,-162 605,-243 963,-243 357,0 676,81 955,243 280,162 498,389 656,681 157,291 236,625 236,1001zm-1847 -1354c-325,0 -596,99 -815,296 -219,197 -346,456 -384,776l2397 0c-38,-315 -165,-572 -384,-772 -219,-200 -490,-300 -814,-300zm-5656 -571c475,0 852,137 1132,412 280,275 420,678 420,1209l0 2151 -677 0 0 -2073c0,-362 -87,-635 -261,-818 -174,-183 -423,-275 -747,-275 -367,0 -656,107 -868,321 -212,214 -317,521 -317,920l0 1925 -677 0 0 -5232 677 0 0 2024c141,-178 326,-317 554,-416 228,-99 483,-148 765,-148zm-4112 3554c-99,85 -221,149 -366,194 -146,45 -296,67 -451,67 -376,0 -668,-101 -875,-303 -207,-202 -310,-491 -310,-867l0 -2052 -635 0 0 -557 635 0 0 -818 677 0 0 818 1072 0 0 557 -1072 0 0 2024c0,202 51,357 152,465 101,108 246,162 434,162 207,0 383,-59 529,-176l212 487zm-6276 261c-371,0 -705,-82 -1001,-247 -296,-164 -528,-391 -695,-681 -167,-289 -250,-617 -250,-984 0,-366 83,-694 250,-983 167,-289 398,-515 695,-677 296,-162 630,-243 1001,-243 371,0 704,81 998,243 294,162 524,388 691,677 167,289 251,617 251,983 0,367 -84,695 -251,984 -167,289 -397,516 -691,681 -294,164 -626,247 -998,247zm0 -592c240,0 455,-56 645,-166 190,-111 339,-266 448,-466 108,-200 162,-429 162,-688 0,-258 -54,-488 -162,-687 -108,-200 -257,-354 -448,-462 -190,-108 -405,-162 -645,-162 -240,0 -455,54 -645,162 -190,108 -341,262 -451,462 -110,200 -165,429 -165,687 0,259 55,488 165,688 111,200 261,355 451,466 190,110 405,166 645,166zm-5726 -3223c475,0 852,137 1132,412 280,275 420,678 420,1209l0 2151 -677 0 0 -2073c0,-362 -87,-635 -261,-818 -174,-183 -423,-275 -747,-275 -367,0 -656,107 -868,321 -212,214 -317,521 -317,920l0 1925 -677 0 0 -3737 649 0 0 564c136,-193 321,-341 553,-444 233,-103 497,-155 793,-155zm-6149 0c517,0 913,127 1188,381 275,254 412,632 412,1136l0 2256 -642 0 0 -494c-113,174 -274,307 -483,398 -209,92 -457,137 -744,137 -418,0 -753,-101 -1005,-303 -252,-202 -377,-468 -377,-797 0,-329 120,-593 359,-793 240,-200 620,-300 1142,-300l1072 0 0 -134c0,-291 -85,-515 -254,-670 -169,-155 -418,-233 -748,-233 -221,0 -437,37 -649,109 -212,73 -390,170 -536,293l-282 -508c193,-155 423,-274 691,-356 268,-82 553,-123 853,-123zm-155 3293c259,0 482,-58 670,-173 188,-115 324,-279 409,-490l0 -522 -1044 0c-574,0 -860,193 -860,578 0,188 73,336 219,444 146,108 348,162 606,162zm-9485 -3258l0 3230c0,654 -162,1137 -487,1449 -324,313 -808,469 -1453,469 -353,0 -689,-48 -1008,-144 -320,-97 -578,-234 -776,-413l324 -522c174,150 389,269 645,356 256,87 520,130 793,130 437,0 761,-103 970,-310 209,-207 314,-522 314,-945l0 -296c-160,193 -356,337 -589,434 -233,96 -485,144 -758,144 -357,0 -681,-76 -970,-229 -289,-153 -516,-366 -681,-642 -164,-275 -247,-589 -247,-942 0,-352 82,-666 247,-941 165,-275 391,-488 681,-638 289,-150 612,-226 970,-226 282,0 544,52 786,155 242,103 441,256 596,459l0 -578 642 0zm-1946 2990c244,0 464,-52 659,-155 195,-103 348,-248 459,-434 110,-186 165,-396 165,-631 0,-362 -120,-655 -359,-878 -240,-223 -548,-335 -924,-335 -381,0 -691,112 -931,335 -240,223 -359,516 -359,878 0,235 55,446 165,631 111,186 264,330 459,434 195,103 417,155 667,155zm-5755 -3025c475,0 852,137 1132,412 280,275 420,678 420,1209l0 2151 -677 0 0 -2073c0,-362 -87,-635 -261,-818 -174,-183 -423,-275 -747,-275 -367,0 -656,107 -868,321 -212,214 -317,521 -317,920l0 1925 -677 0 0 -3737 649 0 0 564c136,-193 321,-341 553,-444 233,-103 497,-155 793,-155zm-5261 35l677 0 0 3737 -677 0 0 -3737zm339 -719c-132,0 -241,-43 -328,-127 -87,-84 -130,-188 -130,-310 0,-122 44,-227 130,-314 87,-87 196,-130 328,-130 131,0 241,41 328,123 87,82 130,184 130,307 0,127 -43,234 -130,321 -87,87 -196,131 -328,131zm-2455 4238c-99,85 -221,149 -366,194 -146,45 -296,67 -451,67 -376,0 -668,-101 -875,-303 -207,-202 -310,-491 -310,-867l0 -2052 -635 0 0 -557 635 0 0 -818 677 0 0 818 1072 0 0 557 -1072 0 0 2024c0,202 51,357 152,465 101,108 246,162 434,162 207,0 383,-59 529,-176l212 487zm-6255 -3554c517,0 913,127 1188,381 275,254 412,632 412,1136l0 2256 -642 0 0 -494c-113,174 -274,307 -483,398 -209,92 -457,137 -744,137 -418,0 -753,-101 -1005,-303 -252,-202 -377,-468 -377,-797 0,-329 120,-593 359,-793 240,-200 620,-300 1142,-300l1072 0 0 -134c0,-291 -85,-515 -254,-670 -169,-155 -418,-233 -748,-233 -221,0 -437,37 -649,109 -212,73 -390,170 -536,293l-282 -508c193,-155 423,-274 691,-356 268,-82 553,-123 853,-123zm-155 3293c259,0 482,-58 670,-173 188,-115 324,-279 409,-490l0 -522 -1044 0c-574,0 -860,193 -860,578 0,188 73,336 219,444 146,108 348,162 606,162zm-3336 -1368c0,52 -5,120 -14,204l-3032 0c42,329 187,593 434,793 247,200 553,300 920,300 447,0 806,-151 1079,-451l374 437c-169,197 -380,348 -631,451 -252,103 -532,155 -843,155 -395,0 -745,-81 -1051,-243 -305,-162 -542,-389 -709,-681 -167,-291 -250,-620 -250,-987 0,-362 81,-689 243,-980 162,-292 386,-518 670,-681 284,-162 605,-243 963,-243 357,0 676,81 955,243 280,162 498,389 656,681 157,291 236,625 236,1001zm-1847 -1354c-325,0 -596,99 -815,296 -219,197 -346,456 -384,776l2397 0c-38,-315 -165,-572 -384,-772 -219,-200 -490,-300 -814,-300zm-4986 92c117,-216 291,-381 522,-494 230,-113 510,-169 839,-169l0 656c-38,-5 -89,-7 -155,-7 -367,0 -655,109 -864,328 -209,219 -314,530 -314,935l0 1861 -677 0 0 -3737 649 0 0 628zm-4344 3152c-381,0 -721,-82 -1019,-247 -298,-164 -532,-391 -702,-681 -169,-289 -254,-617 -254,-984 0,-366 85,-694 254,-983 169,-289 403,-515 702,-677 299,-162 638,-243 1019,-243 338,0 641,68 906,204 266,136 471,334 617,592l-515 332c-118,-179 -264,-313 -437,-402 -174,-89 -366,-134 -578,-134 -244,0 -464,54 -659,162 -195,108 -348,262 -459,462 -110,200 -165,429 -165,687 0,264 55,495 165,695 111,200 264,354 459,462 195,108 415,162 659,162 212,0 404,-45 578,-134 174,-89 320,-223 437,-402l515 324c-146,259 -351,457 -617,596 -266,139 -568,208 -906,208zm148093 -22620l0 8432 2405 0 0 -8432 3325 0 0 -1960 -9055 0 0 1960 3325 0zm-100698 0l0 8432 2405 0 0 -8432 3325 0 0 -1960 -9055 0 0 1960 3325 0zm-23145 0l1960 0c722,0 1272,156 1648,468 376,312 564,759 564,1343 0,574 -188,1019 -564,1336 -376,317 -925,475 -1648,475l-1075 0c1111,1603 2221,3206 3332,4810l2583 0 -2331 -3340c683,-297 1210,-725 1581,-1284 371,-559 557,-1225 557,-1997 0,-772 -183,-1440 -549,-2004 -366,-564 -888,-999 -1566,-1306 -678,-307 -1477,-460 -2397,-460l-4498 0 0 10391 2405 0c0,-2811 0,-5621 0,-8432zm-21972 401c1113,2675 2219,5353 3325,8031l2524 0 -4646 -10391 -2375 0 -4631 10391c821,0 1643,0 2464,0 1105,-2673 2216,-5347 3340,-8031zm81814 8209c-1484,0 -2640,-411 -3466,-1232 -826,-821 -1239,-1994 -1239,-3518l0 -5819 2405 0 0 5730c0,1860 772,2790 2316,2790 752,0 1326,-225 1722,-675 396,-450 594,-1155 594,-2115l0 -5730 2375 0 0 5819c0,1524 -413,2697 -1240,3518 -826,821 -1982,1232 -3466,1232zm29246 -10569l0 10391 -1974 0 -5180 -6309 0 6309 -2375 0 0 -10391 1989 0 5166 6309 0 -6309 2375 0z"/>
 </g>
</svg>
