<?xml version="1.0" encoding="utf-8"?>
<!-- Generator: Adobe Illustrator 25.4.1, SVG Export Plug-In . SVG Version: 6.00 Build 0)  -->
<svg version="1.1"
	 id="Layer_1" shape-rendering="geometricPrecision" text-rendering="geometricPrecision" image-rendering="optimizeQuality"
	 xmlns="http://www.w3.org/2000/svg" xmlns:xlink="http://www.w3.org/1999/xlink" x="0px" y="0px" viewBox="0 0 9 9"
	 style="enable-background:new 0 0 9 9;" xml:space="preserve">
<style type="text/css">
	.st0{fill:#FFFFFF;}
	.st1{fill-rule:evenodd;clip-rule:evenodd;fill:#FFFFFF;}
</style>
<g id="Слой_x0020_1">
	<g id="_2227204298048">
		<g>
			<path class="st0" d="M7,2.4l-1.4-1l0.1-0.2l1.4,1l0,0L7,2.4z M7.8,5.7L7.6,5.6l0,0l0.1-0.1l0.1-0.1l0.1-0.1l0-0.1l0-0.1l0-0.1
				l0-0.1l0-0.1l0-0.1l0-0.1l0-0.1V4.3V4.2V4.1l0-0.1l0-0.1l0-0.1l0-0.1l0-0.1l0-0.1l0-0.1l0-0.1L7.7,3.1L7.6,3L7.6,2.9L7.5,2.8
				L7.4,2.7L7.4,2.7L7.3,2.6L7.2,2.5L7.1,2.4L7,2.4l0.1-0.2l0.1,0.1l0.1,0.1l0.1,0.1l0.1,0.1l0.1,0.1l0.1,0.1l0.1,0.1l0.1,0.1L7.9,3
				L8,3.1L8,3.2l0,0.1l0,0.1l0,0.1l0,0.1l0,0.1l0,0.1l0,0.1v0.1v0.1v0.1l0,0.1l0,0.1l0,0.1l0,0.1l0,0.1l0,0.1l0,0.1L8,5.3L7.9,5.4
				L7.8,5.5L7.8,5.7L7.8,5.7L7.8,5.7z M6.6,7l1-1.4l0.2,0.1l-1,1.4l0,0L6.6,7z M3.3,7.8l0.1-0.2l0,0l0.1,0.1l0.1,0.1l0.1,0.1l0.1,0
				l0.1,0l0.1,0l0.1,0l0.1,0l0.1,0l0.1,0l0.1,0h0.1h0.1h0.1L5,8l0.1,0l0.1,0l0.1,0l0.1,0l0.1,0l0.1,0l0.1,0l0.1-0.1L6,7.6l0.1-0.1
				l0.1-0.1l0.1-0.1l0.1-0.1l0.1-0.1l0.1-0.1l0.1-0.1L6.6,7l0.2,0.1L6.8,7.3L6.7,7.4L6.6,7.5L6.5,7.5L6.4,7.6L6.3,7.7L6.2,7.8
				L6.1,7.8L6,7.9L5.9,8L5.8,8l-0.1,0l-0.1,0l-0.1,0l-0.1,0l-0.1,0l-0.1,0L5,8.2H4.8H4.7H4.6l-0.1,0l-0.1,0l-0.1,0l-0.1,0L4,8.1
				l-0.1,0L3.8,8L3.7,8L3.6,7.9L3.4,7.8L3.3,7.8L3.3,7.8L3.3,7.8z M2,6.6l1.4,1L3.3,7.8l-1.4-1l0,0L2,6.6z M1.2,3.3l0.2,0.1l0,0
				L1.3,3.5L1.3,3.6L1.2,3.7l0,0.1l0,0.1l0,0.1l0,0.1l0,0.1l0,0.1l0,0.1l0,0.1v0.1v0.1v0.1L1,5l0,0.1l0,0.1l0,0.1l0,0.1l0,0.1l0,0.1
				l0,0.1l0.1,0.1L1.3,6L1.4,6l0.1,0.1l0.1,0.1l0.1,0.1l0.1,0.1l0.1,0.1l0.1,0.1L2,6.6L1.8,6.8L1.7,6.7L1.6,6.7L1.5,6.6L1.4,6.5
				L1.4,6.4L1.3,6.3L1.2,6.2L1.1,6.1L1.1,6L1,5.9L1,5.7l0-0.1l0-0.1l0-0.1l0-0.1l0-0.1l0-0.1l0-0.1V4.8V4.7V4.6l0-0.1l0-0.1l0-0.1
				l0-0.1l0-0.1l0-0.1l0-0.1L1,3.7l0.1-0.1l0.1-0.1L1.2,3.3L1.2,3.3L1.2,3.3z M2.4,2l-1,1.4L1.2,3.3l1-1.4L2.4,2z M5.7,1.2L5.6,1.4
				l0,0L5.5,1.3L5.4,1.3L5.3,1.2l-0.1,0l-0.1,0L5,1.1l-0.1,0L4.8,1L4.6,1L4.5,1L4.4,1H4.3H4.2H4.1L3.9,1L3.8,1L3.7,1l-0.1,0l-0.1,0
				l-0.1,0l-0.1,0l-0.1,0L3.1,1.3L3,1.3L2.9,1.4L2.8,1.5L2.7,1.5L2.7,1.6L2.6,1.7L2.5,1.8L2.4,1.9L2.4,2L2.2,1.8l0.1-0.1l0.1-0.1
				l0.1-0.1l0.1-0.1l0.1-0.1l0.1-0.1l0.1-0.1l0.1-0.1L3,1.1L3.1,1L3.2,1l0.1,0l0.1,0l0.1,0l0.1,0l0.1,0l0.1,0l0.1,0h0.1h0.1h0.1
				l0.1,0l0.1,0l0.1,0l0.1,0l0.1,0l0.1,0l0.1,0L5.3,1l0.1,0.1l0.1,0.1L5.7,1.2L5.7,1.2L5.7,1.2z"/>
		</g>
		<g>
			<path class="st0" d="M8.5,3.8L7.6,1.9l0.2-0.1l0.9,1.9L8.5,3.8z M7.2,7.8L7.1,7.6l0,0l0.1-0.1l0.1-0.1l0.1-0.1l0.1-0.1l0.1-0.1
				l0.1-0.1L7.9,7L8,6.9l0.1-0.1l0.1-0.1l0.1-0.1l0.1-0.1l0.1-0.1l0.1-0.1l0.1-0.1l0-0.1l0-0.1l0-0.1l0-0.1l0-0.1l0-0.1l0-0.1V5.1
				V4.9l0-0.1l0-0.1l0-0.1l0-0.1l0-0.1l0-0.1L8.5,4L8.4,3.8l0.2-0.1l0.1,0.1L8.8,4l0,0.1l0,0.1l0,0.1l0,0.1l0,0.1l0,0.1V5v0.1l0,0.1
				l0,0.1l0,0.1l0,0.1l0,0.1l0,0.1L8.7,6.2L8.7,6.3L8.6,6.4L8.5,6.6L8.4,6.7L8.4,6.8L8.3,6.9L8.2,7L8.1,7.2L8,7.3L7.8,7.4L7.7,7.5
				L7.6,7.5L7.5,7.6L7.3,7.7L7.2,7.8L7.2,7.8L7.2,7.8z M5.2,8.5l1.9-0.9l0.1,0.2L5.3,8.7l0,0L5.2,8.5z M1.2,7.2l0.2-0.1l0,0l0.1,0.1
				l0.1,0.1l0.1,0.1l0.1,0.1l0.1,0.1l0.1,0.1L2,7.9L2.1,8l0.1,0.1l0.1,0.1l0.1,0.1l0.1,0.1l0.1,0.1l0.1,0.1l0.1,0.1l0.1,0l0.1,0
				l0.1,0l0.1,0l0.1,0l0.1,0l0.1,0h0.1h0.1l0.1,0l0.1,0l0.1,0l0.1,0l0.1,0l0.1,0L5,8.5l0.1-0.1l0.1,0.2L5.1,8.7L5,8.8l-0.1,0l-0.1,0
				l-0.1,0l-0.1,0l-0.1,0L4.1,9H4H3.8l-0.1,0l-0.1,0l-0.1,0l-0.1,0l-0.1,0L3,8.8L2.8,8.7L2.7,8.7L2.6,8.6L2.4,8.5L2.3,8.4L2.2,8.4
				L2.1,8.3L2,8.2L1.8,8.1L1.7,8L1.6,7.8L1.5,7.7L1.5,7.6L1.4,7.5L1.3,7.3L1.2,7.2L1.2,7.2L1.2,7.2z M0.5,5.2l0.9,1.9L1.2,7.2
				L0.3,5.3L0.5,5.2z M1.8,1.2l0.1,0.2l0,0L1.7,1.5L1.6,1.5L1.5,1.6L1.4,1.7L1.3,1.8L1.2,1.9L1.1,2L1,2.1L0.9,2.2L0.8,2.3L0.7,2.4
				L0.6,2.5L0.6,2.6L0.5,2.7L0.5,2.9l0,0.1l0,0.1l0,0.1l0,0.1l0,0.1l0,0.1l0,0.1v0.1v0.1l0,0.1l0,0.1l0,0.1l0,0.1l0,0.1l0,0.1L0.5,5
				l0.1,0.1L0.3,5.3L0.3,5.1L0.2,5l0-0.1l0-0.1l0-0.1l0-0.1l0-0.1l0-0.1V4V3.8l0-0.1l0-0.1l0-0.1l0-0.1l0-0.1l0-0.1l0.1-0.1l0.1-0.1
				l0.1-0.1l0.1-0.1l0.1-0.1l0.1-0.1l0.1-0.1l0.1-0.1l0.1-0.1L1,1.7l0.1-0.1l0.1-0.1l0.1-0.1l0.1-0.1l0.1-0.1L1.8,1.2L1.8,1.2
				L1.8,1.2z M3.8,0.5L1.9,1.4L1.8,1.2l1.9-0.9L3.8,0.5z M7.8,1.8L7.6,1.9l0,0L7.5,1.7L7.4,1.6L7.4,1.5L7.3,1.4L7.2,1.3L7.1,1.2
				L7,1.1L6.9,1L6.8,0.9L6.7,0.8L6.6,0.7L6.5,0.6L6.3,0.6L6.2,0.5L6.1,0.5L6,0.4l-0.1,0l-0.1,0l-0.1,0l-0.1,0l-0.1,0l-0.1,0H5.1H4.9
				l-0.1,0l-0.1,0l-0.1,0l-0.1,0l-0.1,0l-0.1,0L3.9,0.5L3.8,0.5L3.7,0.3l0.1-0.1L4,0.2l0.1,0l0.1,0l0.1,0l0.1,0l0.1,0l0.1,0H5h0.1
				l0.1,0l0.1,0l0.1,0l0.1,0l0.1,0l0.1,0l0.1,0.1l0.1,0.1l0.1,0.1l0.1,0.1l0.1,0.1l0.1,0.1l0.1,0.1L7,0.8l0.1,0.1L7.2,1l0.1,0.1
				l0.1,0.1l0.1,0.1l0.1,0.1l0.1,0.1L7.8,1.8L7.8,1.8L7.8,1.8z"/>
		</g>
		<path class="st1" d="M1.3,3.3l1-1.4c0.8-1.1,2.3-1.4,3.4-0.6l1.4,1c1.1,0.8,1.4,2.3,0.6,3.4l-1,1.4C5.9,8.2,4.4,8.5,3.3,7.7
			l-1.4-1C0.8,5.9,0.5,4.4,1.3,3.3z M8.6,3.8L7.7,1.8C7,0.3,5.2-0.3,3.8,0.4L1.8,1.3C0.4,2-0.3,3.7,0.4,5.2l0.9,1.9
			C2,8.6,3.8,9.3,5.2,8.6l1.9-0.9C8.6,7,9.3,5.2,8.6,3.8z"/>
	</g>
</g>
</svg>
