<?xml version="1.0" encoding="UTF-8"?>
<!DOCTYPE svg PUBLIC "-//W3C//DTD SVG 1.1//EN" "http://www.w3.org/Graphics/SVG/1.1/DTD/svg11.dtd">
<!-- Creator: CorelDRAW 2017 -->
<svg xmlns="http://www.w3.org/2000/svg" xml:space="preserve" width="4.4833mm" height="5.08mm" version="1.1" shape-rendering="geometricPrecision" text-rendering="geometricPrecision" image-rendering="optimizeQuality" fill-rule="evenodd" clip-rule="evenodd"
viewBox="0 0 1130 1281"
 xmlns:xlink="http://www.w3.org/1999/xlink">
 <g id="Слой_x0020_1">
  <metadata id="CorelCorpID_0Corel-Layer"/>
  <g id="_2227308977472">
   <path fill="white" d="M431 904c3,13 13,24 28,17 10,-4 28,-26 37,-36 3,-3 9,-10 12,-13 29,0 48,2 79,0 174,-10 252,-55 256,-245 0,-160 -38,-245 -200,-267 -25,-3 -50,-4 -75,-5 -82,-1 -198,13 -244,92 -50,90 -58,297 28,368 29,24 44,29 78,41 1,16 -1,32 1,48zm8 -419c-15,4 -38,27 -44,39 -9,19 7,49 14,64 39,76 82,132 163,173 16,8 38,21 57,27 24,8 40,-4 56,-23 5,-6 14,-16 14,-28 0,-12 -11,-19 -18,-24 -10,-8 -36,-29 -50,-34 -31,-9 -29,29 -53,28 -17,0 -46,-21 -55,-28 -14,-12 -26,-27 -36,-48 -20,-40 -4,-38 12,-53 7,-7 10,-20 4,-31 -9,-15 -24,-36 -35,-49 -6,-7 -12,-17 -27,-13zm132 64c-6,3 -10,13 6,15 10,1 17,4 23,9 5,4 9,11 11,21 1,4 1,10 2,13 2,7 20,14 13,-19 -8,-35 -45,-43 -55,-39zm97 65c0,-51 -29,-87 -72,-101 -8,-2 -48,-14 -40,5 5,10 43,-3 77,38 8,10 15,23 18,39 1,6 1,23 3,26 4,7 14,5 14,-7zm-118 -147c-7,0 -12,3 -10,10 3,9 23,3 53,12 22,6 42,19 54,31 15,15 25,27 35,50 4,11 7,22 9,34 3,17 0,34 7,36 21,6 4,-58 2,-66 -19,-61 -77,-107 -150,-107z"/>
   <rect fill="none" width="1130" height="1281"/>
  </g>
 </g>
</svg>
