<?xml version="1.0" encoding="UTF-8"?>
<!DOCTYPE svg PUBLIC "-//W3C//DTD SVG 1.1//EN" "http://www.w3.org/Graphics/SVG/1.1/DTD/svg11.dtd">
<!-- Creator: CorelDRAW 2017 -->
<svg xmlns="http://www.w3.org/2000/svg" xml:space="preserve" width="4.4833mm" height="5.08mm" version="1.1" shape-rendering="geometricPrecision" text-rendering="geometricPrecision" image-rendering="optimizeQuality" fill-rule="evenodd" clip-rule="evenodd"
viewBox="0 0 1139 1291"
 xmlns:xlink="http://www.w3.org/1999/xlink">
 <g id="Слой_x0020_1">
  <metadata id="CorelCorpID_0Corel-Layer"/>
  <g id="_2227155372176">
   <rect fill="none" width="1139" height="1291"/>
   <path fill="#6666CC" d="M435 911c3,13 13,24 29,17 10,-4 28,-27 38,-37 3,-3 9,-10 12,-13 29,0 49,2 79,0 175,-10 254,-55 258,-246 0,-161 -38,-247 -201,-269 -25,-3 -50,-5 -76,-5 -83,-1 -199,13 -246,93 -50,91 -58,299 28,371 29,24 45,30 79,41 1,17 -1,32 1,48zm8 -422c-15,4 -39,27 -45,39 -9,19 7,49 14,65 39,77 83,133 164,175 16,8 38,21 58,27 25,8 41,-4 56,-23 5,-6 14,-16 14,-28 0,-13 -11,-19 -18,-25 -10,-8 -37,-30 -51,-34 -31,-9 -30,29 -53,28 -18,0 -47,-21 -56,-29 -14,-12 -26,-27 -37,-48 -20,-41 -4,-38 12,-53 7,-7 10,-20 4,-31 -9,-16 -24,-36 -35,-50 -6,-7 -12,-17 -28,-13zm133 64c-6,3 -10,13 6,15 10,1 17,4 23,9 5,4 9,11 11,21 1,4 1,10 2,13 2,7 21,14 13,-19 -8,-35 -45,-43 -55,-39zm98 65c0,-51 -30,-88 -73,-102 -8,-2 -49,-14 -40,5 5,10 43,-3 78,38 8,10 15,23 18,40 1,6 1,23 3,26 4,7 15,5 15,-7zm-119 -148c-7,0 -12,3 -10,10 3,9 23,3 53,12 22,7 42,19 55,31 15,15 26,28 35,51 4,11 7,22 9,34 3,17 0,34 7,36 22,6 4,-59 2,-67 -19,-61 -78,-108 -151,-108z"/>
  </g>
 </g>
</svg>
