<?xml version="1.0" encoding="UTF-8"?>
<!DOCTYPE svg PUBLIC "-//W3C//DTD SVG 1.1//EN" "http://www.w3.org/Graphics/SVG/1.1/DTD/svg11.dtd">
<!-- Creator: CorelDRAW 2017 -->
<svg xmlns="http://www.w3.org/2000/svg" xml:space="preserve" width="4.4833mm" height="5.08mm" version="1.1" shape-rendering="geometricPrecision" text-rendering="geometricPrecision" image-rendering="optimizeQuality" fill-rule="evenodd" clip-rule="evenodd"
viewBox="0 0 1130 1281"
 xmlns:xlink="http://www.w3.org/1999/xlink">
 <g id="Слой_x0020_1">
  <metadata id="CorelCorpID_0Corel-Layer"/>
  <g id="_2227009249792">
   <path fill="white" d="M917 803c-17,-33 -49,-62 -75,-88 -8,-8 -19,-17 -27,-27 -10,-13 -15,-21 -5,-39 13,-23 67,-86 91,-126 7,-11 14,-23 18,-36 6,-19 4,-29 -16,-32 -8,-1 -19,0 -27,0 -9,0 -18,0 -27,0 -18,0 -36,0 -54,0 -6,0 -21,-1 -26,0 -13,3 -17,20 -22,32 -15,34 -27,59 -47,89 -10,15 -34,52 -51,57 -8,2 -14,-4 -17,-9 -4,-7 -5,-13 -6,-22 -2,-16 1,-85 1,-105 1,-17 1,-36 -7,-47 -13,-17 -66,-15 -93,-15 -14,0 -24,1 -38,2 -9,1 -23,5 -30,10 -4,3 -12,10 -11,15 2,1 8,2 11,2 29,7 32,34 33,62 1,28 3,78 -9,98 -17,28 -49,-22 -58,-35 -23,-35 -40,-67 -57,-105 -6,-15 -8,-26 -23,-31 -11,-4 -38,-2 -52,-2 -18,0 -36,0 -54,0 -18,0 -32,5 -24,25 5,13 11,25 17,37 14,31 55,108 76,140 8,12 14,22 21,33 18,28 49,67 75,88 21,18 40,31 66,42 25,11 57,20 89,20 25,0 59,6 67,-15 4,-10 0,-46 14,-67 23,-34 56,16 76,36 13,14 25,28 43,38 15,8 25,9 45,8 17,-1 36,-1 53,-1 16,0 38,1 50,-4 15,-7 20,-17 12,-34z"/>
   <rect fill="none" width="1130" height="1281"/>
  </g>
 </g>
</svg>
