<?xml version="1.0" encoding="UTF-8"?>
<!DOCTYPE svg PUBLIC "-//W3C//DTD SVG 1.1//EN" "http://www.w3.org/Graphics/SVG/1.1/DTD/svg11.dtd">
<!-- Creator: CorelDRAW 2017 -->
<svg xmlns="http://www.w3.org/2000/svg" xml:space="preserve" width="4.4833mm" height="5.08mm" version="1.1" shape-rendering="geometricPrecision" text-rendering="geometricPrecision" image-rendering="optimizeQuality" fill-rule="evenodd" clip-rule="evenodd"
viewBox="0 0 1139 1291"
 xmlns:xlink="http://www.w3.org/1999/xlink">
 <g id="Слой_x0020_1">
  <metadata id="CorelCorpID_0Corel-Layer"/>
  <g id="_2227181698624">
   <rect fill="none" width="1139" height="1291"/>
   <path fill="#9999FF" d="M924 809c-17,-34 -49,-63 -76,-88 -8,-8 -19,-17 -27,-27 -10,-13 -15,-21 -6,-40 13,-24 67,-87 91,-127 7,-11 14,-24 18,-36 6,-20 4,-29 -16,-32 -8,-1 -19,0 -27,0 -9,0 -18,0 -27,0 -18,0 -37,0 -55,0 -6,0 -22,-1 -27,0 -13,3 -17,20 -22,32 -15,34 -27,59 -47,90 -10,15 -34,52 -52,57 -8,2 -14,-4 -17,-9 -4,-7 -5,-13 -6,-22 -2,-16 1,-86 1,-106 1,-17 1,-36 -7,-47 -13,-17 -67,-15 -94,-15 -14,0 -25,1 -38,2 -10,1 -23,5 -31,10 -4,3 -12,10 -12,16 2,1 8,2 11,2 29,7 33,35 33,63 1,28 3,79 -9,99 -17,28 -50,-22 -59,-35 -24,-35 -41,-67 -58,-106 -6,-15 -8,-26 -24,-31 -11,-4 -39,-2 -52,-2 -18,0 -37,0 -55,0 -18,0 -32,5 -24,26 5,13 11,25 17,38 14,31 55,109 77,142 8,12 14,22 22,33 18,28 50,68 75,89 21,18 40,31 67,42 25,11 57,20 90,20 25,0 59,6 67,-15 4,-11 0,-46 14,-67 23,-34 57,16 76,37 13,14 25,29 43,38 16,8 26,10 46,8 17,-1 36,-1 54,-1 16,0 39,1 51,-4 15,-7 20,-17 12,-34z"/>
  </g>
 </g>
</svg>
