<?xml version="1.0" encoding="UTF-8"?>
<!DOCTYPE svg PUBLIC "-//W3C//DTD SVG 1.1//EN" "http://www.w3.org/Graphics/SVG/1.1/DTD/svg11.dtd">
<!-- Creator: CorelDRAW 2017 -->
<svg xmlns="http://www.w3.org/2000/svg" xml:space="preserve" width="4.4833mm" height="5.08mm" version="1.1" shape-rendering="geometricPrecision" text-rendering="geometricPrecision" image-rendering="optimizeQuality" fill-rule="evenodd" clip-rule="evenodd"
viewBox="0 0 1139 1291"
 xmlns:xlink="http://www.w3.org/1999/xlink">
 <g id="Слой_x0020_1">
  <metadata id="CorelCorpID_0Corel-Layer"/>
  <g id="_2227170311024">
   <rect fill="none" width="1139" height="1291"/>
   <path fill="#33CC33" d="M586 371l-23 0c-4,2 -19,2 -24,3 -106,13 -192,91 -221,195 -18,65 -8,131 17,185 12,25 14,15 6,39 -3,10 -41,120 -42,124 12,-2 119,-37 133,-42 18,-6 10,-5 31,4 11,5 20,9 32,12 126,39 246,-21 304,-112 52,-82 55,-190 5,-275 -20,-35 -52,-69 -86,-90 -74,-46 -123,-39 -133,-43zm-54 219c4,-8 -3,-21 -6,-28 -4,-8 -7,-16 -10,-25 -3,-9 -6,-18 -15,-20 -22,-4 -37,6 -47,23 -4,8 -8,16 -9,26 -3,23 4,42 12,58 8,16 18,30 28,42 33,42 68,69 123,88 29,10 56,14 83,-7 7,-6 11,-10 15,-20 11,-32 0,-31 -21,-42 -8,-4 -16,-7 -24,-11 -11,-5 -17,-8 -25,1 -15,18 -15,34 -41,23 -33,-15 -56,-36 -76,-65 -6,-9 -11,-14 -2,-24 4,-4 13,-13 16,-19z"/>
  </g>
 </g>
</svg>
