<?xml version="1.0" encoding="utf-8"?>
<!-- Generator: Adobe Illustrator 25.4.1, SVG Export Plug-In . SVG Version: 6.00 Build 0)  -->
<svg version="1.1"
	 id="Layer_1" text-rendering="geometricPrecision" shape-rendering="geometricPrecision" image-rendering="optimizeQuality"
	 xmlns="http://www.w3.org/2000/svg" xmlns:xlink="http://www.w3.org/1999/xlink" x="0px" y="0px" viewBox="0 0 24 24"
	 style="enable-background:new 0 0 24 24;" xml:space="preserve">
<style type="text/css">
	.st0{fill-rule:evenodd;clip-rule:evenodd;fill:#FFFFFF;}
</style>
<path class="st0" d="M3.2,8.7L6,4.9c2.2-3,6.3-3.8,9.3-1.6L19.1,6c3,2.2,3.8,6.3,1.6,9.3L18,19.1c-2.2,3-6.3,3.8-9.3,1.6L4.9,18
	C1.9,15.8,1.1,11.7,3.2,8.7z M23.2,10.1l-2.5-5.5c-1.9-4.1-6.8-5.7-10.7-3.8L4.6,3.3C0.8,5.2-1.1,9.8,0.8,13.9l2.5,5.2
	c1.9,4.1,6.8,6,10.7,4.1l5.2-2.5C23.2,18.9,25.1,13.9,23.2,10.1z"/>
</svg>
